<?xml version="1.0" encoding="UTF-8"?>
<!DOCTYPE svg PUBLIC "-//W3C//DTD SVG 1.1//EN" "http://www.w3.org/Graphics/SVG/1.1/DTD/svg11.dtd">
<svg xmlns="http://www.w3.org/2000/svg" version="1.1" width="8001px" height="8000px" style="shape-rendering:geometricPrecision; text-rendering:geometricPrecision; image-rendering:optimizeQuality; fill-rule:evenodd; clip-rule:evenodd" xmlns:xlink="http://www.w3.org/1999/xlink">
<g><path style="opacity:0.961" fill="#2b3a00" d="M 5248.5,2045.5 C 5633,2037.08 5983.33,2140.92 6299.5,2357C 6606.31,2573.55 6823.81,2858.71 6952,3212.5C 7049.08,3493.07 7074.74,3780.07 7029,4073.5C 6975.33,4393.75 6845,4677.41 6638,4924.5C 6387.87,5216.25 6075.04,5407.75 5699.5,5499C 5389.14,5568.99 5081.81,5557.65 4777.5,5465C 4468.51,5365.67 4206.35,5195.51 3991,4954.5C 3734.8,4661.24 3590.13,4319.24 3557,3928.5C 3532.25,3581.24 3602.91,3254.91 3769,2949.5C 3940.31,2643.94 4180.48,2408.78 4489.5,2244C 4727.45,2120.29 4980.45,2054.13 5248.5,2045.5 Z M 5254.5,2069.5 C 5663.28,2062.82 6029.61,2182.32 6353.5,2428C 6627.93,2642.2 6822.26,2914.2 6936.5,3244C 7037.09,3547.62 7053.59,3855.79 6986,4168.5C 6907.07,4509.99 6742.24,4801.49 6491.5,5043C 6230.6,5289.61 5921.6,5441.94 5564.5,5500C 5259.27,5545.6 4962.6,5513.27 4674.5,5403C 4382.15,5286.43 4138.31,5104.93 3943,4858.5C 3713.5,4562.09 3591.5,4225.42 3577,3848.5C 3567.97,3445.3 3682.64,3082.3 3921,2759.5C 4102.75,2520.74 4330.25,2339.57 4603.5,2216C 4811.04,2124.99 5028.04,2076.16 5254.5,2069.5 Z M 4886.5,2588.5 C 5010.13,2686.95 5133.63,2785.62 5257,2884.5C 5257.67,3003.83 5257.67,3123.17 5257,3242.5C 5108.26,3350.79 4959.42,3458.96 4810.5,3567C 4695.66,3544.6 4580.99,3521.1 4466.5,3496.5C 4403,3346.83 4339.5,3197.17 4276,3047.5C 4275.33,3046.17 4275.33,3044.83 4276,3043.5C 4432.81,2829.57 4636.31,2677.9 4886.5,2588.5 Z M 5731.5,2595.5 C 5760.01,2604.92 5788.01,2615.75 5815.5,2628C 6023.45,2722.27 6194.62,2861.77 6329,3046.5C 6329.67,3047.83 6329.67,3049.17 6329,3050.5C 6272.69,3199.09 6216.19,3347.59 6159.5,3496C 6046.67,3519.5 5933.84,3543 5821,3566.5C 5671.73,3458.9 5522.73,3350.9 5374,3242.5C 5373.33,3120.17 5373.33,2997.83 5374,2875.5C 5493.35,2782.3 5612.52,2688.97 5731.5,2595.5 Z M 4439.5,3610.5 C 4557.47,3634.26 4675.31,3658.59 4793,3683.5C 4846.6,3848.14 4900.1,4012.8 4953.5,4177.5C 4890.55,4275.88 4827.22,4374.05 4763.5,4472C 4602.9,4486.44 4442.23,4500.44 4281.5,4514C 4277.5,4514.67 4273.5,4514.67 4269.5,4514C 4142.76,4334.5 4067.59,4135 4044,3915.5C 4175.81,3813.69 4307.65,3712.03 4439.5,3610.5 Z M 6158.5,3614.5 C 6160.65,3614.37 6162.65,3614.87 6164.5,3616C 6295.58,3716.95 6426.74,3817.79 6558,3918.5C 6534.89,4133.88 6461.73,4330.04 6338.5,4507C 6182.13,4497.55 6025.8,4487.22 5869.5,4476C 5805.49,4376.98 5741.49,4277.98 5677.5,4179C 5731.4,4013.13 5785.4,3847.3 5839.5,3681.5C 5945.98,3659.27 6052.31,3636.94 6158.5,3614.5 Z M 5047.5,4246.5 C 5225.83,4246.33 5404.17,4246.5 5582.5,4247C 5645.96,4344.75 5709.29,4442.58 5772.5,4540.5C 5720.17,4696.5 5667.83,4852.5 5615.5,5008.5C 5440.39,5053.03 5263.73,5060.19 5085.5,5030C 5062.42,5025.82 5039.42,5021.32 5016.5,5016.5C 4964,4857.83 4911,4699.33 4857.5,4541C 4921.23,4443.03 4984.56,4344.87 5047.5,4246.5 Z"/></g>
<g><path style="opacity:0.996" fill="#2b3a00" d="M 5721.5,5061.5 C 5480.97,5137.97 5237.63,5148.13 4991.5,5092C 4775.63,5039.73 4583.63,4940.73 4415.5,4795C 4240.84,4641.19 4113.67,4453.69 4034,4232.5C 3931.46,3934.33 3931.46,3635.33 4034,3335.5C 4124.25,3084.6 4275.09,2877.44 4486.5,2714C 4728.16,2533.5 4999.82,2442 5301.5,2439.5C 5593.97,2441.49 5859.3,2528.32 6097.5,2700C 6333.71,2876.84 6496.55,3105.67 6586,3386.5C 6664.87,3649.46 6665.54,3911.79 6588,4173.5C 6536.45,4342.14 6455.62,4494.31 6345.5,4630C 6346.96,4630.42 6347.46,4631.26 6347,4632.5C 6307.29,4676.88 6266.13,4720.04 6223.5,4762C 6077.81,4898.01 5910.48,4997.85 5721.5,5061.5 Z M 4886.5,2588.5 C 4636.31,2677.9 4432.81,2829.57 4276,3043.5C 4275.33,3044.83 4275.33,3046.17 4276,3047.5C 4339.5,3197.17 4403,3346.83 4466.5,3496.5C 4580.99,3521.1 4695.66,3544.6 4810.5,3567C 4959.42,3458.96 5108.26,3350.79 5257,3242.5C 5257.67,3123.17 5257.67,3003.83 5257,2884.5C 5133.63,2785.62 5010.13,2686.95 4886.5,2588.5 Z M 5731.5,2595.5 C 5612.52,2688.97 5493.35,2782.3 5374,2875.5C 5373.33,2997.83 5373.33,3120.17 5374,3242.5C 5522.73,3350.9 5671.73,3458.9 5821,3566.5C 5933.84,3543 6046.67,3519.5 6159.5,3496C 6216.19,3347.59 6272.69,3199.09 6329,3050.5C 6329.67,3049.17 6329.67,3047.83 6329,3046.5C 6194.62,2861.77 6023.45,2722.27 5815.5,2628C 5788.01,2615.75 5760.01,2604.92 5731.5,2595.5 Z M 4439.5,3610.5 C 4307.65,3712.03 4175.81,3813.69 4044,3915.5C 4067.59,4135 4142.76,4334.5 4269.5,4514C 4273.5,4514.67 4277.5,4514.67 4281.5,4514C 4442.23,4500.44 4602.9,4486.44 4763.5,4472C 4827.22,4374.05 4890.55,4275.88 4953.5,4177.5C 4900.1,4012.8 4846.6,3848.14 4793,3683.5C 4675.31,3658.59 4557.47,3634.26 4439.5,3610.5 Z M 6158.5,3614.5 C 6052.31,3636.94 5945.98,3659.27 5839.5,3681.5C 5785.4,3847.3 5731.4,4013.13 5677.5,4179C 5741.49,4277.98 5805.49,4376.98 5869.5,4476C 6025.8,4487.22 6182.13,4497.55 6338.5,4507C 6461.73,4330.04 6534.89,4133.88 6558,3918.5C 6426.74,3817.79 6295.58,3716.95 6164.5,3616C 6162.65,3614.87 6160.65,3614.37 6158.5,3614.5 Z M 5047.5,4246.5 C 4984.56,4344.87 4921.23,4443.03 4857.5,4541C 4911,4699.33 4964,4857.83 5016.5,5016.5C 5039.42,5021.32 5062.42,5025.82 5085.5,5030C 5263.73,5060.19 5440.39,5053.03 5615.5,5008.5C 5667.83,4852.5 5720.17,4696.5 5772.5,4540.5C 5709.29,4442.58 5645.96,4344.75 5582.5,4247C 5404.17,4246.5 5225.83,4246.33 5047.5,4246.5 Z"/></g>
<g><path style="opacity:0.99" fill="#879600" d="M 3718.5,2629.5 C 3727.17,2629.33 3735.84,2629.5 3744.5,2630C 3700.35,2677.87 3659.18,2728.03 3621,2780.5C 3620.04,2781.89 3618.71,2782.56 3617,2782.5C 2698.52,2757.4 1780.02,2732.56 861.5,2708C 1813.86,2681.52 2766.19,2655.35 3718.5,2629.5 Z"/></g>
<g><path style="opacity:0.989" fill="#879600" d="M 3558.5,2858.5 C 3565.24,2857.41 3566.74,2859.41 3563,2864.5C 3534.15,2908.85 3507.32,2954.52 3482.5,3001.5C 3478.83,3001.83 3475.17,3002.17 3471.5,3002.5C 2629.83,2978.68 1788.17,2954.84 946.5,2931C 1817.31,2906.62 2687.97,2882.46 3558.5,2858.5 Z"/></g>
<g><path style="opacity:0.988" fill="#879600" d="M 3431.5,3086.5 C 3434.17,3086.5 3436.83,3086.5 3439.5,3086.5C 3419.69,3130.79 3401.53,3175.79 3385,3221.5C 3384.63,3222.91 3383.8,3223.91 3382.5,3224.5C 2605.18,3201.87 1827.85,3179.03 1050.5,3156C 1844.33,3132.97 2638,3109.8 3431.5,3086.5 Z"/></g>
<g><path style="opacity:0.989" fill="#879600" d="M 3340.5,3313.5 C 3344.83,3313.5 3349.17,3313.5 3353.5,3313.5C 3341.24,3356.86 3330.08,3400.52 3320,3444.5C 3316.6,3445.79 3312.93,3446.46 3309,3446.5C 2600.84,3425.87 1892.67,3405.37 1184.5,3385C 1176.5,3384.67 1168.5,3384.33 1160.5,3384C 1158.55,3381.83 1157.88,3379.5 1158.5,3377C 1886,3356.16 2613.34,3334.99 3340.5,3313.5 Z"/></g>
<g><path style="opacity:0.989" fill="#879600" d="M 3283.5,3539.5 C 3289.5,3539.5 3295.5,3539.5 3301.5,3539.5C 3294.69,3582.65 3289.36,3625.98 3285.5,3669.5C 2616.16,3650.63 1946.83,3631.46 1277.5,3612C 1273.5,3611.67 1269.5,3611.33 1265.5,3611C 1263.23,3607.12 1261.23,3603.12 1259.5,3599C 1934.32,3579.1 2608.99,3559.26 3283.5,3539.5 Z"/></g>
<g><path style="opacity:0.989" fill="#879600" d="M 3262.5,3764.5 C 3268.17,3764.5 3273.83,3764.5 3279.5,3764.5C 3278.17,3807.83 3278.17,3851.17 3279.5,3894.5C 2648.35,3875.98 2017.18,3857.65 1386,3839.5C 1380.83,3839.17 1375.67,3838.83 1370.5,3838.5C 1367.43,3832.29 1364.77,3825.96 1362.5,3819.5C 1996.01,3801.73 2629.34,3783.4 3262.5,3764.5 Z"/></g>
<g><path style="opacity:0.999" fill="#ff8b00" d="M 3657.5,4894.5 C 3504.17,4894.5 3350.83,4894.5 3197.5,4894.5C 3197.83,4828 3197.5,4761.66 3196.5,4695.5C 3175.34,4694.5 3154.01,4694.17 3132.5,4694.5C 3132.5,4779.5 3132.5,4864.5 3132.5,4949.5C 3322.67,4949.83 3512.67,4949.5 3702.5,4948.5C 3795.84,5054.03 3899.5,5147.53 4013.5,5229C 3331.17,5229.83 2648.83,5229.67 1966.5,5228.5C 1854.15,4949.81 1741.82,4671.15 1629.5,4392.5C 1745.17,4392.5 1860.83,4392.5 1976.5,4392.5C 1976.5,4457.83 1976.5,4523.17 1976.5,4588.5C 2053.5,4589.49 2130.5,4589.66 2207.5,4589C 2242.02,4586.18 2266.85,4569.34 2282,4538.5C 2292.49,4509.95 2288.15,4483.95 2269,4460.5C 2264.98,4456.65 2261.15,4452.65 2257.5,4448.5C 2282.3,4412.69 2277.97,4380.86 2244.5,4353C 2229.77,4342.7 2213.44,4336.87 2195.5,4335.5C 1999.17,4334.17 1802.83,4334.17 1606.5,4335.5C 1569.09,4243.79 1531.76,4151.96 1494.5,4060C 2095.5,4059.92 2696.5,4060.42 3297.5,4061.5C 3343.96,4372.18 3463.96,4649.84 3657.5,4894.5 Z"/></g>
<g><path style="opacity:1" fill="#ffe1bf" d="M 2195.5,4335.5 C 2122.5,4335.5 2049.5,4335.5 1976.5,4335.5C 1853.16,4334.84 1730.16,4335.5 1607.5,4337.5C 1606.66,4337.16 1606.33,4336.49 1606.5,4335.5C 1802.83,4334.17 1999.17,4334.17 2195.5,4335.5 Z"/></g>
<g><path style="opacity:1" fill="#fffefe" d="M 1976.5,4335.5 C 1976.5,4354.17 1976.5,4372.83 1976.5,4391.5C 1860.43,4391.83 1744.43,4391.5 1628.5,4390.5C 1620.91,4373.06 1613.91,4355.4 1607.5,4337.5C 1730.16,4335.5 1853.16,4334.84 1976.5,4335.5 Z"/></g>
<g><path style="opacity:1" fill="#fffefe" d="M 1976.5,4335.5 C 2049.5,4335.5 2122.5,4335.5 2195.5,4335.5C 2213.44,4336.87 2229.77,4342.7 2244.5,4353C 2277.97,4380.86 2282.3,4412.69 2257.5,4448.5C 2261.15,4452.65 2264.98,4456.65 2269,4460.5C 2288.15,4483.95 2292.49,4509.95 2282,4538.5C 2266.85,4569.34 2242.02,4586.18 2207.5,4589C 2130.5,4589.66 2053.5,4589.49 1976.5,4588.5C 1976.5,4523.17 1976.5,4457.83 1976.5,4392.5C 1976.5,4392.17 1976.5,4391.83 1976.5,4391.5C 1976.5,4372.83 1976.5,4354.17 1976.5,4335.5 Z"/></g>
<g><path style="opacity:1" fill="#fffefe" d="M 2620.5,4587.5 C 2598.34,4588.5 2576.01,4588.83 2553.5,4588.5C 2545.51,4569.86 2537.51,4551.19 2529.5,4532.5C 2485.5,4531.33 2441.5,4531.17 2397.5,4532C 2389.37,4550.43 2381.37,4568.93 2373.5,4587.5C 2350.84,4588.67 2328.17,4588.83 2305.5,4588C 2342.17,4503.67 2378.83,4419.33 2415.5,4335C 2447.51,4334.17 2479.51,4334.33 2511.5,4335.5C 2547.85,4419.53 2584.18,4503.53 2620.5,4587.5 Z"/></g>
<g><path style="opacity:1" fill="#fffefe" d="M 2655.5,4334.5 C 2676.83,4334.5 2698.17,4334.5 2719.5,4334.5C 2719.5,4401.5 2719.5,4468.5 2719.5,4535.5C 2788.17,4535.5 2856.83,4535.5 2925.5,4535.5C 2925.5,4553.17 2925.5,4570.83 2925.5,4588.5C 2835.5,4588.5 2745.5,4588.5 2655.5,4588.5C 2655.5,4503.83 2655.5,4419.17 2655.5,4334.5 Z"/></g>
<g><path style="opacity:1" fill="#ffd9ad" d="M 3035.5,4534.5 C 3034.5,4468.34 3034.17,4402 3034.5,4335.5C 3013.5,4335.5 2992.5,4335.5 2971.5,4335.5C 2971.5,4419.83 2971.5,4504.17 2971.5,4588.5C 2970.5,4504 2970.17,4419.33 2970.5,4334.5C 2992.17,4334.5 3013.83,4334.5 3035.5,4334.5C 3035.5,4401.17 3035.5,4467.83 3035.5,4534.5 Z"/></g>
<g><path style="opacity:1" fill="#fffefe" d="M 3035.5,4534.5 C 3104,4535.5 3172.66,4535.83 3241.5,4535.5C 3241.5,4553.17 3241.5,4570.83 3241.5,4588.5C 3151.5,4588.5 3061.5,4588.5 2971.5,4588.5C 2971.5,4504.17 2971.5,4419.83 2971.5,4335.5C 2992.5,4335.5 3013.5,4335.5 3034.5,4335.5C 3034.17,4402 3034.5,4468.34 3035.5,4534.5 Z"/></g>
<g><path style="opacity:1" fill="#ff8b03" d="M 2462.5,4380.5 C 2464.69,4381.82 2466.19,4383.82 2467,4386.5C 2480.56,4416.62 2494.39,4446.62 2508.5,4476.5C 2478.17,4477.67 2447.84,4477.83 2417.5,4477C 2432.91,4445.01 2447.91,4412.84 2462.5,4380.5 Z"/></g>
<g><path style="opacity:1" fill="#ffc580" d="M 1628.5,4390.5 C 1744.43,4391.5 1860.43,4391.83 1976.5,4391.5C 1976.5,4391.83 1976.5,4392.17 1976.5,4392.5C 1860.83,4392.5 1745.17,4392.5 1629.5,4392.5C 1628.66,4392.16 1628.33,4391.49 1628.5,4390.5 Z"/></g>
<g><path style="opacity:1" fill="#ff8d0f" d="M 2041.5,4391.5 C 2091.17,4391.33 2140.83,4391.5 2190.5,4392C 2199.92,4394.59 2204.59,4400.75 2204.5,4410.5C 2205.99,4421.37 2201.32,4427.54 2190.5,4429C 2140.83,4429.5 2091.17,4429.67 2041.5,4429.5C 2041.5,4416.83 2041.5,4404.17 2041.5,4391.5 Z"/></g>
<g><path style="opacity:1" fill="#ff8c07" d="M 2041.5,4482.5 C 2093.86,4482.03 2146.2,4482.53 2198.5,4484C 2212.28,4486.94 2219.28,4495.44 2219.5,4509.5C 2218.01,4525.16 2209.34,4533.66 2193.5,4535C 2142.83,4535.5 2092.17,4535.67 2041.5,4535.5C 2041.5,4517.83 2041.5,4500.17 2041.5,4482.5 Z"/></g>
<g><path style="opacity:1" fill="#ffa73f" d="M 2620.5,4587.5 C 2621.04,4587.56 2621.38,4587.89 2621.5,4588.5C 2598.67,4589.83 2576,4589.83 2553.5,4588.5C 2576.01,4588.83 2598.34,4588.5 2620.5,4587.5 Z"/></g>
<g><path style="opacity:1" fill="#fffefe" d="M 2342.5,4695.5 C 2364.17,4695.5 2385.83,4695.5 2407.5,4695.5C 2407.5,4751.17 2407.5,4806.83 2407.5,4862.5C 2424.17,4862.5 2440.83,4862.5 2457.5,4862.5C 2457.5,4880.17 2457.5,4897.83 2457.5,4915.5C 2440.83,4915.5 2424.17,4915.5 2407.5,4915.5C 2407.5,4926.83 2407.5,4938.17 2407.5,4949.5C 2385.83,4949.5 2364.17,4949.5 2342.5,4949.5C 2342.5,4938.17 2342.5,4926.83 2342.5,4915.5C 2276.5,4915.5 2210.5,4915.5 2144.5,4915.5C 2144.33,4897.5 2144.5,4879.5 2145,4861.5C 2211.02,4806.3 2276.86,4750.97 2342.5,4695.5 Z"/></g>
<g><path style="opacity:1" fill="#fffefe" d="M 2534.5,4948.5 C 2512.33,4948.83 2490.33,4948.5 2468.5,4947.5C 2504.51,4863.49 2540.51,4779.49 2576.5,4695.5C 2608.84,4695.17 2641.17,4695.5 2673.5,4696.5C 2710.03,4780.08 2746.36,4863.75 2782.5,4947.5C 2760.17,4948.67 2737.84,4948.83 2715.5,4948C 2707.01,4929.35 2699.01,4910.52 2691.5,4891.5C 2647.5,4891.33 2603.5,4891.5 2559.5,4892C 2551.26,4910.97 2542.93,4929.8 2534.5,4948.5 Z"/></g>
<g><path style="opacity:1" fill="#fefffe" d="M 2817.5,4695.5 C 2838.83,4695.5 2860.17,4695.5 2881.5,4695.5C 2881.5,4762.17 2881.5,4828.83 2881.5,4895.5C 2950.17,4895.5 3018.83,4895.5 3087.5,4895.5C 3087.5,4913.17 3087.5,4930.83 3087.5,4948.5C 2997.5,4948.5 2907.5,4948.5 2817.5,4948.5C 2817.5,4864.17 2817.5,4779.83 2817.5,4695.5 Z"/></g>
<g><path style="opacity:0.999" fill="#fffefd" d="M 3196.5,4695.5 C 3196.5,4762.17 3196.5,4828.83 3196.5,4895.5C 3350.5,4895.5 3504.5,4895.5 3658.5,4895.5C 3673.88,4912.6 3688.55,4930.27 3702.5,4948.5C 3512.67,4949.5 3322.67,4949.83 3132.5,4949.5C 3132.5,4864.5 3132.5,4779.5 3132.5,4694.5C 3154.01,4694.17 3175.34,4694.5 3196.5,4695.5 Z"/></g>
<g><path style="opacity:1" fill="#ff8b03" d="M 2670.5,4837.5 C 2640.33,4837.83 2610.33,4837.5 2580.5,4836.5C 2594.96,4804.25 2609.96,4772.25 2625.5,4740.5C 2640.78,4772.73 2655.78,4805.06 2670.5,4837.5 Z"/></g>
<g><path style="opacity:1" fill="#ff8b03" d="M 2341.5,4765.5 C 2342.5,4797.66 2342.83,4830 2342.5,4862.5C 2304.83,4862.67 2267.17,4862.5 2229.5,4862C 2267.03,4829.97 2304.36,4797.8 2341.5,4765.5 Z"/></g>
<g><path style="opacity:1" fill="#ffc580" d="M 2580.5,4836.5 C 2610.33,4837.5 2640.33,4837.83 2670.5,4837.5C 2640.33,4838.83 2610,4838.83 2579.5,4837.5C 2579.62,4836.89 2579.96,4836.56 2580.5,4836.5 Z"/></g>
<g><path style="opacity:1" fill="#ffb054" d="M 3196.5,4695.5 C 3197.5,4761.66 3197.83,4828 3197.5,4894.5C 3350.83,4894.5 3504.17,4894.5 3657.5,4894.5C 3658.17,4894.5 3658.5,4894.83 3658.5,4895.5C 3504.5,4895.5 3350.5,4895.5 3196.5,4895.5C 3196.5,4828.83 3196.5,4762.17 3196.5,4695.5 Z"/></g>
<g><path style="opacity:1" fill="#ffc580" d="M 2468.5,4947.5 C 2490.33,4948.5 2512.33,4948.83 2534.5,4948.5C 2512.33,4949.83 2490,4949.83 2467.5,4948.5C 2467.62,4947.89 2467.96,4947.56 2468.5,4947.5 Z"/></g>
</svg>
