<?xml version="1.0" standalone="no"?>
<!DOCTYPE svg PUBLIC "-//W3C//DTD SVG 20010904//EN"
 "http://www.w3.org/TR/2001/REC-SVG-20010904/DTD/svg10.dtd">
<svg version="1.0" xmlns="http://www.w3.org/2000/svg"
 width="4500.000000pt" height="4500.000000pt" viewBox="0 0 4500.000000 4500.000000"
 preserveAspectRatio="xMidYMid meet">

<g transform="translate(0.000000,4500.000000) scale(0.100000,-0.100000)"
fill="#000000" stroke="none">
<path d="M34379 31055 c-20 -11 -35 -12 -61 -4 -23 6 -73 6 -144 -1 -187 -18
-337 -23 -376 -12 -21 6 -38 7 -38 2 0 -5 -39 -11 -87 -14 -160 -9 -277 -24
-322 -40 -50 -18 -105 -21 -148 -6 -25 9 -36 7 -65 -9 -28 -17 -40 -19 -69
-11 -37 11 -89 4 -89 -11 0 -6 -4 -7 -10 -4 -5 3 -10 1 -10 -5 0 -6 -4 -8 -10
-5 -5 3 -49 -2 -97 -11 -48 -9 -120 -19 -160 -20 -51 -3 -103 -15 -185 -44
-62 -22 -128 -40 -147 -40 -93 0 -248 -41 -285 -75 -15 -14 -47 -30 -72 -36
-24 -6 -47 -15 -50 -20 -3 -5 -35 -9 -71 -9 -54 0 -72 -4 -97 -24 -17 -13 -47
-27 -66 -31 -19 -4 -51 -16 -71 -26 -25 -12 -48 -16 -71 -12 -21 3 -45 0 -59
-8 -13 -8 -28 -14 -34 -15 -5 0 -17 -4 -25 -7 -17 -7 -85 -32 -150 -55 -25 -8
-61 -25 -80 -37 -59 -35 -89 -45 -136 -45 -35 0 -56 -7 -92 -32 -26 -18 -49
-36 -52 -40 -3 -4 -24 -14 -45 -23 -22 -9 -58 -25 -80 -35 -22 -11 -59 -22
-82 -26 -24 -4 -54 -17 -70 -32 -29 -26 -109 -72 -127 -72 -6 0 -17 -9 -23
-20 -7 -10 -32 -25 -55 -31 -24 -7 -50 -18 -58 -24 -42 -34 -176 -88 -241 -96
-48 -7 -85 -19 -117 -40 -25 -16 -50 -29 -55 -29 -4 0 -20 -14 -34 -31 -16
-18 -65 -50 -120 -76 -52 -24 -109 -57 -126 -73 -18 -15 -50 -33 -72 -39 -31
-8 -45 -19 -60 -48 -16 -29 -29 -39 -58 -46 -24 -6 -59 -28 -95 -62 -31 -29
-73 -60 -92 -70 -19 -10 -60 -35 -90 -55 -30 -20 -68 -40 -83 -44 -44 -11
-184 -123 -228 -183 -27 -36 -49 -56 -68 -59 -16 -4 -38 -18 -49 -33 -11 -15
-38 -33 -60 -41 -29 -9 -49 -25 -67 -51 -14 -22 -29 -39 -34 -39 -5 0 -23 -21
-40 -47 -34 -54 -119 -131 -171 -158 -68 -34 -141 -98 -156 -135 -8 -21 -26
-42 -40 -49 -13 -6 -33 -25 -44 -43 -11 -18 -36 -46 -56 -63 -45 -37 -55 -47
-74 -74 -8 -12 -34 -34 -56 -48 -23 -15 -48 -38 -57 -51 -8 -14 -39 -41 -68
-61 -43 -29 -57 -45 -68 -79 -10 -33 -22 -47 -51 -62 -21 -11 -42 -30 -46 -42
-3 -13 -24 -41 -44 -64 -21 -23 -41 -50 -44 -61 -4 -11 -33 -39 -66 -62 -33
-23 -67 -54 -76 -70 -9 -15 -29 -36 -44 -46 -16 -11 -33 -35 -39 -56 -7 -24
-23 -45 -44 -58 -33 -20 -57 -59 -77 -123 -7 -25 -31 -55 -67 -87 -44 -40 -65
-69 -103 -150 -39 -81 -56 -104 -88 -126 -28 -19 -43 -37 -48 -58 -10 -50 -70
-142 -121 -187 -26 -23 -52 -55 -59 -73 -41 -108 -73 -171 -125 -243 -63 -87
-71 -103 -90 -179 -13 -53 -19 -63 -90 -171 -36 -53 -49 -85 -59 -139 -7 -38
-21 -88 -31 -110 -37 -83 -69 -163 -69 -173 0 -14 -49 -72 -62 -72 -23 0 -41
-36 -51 -106 -6 -40 -15 -74 -19 -74 -4 0 -8 -8 -8 -17 0 -10 -18 -35 -39 -58
-30 -30 -46 -60 -66 -122 -14 -46 -31 -85 -36 -88 -5 -4 -9 -26 -9 -49 0 -28
-7 -52 -20 -69 -12 -15 -20 -40 -20 -62 0 -20 -7 -50 -17 -68 -9 -18 -15 -50
-14 -75 2 -36 -3 -49 -29 -79 -27 -30 -31 -40 -25 -73 5 -31 2 -42 -21 -69
-35 -42 -67 -151 -65 -222 1 -43 -3 -62 -20 -83 -15 -19 -23 -46 -26 -94 -4
-51 -12 -75 -31 -101 -19 -26 -27 -52 -34 -120 -5 -49 -22 -122 -39 -170 -21
-61 -28 -93 -23 -118 6 -31 -13 -159 -37 -254 -5 -20 -9 -62 -9 -92 0 -31 -7
-77 -16 -103 -10 -31 -14 -66 -11 -103 6 -70 -16 -321 -37 -421 -13 -61 -14
-89 -6 -153 9 -66 9 -80 -4 -93 -9 -8 -16 -18 -17 -22 0 -4 -2 -18 -5 -31 -2
-14 3 -46 11 -71 11 -34 13 -59 7 -86 -4 -22 -7 -64 -5 -94 6 -136 5 -169 -8
-222 -12 -51 -11 -61 4 -93 22 -46 22 -143 0 -189 -14 -30 -14 -39 -2 -68 10
-23 13 -64 10 -139 -2 -83 0 -113 13 -137 12 -23 15 -56 14 -141 -3 -102 -1
-111 20 -134 23 -25 23 -25 36 -252 2 -39 14 -94 26 -125 14 -34 19 -65 16
-85 -3 -16 3 -67 14 -113 11 -46 20 -113 20 -150 0 -50 5 -75 20 -97 11 -16
20 -41 20 -55 0 -14 7 -54 15 -90 9 -36 20 -103 24 -148 7 -63 16 -93 34 -120
34 -49 57 -123 57 -178 0 -25 9 -62 20 -84 11 -22 20 -58 20 -82 0 -31 6 -49
26 -69 20 -21 26 -38 29 -88 2 -52 9 -72 40 -119 33 -49 37 -60 28 -83 -9 -24
-5 -34 33 -90 48 -69 64 -112 64 -176 0 -35 5 -46 30 -64 20 -16 34 -39 45
-76 9 -29 20 -53 25 -53 5 0 14 -19 20 -42 19 -75 61 -178 86 -207 16 -19 24
-41 24 -66 0 -23 10 -51 28 -78 16 -23 43 -71 61 -107 18 -36 44 -76 56 -90
13 -14 28 -42 33 -62 6 -21 20 -51 31 -67 12 -17 21 -45 21 -66 0 -25 9 -49
28 -74 15 -20 38 -57 51 -83 13 -26 39 -65 57 -87 19 -22 37 -54 40 -73 6 -31
54 -104 116 -176 15 -18 28 -41 28 -52 0 -10 17 -32 38 -47 51 -38 59 -50 79
-112 13 -41 26 -59 50 -73 34 -21 65 -66 77 -113 4 -16 24 -48 45 -70 21 -23
50 -66 64 -97 15 -31 31 -59 37 -63 14 -9 124 -146 144 -181 10 -16 31 -39 48
-50 30 -19 121 -136 168 -214 14 -23 45 -54 72 -70 26 -16 64 -51 85 -78 21
-27 50 -58 66 -68 15 -11 32 -35 39 -56 6 -21 22 -45 36 -54 14 -9 42 -35 63
-57 20 -23 63 -55 96 -72 41 -21 67 -43 88 -76 17 -26 42 -54 57 -63 30 -18
65 -52 150 -144 32 -34 64 -62 72 -62 8 0 36 -25 62 -55 26 -30 54 -55 62 -55
7 0 28 -16 45 -36 18 -20 49 -47 69 -60 21 -13 44 -37 52 -53 12 -22 24 -29
58 -34 28 -4 49 -14 61 -29 47 -60 94 -102 162 -145 28 -18 58 -45 67 -61 10
-16 35 -38 55 -47 37 -18 93 -53 103 -66 3 -4 15 -9 26 -13 28 -9 65 -41 57
-50 -3 -3 0 -6 9 -6 8 0 28 -17 45 -37 33 -42 152 -107 216 -118 31 -6 42 -14
54 -41 14 -28 23 -34 60 -40 45 -7 141 -63 198 -115 29 -27 125 -75 125 -62 0
3 8 -1 18 -10 9 -8 40 -25 68 -36 73 -28 157 -84 173 -115 11 -20 22 -26 48
-26 40 0 99 -28 132 -64 18 -19 34 -26 62 -26 24 0 52 -9 75 -25 20 -14 67
-34 103 -45 36 -12 75 -29 86 -40 11 -10 38 -27 60 -37 22 -10 55 -28 72 -41
17 -12 57 -27 87 -33 84 -15 155 -42 218 -83 41 -26 68 -36 97 -36 23 0 59
-10 87 -25 26 -14 58 -25 71 -25 13 0 41 -11 61 -25 21 -14 51 -25 70 -25 18
0 49 -8 70 -18 20 -11 66 -25 102 -32 36 -7 83 -22 105 -33 25 -13 68 -22 115
-25 51 -3 86 -11 108 -24 25 -15 44 -19 74 -15 32 4 53 0 92 -20 35 -18 70
-26 117 -28 68 -4 173 -31 229 -60 23 -12 39 -14 65 -6 37 10 86 2 125 -20 14
-8 54 -14 90 -15 102 -1 210 -19 268 -44 47 -20 57 -21 96 -10 38 10 47 10 70
-5 22 -14 35 -16 74 -8 26 5 93 6 148 2 79 -4 110 -11 139 -28 37 -21 42 -22
151 -10 101 10 118 9 166 -7 59 -20 157 -23 210 -5 26 8 43 9 64 1 31 -12 192
-6 315 12 57 8 88 8 123 -1 38 -9 52 -9 82 4 53 22 170 33 244 24 83 -11 235
-1 280 18 22 9 91 18 185 22 87 4 160 13 173 20 13 7 55 15 95 18 40 3 99 13
132 23 33 10 102 23 154 30 55 7 107 20 126 32 25 14 43 17 69 13 27 -6 44 -2
72 15 25 16 57 24 107 28 41 3 88 13 109 23 21 11 53 19 73 19 20 0 48 6 63
14 15 7 61 20 103 29 51 10 90 25 120 46 32 23 66 35 124 45 47 9 115 31 165
54 47 22 101 42 120 46 41 8 150 49 201 76 20 11 53 20 72 20 23 0 46 9 64 24
15 13 44 27 63 31 19 4 60 23 92 42 31 19 75 39 98 44 51 12 245 104 282 134
15 13 44 26 64 30 48 8 90 30 131 65 17 15 55 36 85 45 87 29 163 72 211 119
25 24 58 47 75 51 16 3 40 17 53 31 31 33 114 80 185 104 31 11 81 38 111 60
29 23 72 49 96 59 41 18 103 77 127 120 6 12 21 21 34 21 13 0 38 11 57 24 19
14 63 40 99 58 62 31 118 81 254 226 35 38 62 56 100 68 40 13 62 29 101 75
28 32 59 60 70 63 11 3 43 29 70 57 28 29 70 71 95 93 25 23 68 64 96 92 29
29 65 55 81 58 22 5 35 17 47 44 11 23 47 60 97 100 55 44 87 78 103 110 29
57 60 86 107 101 23 7 41 21 48 38 20 45 83 124 158 199 39 40 74 82 78 93 3
12 24 30 44 41 49 25 87 70 103 123 9 29 32 60 74 102 39 38 72 81 88 116 14
31 32 62 41 69 9 8 27 35 40 60 13 26 41 58 63 74 25 17 51 48 67 79 42 85 68
123 103 151 17 15 32 37 32 48 0 11 15 34 33 52 46 43 73 84 86 131 6 23 31
64 59 95 64 73 122 173 122 212 0 21 13 48 39 82 56 74 87 126 115 196 14 34
40 78 58 98 25 27 38 57 51 109 10 40 29 89 42 109 14 20 25 49 25 64 0 15 9
35 21 46 30 27 57 84 65 136 9 56 34 105 73 142 24 23 31 38 31 67 0 21 11 59
25 85 14 26 25 54 25 64 0 9 11 31 25 50 18 24 25 47 25 79 0 29 8 57 20 76
11 17 20 44 20 61 0 51 30 122 59 143 34 24 54 86 45 140 -5 31 -2 47 16 75
36 59 81 205 91 296 6 49 17 95 27 110 11 16 19 54 22 110 4 65 11 93 27 115
32 46 50 121 63 266 7 74 18 151 26 172 8 20 14 56 14 80 1 23 7 53 15 67 12
23 13 41 1 150 -2 14 5 41 14 60 25 51 32 104 20 150 -8 29 -8 46 0 60 22 41
38 259 39 525 0 33 7 85 15 115 11 43 12 64 3 97 -8 32 -8 54 1 90 7 26 12
107 12 178 0 72 0 137 1 145 1 8 -7 54 -17 102 -16 75 -17 95 -6 147 10 46 10
66 1 82 -7 13 -9 40 -5 66 4 33 1 54 -14 82 -14 29 -17 46 -11 68 10 34 8 61
-8 118 -6 22 -11 63 -11 90 -1 28 -9 86 -19 131 -9 44 -16 94 -14 111 2 17 -3
48 -11 68 -13 29 -14 46 -5 79 9 36 7 51 -15 110 -17 45 -26 88 -26 128 0 39
-7 72 -20 98 -11 22 -20 59 -20 82 0 84 -39 281 -60 303 -15 16 -20 35 -20 81
0 41 -7 74 -24 110 -13 28 -27 71 -31 95 -4 24 -15 59 -26 77 -10 18 -19 43
-19 55 0 12 -11 43 -24 68 -14 26 -28 76 -34 119 -9 69 -32 142 -68 213 -8 15
-20 39 -28 55 -39 77 -56 127 -56 166 0 33 -7 52 -30 81 -16 21 -30 44 -30 51
0 27 -33 110 -56 141 -13 17 -24 42 -24 54 0 20 -63 146 -80 159 -8 7 -48 112
-65 174 -8 27 -25 61 -38 75 -13 14 -27 40 -30 57 -3 17 -20 45 -36 62 -17 17
-31 38 -31 47 0 10 -14 34 -31 56 -16 21 -33 55 -36 76 -3 21 -14 47 -23 58
-10 11 -21 31 -25 45 -10 33 -114 237 -129 253 -6 7 -17 31 -24 54 -8 26 -24
50 -42 63 -16 11 -32 30 -35 41 -4 11 -47 70 -97 132 -96 119 -103 131 -113
190 -4 25 -15 44 -35 59 -16 12 -34 36 -40 54 -6 18 -44 66 -84 106 -46 47
-86 98 -109 143 -47 90 -123 183 -185 225 -27 18 -64 55 -83 83 -18 27 -45 59
-59 71 -14 12 -45 48 -69 80 -24 32 -51 66 -60 75 -9 9 -22 29 -28 44 -8 16
-27 33 -50 42 -29 12 -42 25 -56 58 -9 24 -48 74 -85 113 -37 38 -83 88 -102
111 -20 23 -54 49 -76 58 -25 9 -46 26 -53 42 -23 50 -65 95 -123 129 -81 47
-186 142 -200 180 -8 24 -28 40 -82 69 -85 45 -112 68 -136 116 -21 40 -47 60
-131 100 -31 15 -65 39 -75 54 -41 60 -148 140 -200 149 -20 4 -44 20 -61 40
-35 41 -79 71 -118 80 -40 10 -88 48 -115 91 -19 30 -27 35 -60 35 -33 0 -43
6 -66 35 -31 41 -76 70 -123 80 -19 4 -44 19 -57 34 -32 38 -207 144 -284 172
-60 21 -194 93 -230 123 -8 7 -37 19 -65 26 -27 7 -81 28 -120 47 -38 18 -79
33 -90 33 -28 0 -78 27 -148 79 -55 40 -77 47 -154 50 -7 1 -30 17 -51 36 -24
21 -56 38 -86 45 -27 6 -68 20 -92 30 -23 11 -48 20 -55 20 -7 0 -20 6 -28 13
-9 8 -36 22 -61 31 -25 10 -53 26 -63 37 -10 10 -28 19 -41 19 -13 0 -44 11
-70 25 -26 14 -61 25 -79 25 -18 0 -52 6 -77 14 -107 35 -218 66 -257 72 -24
4 -66 22 -94 40 -49 31 -124 52 -151 41 -25 -9 -144 14 -193 37 -59 28 -173
56 -230 56 -22 0 -51 8 -65 17 -16 11 -48 17 -101 19 -48 2 -89 9 -110 19 -22
12 -44 15 -71 11 -26 -4 -48 -1 -70 10 -23 12 -44 14 -82 10 -41 -6 -62 -2
-100 15 -39 17 -62 20 -109 16 -37 -3 -70 -1 -89 7 -17 8 -49 11 -73 9 -26 -3
-53 0 -71 10 -51 25 -102 30 -148 12 -41 -16 -44 -16 -87 7 -38 20 -56 23
-134 21 -216 -6 -318 -2 -352 12 -45 19 -130 19 -164 0z m4 -131 c34 -12 43
-12 69 2 20 11 41 14 62 9 17 -4 47 -6 66 -4 19 1 87 2 150 3 104 1 119 -1
157 -23 38 -22 48 -23 110 -16 93 11 127 9 242 -15 54 -11 125 -20 158 -20 32
-1 85 -7 118 -15 33 -8 83 -15 110 -15 28 0 91 -9 140 -20 50 -11 110 -20 135
-19 26 1 59 -5 77 -15 19 -9 53 -16 80 -15 27 0 76 -8 111 -20 34 -11 86 -23
115 -27 29 -4 64 -13 79 -20 15 -8 40 -14 57 -14 16 0 53 -11 83 -25 41 -19
69 -25 127 -25 65 0 80 -4 120 -29 34 -22 70 -34 137 -44 51 -8 114 -25 140
-37 63 -28 220 -80 243 -80 10 0 28 -11 41 -25 17 -18 34 -25 62 -25 25 0 52
-9 76 -25 20 -14 46 -25 58 -25 32 0 116 -31 149 -55 17 -13 48 -28 70 -35 22
-7 74 -28 117 -46 42 -19 85 -34 96 -34 11 0 33 -11 49 -24 38 -31 101 -63
144 -71 19 -3 59 -24 89 -46 68 -49 191 -109 223 -109 13 0 49 -13 79 -29 30
-16 74 -35 99 -41 44 -12 139 -74 139 -90 0 -13 81 -66 112 -74 15 -3 50 -25
77 -49 70 -61 93 -77 108 -77 7 0 13 -4 13 -9 0 -5 10 -11 23 -15 12 -3 31
-19 42 -36 11 -18 36 -40 55 -51 19 -10 53 -30 75 -44 22 -14 50 -29 62 -34
12 -6 43 -31 70 -57 26 -25 82 -63 124 -84 98 -47 133 -72 158 -114 13 -20 44
-46 80 -65 35 -18 77 -52 102 -82 23 -28 64 -61 91 -75 28 -14 78 -51 111 -82
34 -32 76 -63 93 -70 23 -10 35 -24 44 -52 9 -28 21 -42 40 -49 16 -5 62 -43
103 -85 42 -41 93 -82 114 -91 58 -24 100 -71 113 -124 9 -39 17 -50 48 -66
47 -25 159 -137 197 -197 16 -25 41 -53 57 -62 18 -11 29 -28 34 -52 8 -44 45
-89 93 -113 36 -19 65 -52 94 -106 25 -48 59 -83 99 -99 20 -9 39 -25 43 -36
3 -11 21 -42 40 -70 18 -27 36 -63 40 -80 4 -19 23 -44 52 -68 76 -61 80 -67
104 -141 17 -54 30 -76 53 -93 17 -11 43 -46 58 -78 15 -31 47 -76 71 -101 28
-28 52 -66 66 -104 30 -80 92 -174 141 -214 22 -18 40 -39 40 -47 0 -28 52
-139 101 -216 27 -42 54 -98 61 -124 8 -27 29 -65 51 -90 20 -23 44 -61 52
-84 8 -23 26 -55 39 -70 13 -16 27 -49 30 -74 5 -28 21 -64 42 -93 49 -68 64
-106 64 -161 0 -41 5 -53 30 -77 17 -16 33 -44 36 -64 4 -20 17 -52 29 -71 12
-19 25 -53 28 -74 3 -22 18 -51 32 -66 16 -17 25 -37 25 -60 0 -19 10 -46 24
-64 13 -17 26 -41 30 -53 4 -13 12 -23 18 -23 7 0 9 -19 5 -52 -7 -72 9 -124
50 -155 27 -20 33 -32 33 -62 0 -20 7 -61 15 -91 8 -30 18 -79 21 -108 3 -31
19 -80 40 -122 28 -54 35 -79 33 -112 -3 -32 4 -58 26 -103 23 -46 29 -72 28
-115 0 -30 6 -80 14 -110 8 -30 21 -82 28 -115 7 -33 21 -80 30 -105 20 -53
38 -166 37 -229 -1 -30 8 -63 27 -103 24 -49 28 -65 20 -91 -14 -48 -9 -115
13 -181 14 -45 19 -84 18 -160 -1 -63 5 -129 15 -176 9 -41 16 -96 15 -122 -1
-27 -2 -58 -2 -70 -1 -13 3 -49 9 -81 7 -39 7 -72 0 -103 -9 -36 -7 -51 6 -79
12 -26 14 -41 6 -67 -5 -18 -12 -100 -16 -183 -7 -169 -7 -156 3 -288 5 -72 3
-104 -6 -122 -8 -15 -11 -40 -7 -69 4 -29 2 -57 -7 -77 -8 -20 -11 -43 -6 -59
4 -14 3 -91 -3 -170 -5 -80 -11 -192 -12 -250 -5 -158 -15 -231 -37 -263 -17
-23 -19 -40 -16 -95 4 -53 1 -75 -14 -105 -11 -22 -21 -69 -24 -110 -3 -40
-12 -88 -19 -107 -32 -79 -67 -245 -62 -295 4 -39 0 -56 -15 -78 -16 -22 -21
-48 -24 -112 -2 -47 -8 -94 -14 -105 -6 -11 -8 -30 -5 -43 4 -13 -1 -43 -9
-67 -8 -25 -18 -69 -22 -98 -4 -29 -12 -59 -19 -66 -7 -6 -20 -26 -29 -44 -9
-18 -21 -32 -26 -32 -6 0 -10 -11 -10 -25 0 -14 -4 -33 -10 -43 -18 -31 -50
-122 -50 -142 0 -10 -6 -25 -13 -32 -18 -17 -37 -74 -37 -108 0 -16 -11 -37
-30 -55 -22 -21 -30 -38 -30 -63 0 -20 -11 -54 -24 -76 -13 -23 -29 -68 -36
-101 -7 -33 -23 -74 -36 -92 -13 -17 -24 -43 -24 -57 0 -44 -40 -128 -120
-256 -13 -19 -29 -52 -36 -73 -8 -21 -27 -58 -43 -82 -16 -23 -32 -62 -36 -86
-4 -24 -18 -57 -30 -74 -13 -16 -26 -46 -30 -65 -4 -19 -18 -46 -31 -60 -12
-14 -30 -42 -39 -63 -16 -39 -131 -225 -150 -242 -35 -32 -132 -186 -196 -309
-59 -115 -85 -150 -122 -168 -25 -12 -36 -26 -46 -57 -7 -24 -23 -48 -37 -58
-14 -9 -36 -40 -49 -69 -34 -77 -81 -142 -141 -196 -58 -53 -144 -166 -164
-216 -7 -17 -43 -67 -81 -109 -38 -42 -67 -78 -66 -79 5 -5 -168 -177 -196
-196 -17 -12 -27 -31 -32 -57 -5 -31 -13 -42 -36 -51 -31 -13 -160 -140 -170
-168 -4 -9 -19 -28 -33 -41 -14 -14 -26 -30 -26 -36 0 -21 -44 -62 -73 -69
-52 -12 -134 -76 -177 -137 -23 -32 -45 -59 -49 -59 -4 0 -31 -23 -60 -50 -29
-28 -61 -50 -72 -50 -11 0 -40 -23 -67 -52 -81 -90 -114 -117 -153 -123 -36
-6 -58 -23 -146 -118 -24 -25 -59 -51 -80 -58 -21 -6 -52 -24 -70 -39 -17 -15
-45 -36 -61 -46 -17 -10 -39 -33 -49 -51 -11 -22 -30 -37 -53 -44 -49 -16 -95
-49 -136 -98 -41 -47 -65 -62 -114 -70 -25 -5 -41 -16 -58 -41 -22 -33 -36
-41 -92 -54 -14 -3 -48 -28 -77 -56 -28 -27 -59 -50 -68 -50 -10 0 -34 -9 -54
-19 -20 -10 -69 -35 -109 -56 -40 -20 -101 -58 -135 -83 -34 -26 -93 -60 -132
-76 -113 -46 -168 -74 -199 -100 -15 -14 -50 -32 -77 -41 -28 -10 -56 -27 -65
-40 -20 -31 -84 -59 -169 -74 -55 -10 -84 -22 -137 -58 -62 -42 -70 -45 -112
-40 -37 5 -54 1 -108 -26 -89 -45 -141 -66 -212 -83 -33 -8 -79 -24 -101 -34
-22 -11 -56 -22 -76 -25 -20 -3 -49 -17 -64 -31 -15 -14 -40 -28 -56 -31 -16
-3 -29 -9 -29 -13 0 -9 -105 -50 -128 -50 -10 -1 -35 -9 -57 -20 -22 -10 -43
-16 -47 -14 -5 3 -12 2 -18 -1 -5 -3 -40 -7 -77 -9 -43 -2 -83 -10 -108 -23
-80 -40 -164 -63 -233 -63 -71 0 -201 -23 -236 -42 -12 -7 -43 -13 -71 -13
-27 -1 -70 -10 -95 -19 -32 -13 -61 -16 -100 -12 -44 4 -61 1 -87 -15 -19 -12
-41 -18 -52 -14 -11 3 -44 -2 -73 -12 -38 -13 -65 -16 -89 -11 -38 8 -114 1
-143 -14 -24 -13 -131 -20 -271 -17 -44 1 -70 -4 -95 -19 -34 -19 -38 -20
-128 -5 -86 15 -97 15 -150 -1 -46 -14 -81 -17 -177 -12 -66 2 -139 8 -163 12
-31 4 -57 1 -88 -11 -34 -13 -56 -15 -87 -9 -23 4 -141 9 -262 10 -179 1 -228
4 -265 18 -28 11 -88 19 -160 22 -63 2 -131 9 -150 14 -19 5 -75 8 -125 7 -68
-1 -98 3 -122 16 -20 11 -55 17 -95 17 -38 1 -70 6 -82 15 -10 8 -30 12 -45 9
-38 -8 -248 34 -306 61 -36 17 -84 26 -175 35 -85 8 -137 18 -164 31 -21 11
-57 24 -80 28 -22 5 -75 17 -116 27 -41 9 -102 18 -135 20 -71 2 -105 14 -156
55 -32 25 -43 29 -77 23 -26 -4 -49 -1 -68 9 -16 8 -45 17 -65 20 -20 3 -58
21 -84 41 -34 26 -57 36 -83 36 -20 0 -52 9 -70 20 -18 11 -38 20 -46 20 -7 0
-39 13 -72 29 -32 16 -86 37 -118 46 -41 11 -69 27 -90 50 -23 24 -43 34 -77
39 -58 8 -178 65 -245 116 -37 27 -69 42 -113 51 -34 6 -79 23 -99 37 -20 14
-55 29 -77 34 -22 5 -49 18 -60 28 -11 11 -41 26 -65 35 -68 24 -128 63 -179
115 -50 52 -169 120 -209 120 -15 0 -54 24 -101 61 -42 34 -98 72 -126 86 -27
14 -60 38 -73 54 -18 22 -32 29 -59 29 -28 0 -42 8 -72 39 -33 36 -123 91
-149 91 -6 0 -21 13 -34 28 -13 16 -50 50 -84 76 -33 25 -67 58 -74 72 -22 40
-186 159 -243 176 -24 7 -44 22 -55 41 -9 16 -31 35 -49 42 -17 7 -43 31 -57
53 -13 21 -38 44 -54 51 -17 7 -33 19 -35 26 -6 13 -92 75 -105 75 -13 0 -126
122 -157 169 -16 23 -51 62 -78 85 -27 22 -61 54 -76 69 -99 108 -159 167
-169 167 -6 0 -23 17 -38 38 -15 20 -42 51 -61 67 -19 17 -49 57 -67 90 -25
46 -40 61 -67 70 -26 8 -39 22 -56 57 -13 26 -36 55 -53 65 -16 9 -30 20 -30
24 0 4 -22 31 -48 61 -27 29 -64 82 -84 118 -20 36 -48 76 -62 89 -14 13 -30
39 -36 56 -7 20 -26 43 -49 58 -26 17 -41 37 -49 65 -8 27 -29 56 -63 86 -28
25 -55 46 -59 46 -8 0 -45 80 -55 121 -3 14 -29 47 -57 75 -63 62 -103 119
-113 162 -4 21 -24 49 -50 73 -31 28 -53 63 -74 114 -17 40 -31 79 -31 85 0 6
-18 35 -40 65 -22 30 -40 57 -40 62 0 4 -13 21 -29 38 -20 20 -42 69 -71 155
-43 127 -70 180 -110 215 -34 31 -60 90 -60 137 0 48 -40 134 -91 199 -17 22
-46 77 -64 122 -18 45 -44 108 -59 141 -16 37 -26 76 -26 107 0 27 -4 49 -9
49 -10 0 -17 10 -68 111 -23 44 -33 78 -33 108 0 56 -53 225 -87 273 -20 29
-24 45 -19 70 5 27 1 39 -24 68 -21 25 -30 45 -30 72 0 33 -27 98 -41 98 -3 0
-3 20 1 45 6 38 3 51 -18 81 -22 33 -23 40 -12 76 8 29 9 53 1 87 -5 25 -12
63 -16 83 -3 21 -17 51 -30 67 -19 22 -25 40 -25 79 0 28 -10 79 -23 114 -17
47 -21 72 -15 98 8 40 -3 115 -28 180 -12 31 -18 79 -19 155 -1 78 -7 121 -19
148 -24 54 -57 401 -48 512 2 17 -2 73 -8 125 -9 81 -11 180 -7 410 0 25 -3
69 -8 98 -6 41 -4 65 10 105 16 48 16 55 2 90 -15 35 -15 43 4 115 16 63 18
86 9 125 -15 73 -12 115 15 194 23 69 23 75 9 115 -22 59 -12 173 20 228 20
36 22 47 14 86 -7 34 -6 56 5 92 35 107 45 168 40 234 -5 57 -3 71 17 103 29
47 39 94 30 143 -5 29 -2 48 11 73 10 19 18 46 19 61 0 15 14 62 30 105 17 42
30 95 30 117 0 57 57 277 91 352 20 43 29 80 29 114 0 28 6 63 14 78 8 15 25
62 39 104 14 43 34 90 44 105 30 44 43 81 43 122 0 57 27 139 70 211 21 36 42
81 45 102 4 20 19 48 35 63 24 23 27 32 22 71 -4 40 -1 49 26 77 36 37 71 111
72 149 0 17 10 35 29 50 24 19 32 37 45 101 16 81 32 111 85 161 23 22 31 39
31 63 0 22 12 51 35 84 19 28 35 55 35 60 0 5 22 39 49 76 57 79 101 160 101
186 0 9 18 36 39 60 36 39 141 236 141 265 0 7 17 31 39 55 21 23 46 57 55 75
10 18 33 43 52 54 33 19 74 81 74 111 0 7 18 32 40 56 23 24 50 61 60 81 11
21 35 48 54 59 19 12 37 33 41 48 10 40 100 165 135 188 17 11 45 46 62 78 27
51 98 127 118 127 4 0 12 17 18 39 17 54 46 87 96 109 30 14 56 38 90 84 26
35 62 72 81 83 19 10 35 23 35 28 0 5 49 60 109 121 60 61 133 137 162 170 30
32 78 72 107 88 29 17 67 49 85 72 54 70 211 216 239 224 30 8 98 65 186 155
31 33 73 67 92 77 19 10 44 27 54 39 11 12 47 37 82 56 34 19 91 63 126 96 37
36 88 74 124 90 33 16 70 42 82 58 12 16 34 32 49 36 17 3 39 22 56 45 24 34
34 40 77 46 28 4 50 10 50 14 0 20 45 53 101 75 35 14 69 31 74 38 28 34 90
69 142 79 32 6 69 19 83 28 14 9 41 23 60 30 19 7 49 26 65 41 32 29 109 68
136 69 23 0 127 61 174 103 36 32 45 35 81 30 37 -5 42 -3 64 31 16 22 36 38
55 42 17 4 46 15 67 25 20 10 56 22 79 25 24 4 86 30 139 59 116 62 211 95
271 95 35 0 51 6 69 25 29 31 111 59 148 50 22 -4 33 0 56 24 18 19 43 32 70
36 22 4 68 19 101 33 58 25 97 33 235 50 36 4 83 17 105 29 75 39 165 63 239
63 54 0 78 5 101 20 17 11 47 20 67 20 21 0 56 7 78 16 26 10 54 14 77 11 22
-4 46 -1 64 8 15 8 45 15 66 15 21 0 71 9 112 20 41 11 98 20 127 20 29 0 78
9 109 21 40 15 66 19 95 14 31 -5 48 -2 73 13 29 17 42 18 107 10 62 -7 81 -6
112 8 31 14 58 16 155 12 92 -5 124 -3 146 9 20 10 58 14 120 13 51 0 133 3
182 7 104 9 154 6 208 -13z"/>
<path d="M34109 29054 c-26 -14 -118 -17 -159 -5 -15 5 -36 3 -53 -6 -21 -10
-47 -12 -98 -7 -45 4 -69 3 -69 -4 0 -9 -26 -12 -265 -28 -68 -4 -103 -11
-108 -20 -6 -11 -25 -12 -80 -8 -53 5 -93 2 -152 -12 -64 -15 -73 -19 -47 -22
61 -6 26 -32 -45 -32 -18 0 -33 5 -33 10 0 6 6 10 13 10 8 0 8 3 -2 9 -9 6
-27 3 -50 -10 -20 -10 -61 -25 -92 -33 -31 -8 -70 -21 -85 -29 -21 -10 -38
-12 -59 -5 -16 5 -46 6 -65 3 -54 -9 -182 -55 -212 -76 -15 -11 -43 -19 -66
-19 -33 0 -44 -5 -61 -29 -19 -27 -26 -29 -106 -33 -70 -4 -89 -8 -108 -26
-13 -12 -45 -26 -72 -31 -36 -7 -54 -17 -72 -40 -21 -26 -31 -31 -68 -31 -26
0 -47 -6 -55 -15 -7 -8 -19 -15 -26 -15 -8 0 -31 -16 -53 -35 -21 -19 -43 -35
-50 -35 -6 0 -39 -10 -73 -22 -35 -12 -73 -21 -85 -20 -13 1 -37 -12 -57 -32
-20 -18 -38 -31 -41 -28 -3 3 -5 1 -5 -4 0 -5 -15 -10 -33 -11 -69 -3 -117
-23 -137 -56 -16 -26 -26 -31 -59 -32 -34 -1 -47 -9 -94 -57 -34 -34 -68 -59
-87 -63 -17 -4 -60 -26 -96 -50 -35 -24 -78 -46 -94 -50 -16 -3 -45 -19 -64
-35 -20 -15 -51 -31 -69 -34 -21 -4 -42 -18 -56 -36 -14 -19 -30 -30 -46 -30
-18 0 -33 -11 -53 -40 -20 -30 -49 -51 -118 -85 -76 -38 -103 -59 -155 -117
-35 -39 -82 -79 -104 -89 -22 -10 -47 -23 -55 -28 -8 -5 -31 -15 -50 -22 -39
-15 -132 -97 -124 -110 2 -4 -15 -20 -38 -35 -44 -27 -62 -48 -63 -72 0 -8
-17 -20 -38 -27 -51 -17 -85 -50 -108 -102 -15 -35 -25 -44 -59 -54 -28 -9
-54 -28 -86 -66 -25 -29 -51 -53 -57 -53 -7 0 -22 -15 -34 -33 -55 -80 -118
-153 -147 -170 -17 -10 -54 -42 -83 -70 -42 -40 -54 -59 -59 -93 -5 -38 -10
-44 -45 -58 -24 -10 -43 -26 -49 -40 -14 -37 -104 -166 -155 -221 -25 -27 -49
-63 -54 -80 -5 -20 -14 -29 -25 -29 -12 1 -25 -15 -40 -50 -13 -28 -33 -57
-45 -64 -11 -7 -21 -19 -21 -28 0 -9 -12 -28 -27 -43 -28 -27 -78 -85 -89
-102 -3 -5 -8 -21 -10 -35 -3 -15 -18 -40 -34 -56 -24 -24 -30 -38 -30 -73 0
-34 -5 -46 -24 -58 -13 -9 -30 -32 -36 -52 -7 -20 -22 -47 -33 -60 -39 -41
-44 -50 -51 -87 -3 -20 -13 -41 -21 -48 -8 -7 -17 -28 -21 -49 -4 -20 -15 -47
-25 -60 -11 -13 -19 -34 -19 -47 0 -13 -4 -24 -10 -24 -5 0 -10 -5 -10 -11 0
-11 -44 -73 -71 -101 -31 -32 -62 -90 -65 -125 -1 -19 -9 -42 -18 -52 -22 -24
-46 -97 -46 -138 0 -18 -8 -50 -19 -71 -10 -20 -22 -53 -26 -72 -4 -19 -20
-52 -36 -72 -16 -20 -29 -47 -29 -60 0 -13 -11 -44 -24 -69 -13 -25 -27 -62
-31 -82 -4 -20 -11 -37 -16 -37 -5 0 -9 -21 -9 -48 0 -31 -8 -63 -24 -92 -32
-60 -75 -192 -82 -249 -3 -25 -12 -66 -19 -91 -26 -87 -45 -170 -45 -199 0
-16 -9 -48 -20 -72 -13 -29 -20 -66 -20 -107 0 -53 -4 -69 -27 -99 -25 -32
-28 -44 -25 -97 1 -34 2 -77 1 -96 0 -19 -2 -78 -3 -132 -2 -57 -9 -114 -18
-140 -21 -57 -32 -206 -17 -224 6 -7 9 -21 6 -31 -3 -15 -6 -14 -15 7 l-10 25
-7 -32 c-4 -18 -11 -33 -16 -33 -5 0 -9 -30 -9 -67 0 -36 3 -63 7 -60 13 13
33 -16 32 -47 l-1 -31 -13 30 -14 30 -1 -28 c0 -16 5 -38 11 -50 11 -19 17
-71 21 -162 1 -16 -4 -43 -10 -60 -21 -57 -29 -171 -14 -212 7 -22 14 -100 16
-188 2 -82 8 -161 14 -175 5 -14 12 -103 16 -199 6 -131 11 -177 22 -188 25
-26 31 -46 33 -123 1 -55 9 -90 28 -135 17 -38 27 -80 28 -115 1 -30 9 -69 18
-86 22 -43 30 -101 20 -148 -8 -37 -6 -42 27 -74 23 -22 31 -35 23 -39 -17 -6
-16 -58 1 -91 8 -16 17 -62 20 -104 6 -80 21 -127 55 -170 27 -34 51 -101 51
-144 0 -18 13 -66 29 -106 15 -40 31 -89 35 -109 3 -20 18 -46 31 -59 14 -13
32 -49 41 -79 17 -55 34 -94 100 -221 18 -36 32 -71 29 -77 -2 -7 6 -20 19
-28 13 -9 32 -34 42 -58 10 -23 21 -44 25 -47 3 -3 9 -21 13 -41 3 -19 17 -51
31 -69 14 -18 28 -49 31 -67 3 -18 14 -39 23 -46 39 -29 72 -83 92 -150 15
-50 31 -80 53 -102 18 -16 45 -57 62 -90 16 -33 32 -62 35 -65 4 -3 10 -19 13
-37 5 -21 20 -39 47 -57 28 -19 39 -33 39 -52 0 -54 88 -196 220 -355 27 -33
50 -64 50 -69 0 -5 18 -19 40 -30 28 -14 44 -32 59 -65 14 -32 29 -48 55 -59
28 -11 37 -23 46 -55 7 -27 25 -53 57 -80 25 -23 50 -41 54 -41 5 0 26 -26 48
-57 50 -74 233 -255 288 -286 39 -21 123 -122 123 -147 0 -5 9 -12 21 -15 11
-4 66 -48 122 -99 120 -107 158 -136 183 -136 11 0 46 -28 79 -63 54 -57 108
-95 217 -151 40 -20 102 -76 93 -84 -3 -3 26 -23 64 -44 38 -21 79 -51 91 -68
17 -23 29 -30 56 -30 43 0 165 -76 190 -119 15 -25 25 -31 52 -31 26 0 41 -8
69 -40 20 -22 45 -40 55 -40 23 0 55 -16 83 -40 11 -10 36 -20 56 -24 20 -4
48 -19 64 -36 17 -18 39 -30 54 -30 32 0 181 -70 181 -85 0 -6 24 -22 53 -34
28 -12 59 -27 67 -32 30 -19 65 -30 109 -36 25 -3 58 -14 73 -24 14 -11 33
-19 41 -19 9 0 19 -5 22 -10 9 -15 85 -51 116 -55 14 -2 55 -16 90 -30 36 -15
98 -31 142 -35 95 -11 200 -44 246 -79 28 -21 49 -27 120 -32 65 -5 110 -16
181 -44 82 -33 111 -39 218 -46 88 -6 133 -14 160 -28 69 -35 152 -54 212 -48
46 5 61 3 85 -14 26 -17 44 -20 145 -18 86 2 130 -2 173 -15 35 -11 74 -16 95
-13 119 18 138 18 171 4 28 -12 40 -12 76 -1 24 7 46 10 49 6 10 -10 225 -26
326 -24 52 1 115 7 140 14 38 9 51 8 75 -5 28 -14 32 -13 64 8 34 24 59 25
139 5 22 -6 46 -4 70 4 20 7 56 11 78 8 23 -2 52 2 64 8 29 16 151 34 212 31
26 -1 64 6 85 15 25 10 88 19 178 25 146 8 177 14 260 47 152 61 164 64 214
57 39 -5 49 -3 54 9 4 9 14 16 22 16 9 0 13 -4 10 -10 -9 -15 55 -1 85 19 51
32 103 51 144 51 34 0 48 6 71 30 20 21 38 30 61 30 17 0 75 13 129 30 54 16
108 30 121 30 12 0 26 4 29 10 13 21 94 60 146 70 40 8 59 18 76 39 16 20 36
31 65 36 23 4 58 18 78 30 19 13 76 37 125 55 60 21 98 41 115 60 33 37 164
105 217 112 54 8 139 47 183 85 19 16 51 35 70 43 19 7 49 28 66 47 18 18 39
33 49 33 9 0 47 28 83 63 42 39 85 70 114 81 69 25 167 91 220 147 30 32 54
49 70 49 27 0 68 28 131 88 23 23 75 70 116 106 40 36 82 78 91 94 12 20 29
32 53 36 37 7 61 28 71 63 4 13 27 37 52 54 24 16 42 34 39 40 -4 5 -1 9 4 9
6 0 11 6 11 14 0 8 13 17 29 21 44 9 118 70 141 115 11 22 29 44 40 50 26 14
109 102 110 116 0 15 63 70 89 79 12 3 21 10 21 14 0 24 146 225 184 253 24
18 52 47 62 63 10 17 40 58 66 91 26 34 51 76 54 94 5 22 19 39 44 56 25 17
40 35 44 56 4 19 28 51 63 87 44 42 64 72 82 120 13 35 38 80 56 100 17 20 37
51 44 70 15 46 66 126 111 177 43 47 100 146 136 235 14 35 36 86 50 113 13
28 24 57 24 65 1 9 14 32 30 51 23 26 30 44 30 76 0 54 20 101 59 138 17 17
31 33 31 38 0 5 16 42 36 83 24 50 39 98 44 143 9 80 18 105 65 177 30 48 35
63 34 113 -1 60 7 89 40 137 12 17 21 43 21 58 0 15 9 45 20 67 12 24 20 59
20 89 0 35 8 65 31 107 24 47 30 67 26 99 -4 29 0 48 15 72 15 26 18 42 13 73
-5 32 -2 47 16 77 18 29 23 53 24 107 1 43 7 83 17 101 10 19 18 73 22 150 6
86 13 133 27 165 12 26 20 67 20 98 0 28 3 52 7 52 8 0 7 331 -1 410 -4 30 -4
46 -1 35 11 -40 22 -36 25 9 3 30 0 46 -7 46 -16 0 -17 129 -2 191 9 36 8 54
-1 77 -10 24 -10 39 -2 65 9 26 8 42 -4 76 -18 52 -19 96 -3 155 10 37 9 54
-6 103 -25 83 -35 162 -27 229 5 41 1 87 -12 149 -24 120 -39 236 -42 315 -1
39 -10 87 -23 119 -15 39 -20 66 -16 92 5 28 1 45 -13 66 -28 39 -61 156 -73
255 -15 117 -46 218 -97 317 -38 72 -44 91 -39 123 5 32 2 45 -20 73 -21 28
-25 43 -22 72 4 30 -3 55 -33 115 -22 43 -39 83 -39 91 0 7 -20 46 -45 86 -47
76 -52 86 -35 76 14 -9 12 7 -4 31 -8 11 -26 54 -40 97 -14 42 -48 122 -76
177 -27 55 -50 108 -50 118 0 10 -7 27 -15 38 -14 19 -14 19 -15 -1 -1 -14 -6
-10 -17 15 -59 134 -94 190 -132 213 -18 11 -34 31 -41 55 -7 20 -25 51 -41
67 -15 17 -37 58 -47 92 -15 48 -31 73 -73 115 -41 40 -68 82 -112 171 -47 96
-65 122 -97 143 -37 25 -110 124 -110 149 0 6 -42 54 -93 106 -52 52 -112 120
-136 151 -23 32 -54 64 -70 72 -16 9 -46 45 -70 85 -28 45 -52 73 -71 81 -16
7 -31 22 -34 36 -4 13 -11 24 -16 24 -6 0 -10 6 -10 14 0 8 -16 24 -36 36 -19
13 -58 50 -86 84 -28 33 -69 72 -92 85 -52 30 -76 51 -86 76 -4 11 -25 29 -46
40 -21 11 -48 34 -59 52 -11 17 -37 40 -59 49 -28 13 -43 29 -56 59 -14 33
-25 43 -56 53 -26 7 -46 22 -57 42 -10 17 -51 53 -92 80 -40 27 -76 54 -80 60
-3 5 -26 15 -51 21 -35 9 -66 31 -136 96 -50 46 -103 86 -117 89 -46 10 -95
36 -126 65 -16 15 -47 35 -67 43 -20 9 -45 24 -55 35 -10 10 -38 25 -63 32
-57 16 -58 16 -70 18 -5 0 -27 16 -47 35 -21 18 -63 41 -93 51 -55 17 -140 64
-167 91 -8 8 -21 14 -28 14 -8 0 -26 16 -41 35 -19 25 -39 39 -70 46 -24 6
-44 15 -44 19 0 4 -13 10 -29 13 -16 3 -49 19 -75 35 -25 16 -71 37 -103 47
-32 10 -74 29 -93 42 -22 14 -50 23 -75 23 -30 0 -53 10 -95 40 -68 48 -163
96 -210 105 -19 4 -60 16 -91 27 -37 13 -72 18 -103 15 -39 -3 -46 -1 -46 14
0 21 -16 26 -106 32 -41 3 -80 15 -122 36 -42 21 -76 31 -107 31 -27 0 -57 7
-72 17 -21 14 -54 18 -162 20 -113 3 -148 7 -206 27 -79 27 -212 50 -265 46
-87 -7 -181 6 -233 32 -28 14 -49 18 -77 13 -23 -4 -58 0 -91 9 -63 19 -103
20 -128 4 -15 -9 -26 -9 -48 2 -41 19 -570 23 -604 4z m-849 -94 c0 -5 -7 -10
-16 -10 -8 0 -12 5 -9 10 3 6 10 10 16 10 5 0 9 -4 9 -10z m-50 -4 c0 -3 -4
-8 -10 -11 -5 -3 -10 -1 -10 4 0 6 5 11 10 11 6 0 10 -2 10 -4z m3309 -237
c50 -30 30 -34 -31 -6 -42 20 -48 25 -28 26 14 1 40 -8 59 -20z m-3709 -401
c47 -46 93 -95 103 -110 9 -16 33 -34 52 -42 22 -10 41 -27 51 -49 12 -25 30
-41 65 -56 49 -23 80 -53 111 -109 10 -19 38 -42 70 -59 57 -30 112 -81 168
-155 19 -25 49 -54 65 -63 17 -9 41 -22 55 -30 43 -24 199 -182 234 -237 10
-15 44 -39 77 -54 49 -23 63 -35 81 -71 14 -28 31 -46 46 -50 28 -7 149 -103
177 -141 63 -87 130 -163 151 -174 13 -7 53 -31 89 -52 56 -34 65 -43 65 -68
0 -16 -7 -43 -16 -60 -12 -23 -14 -45 -9 -88 5 -44 3 -64 -9 -82 -12 -19 -15
-56 -12 -218 2 -140 -1 -206 -10 -233 -22 -62 -37 -243 -24 -282 9 -27 8 -40
-5 -66 -14 -25 -15 -39 -7 -72 7 -26 7 -48 1 -66 -6 -14 -19 -61 -29 -105 -18
-72 -18 -81 -3 -118 12 -31 14 -47 5 -76 -6 -20 -8 -58 -5 -84 4 -36 0 -63
-17 -108 -17 -46 -20 -64 -11 -73 18 -18 13 -52 -11 -74 -25 -22 -103 -64
-210 -113 -44 -20 -77 -44 -97 -69 -34 -43 -99 -85 -147 -95 -17 -4 -42 -18
-54 -32 -13 -13 -28 -24 -33 -24 -5 0 -37 -20 -71 -44 -33 -24 -86 -56 -116
-71 -30 -15 -73 -44 -95 -65 -26 -25 -59 -43 -96 -54 -43 -12 -62 -24 -88 -56
-23 -29 -39 -40 -59 -40 -17 0 -49 -16 -82 -41 -30 -22 -72 -50 -93 -61 -41
-20 -89 -60 -139 -114 -16 -17 -47 -37 -69 -44 -22 -8 -45 -22 -50 -31 -5 -10
-28 -27 -52 -37 -23 -11 -53 -31 -66 -46 -18 -19 -34 -26 -63 -26 -24 0 -38
-5 -38 -12 -1 -25 -39 -58 -82 -73 -55 -19 -110 -47 -123 -61 -5 -7 -30 -24
-55 -39 -25 -16 -57 -40 -73 -55 -18 -17 -59 -36 -120 -54 -79 -24 -98 -34
-134 -72 -24 -24 -51 -44 -60 -44 -10 0 -42 11 -71 25 -30 14 -63 25 -74 25
-10 0 -40 9 -66 19 -26 11 -76 22 -112 25 -38 4 -83 16 -110 30 -27 14 -73 26
-114 30 -37 4 -86 16 -107 26 -21 11 -51 20 -66 20 -16 0 -48 11 -73 24 -27
14 -71 26 -110 29 -36 4 -90 16 -119 27 -30 12 -80 26 -110 32 -31 5 -71 18
-91 28 -21 10 -48 16 -66 13 -34 -5 -70 10 -143 60 -40 28 -48 29 -108 24 -48
-5 -75 -2 -106 10 -47 19 -57 29 -57 59 0 12 -11 42 -25 68 -18 34 -28 74 -35
138 -8 79 -14 99 -54 170 -34 59 -47 94 -52 140 -4 33 -17 79 -29 103 -13 23
-26 61 -30 84 -9 52 -66 181 -88 199 -19 16 -33 57 -57 165 -22 104 -58 203
-89 245 -27 38 -50 113 -60 192 -4 33 -15 67 -29 85 -14 19 -27 57 -33 100 -7
43 -20 81 -34 100 -13 16 -25 50 -28 75 -7 63 -34 150 -52 170 -14 15 -53 121
-88 234 -11 36 -10 39 15 60 15 12 31 39 37 63 11 41 59 93 106 115 13 6 28
26 35 48 9 28 22 42 49 54 20 9 46 32 58 51 12 18 35 41 51 50 15 9 37 30 48
46 10 16 47 50 82 76 35 26 71 62 82 82 28 54 219 237 256 245 19 4 61 36 115
90 67 65 94 85 124 90 63 12 203 122 231 182 15 32 21 36 74 48 14 3 33 18 42
34 14 23 31 32 85 47 37 9 91 33 118 51 28 19 55 34 62 34 6 0 25 16 42 35 18
21 44 38 63 42 49 9 102 39 131 72 14 17 38 33 53 37 66 16 181 68 209 94 22
20 48 32 95 41 51 9 73 19 100 45 28 26 44 34 74 34 27 0 48 8 70 27 37 31
103 62 132 63 11 0 57 16 101 35 45 19 88 35 97 35 9 0 39 11 66 25 27 14 62
25 78 25 16 0 46 7 65 15 20 8 49 15 64 16 15 0 44 6 63 13 50 17 80 2 180
-96z m4215 -232 c89 -22 108 -31 133 -65 18 -25 30 -31 61 -31 33 0 42 -5 62
-35 17 -24 38 -40 70 -50 26 -9 71 -30 100 -48 30 -18 83 -43 119 -56 46 -17
82 -40 123 -77 32 -30 63 -54 69 -54 6 0 32 -13 58 -29 25 -16 62 -32 81 -36
38 -8 69 -31 69 -51 0 -8 19 -26 43 -41 23 -15 77 -60 121 -100 65 -60 86 -73
123 -79 33 -5 50 -14 66 -36 12 -17 38 -38 58 -48 20 -11 60 -45 89 -77 33
-37 78 -72 126 -98 58 -32 86 -55 134 -115 33 -41 60 -79 60 -85 0 -17 41 -52
80 -69 39 -16 80 -56 103 -101 9 -16 56 -72 105 -122 50 -51 103 -113 118
-138 16 -24 43 -52 61 -62 20 -11 45 -41 69 -83 21 -37 52 -77 70 -89 24 -17
34 -33 39 -62 5 -26 15 -45 31 -55 13 -9 42 -46 65 -82 23 -37 64 -92 91 -122
27 -30 57 -74 68 -97 10 -23 28 -47 40 -53 27 -14 50 -68 50 -114 0 -28 -8
-43 -35 -67 -27 -25 -35 -40 -35 -67 0 -23 -8 -44 -22 -59 -12 -13 -23 -30
-24 -38 -1 -9 -22 -57 -47 -108 -25 -52 -48 -113 -52 -138 -5 -28 -22 -63 -50
-99 -58 -76 -75 -112 -75 -162 -1 -31 -11 -60 -35 -103 -19 -33 -38 -69 -42
-80 -4 -11 -20 -45 -36 -75 -16 -30 -38 -83 -48 -117 -11 -34 -30 -75 -43 -90
-13 -15 -33 -64 -45 -108 -12 -44 -28 -87 -35 -95 -18 -21 -46 -85 -46 -104 0
-9 -15 -33 -33 -53 -23 -26 -40 -60 -52 -105 -10 -38 -21 -68 -25 -68 -10 0
-65 -106 -80 -155 -7 -22 -19 -49 -26 -60 -6 -11 -15 -40 -19 -64 -6 -37 -19
-55 -79 -116 -74 -75 -111 -92 -175 -79 -14 3 -57 -3 -96 -13 -53 -15 -81 -17
-115 -11 -57 11 -125 2 -212 -28 -63 -21 -77 -22 -146 -14 -64 8 -79 7 -100
-6 -16 -11 -36 -14 -59 -11 -38 7 -177 -21 -238 -47 -28 -12 -76 -18 -155 -21
-145 -4 -242 -18 -272 -39 -12 -9 -41 -16 -65 -16 -23 0 -45 -4 -48 -10 -3 -5
-21 -10 -38 -10 -25 0 -37 7 -55 35 -15 23 -30 35 -45 35 -32 0 -50 16 -96 84
-25 37 -52 65 -74 75 -20 9 -50 36 -69 60 -18 25 -62 64 -98 87 -77 51 -147
107 -238 190 -43 40 -79 64 -102 69 -53 11 -88 35 -125 87 -23 32 -43 48 -65
53 -23 5 -39 19 -58 51 -15 24 -35 47 -45 50 -17 5 -100 78 -187 165 -21 20
-57 46 -81 56 -24 11 -55 31 -69 44 -33 33 -170 134 -192 142 -9 3 -27 24 -40
46 -12 21 -35 47 -51 56 -16 10 -38 28 -49 40 -11 13 -36 30 -56 39 -26 12
-45 31 -62 64 -14 26 -49 65 -80 90 -30 24 -69 56 -87 70 -18 14 -46 33 -64
41 -21 11 -42 35 -62 74 l-31 57 18 48 c23 60 38 234 25 285 -8 29 -6 52 7 97
11 41 14 73 9 102 -11 63 -10 84 9 183 11 55 14 103 10 125 -4 19 -8 40 -9 45
0 6 7 40 18 77 13 50 15 73 8 87 -15 27 -14 67 3 100 12 21 12 37 4 72 -6 26
-7 74 -2 119 4 41 9 109 10 150 9 204 12 247 19 265 19 45 53 79 114 113 36
19 78 48 95 63 17 15 49 32 71 38 26 7 47 21 60 41 13 19 34 34 57 41 24 6 54
27 84 59 45 48 93 80 121 80 7 0 13 5 13 10 0 6 6 10 13 10 6 0 34 23 61 50
50 49 60 56 168 104 32 13 95 54 140 89 46 35 103 77 128 92 25 16 55 37 66
47 12 11 42 27 68 37 26 9 74 41 106 69 32 29 73 55 90 59 18 3 41 18 53 35
42 57 218 175 311 209 20 7 48 23 63 35 16 13 35 21 43 19 8 -2 42 -10 75 -19z
m3433 -2811 c-3 -3 -9 2 -12 12 -6 14 -5 15 5 6 7 -7 10 -15 7 -18z m-10243
-1870 c97 -58 98 -59 185 -60 67 -1 94 -6 127 -23 23 -12 59 -22 80 -22 24 0
59 -12 93 -31 102 -58 112 -62 204 -72 71 -7 106 -17 159 -44 48 -24 79 -33
106 -31 23 1 49 -5 64 -15 32 -21 156 -47 224 -47 36 0 78 -11 140 -35 94 -38
196 -66 254 -68 32 -2 35 -5 36 -32 3 -96 17 -183 35 -213 14 -23 19 -46 16
-77 -2 -25 0 -45 3 -45 3 0 4 -11 1 -25 -2 -14 5 -49 17 -77 13 -35 20 -72 19
-108 -1 -40 6 -73 26 -120 15 -36 32 -86 36 -111 5 -25 15 -62 23 -81 8 -20
18 -67 22 -105 6 -52 15 -78 38 -110 25 -36 30 -52 32 -111 1 -53 7 -77 24
-101 17 -24 21 -38 15 -66 -4 -25 -1 -45 15 -75 12 -22 21 -57 21 -76 0 -19 4
-43 10 -53 10 -20 15 -45 25 -136 4 -37 15 -73 30 -95 13 -19 26 -46 30 -60 4
-14 11 -27 14 -30 3 -3 17 -41 29 -85 13 -44 29 -83 35 -87 7 -4 12 -35 13
-75 1 -43 9 -90 22 -127 12 -33 20 -61 17 -64 -2 -2 2 -16 9 -31 18 -36 13
-173 -7 -204 -8 -13 -20 -42 -27 -65 -8 -30 -19 -46 -40 -57 -23 -12 -30 -24
-36 -60 -4 -33 -17 -58 -42 -86 -19 -21 -40 -39 -45 -39 -5 0 -22 -12 -37 -27
-15 -16 -46 -44 -68 -64 -26 -23 -44 -50 -51 -76 -7 -25 -21 -47 -38 -58 -45
-30 -81 -76 -88 -112 -5 -26 -28 -58 -90 -120 -59 -61 -85 -95 -90 -119 -4
-23 -23 -48 -64 -86 -41 -37 -62 -65 -69 -91 -6 -21 -23 -48 -38 -59 -14 -12
-34 -38 -43 -57 -25 -54 -64 -109 -124 -176 l-55 -60 -138 -3 c-77 -1 -157 2
-179 8 -31 9 -47 8 -73 -3 -26 -11 -43 -11 -73 -3 -28 7 -48 7 -71 -2 -37 -13
-91 -15 -160 -6 -32 4 -63 1 -95 -10 -50 -17 -153 -22 -153 -7 0 18 -152 32
-255 22 -55 -6 -145 -8 -200 -5 -121 5 -112 5 -255 0 -63 -2 -151 -9 -195 -17
-91 -15 -176 -14 -287 3 -67 10 -90 9 -170 -7 -51 -10 -114 -21 -139 -25 l-46
-6 -11 42 c-6 23 -22 54 -35 68 -14 15 -27 44 -30 67 -3 25 -21 63 -47 100
-22 32 -46 73 -52 91 -6 18 -32 62 -58 98 -31 43 -51 82 -58 116 -6 28 -27 87
-47 132 -19 44 -35 84 -35 89 0 5 -13 22 -30 38 -23 22 -30 38 -30 66 0 25 -8
47 -24 66 -13 16 -26 49 -31 78 -10 72 -43 156 -75 190 -15 17 -31 47 -34 68
-4 21 -18 59 -32 84 -18 34 -24 62 -24 105 0 44 -5 67 -20 89 -38 53 -59 114
-65 194 -11 131 -25 195 -52 236 -20 31 -25 50 -24 101 0 35 -6 90 -14 123
-40 165 -45 196 -45 251 0 42 -6 69 -21 94 -18 29 -21 45 -17 101 4 44 0 78
-8 99 -11 26 -12 40 -2 71 8 29 8 52 0 92 -6 28 -13 71 -14 95 -2 38 3 47 48
93 27 28 70 61 96 74 27 12 58 35 70 50 12 15 37 34 56 42 19 8 45 27 59 43
16 20 37 31 66 35 33 5 47 14 64 40 14 21 33 36 54 40 36 8 176 105 229 159
19 19 59 44 88 55 96 38 133 61 165 107 21 30 49 54 87 72 30 16 75 42 99 60
24 18 49 32 56 32 7 0 38 24 69 54 31 30 73 60 94 67 20 6 62 34 92 62 30 27
73 58 96 67 22 10 57 32 76 49 20 17 51 34 69 37 20 4 52 24 79 49 25 23 69
55 98 70 29 16 69 43 90 61 79 67 158 81 227 39z m8583 -554 c9 -26 72 -112
99 -135 15 -13 42 -27 60 -30 20 -5 52 -29 91 -69 33 -34 74 -73 91 -86 18
-13 44 -42 59 -65 42 -66 73 -95 144 -137 45 -26 82 -59 113 -98 26 -33 60
-65 76 -72 17 -6 42 -27 56 -46 35 -46 130 -118 183 -139 29 -12 61 -39 104
-89 34 -40 85 -91 113 -114 28 -22 54 -45 58 -50 3 -6 25 -19 48 -29 40 -18
167 -141 167 -163 0 -5 17 -18 39 -27 22 -10 57 -40 83 -72 24 -30 59 -63 78
-74 19 -10 47 -36 62 -56 14 -21 53 -60 87 -87 46 -37 60 -54 60 -75 1 -16 -3
-28 -7 -28 -4 0 -8 -8 -9 -17 -8 -104 -32 -192 -60 -221 -15 -16 -17 -72 -3
-72 20 0 9 -69 -21 -125 -22 -41 -29 -64 -24 -85 4 -18 -1 -44 -13 -71 -11
-24 -24 -66 -30 -94 -35 -162 -54 -207 -115 -265 -10 -10 -20 -39 -24 -71 -3
-30 -9 -58 -13 -64 -4 -5 -24 -59 -44 -120 -24 -69 -48 -121 -65 -140 -26 -28
-91 -187 -91 -224 0 -9 -16 -27 -36 -41 -43 -31 -133 -208 -132 -260 1 -26 -6
-40 -29 -59 -25 -21 -30 -32 -26 -56 4 -25 -2 -37 -31 -67 -20 -20 -36 -41
-36 -45 0 -5 -9 -14 -21 -21 -11 -7 -29 -34 -40 -60 -11 -26 -33 -59 -49 -74
-19 -17 -32 -41 -36 -67 -5 -30 -14 -46 -38 -62 -41 -28 -73 -76 -82 -124 -5
-26 -15 -42 -36 -55 -42 -25 -126 -127 -139 -169 -26 -81 -85 -102 -210 -76
-39 8 -87 15 -107 15 -20 1 -52 9 -71 19 -28 15 -42 16 -69 9 -26 -7 -44 -6
-71 6 -24 11 -60 15 -111 13 -59 -2 -86 3 -127 21 -45 19 -63 21 -135 16 -72
-5 -94 -2 -163 19 -60 19 -103 26 -172 26 -50 1 -115 6 -144 11 -28 6 -69 10
-90 10 -20 0 -58 9 -84 20 -34 14 -69 20 -126 20 -51 0 -90 5 -109 15 -21 11
-45 13 -88 9 -73 -8 -197 9 -311 43 -47 14 -114 26 -148 27 -46 2 -68 7 -84
22 -40 36 -79 103 -85 146 -5 35 -12 47 -35 60 -24 14 -29 23 -29 58 0 30 -9
52 -35 88 -19 26 -47 75 -64 108 -16 32 -39 68 -51 79 -33 30 -67 87 -80 135
-20 74 -106 233 -139 258 -22 16 -31 31 -31 51 0 19 -13 44 -35 71 -19 23 -35
49 -35 58 0 9 -16 51 -36 93 -31 67 -42 80 -80 100 -35 17 -46 30 -54 59 -5
20 -21 47 -36 61 -14 13 -32 40 -40 59 -14 33 -14 36 16 77 16 24 30 56 30 71
1 56 22 119 67 197 78 134 92 168 93 213 0 46 30 120 61 148 10 9 19 24 19 31
0 27 61 197 95 263 18 36 35 84 38 108 3 24 21 70 41 103 20 33 39 79 42 102
4 25 17 54 34 72 15 17 31 47 34 67 4 20 22 67 40 105 18 37 41 99 50 137 10
38 26 82 37 97 10 15 19 40 19 57 0 16 11 50 25 76 14 26 25 62 25 81 0 27 7
39 35 61 30 22 35 32 35 66 0 25 8 51 23 71 26 37 84 190 100 265 l11 52 110
0 c99 0 113 2 153 26 34 19 61 26 116 29 132 6 212 16 252 32 22 9 74 17 115
19 41 1 100 9 130 18 32 9 108 18 185 20 81 3 146 11 174 20 24 9 64 16 90 16
25 0 77 7 116 15 38 8 89 15 111 15 23 0 57 6 75 14 37 16 61 15 67 -3z
m-5676 -2832 c84 -7 136 -8 155 -2 33 12 185 -6 221 -26 18 -9 31 -10 58 -1
28 10 48 9 105 -5 44 -11 87 -15 114 -12 28 4 59 1 87 -9 39 -14 110 -16 348
-14 25 0 78 -6 117 -14 64 -14 76 -14 109 0 39 16 92 12 147 -11 22 -9 39 -10
60 -3 20 8 45 7 81 0 67 -15 161 -25 211 -23 22 1 76 -6 120 -14 60 -12 87
-14 108 -6 16 6 93 11 173 11 115 0 152 -3 177 -17 18 -9 51 -15 74 -14 36 1
45 -3 60 -26 9 -16 30 -43 45 -61 19 -22 28 -44 28 -66 0 -61 72 -192 144
-259 28 -27 36 -42 36 -69 0 -27 6 -38 26 -48 30 -17 36 -26 65 -111 12 -35
34 -77 50 -94 15 -16 36 -49 46 -71 10 -23 33 -54 51 -69 18 -15 32 -37 32
-48 1 -33 36 -104 67 -136 16 -15 33 -39 39 -52 6 -13 23 -49 37 -80 15 -31
27 -61 27 -67 0 -6 17 -28 38 -49 29 -28 44 -57 62 -113 12 -41 31 -81 41 -88
30 -21 25 -100 -10 -170 -15 -31 -31 -76 -34 -99 -3 -23 -14 -54 -26 -69 -12
-15 -21 -37 -21 -50 0 -13 -4 -24 -10 -24 -5 0 -10 -11 -10 -24 0 -15 -10 -30
-27 -42 -42 -27 -53 -40 -53 -66 0 -45 -22 -103 -50 -133 -36 -38 -60 -94 -60
-140 0 -39 -16 -76 -74 -170 -37 -60 -66 -140 -66 -181 0 -12 -8 -39 -17 -60
-9 -22 -17 -41 -18 -44 -8 -40 -44 -123 -65 -150 -16 -21 -34 -62 -43 -102
-11 -50 -23 -76 -46 -98 -25 -25 -31 -40 -31 -73 0 -42 -24 -103 -94 -237 -19
-36 -35 -68 -35 -73 0 -4 -14 -36 -31 -71 -20 -42 -33 -85 -36 -123 -4 -59 -7
-79 -25 -147 l-10 -39 -51 6 c-39 5 -59 2 -88 -13 -35 -18 -42 -18 -84 -6 -39
12 -55 12 -99 1 -28 -7 -79 -16 -112 -20 -33 -4 -62 -10 -65 -14 -13 -18 -116
-37 -155 -29 -22 5 -89 6 -150 2 -137 -8 -177 -7 -437 11 -100 7 -108 6 -143
-15 -31 -19 -42 -21 -73 -13 -21 5 -66 9 -102 8 -37 -1 -80 4 -100 12 -28 11
-50 12 -125 2 -83 -11 -95 -10 -165 10 -128 38 -152 42 -209 35 -81 -11 -133
-1 -153 29 -3 6 -39 14 -80 18 -40 5 -74 13 -76 19 -2 5 -21 10 -42 10 -21 0
-71 11 -112 25 -40 14 -94 25 -120 25 -33 0 -66 9 -107 31 -48 24 -68 29 -95
23 -30 -5 -39 -2 -61 22 -40 45 -63 96 -76 170 -7 38 -25 98 -41 132 -15 35
-28 79 -28 97 0 19 -11 55 -25 81 -14 26 -25 60 -25 76 0 16 -7 40 -16 54 -12
18 -15 37 -10 70 5 39 2 50 -20 79 -18 23 -24 41 -19 55 4 12 -6 56 -24 109
-17 49 -31 98 -31 109 0 11 -11 44 -25 74 -18 38 -25 70 -25 113 0 80 -14 125
-49 161 -30 31 -51 88 -51 140 0 17 -7 48 -15 67 -8 20 -15 51 -15 69 -1 18
-14 58 -30 88 -20 36 -30 69 -30 98 0 24 -10 63 -23 90 -14 28 -24 70 -26 102
-1 30 -7 73 -13 95 -6 22 -11 63 -12 90 -1 29 -13 74 -29 108 -45 100 -45 117
3 193 23 37 55 78 69 90 15 13 33 41 39 63 9 27 27 52 59 78 97 81 123 115
123 168 0 15 20 46 54 82 29 32 60 72 69 89 9 17 51 62 93 100 60 54 84 84
115 145 25 51 56 94 90 126 29 26 61 67 71 91 10 23 30 49 43 58 27 17 106
141 123 192 6 18 22 46 34 62 19 24 29 29 53 25 17 -2 87 -10 157 -16z m-4199
-1769 c8 -29 0 -24 -19 13 -14 27 -15 30 -2 19 9 -7 18 -22 21 -32z"/>
<path d="M19717 28859 c7 -7 15 -10 18 -7 3 3 -2 9 -12 12 -14 6 -15 5 -6 -5z"/>
<path d="M15890 28820 c-9 -6 -10 -10 -3 -10 6 0 15 5 18 10 8 12 4 12 -15 0z"/>
<path d="M21326 28342 c-3 -5 1 -9 9 -9 8 0 12 4 9 9 -3 4 -7 8 -9 8 -2 0 -6
-4 -9 -8z"/>
<path d="M22810 28196 c0 -3 9 -10 20 -16 11 -6 20 -8 20 -6 0 3 -9 10 -20 16
-11 6 -20 8 -20 6z"/>
<path d="M26214 27898 l-19 -23 23 19 c12 11 22 21 22 23 0 8 -8 2 -26 -19z"/>
<path d="M24096 27538 c3 -5 10 -6 15 -3 13 9 11 12 -6 12 -8 0 -12 -4 -9 -9z"/>
<path d="M21616 27182 c-3 -5 1 -9 9 -9 8 0 12 4 9 9 -3 4 -7 8 -9 8 -2 0 -6
-4 -9 -8z"/>
<path d="M17632 26625 c15 -16 20 -17 30 -6 11 11 10 13 0 7 -7 -4 -21 -2 -30
5 -15 12 -15 11 0 -6z"/>
<path d="M25174 26298 l-19 -23 23 19 c12 11 22 21 22 23 0 8 -8 2 -26 -19z"/>
<path d="M20495 26140 c10 -11 20 -20 23 -20 3 0 -3 9 -13 20 -10 11 -20 20
-23 20 -3 0 3 -9 13 -20z"/>
<path d="M25014 25978 l-19 -23 23 19 c12 11 22 21 22 23 0 8 -8 2 -26 -19z"/>
<path d="M23646 25862 c-3 -5 1 -9 9 -9 8 0 12 4 9 9 -3 4 -7 8 -9 8 -2 0 -6
-4 -9 -8z"/>
<path d="M19890 25071 c0 -6 4 -13 10 -16 6 -3 7 1 4 9 -7 18 -14 21 -14 7z"/>
<path d="M17636 24392 c-3 -5 1 -9 9 -9 8 0 12 4 9 9 -3 4 -7 8 -9 8 -2 0 -6
-4 -9 -8z"/>
<path d="M22210 22591 c0 -6 4 -13 10 -16 6 -3 7 1 4 9 -7 18 -14 21 -14 7z"/>
<path d="M28435 9788 c10 -183 10 -184 50 -186 18 -1 36 1 38 5 3 5 8 67 12
138 4 72 9 133 12 138 2 4 -23 7 -56 7 l-61 0 5 -102z"/>
<path d="M5570 9827 c-119 -27 -169 -89 -178 -223 l-5 -74 -53 0 -54 0 0 -45
0 -45 55 0 55 0 0 -355 0 -355 55 0 55 0 0 355 0 354 92 3 91 3 1 40 1 40 -92
3 -93 3 0 50 c0 98 38 145 127 157 l48 7 0 45 c0 41 -2 45 -25 47 -14 1 -50
-4 -80 -10z"/>
<path d="M15355 9805 c-45 -44 -25 -117 35 -130 60 -13 109 45 89 105 -20 55
-82 68 -124 25z"/>
<path d="M18190 9270 l0 -540 54 0 54 0 5 263 c4 295 9 318 72 383 56 59 134
81 224 66 78 -13 126 -48 161 -118 25 -48 25 -54 28 -321 l3 -273 55 0 56 0
-4 283 c-4 262 -5 286 -26 337 -29 74 -73 125 -136 158 -46 25 -61 27 -161 27
-103 0 -113 -2 -164 -30 -29 -16 -66 -45 -82 -64 l-29 -36 0 203 0 202 -55 0
-55 0 0 -540z"/>
<path d="M21890 9593 l0 -216 -27 35 c-36 47 -114 97 -176 116 -81 23 -197 13
-278 -26 -80 -38 -130 -91 -173 -181 -30 -63 -31 -71 -31 -191 0 -149 19 -209
92 -290 58 -64 114 -97 194 -114 150 -31 294 15 369 117 l30 41 0 -77 0 -77
55 0 55 0 0 540 0 540 -55 0 -55 0 0 -217z m-168 -175 c135 -57 203 -240 151
-407 -26 -82 -107 -163 -187 -186 -143 -41 -279 16 -348 148 -19 36 -23 58
-23 152 0 95 3 116 23 157 71 143 231 200 384 136z"/>
<path d="M4642 9542 c-40 -108 -124 -335 -186 -504 l-113 -308 58 0 58 0 19
53 c11 28 30 82 43 120 l24 67 230 0 230 0 43 -120 44 -120 58 0 58 0 -38 103
c-20 56 -104 283 -185 505 l-148 402 -61 0 -61 0 -73 -198z m231 -212 c47
-129 89 -243 92 -252 7 -17 -6 -18 -190 -18 -184 0 -197 1 -190 18 4 9 48 129
98 265 53 147 93 243 97 235 4 -7 46 -119 93 -248z"/>
<path d="M5860 9630 l0 -100 -55 0 -55 0 0 -45 0 -45 55 0 55 0 0 -260 c0
-147 5 -281 11 -309 22 -103 82 -140 227 -141 l92 0 0 45 0 45 -64 0 c-34 0
-76 5 -92 10 -57 20 -59 29 -62 333 l-3 277 110 0 111 0 0 45 0 45 -110 0
-110 0 0 100 0 100 -55 0 -55 0 0 -100z"/>
<path d="M24673 9539 c-69 -9 -134 -42 -177 -90 l-36 -39 0 60 0 60 -55 0 -55
0 0 -400 0 -400 54 0 54 0 5 263 c4 295 9 318 72 383 56 59 134 81 224 66 78
-13 126 -48 161 -118 25 -48 25 -54 28 -321 l3 -273 55 0 54 0 0 248 c0 258
-8 340 -41 405 -59 115 -194 176 -346 156z"/>
<path d="M6563 9519 c-115 -36 -205 -132 -239 -255 -23 -85 -16 -237 15 -316
55 -142 194 -231 361 -230 129 0 233 44 302 127 43 51 76 133 56 135 -5 0 -30
0 -56 0 -47 0 -49 -1 -69 -44 -40 -81 -122 -125 -233 -125 -72 0 -133 20 -183
61 -44 34 -88 118 -90 170 -2 51 -45 46 351 47 l302 1 0 69 c0 130 -56 250
-147 312 -99 68 -246 87 -370 48z m238 -90 c84 -26 157 -118 161 -205 l3 -49
-272 -2 -273 -2 0 24 c0 50 40 133 84 173 24 22 53 45 65 51 56 30 150 34 232
10z"/>
<path d="M7503 9519 c-35 -13 -66 -35 -93 -66 l-40 -46 0 62 0 61 -55 0 -55 0
0 -400 0 -400 54 0 54 0 4 268 c3 264 3 268 29 317 33 66 93 103 179 113 l64
7 1 53 1 52 -45 -1 c-25 0 -69 -9 -98 -20z"/>
<path d="M8904 9531 c-131 -32 -229 -128 -269 -265 -24 -82 -17 -239 14 -318
63 -163 237 -252 439 -226 107 13 218 91 261 181 35 75 33 80 -28 81 l-53 1
-24 -48 c-28 -54 -88 -102 -148 -118 -63 -17 -163 -7 -220 21 -77 39 -136 125
-139 203 l-2 42 325 2 325 2 3 67 c10 223 -153 386 -381 383 -40 -1 -86 -4
-103 -8z m208 -103 c81 -24 154 -115 165 -207 l6 -50 -272 0 c-234 1 -273 3
-278 16 -11 28 26 119 67 165 77 88 182 114 312 76z"/>
<path d="M10569 9517 c-116 -40 -193 -120 -232 -242 -15 -48 -18 -81 -14 -165
5 -131 29 -198 97 -273 140 -153 423 -162 566 -19 40 41 99 146 90 161 -4 5
-49 6 -107 2 -4 -1 -13 -15 -20 -33 -60 -146 -286 -185 -425 -74 -43 34 -85
115 -87 170 l-2 41 325 2 325 1 3 67 c12 274 -247 455 -519 362z m272 -103
c78 -39 130 -115 133 -193 l1 -46 -259 -2 c-142 -1 -265 1 -272 4 -19 7 -17
33 6 96 20 52 66 106 123 141 66 41 188 41 268 0z"/>
<path d="M11513 9519 c-35 -13 -66 -35 -93 -66 l-40 -46 0 62 0 61 -55 0 -55
0 0 -400 0 -400 54 0 54 0 4 268 c3 264 3 268 29 317 33 66 93 103 179 113
l63 7 4 53 3 52 -47 -1 c-27 0 -71 -9 -100 -20z"/>
<path d="M13704 9531 c-131 -32 -229 -128 -269 -265 -24 -82 -17 -239 14 -318
63 -163 237 -252 439 -226 107 13 218 91 261 181 35 75 33 80 -28 81 l-53 1
-24 -48 c-28 -54 -88 -102 -148 -118 -63 -17 -163 -7 -220 21 -77 39 -136 125
-139 203 l-2 42 325 2 325 2 3 67 c10 223 -153 386 -381 383 -40 -1 -86 -4
-103 -8z m208 -103 c81 -24 154 -115 165 -207 l6 -50 -272 0 c-234 1 -273 3
-278 16 -11 28 26 119 67 165 77 88 182 114 312 76z"/>
<path d="M14695 9531 c-76 -19 -162 -79 -196 -135 l-19 -31 0 83 0 82 -55 0
-55 0 0 -590 0 -590 55 0 55 0 0 266 0 266 44 -49 c81 -90 198 -131 325 -113
220 31 359 239 321 483 -22 145 -91 244 -210 300 -54 26 -79 31 -150 34 -47 1
-98 -1 -115 -6z m232 -127 c88 -51 136 -148 136 -274 0 -72 -4 -95 -28 -148
-101 -225 -412 -227 -522 -4 -24 50 -28 69 -28 147 0 82 3 97 33 157 46 94
113 145 206 157 70 9 153 -5 203 -35z"/>
<path d="M15935 9531 c-133 -36 -220 -118 -265 -252 -19 -55 -21 -80 -18 -174
4 -91 10 -120 31 -167 34 -75 106 -151 176 -185 52 -26 65 -28 181 -28 116 0
129 2 181 28 65 31 132 99 160 160 31 69 27 77 -33 77 l-53 0 -28 -53 c-44
-83 -122 -127 -227 -127 -114 0 -208 59 -253 158 -32 73 -36 219 -7 296 45
119 133 180 260 180 60 0 85 -5 124 -25 54 -27 100 -77 117 -126 10 -32 12
-33 65 -33 49 0 54 2 54 23 -1 75 -100 190 -196 227 -63 25 -212 36 -269 21z"/>
<path d="M17599 9526 c-81 -29 -146 -86 -164 -144 -12 -39 -7 -119 9 -150 8
-16 32 -44 54 -64 39 -35 87 -54 268 -107 124 -36 165 -103 114 -186 -35 -57
-145 -82 -243 -54 -46 12 -106 70 -114 110 -5 28 -8 29 -59 29 -50 0 -54 -2
-54 -24 0 -66 63 -146 146 -187 39 -19 69 -25 145 -27 113 -4 163 7 221 51 77
58 108 160 75 240 -29 67 -83 102 -243 152 -172 54 -214 84 -214 150 0 67 36
107 112 125 62 15 130 4 176 -30 35 -25 47 -44 66 -102 4 -14 17 -18 57 -18
l52 0 -7 48 c-11 85 -90 168 -183 191 -57 15 -170 13 -214 -3z"/>
<path d="M19350 9526 c-64 -18 -106 -42 -157 -89 -85 -79 -123 -174 -123 -313
0 -265 185 -433 447 -403 177 20 306 135 342 307 39 185 -33 374 -174 456 -88
52 -233 70 -335 42z m246 -110 c189 -88 220 -397 54 -539 -135 -115 -354 -72
-438 87 -25 46 -27 61 -27 161 0 91 4 118 21 155 28 58 69 103 119 128 59 29
63 30 145 31 59 1 86 -4 126 -23z"/>
<path d="M22448 9521 c-73 -24 -116 -51 -168 -107 -67 -73 -93 -140 -98 -259
-5 -121 12 -192 65 -272 82 -124 208 -178 380 -162 222 21 368 205 350 444
-13 173 -103 297 -255 351 -83 29 -191 31 -274 5z m178 -82 c73 -13 133 -47
173 -98 41 -52 57 -93 66 -168 17 -150 -52 -286 -173 -340 -59 -26 -186 -23
-242 6 -105 54 -151 131 -158 262 -9 187 72 307 230 338 24 5 43 9 44 10 0 1
27 -4 60 -10z"/>
<path d="M27808 9525 c-98 -27 -177 -91 -222 -180 -38 -78 -49 -135 -44 -242
6 -121 32 -193 95 -263 142 -158 423 -167 572 -19 42 42 75 100 83 144 3 17
-3 20 -50 21 -52 2 -53 1 -74 -40 -45 -91 -105 -127 -221 -134 -71 -4 -82 -2
-142 27 -74 37 -116 83 -140 158 -31 94 -51 88 290 90 165 2 312 3 328 3 27 0
27 0 27 69 0 227 -157 383 -384 380 -39 0 -92 -7 -118 -14z m242 -106 c80 -36
132 -103 146 -189 5 -31 3 -44 -7 -51 -16 -10 -498 -13 -523 -3 -21 8 -20 32
4 97 18 47 56 93 113 137 56 42 182 46 267 9z"/>
<path d="M28943 9519 c-35 -13 -66 -35 -93 -66 l-40 -46 0 62 0 61 -55 0 -55
0 0 -400 0 -400 54 0 54 0 4 268 c3 264 3 268 29 317 33 66 93 103 179 113
l64 7 1 53 1 52 -45 -1 c-25 0 -69 -9 -98 -20z"/>
<path d="M29443 9519 c-115 -36 -205 -132 -239 -255 -23 -85 -16 -237 15 -316
55 -142 194 -231 361 -230 129 0 233 44 302 127 43 51 76 133 56 135 -5 0 -30
0 -56 0 -47 0 -49 -1 -69 -44 -40 -81 -122 -125 -233 -125 -72 0 -133 20 -183
61 -44 34 -88 118 -90 170 -2 51 -45 46 351 47 l302 1 0 69 c0 130 -56 250
-147 312 -99 68 -246 87 -370 48z m238 -90 c84 -26 157 -118 161 -205 l3 -49
-272 -2 -273 -2 0 24 c0 50 40 133 84 173 24 22 53 45 65 51 56 30 150 34 232
10z"/>
<path d="M9474 9513 c4 -10 75 -190 159 -400 l152 -383 63 3 64 2 139 345 c76
190 148 369 159 398 l20 52 -58 0 -58 0 -63 -167 c-35 -93 -93 -241 -128 -330
-34 -89 -63 -167 -63 -172 0 -6 -3 -11 -7 -11 -9 0 -5 -9 -159 395 l-109 285
-59 0 c-51 0 -57 -2 -52 -17z"/>
<path d="M11710 9524 c0 -4 158 -390 280 -684 22 -52 40 -99 40 -105 0 -5 -34
-93 -75 -194 -41 -101 -75 -185 -75 -187 0 -10 110 -3 116 7 11 19 456 1123
461 1147 5 21 2 22 -48 22 l-54 0 -49 -127 c-65 -168 -194 -503 -204 -526 -5
-13 -46 81 -141 318 l-134 335 -58 0 c-33 0 -59 -3 -59 -6z"/>
<path d="M15350 9130 l0 -400 55 0 55 0 0 400 0 400 -55 0 -55 0 0 -400z"/>
<path d="M19962 9516 c2 -7 57 -187 123 -400 l120 -386 57 0 57 0 107 325 c59
178 109 324 110 322 1 -1 50 -147 109 -325 l107 -323 55 3 56 3 123 394 c68
217 124 396 124 398 0 2 -24 3 -54 3 l-53 0 -93 -327 c-50 -181 -95 -331 -99
-336 -4 -4 -49 127 -101 290 -52 164 -100 314 -106 333 -12 34 -14 35 -66 38
l-53 3 -37 -113 c-20 -62 -69 -214 -109 -337 -45 -140 -74 -219 -79 -210 -4 8
-47 151 -94 319 -48 168 -89 313 -92 323 -4 13 -17 17 -60 17 -42 0 -55 -3
-52 -14z"/>
<path d="M23072 9516 c2 -7 57 -187 123 -400 l120 -386 57 0 56 0 107 323 c59
177 108 323 109 324 1 2 51 -144 110 -323 l108 -325 55 3 56 3 124 395 c67
217 123 395 123 397 0 2 -24 3 -54 3 l-53 0 -93 -327 c-50 -181 -95 -331 -99
-335 -4 -5 -54 142 -112 325 l-105 332 -55 3 -55 3 -83 -258 c-45 -142 -95
-296 -110 -342 l-27 -85 -89 310 c-48 170 -92 324 -97 342 -9 31 -10 32 -64
32 -42 0 -55 -3 -52 -14z"/>
<path d="M26302 9516 c2 -7 57 -187 123 -400 l120 -386 57 0 57 0 107 325 c59
179 109 324 110 322 1 -1 50 -147 109 -325 l107 -323 55 3 56 3 124 394 c67
217 123 396 123 398 0 2 -24 3 -54 3 l-53 0 -92 -323 c-50 -178 -91 -328 -91
-335 0 -48 -29 30 -121 321 l-105 332 -55 3 -54 3 -37 -113 c-20 -62 -69 -214
-109 -337 -44 -139 -74 -219 -79 -210 -4 8 -45 145 -90 304 -45 160 -86 305
-91 323 -10 31 -12 32 -66 32 -41 0 -54 -3 -51 -14z"/>
<path d="M25201 8718 c-28 -101 -51 -189 -51 -196 0 -9 11 -12 36 -10 l36 3
67 170 c96 240 93 215 23 215 l-60 0 -51 -182z"/>
<path d="M7915 8055 c-46 -45 -24 -115 41 -131 32 -8 76 21 85 57 19 80 -69
132 -126 74z"/>
<path d="M17045 8055 c-29 -28 -32 -65 -9 -100 49 -75 168 -6 133 77 -22 53
-83 65 -124 23z"/>
<path d="M21555 8055 c-45 -44 -25 -117 35 -130 60 -13 109 45 89 105 -20 55
-82 68 -124 25z"/>
<path d="M22865 8055 c-43 -43 -26 -115 31 -129 67 -17 122 51 90 112 -25 49
-82 57 -121 17z"/>
<path d="M4410 7520 l0 -540 54 0 54 0 4 263 c3 260 3 263 30 319 45 96 138
147 246 134 103 -12 169 -65 197 -158 12 -40 15 -107 15 -305 l0 -253 56 0 56
0 -4 283 c-4 262 -5 286 -26 337 -12 30 -36 72 -53 93 -109 132 -380 131 -490
-2 l-29 -36 0 203 0 202 -55 0 -55 0 0 -540z"/>
<path d="M7210 7520 l0 -540 55 0 55 0 0 173 1 172 84 -90 c47 -49 117 -127
157 -172 l73 -82 79 0 c44 -1 77 1 75 3 -2 2 -49 51 -103 108 -55 57 -137 142
-183 189 -46 47 -83 92 -83 98 0 7 80 96 178 197 97 101 179 189 180 194 2 6
-26 10 -70 10 l-74 0 -81 -92 c-44 -51 -115 -130 -157 -176 l-76 -82 0 315 0
315 -55 0 -55 0 0 -540z"/>
<path d="M17890 7520 l0 -540 54 0 54 0 4 263 c3 248 4 265 26 312 46 101 108
139 222 139 88 0 143 -23 185 -78 49 -64 55 -107 55 -383 l0 -253 56 0 56 0
-4 283 c-4 262 -5 286 -26 337 -12 30 -36 72 -53 93 -108 132 -374 132 -490 0
l-29 -34 0 201 0 200 -55 0 -55 0 0 -540z"/>
<path d="M21210 7845 l0 -214 -46 49 c-26 28 -72 62 -103 77 -50 25 -67 28
-161 28 -92 0 -112 -3 -160 -26 -104 -49 -172 -130 -205 -244 -24 -82 -17
-238 15 -320 32 -83 123 -173 205 -204 68 -26 182 -31 253 -11 76 20 157 78
190 136 9 15 11 3 12 -58 l0 -78 55 0 55 0 0 540 0 540 -55 0 -55 0 0 -215z
m-163 -181 c59 -28 107 -78 137 -143 17 -37 21 -65 21 -146 0 -89 -3 -105 -27
-151 -124 -235 -461 -207 -534 43 -22 75 -15 201 13 263 68 146 240 205 390
134z"/>
<path d="M24700 7520 l0 -540 55 0 55 0 0 540 0 540 -55 0 -55 0 0 -540z"/>
<path d="M17400 7880 l0 -100 -55 0 -55 0 0 -45 0 -45 55 0 55 0 0 -272 c1
-315 7 -349 73 -402 37 -29 43 -31 148 -34 l109 -4 0 45 0 45 -80 4 c-71 3
-83 6 -107 31 l-28 27 -3 280 -3 280 110 0 111 0 0 45 0 45 -110 0 -110 0 0
100 0 100 -55 0 -55 0 0 -100z"/>
<path d="M23230 7880 l0 -100 -55 0 -55 0 0 -45 0 -45 55 0 55 0 0 -268 c0
-290 8 -348 52 -389 47 -43 83 -53 183 -53 l95 0 0 45 0 45 -66 0 c-88 0 -130
20 -144 69 -5 20 -10 151 -10 294 l0 257 110 0 110 0 0 45 0 45 -110 0 -110 0
0 100 0 100 -55 0 -55 0 0 -100z"/>
<path d="M26190 7880 l0 -100 -55 0 -55 0 0 -45 0 -45 55 0 55 0 0 -268 c0
-290 8 -348 52 -389 47 -43 83 -53 183 -53 l95 0 0 45 0 45 -66 0 c-88 0 -130
20 -144 69 -5 20 -10 151 -10 294 l0 257 110 0 110 0 0 45 0 45 -110 0 -110 0
0 100 0 100 -55 0 -55 0 0 -100z"/>
<path d="M8563 7789 c-70 -9 -134 -42 -177 -90 l-36 -39 0 60 0 60 -55 0 -55
0 0 -400 0 -400 55 0 55 0 0 228 c0 126 5 255 11 287 27 147 142 225 291 197
76 -14 124 -50 158 -118 25 -48 25 -54 28 -321 l3 -273 55 0 54 0 0 253 c0
278 -9 344 -54 420 -59 102 -190 155 -333 136z"/>
<path d="M27983 7789 c-71 -9 -136 -43 -178 -92 l-35 -41 0 62 0 62 -55 0 -55
0 0 -400 0 -400 54 0 54 0 4 263 c3 248 4 265 26 312 28 61 55 91 104 116 129
66 291 5 327 -121 18 -65 19 -82 20 -337 l1 -233 49 0 c36 0 50 4 55 17 4 9 6
123 5 253 -1 261 4 297 54 361 100 132 315 111 388 -37 23 -47 24 -58 27 -321
l4 -273 51 0 52 0 -5 297 -5 298 -28 57 c-56 115 -186 177 -329 158 -100 -14
-167 -57 -220 -139 -17 -27 -28 -38 -28 -27 0 10 -26 44 -58 75 -77 78 -164
106 -279 90z"/>
<path d="M5564 7776 c-65 -22 -104 -45 -157 -94 -89 -84 -122 -180 -115 -332
4 -90 9 -107 42 -174 76 -155 230 -230 419 -204 237 32 380 256 326 510 -26
123 -117 235 -224 277 -74 29 -226 38 -291 17z m253 -113 c106 -50 158 -147
158 -293 -1 -132 -53 -223 -159 -278 -42 -21 -65 -26 -131 -26 -68 -1 -88 3
-131 26 -56 29 -93 68 -127 132 -19 35 -22 57 -22 151 0 91 4 118 21 155 70
149 238 206 391 133z"/>
<path d="M6523 7781 c-109 -28 -213 -115 -261 -219 -37 -81 -44 -231 -13 -329
51 -166 190 -264 374 -265 197 -1 344 108 391 289 56 214 -41 432 -223 503
-61 24 -210 36 -268 21z m152 -92 c78 -14 125 -39 169 -90 50 -59 71 -126 71
-229 -1 -99 -21 -153 -80 -218 -56 -63 -114 -87 -210 -86 -97 0 -158 26 -210
87 -57 66 -78 136 -73 242 5 100 25 159 74 211 36 38 101 72 157 84 23 4 42 8
43 9 0 1 27 -4 59 -10z"/>
<path d="M9379 7774 c-111 -34 -204 -130 -240 -247 -18 -56 -20 -86 -17 -170
6 -126 31 -195 95 -267 79 -88 161 -122 293 -122 114 1 206 44 274 131 l28 36
-4 -135 c-3 -116 -7 -141 -26 -177 -26 -50 -63 -87 -117 -116 -61 -33 -191
-30 -261 6 -55 28 -111 84 -126 128 -9 26 -13 27 -61 25 -49 -2 -52 -4 -49
-27 13 -117 157 -232 309 -247 198 -20 335 47 407 197 l31 66 3 463 3 462 -56
0 -55 0 0 -77 0 -77 -28 38 c-36 48 -102 92 -165 111 -63 19 -177 18 -238 -1z
m268 -110 c59 -28 107 -78 137 -143 17 -37 21 -65 21 -146 0 -89 -3 -106 -27
-150 -79 -151 -246 -205 -397 -128 -99 50 -151 149 -151 283 0 96 22 159 76
219 89 99 218 123 341 65z"/>
<path d="M11560 7776 c-64 -18 -106 -42 -157 -89 -86 -79 -123 -172 -123 -310
0 -272 186 -438 456 -405 163 19 287 127 328 285 49 188 -17 379 -162 471 -91
58 -233 78 -342 48z m247 -113 c106 -50 158 -147 158 -293 -1 -134 -50 -220
-160 -278 -42 -23 -63 -27 -130 -27 -70 1 -87 4 -134 30 -65 36 -105 82 -132
155 -27 72 -23 212 8 280 67 147 238 205 390 133z"/>
<path d="M14815 7781 c-58 -14 -110 -46 -162 -97 l-53 -53 0 75 0 74 -55 0
-55 0 0 -590 0 -590 55 0 55 0 0 266 0 266 46 -51 c26 -29 70 -64 98 -79 47
-25 60 -27 166 -27 104 0 120 3 170 26 196 94 275 368 170 584 -48 98 -113
156 -211 186 -62 19 -166 24 -224 10z m212 -117 c61 -29 97 -68 131 -143 35
-77 35 -205 0 -282 -56 -122 -133 -173 -263 -173 -67 0 -88 4 -131 26 -131 68
-192 225 -149 383 50 185 238 271 412 189z"/>
<path d="M19419 7775 c-112 -36 -204 -131 -240 -248 -29 -92 -23 -243 11 -332
32 -83 123 -173 205 -204 68 -26 182 -31 253 -11 63 16 140 67 173 113 l29 40
0 -76 0 -77 55 0 55 0 0 400 0 400 -55 0 -55 0 0 -74 0 -75 -50 54 c-70 73
-130 98 -245 102 -60 2 -106 -2 -136 -12z m268 -111 c59 -28 107 -78 137 -143
17 -37 21 -65 21 -146 0 -89 -3 -106 -27 -150 -57 -109 -140 -160 -259 -160
-186 0 -298 133 -287 339 7 122 45 193 135 249 78 49 190 53 280 11z"/>
<path d="M22099 7774 c-111 -34 -204 -130 -240 -247 -18 -56 -20 -86 -17 -170
6 -126 31 -195 95 -267 79 -88 161 -122 293 -122 114 1 206 44 274 131 l28 36
-4 -135 c-3 -116 -7 -141 -26 -177 -26 -50 -63 -87 -117 -116 -61 -33 -191
-30 -261 6 -55 28 -111 84 -126 128 -9 26 -13 27 -61 25 -49 -2 -52 -4 -49
-27 13 -117 157 -232 309 -247 198 -20 335 47 407 197 l31 66 3 463 3 462 -56
0 -55 0 0 -77 0 -77 -28 38 c-36 48 -102 92 -165 111 -63 19 -177 18 -238 -1z
m268 -110 c59 -28 107 -78 137 -143 17 -37 21 -65 21 -146 0 -89 -3 -106 -27
-150 -79 -151 -246 -205 -397 -128 -99 50 -151 149 -151 283 0 96 22 159 76
219 89 99 218 123 341 65z"/>
<path d="M23939 7775 c-112 -36 -204 -131 -240 -248 -18 -56 -20 -86 -17 -170
6 -126 31 -195 95 -267 79 -88 161 -122 293 -122 114 1 206 45 273 130 l27 35
0 -76 0 -77 55 0 55 0 0 400 0 400 -55 0 -55 0 0 -77 c-1 -64 -3 -74 -12 -58
-21 37 -82 87 -138 113 -68 32 -207 41 -281 17z m268 -111 c59 -28 107 -78
137 -143 17 -37 21 -65 21 -146 0 -89 -3 -106 -27 -150 -79 -151 -246 -205
-397 -128 -99 50 -151 149 -151 283 0 96 22 159 76 219 89 99 218 123 341 65z"/>
<path d="M25580 7781 c-79 -24 -149 -80 -170 -136 -19 -49 -15 -126 9 -173 35
-68 83 -93 317 -161 91 -27 134 -64 134 -116 0 -105 -126 -164 -263 -123 -49
15 -103 66 -112 107 -6 30 -8 31 -61 31 -50 0 -54 -2 -54 -24 0 -58 63 -146
128 -180 67 -35 199 -49 283 -31 144 31 225 168 173 292 -26 65 -80 97 -242
149 -118 37 -152 52 -179 79 -58 58 -40 140 40 182 46 24 155 22 199 -4 39
-23 78 -77 78 -109 0 -22 4 -24 55 -24 l55 0 0 33 c-1 81 -81 175 -174 202
-52 16 -173 19 -216 6z"/>
<path d="M26899 7775 c-112 -36 -204 -131 -240 -248 -18 -56 -20 -86 -17 -170
6 -126 31 -195 95 -267 79 -88 161 -122 293 -122 114 1 206 45 273 130 l27 35
0 -76 0 -77 55 0 55 0 0 400 0 400 -55 0 -55 0 0 -77 c-1 -64 -3 -74 -12 -58
-21 37 -82 87 -138 113 -68 32 -207 41 -281 17z m268 -111 c59 -28 107 -78
137 -143 17 -37 21 -65 21 -146 0 -89 -3 -106 -27 -150 -79 -151 -246 -205
-397 -128 -99 50 -151 149 -151 283 0 96 22 159 76 219 89 99 218 123 341 65z"/>
<path d="M29456 7774 c-62 -19 -125 -62 -165 -111 l-31 -38 0 78 0 77 -55 0
-55 0 0 -590 0 -590 55 0 55 0 0 265 0 264 47 -50 c63 -68 127 -99 219 -108
134 -13 233 21 316 106 88 90 129 227 110 367 -20 147 -96 257 -217 312 -75
35 -202 43 -279 18z m231 -111 c58 -27 102 -76 134 -148 33 -74 30 -203 -6
-284 -103 -229 -424 -226 -527 6 -31 70 -35 175 -9 252 27 77 61 122 123 162
81 53 188 57 285 12z"/>
<path d="M7910 7380 l0 -400 55 0 55 0 0 400 0 400 -55 0 -55 0 0 -400z"/>
<path d="M10440 7775 c0 -3 72 -179 160 -392 88 -213 160 -392 160 -399 0 -6
-34 -93 -75 -194 -41 -101 -75 -185 -75 -187 0 -2 26 -3 57 -1 l57 3 38 95
c63 154 389 960 414 1023 l23 57 -58 0 -58 0 -31 -82 c-47 -127 -223 -582
-226 -585 -1 -2 -62 148 -135 332 l-133 335 -59 0 c-33 0 -59 -2 -59 -5z"/>
<path d="M12260 7768 c0 -7 0 -132 0 -278 0 -291 7 -340 58 -402 60 -72 111
-102 205 -118 111 -20 245 21 301 92 l26 33 0 -57 0 -58 55 0 55 0 0 400 0
400 -54 0 -55 0 -3 -267 c-3 -265 -3 -269 -29 -324 -70 -148 -299 -177 -400
-49 -49 62 -59 127 -59 397 l0 243 -50 0 c-33 0 -50 -4 -50 -12z"/>
<path d="M13560 7773 c-1 -5 -1 -129 0 -277 0 -322 8 -362 83 -440 119 -122
361 -122 473 1 l34 37 0 -57 0 -57 55 0 55 0 0 400 0 400 -54 0 -55 0 -3 -272
c-3 -257 -4 -275 -24 -313 -46 -86 -106 -125 -201 -133 -111 -9 -193 36 -232
127 -26 62 -29 98 -30 364 l-1 227 -50 0 c-27 0 -50 -3 -50 -7z"/>
<path d="M15762 7766 c2 -8 57 -188 123 -400 l120 -386 57 0 56 0 109 325 108
326 108 -326 109 -326 56 3 55 3 124 394 c67 217 123 396 123 398 0 2 -24 3
-54 3 l-53 0 -93 -327 c-50 -181 -95 -331 -99 -336 -7 -7 -31 66 -170 508
l-47 150 -55 3 -55 3 -52 -163 c-29 -90 -79 -244 -110 -343 l-58 -179 -88 309
c-49 171 -93 325 -98 343 -9 31 -10 32 -64 32 -42 0 -55 -3 -52 -14z"/>
<path d="M17040 7380 l0 -400 55 0 55 0 0 400 0 400 -55 0 -55 0 0 -400z"/>
<path d="M21550 7380 l0 -400 55 0 55 0 0 400 0 400 -55 0 -55 0 0 -400z"/>
<path d="M22860 7380 l0 -400 55 0 55 0 0 400 0 400 -55 0 -55 0 0 -400z"/>
<path d="M25315 6308 c3 -46 8 -110 11 -144 l5 -61 37 2 37 1 7 84 c3 47 6
111 7 143 l1 57 -56 0 -55 0 6 -82z"/>
<path d="M17370 6310 c-27 -27 -27 -90 0 -115 51 -46 130 -10 130 59 0 65 -85
101 -130 56z"/>
<path d="M28205 6305 c-46 -46 -23 -118 41 -131 70 -13 116 84 64 136 -28 28
-75 26 -105 -5z"/>
<path d="M10400 5770 l0 -540 55 0 55 0 0 173 1 172 102 -110 c56 -60 129
-138 162 -173 l60 -63 72 3 72 3 -96 100 c-53 55 -138 143 -189 195 l-92 96
26 29 c14 17 95 104 181 193 86 90 158 168 159 173 2 5 -29 9 -70 9 l-73 -1
-95 -106 c-52 -59 -123 -137 -157 -174 l-63 -68 0 314 0 315 -55 0 -55 0 0
-540z"/>
<path d="M27860 5770 l0 -540 55 0 55 0 0 540 0 540 -55 0 -55 0 0 -540z"/>
<path d="M28530 5770 l0 -540 55 0 55 0 0 173 0 172 58 -60 c31 -33 104 -111
162 -173 l105 -113 72 3 72 3 -87 90 c-48 50 -134 138 -191 197 l-104 107 99
103 c55 56 138 144 187 194 48 49 87 93 87 97 0 4 -33 7 -72 7 l-73 -1 -59
-67 c-32 -37 -80 -89 -105 -117 -26 -27 -71 -76 -99 -108 l-52 -57 0 315 0
315 -55 0 -55 0 0 -540z"/>
<path d="M24520 5740 l0 -510 55 0 55 0 0 510 0 510 -55 0 -55 0 0 -510z"/>
<path d="M4440 6130 l0 -100 -55 0 -55 0 0 -45 0 -45 55 0 55 0 0 -268 c0
-297 7 -347 57 -394 40 -36 84 -48 184 -48 l89 0 0 45 0 45 -66 0 c-88 0 -130
20 -144 69 -5 20 -10 151 -10 294 l0 257 110 0 110 0 0 45 0 45 -110 0 -110 0
0 100 0 100 -55 0 -55 0 0 -100z"/>
<path d="M24880 6130 l0 -100 -55 0 -55 0 0 -45 0 -45 55 0 55 0 0 -268 c0
-297 7 -347 57 -394 40 -36 84 -48 184 -48 l89 0 0 44 0 44 -80 4 c-71 3 -83
6 -107 31 l-28 27 -3 280 -3 280 110 0 111 0 0 45 0 45 -110 0 -110 0 0 100 0
100 -55 0 -55 0 0 -100z"/>
<path d="M7717 6039 c-67 -11 -130 -44 -171 -90 l-36 -39 0 60 0 60 -55 0 -55
0 0 -400 0 -400 54 0 54 0 4 263 3 262 30 60 c37 74 84 112 157 127 85 18 158
-1 214 -57 23 -24 48 -60 55 -81 7 -25 13 -140 16 -306 l5 -268 52 0 51 0 0
253 c0 275 5 307 55 375 43 60 99 86 185 86 83 1 139 -24 181 -79 45 -59 54
-124 54 -392 l0 -243 56 0 56 0 -4 278 c-6 306 -12 347 -69 418 -63 79 -141
115 -254 116 -113 1 -211 -50 -265 -138 l-22 -35 -26 38 c-71 104 -193 154
-325 132z"/>
<path d="M10200 6039 c-75 -12 -128 -39 -170 -87 l-40 -45 0 62 0 61 -55 0
-55 0 0 -400 0 -400 55 0 55 0 0 243 c0 133 5 262 11 287 23 100 91 158 201
167 l58 6 0 53 c0 29 -3 55 -7 57 -5 2 -28 0 -53 -4z"/>
<path d="M19880 6039 c-75 -12 -128 -39 -170 -87 l-40 -45 0 62 0 61 -55 0
-55 0 0 -400 0 -400 55 0 55 0 0 243 c0 133 5 262 11 287 23 100 91 158 201
167 l58 6 0 53 c0 29 -3 55 -7 57 -5 2 -28 0 -53 -4z"/>
<path d="M5168 6026 c-106 -30 -199 -112 -246 -214 -20 -45 -26 -76 -30 -159
-6 -132 18 -214 87 -300 171 -212 545 -171 664 72 110 223 18 505 -191 586
-71 27 -214 35 -284 15z m268 -121 c95 -56 139 -146 138 -285 -1 -132 -52
-222 -158 -278 -43 -22 -64 -27 -131 -27 -67 0 -88 5 -131 27 -56 29 -93 68
-126 132 -33 62 -37 211 -9 286 36 95 121 166 216 180 61 9 154 -7 201 -35z"/>
<path d="M9113 6026 c-110 -36 -195 -115 -234 -219 -21 -53 -24 -79 -24 -187
1 -113 3 -130 27 -182 14 -31 46 -77 69 -103 78 -84 161 -118 286 -116 119 2
215 45 273 124 l30 41 0 -77 0 -77 55 0 55 0 0 400 0 400 -55 0 -55 0 0 -77 0
-78 -18 27 c-28 42 -72 78 -132 106 -67 32 -207 41 -277 18z m264 -113 c64
-30 116 -88 144 -162 29 -77 24 -204 -11 -274 -54 -107 -142 -162 -260 -162
-186 0 -298 131 -288 338 4 94 27 152 84 211 80 83 217 103 331 49z"/>
<path d="M13668 6021 c-74 -24 -116 -51 -168 -107 -67 -73 -93 -141 -98 -258
-6 -127 14 -205 73 -285 82 -112 184 -156 344 -149 79 3 107 9 159 33 71 32
153 113 182 180 98 229 7 494 -197 575 -81 32 -216 37 -295 11z m259 -107
c106 -51 158 -147 157 -294 0 -98 -20 -153 -77 -217 -57 -62 -117 -87 -212
-88 -68 0 -88 4 -131 27 -100 53 -146 132 -152 265 -6 138 32 230 121 289 84
57 198 63 294 18z"/>
<path d="M15543 6019 c-35 -13 -66 -35 -93 -66 l-40 -46 0 62 0 61 -55 0 -55
0 0 -400 0 -400 54 0 55 0 3 268 c3 228 6 273 21 306 33 73 97 115 189 123
l58 6 0 53 0 54 -42 -1 c-24 0 -66 -9 -95 -20z"/>
<path d="M17938 6025 c-104 -28 -199 -110 -246 -213 -37 -81 -43 -232 -13
-329 36 -120 129 -214 244 -248 28 -8 90 -16 137 -16 137 -1 241 49 320 154
140 185 87 499 -103 610 -93 54 -232 72 -339 42z m174 -86 c69 -14 129 -49
167 -98 48 -60 64 -114 65 -216 0 -80 -3 -97 -27 -147 -56 -114 -167 -177
-289 -164 -104 11 -180 63 -230 160 -33 63 -37 211 -9 288 41 108 121 165 263
187 4 1 31 -4 60 -10z"/>
<path d="M20355 6027 c-56 -22 -92 -46 -124 -82 l-31 -36 0 61 0 60 -55 0 -55
0 0 -400 0 -400 54 0 55 0 3 263 c3 249 4 265 26 312 47 101 108 140 222 140
107 0 169 -36 216 -125 17 -31 19 -65 22 -312 l3 -278 55 0 54 0 0 248 c0 334
-13 397 -101 482 -57 55 -130 80 -232 79 -45 0 -95 -6 -112 -12z"/>
<path d="M21219 6017 c-161 -55 -249 -191 -249 -385 0 -185 73 -313 216 -379
95 -43 235 -49 329 -13 87 33 174 121 203 208 12 35 15 33 -56 34 -50 0 -44 5
-71 -49 -85 -168 -372 -163 -470 8 -36 63 -50 127 -30 140 8 5 156 9 329 8
l315 -1 3 67 c12 273 -248 454 -519 362z m260 -98 c86 -38 142 -114 145 -196
l1 -43 -257 0 c-142 0 -265 0 -273 0 -37 0 7 129 62 181 57 53 70 61 121 76
59 16 141 9 201 -18z"/>
<path d="M25740 6031 c-47 -15 -105 -49 -134 -80 -35 -37 -57 -113 -47 -167
20 -107 82 -152 291 -209 142 -39 180 -68 180 -135 0 -100 -129 -158 -261
-118 -49 14 -105 68 -114 108 -6 29 -9 30 -61 30 -50 0 -54 -2 -54 -24 0 -38
28 -95 65 -131 121 -117 374 -119 482 -3 50 53 67 145 40 211 -29 67 -83 102
-243 152 -120 38 -154 53 -181 80 -56 56 -43 134 31 176 54 31 156 33 207 3
40 -24 79 -78 79 -110 0 -23 4 -24 59 -24 l58 0 -8 45 c-5 25 -15 58 -23 74
-23 44 -95 100 -150 116 -52 16 -173 19 -216 6z"/>
<path d="M29439 6017 c-68 -23 -142 -76 -178 -126 -50 -70 -65 -129 -65 -261
-1 -147 17 -207 86 -285 68 -77 133 -110 247 -125 186 -24 355 70 409 228 l11
32 -57 0 c-57 -1 -57 -1 -78 -43 -24 -50 -89 -102 -147 -118 -23 -6 -71 -9
-107 -7 -119 9 -208 74 -244 181 -22 66 -21 84 9 91 14 4 162 6 328 6 l302 -1
3 67 c8 171 -89 314 -247 364 -86 27 -187 26 -272 -3z m216 -82 c104 -28 178
-108 192 -210 l6 -45 -249 -2 c-137 0 -261 -2 -276 -2 -23 -1 -28 3 -28 21 0
48 41 131 84 171 53 49 75 61 129 72 63 12 77 11 142 -5z"/>
<path d="M12550 6026 c0 -3 72 -179 160 -393 88 -213 160 -393 160 -399 0 -6
-34 -93 -75 -194 -41 -101 -75 -185 -75 -187 0 -2 26 -3 57 -1 l57 3 69 170
c77 191 220 543 326 806 39 97 71 181 71 187 0 8 -19 12 -52 12 l-53 0 -36
-93 c-20 -50 -78 -201 -129 -334 l-94 -243 -23 58 c-13 31 -74 182 -135 335
l-111 277 -59 0 c-32 0 -58 -2 -58 -4z"/>
<path d="M14367 6023 c-9 -16 -7 -441 2 -514 22 -171 100 -258 258 -289 114
-23 259 24 311 100 l22 33 0 -62 0 -61 55 0 55 0 0 400 0 400 -55 0 -55 0 0
-248 c0 -269 -6 -311 -54 -381 -43 -62 -97 -86 -191 -86 -93 0 -148 23 -188
77 -47 63 -50 88 -55 371 l-4 267 -48 0 c-27 0 -51 -3 -53 -7z"/>
<path d="M17368 5510 c-3 -513 -3 -520 -24 -541 -16 -15 -35 -21 -78 -22 l-56
-2 0 -49 0 -49 78 5 c90 5 132 25 165 78 22 35 22 40 25 568 l3 532 -55 0 -55
0 -3 -520z"/>
<path d="M18639 6018 c0 -7 0 -133 1 -281 1 -292 8 -339 58 -399 57 -70 107
-99 195 -118 109 -22 237 14 303 87 l34 37 0 -57 0 -57 55 0 55 0 0 400 0 400
-54 0 -55 0 -3 -268 -3 -268 -30 -59 c-39 -76 -96 -114 -184 -122 -85 -8 -146
11 -196 61 -63 64 -68 87 -72 389 l-5 267 -49 0 c-32 0 -49 -4 -50 -12z"/>
<path d="M21830 6026 c0 -3 72 -179 160 -393 88 -213 160 -393 160 -399 0 -6
-34 -93 -75 -194 -41 -101 -75 -185 -75 -187 0 -2 26 -3 57 -1 l57 3 69 170
c77 191 220 543 326 806 39 97 71 181 71 187 0 8 -19 12 -52 12 l-53 0 -36
-93 c-20 -50 -78 -201 -129 -334 l-94 -243 -23 58 c-13 31 -74 182 -135 335
l-111 277 -59 0 c-32 0 -58 -2 -58 -4z"/>
<path d="M28200 5630 l0 -400 55 0 55 0 0 400 0 400 -55 0 -55 0 0 -400z"/>
<path d="M22710 5373 c-33 -13 -50 -37 -50 -73 0 -48 30 -80 75 -80 62 0 98
81 58 128 -19 23 -59 34 -83 25z"/>
<path d="M9235 4555 c-69 -68 22 -174 98 -115 21 17 27 30 27 61 0 74 -74 106
-125 54z"/>
<path d="M6240 4020 l0 -540 55 0 55 0 0 540 0 540 -55 0 -55 0 0 -540z"/>
<path d="M6570 4020 l0 -540 55 0 55 0 0 540 0 540 -55 0 -55 0 0 -540z"/>
<path d="M11870 4020 l0 -540 55 0 55 0 0 77 c0 75 0 77 17 54 56 -80 141
-129 244 -140 181 -19 320 54 391 205 59 125 58 287 -2 409 -48 98 -113 156
-211 186 -155 48 -327 1 -410 -113 l-29 -41 0 221 0 222 -55 0 -55 0 0 -540z
m526 149 c56 -23 111 -81 141 -146 20 -44 25 -71 25 -136 1 -99 -13 -148 -58
-210 -129 -178 -405 -145 -496 60 -30 67 -34 174 -10 249 10 34 31 77 46 97
78 103 228 139 352 86z"/>
<path d="M14490 4345 l0 -214 -45 48 c-66 71 -139 104 -240 109 -188 10 -330
-86 -385 -259 -19 -58 -22 -85 -18 -171 6 -140 31 -203 112 -284 79 -79 142
-104 261 -104 131 0 224 41 285 123 l30 41 0 -77 0 -77 55 0 55 0 0 540 0 540
-55 0 -55 0 0 -215z m-163 -181 c65 -31 116 -90 144 -163 30 -79 24 -204 -14
-277 -55 -108 -136 -158 -257 -159 -177 0 -290 122 -290 314 0 85 14 134 53
194 76 114 234 153 364 91z"/>
<path d="M18110 4020 l0 -540 55 0 55 0 0 77 c0 75 0 77 17 54 56 -80 141
-129 244 -140 181 -19 320 54 391 205 59 125 58 287 -2 409 -48 98 -113 156
-211 186 -155 48 -327 1 -410 -113 l-29 -41 0 221 0 222 -55 0 -55 0 0 -540z
m526 149 c56 -23 111 -81 141 -146 20 -44 25 -71 25 -136 1 -99 -13 -148 -58
-210 -129 -178 -405 -145 -496 60 -30 67 -34 174 -10 249 10 34 31 77 46 97
78 103 228 139 352 86z"/>
<path d="M27070 4020 l0 -540 55 0 55 0 0 540 0 540 -55 0 -55 0 0 -540z"/>
<path d="M8740 4380 l0 -100 -55 0 -55 0 0 -45 0 -45 55 0 55 0 0 -268 c0
-208 3 -280 15 -318 27 -91 86 -124 225 -124 l90 0 0 45 0 45 -65 0 c-91 0
-131 18 -144 67 -6 22 -11 144 -11 296 l0 257 110 0 110 0 0 45 0 45 -110 0
-110 0 0 100 0 100 -55 0 -55 0 0 -100z"/>
<path d="M20050 4380 l0 -100 -55 0 -55 0 0 -45 0 -45 55 0 55 0 0 -268 c0
-297 7 -347 57 -394 40 -36 84 -48 184 -48 l89 0 0 44 0 44 -80 4 c-71 3 -83
6 -107 31 l-28 27 -3 280 -3 280 110 0 111 0 0 45 0 45 -110 0 -110 0 0 100 0
100 -55 0 -55 0 0 -100z"/>
<path d="M9862 4284 c-72 -15 -118 -40 -161 -90 l-31 -35 0 61 0 60 -55 0 -55
0 0 -400 0 -400 54 0 55 0 3 263 c3 249 4 265 26 312 46 100 107 139 222 139
62 1 83 -3 120 -24 51 -29 97 -90 110 -146 5 -21 10 -153 10 -291 l0 -253 55
0 55 0 0 248 c0 258 -8 340 -41 405 -62 121 -211 183 -367 151z"/>
<path d="M28633 4289 c-71 -9 -136 -43 -178 -92 l-35 -41 0 62 0 62 -55 0 -55
0 0 -400 0 -400 54 0 54 0 4 268 c3 264 3 268 29 317 33 66 95 105 177 112
l60 6 4 54 c1 30 1 56 -2 57 -3 1 -28 -1 -57 -5z"/>
<path d="M4655 4281 c-133 -36 -220 -118 -265 -252 -29 -86 -25 -244 9 -331
29 -76 106 -159 179 -195 53 -26 65 -28 182 -28 107 0 132 3 172 22 64 29 132
95 163 156 38 77 35 87 -27 87 l-53 0 -28 -53 c-47 -89 -131 -132 -245 -125
-176 10 -270 133 -260 342 5 107 29 167 91 223 56 50 100 66 187 67 61 0 84
-4 124 -24 54 -28 100 -78 117 -127 10 -32 12 -33 65 -33 50 0 54 2 54 23 0
38 -48 123 -92 163 -69 62 -137 87 -247 90 -53 2 -109 0 -126 -5z"/>
<path d="M5540 4276 c-108 -30 -199 -108 -248 -214 -25 -52 -27 -67 -27 -183
0 -125 0 -125 38 -201 61 -124 159 -192 298 -207 221 -23 391 89 445 294 48
178 -27 385 -169 468 -92 54 -233 72 -337 43z m183 -90 c147 -35 219 -137 220
-311 1 -110 -24 -175 -88 -234 -63 -58 -106 -74 -200 -75 -71 -1 -86 2 -135
29 -68 38 -125 111 -141 181 -16 72 -7 198 18 255 37 82 111 140 206 158 59
12 56 12 120 -3z"/>
<path d="M7140 4276 c-174 -48 -270 -190 -270 -396 0 -235 133 -393 345 -410
147 -11 250 24 333 115 42 45 89 135 77 147 -2 2 -28 1 -58 0 -53 -4 -54 -5
-75 -47 -56 -116 -222 -160 -358 -96 -37 17 -72 43 -91 67 -32 41 -63 118 -63
159 l0 25 328 -1 327 -1 3 69 c7 173 -95 320 -257 367 -64 19 -177 19 -241 2z
m221 -97 c84 -26 159 -121 162 -206 l2 -48 -260 -2 c-143 -1 -267 2 -275 7
-12 8 -13 16 -2 57 45 166 197 244 373 192z"/>
<path d="M8064 4281 c-108 -28 -190 -95 -241 -199 -38 -76 -38 -76 -38 -201 0
-108 4 -134 23 -183 31 -76 108 -159 180 -195 53 -26 65 -28 182 -28 116 0
129 2 181 28 65 31 132 99 160 160 31 69 27 77 -34 77 -53 0 -54 -1 -72 -39
-38 -86 -129 -141 -233 -141 -115 0 -209 58 -255 158 -19 40 -22 65 -22 162 0
103 3 120 25 163 28 56 86 112 139 135 22 10 64 16 111 15 61 0 85 -5 127 -26
55 -28 96 -73 114 -125 10 -31 13 -32 65 -32 50 0 54 2 54 24 0 31 -44 113
-83 154 -18 18 -61 47 -97 64 -56 27 -78 32 -160 34 -52 2 -109 0 -126 -5z"/>
<path d="M10715 4277 c-131 -44 -211 -128 -250 -261 -13 -44 -16 -83 -13 -160
6 -125 31 -195 95 -266 80 -89 163 -123 295 -121 120 2 219 49 274 130 l24 36
0 -115 c0 -132 -10 -178 -52 -236 -45 -63 -116 -98 -203 -98 -38 -1 -92 5
-118 13 -54 16 -125 76 -155 131 -17 32 -22 34 -68 35 -46 0 -49 -1 -46 -25 4
-40 40 -104 80 -145 102 -103 323 -140 467 -76 51 23 119 82 151 132 52 82 54
108 54 586 l0 443 -55 0 -55 0 0 -77 c0 -76 0 -77 -17 -53 -28 41 -75 79 -132
107 -45 23 -71 28 -145 30 -56 2 -106 -2 -131 -10z m262 -114 c64 -30 116 -88
144 -162 17 -46 20 -72 17 -141 -7 -133 -60 -219 -165 -271 -38 -19 -64 -24
-123 -24 -134 0 -227 66 -272 192 -27 77 -22 206 11 274 70 146 239 203 388
132z"/>
<path d="M13087 4280 c-104 -26 -189 -99 -238 -202 -33 -71 -34 -76 -34 -198
0 -108 4 -133 24 -185 34 -83 124 -174 205 -204 69 -26 185 -31 256 -11 62 16
137 66 171 113 l29 40 0 -76 0 -77 55 0 55 0 0 400 0 400 -55 0 -55 0 0 -76 0
-77 -22 29 c-67 87 -148 127 -268 131 -47 1 -102 -2 -123 -7z m250 -116 c57
-27 101 -72 135 -137 19 -35 23 -58 23 -142 0 -87 -3 -107 -26 -155 -52 -110
-138 -165 -259 -165 -122 1 -215 58 -263 164 -32 69 -31 237 1 302 73 148 238
204 389 133z"/>
<path d="M15045 4276 c-129 -41 -211 -127 -250 -260 -13 -44 -16 -83 -13 -160
6 -138 31 -201 112 -282 80 -80 142 -104 266 -104 128 0 219 40 280 123 l30
41 0 -115 c0 -62 -5 -132 -11 -154 -17 -60 -65 -119 -122 -151 -45 -25 -63
-29 -132 -29 -67 0 -89 4 -137 28 -59 29 -114 82 -129 126 -8 24 -14 26 -62
25 -47 -1 -52 -3 -50 -22 9 -76 94 -175 188 -218 100 -46 257 -48 358 -5 69
30 139 100 173 174 l29 62 3 463 3 462 -56 0 -55 0 0 -77 0 -78 -27 38 c-31
44 -105 94 -169 113 -58 17 -175 17 -229 0z m262 -113 c64 -30 116 -88 144
-162 30 -79 24 -204 -13 -276 -56 -108 -140 -160 -258 -160 -187 0 -299 133
-288 339 3 52 12 98 25 127 64 144 239 204 390 132z"/>
<path d="M16019 4267 c-116 -40 -187 -114 -230 -239 -28 -85 -24 -244 10 -330
31 -79 97 -150 179 -190 64 -32 71 -33 187 -33 111 0 124 2 177 28 69 34 150
119 171 181 8 24 13 46 11 49 -8 7 -109 -4 -112 -12 -14 -40 -68 -104 -109
-128 -43 -25 -57 -28 -138 -28 -81 0 -95 3 -143 29 -76 43 -127 116 -139 201
l-6 46 319 -1 c175 -1 325 -1 333 0 11 0 13 18 8 93 -5 101 -21 147 -73 219
-90 122 -280 171 -445 115z m245 -89 c56 -17 128 -90 149 -153 21 -61 21 -91
1 -99 -20 -8 -498 -8 -518 0 -21 8 -20 32 4 97 54 143 197 204 364 155z"/>
<path d="M16865 4277 c-79 -26 -134 -67 -161 -119 -18 -35 -18 -141 0 -177 8
-15 32 -43 54 -63 39 -35 86 -54 271 -108 92 -27 131 -61 131 -116 0 -90 -78
-140 -201 -132 -90 7 -146 42 -169 106 l-14 42 -53 0 c-48 0 -53 -2 -53 -22 0
-41 46 -122 85 -152 60 -46 129 -68 217 -68 102 0 132 7 196 45 124 74 137
250 24 331 -20 14 -102 47 -181 72 -174 55 -211 83 -211 156 0 46 16 72 66
105 34 22 158 23 199 1 43 -23 72 -58 82 -98 9 -34 11 -35 61 -38 l52 -3 0 33
c-1 73 -68 161 -149 196 -49 20 -195 26 -246 9z"/>
<path d="M22339 4275 c-112 -36 -204 -131 -240 -248 -18 -56 -20 -86 -17 -170
6 -129 31 -196 99 -272 74 -80 139 -108 260 -113 59 -3 112 0 135 8 56 17 142
78 170 119 l24 36 0 -78 0 -77 55 0 55 0 0 400 0 400 -55 0 -55 0 0 -77 0 -78
-18 27 c-28 42 -72 78 -132 106 -68 32 -207 41 -281 17z m268 -111 c109 -52
167 -160 161 -299 -6 -132 -62 -226 -167 -278 -69 -33 -177 -31 -252 6 -69 33
-123 99 -145 176 -22 75 -15 201 14 262 71 146 239 203 389 133z"/>
<path d="M24544 4281 c-108 -28 -190 -95 -241 -199 -38 -76 -38 -76 -38 -201
0 -108 4 -134 23 -183 31 -76 108 -159 180 -195 53 -26 65 -28 182 -28 116 0
129 2 181 28 65 31 132 99 160 160 31 69 27 77 -34 77 -53 0 -54 -1 -72 -39
-38 -86 -129 -141 -233 -141 -115 0 -209 58 -255 158 -19 40 -22 65 -22 162 0
103 3 120 25 163 28 56 86 112 139 135 22 10 64 16 111 15 61 0 85 -5 127 -26
55 -28 96 -73 114 -125 10 -31 13 -32 65 -32 50 0 54 2 54 24 0 31 -44 113
-83 154 -18 18 -61 47 -97 64 -56 27 -78 32 -160 34 -52 2 -109 0 -126 -5z"/>
<path d="M25438 4276 c-105 -30 -198 -111 -246 -214 -25 -52 -27 -68 -27 -183
0 -125 0 -125 38 -201 43 -87 93 -137 177 -176 72 -34 218 -43 302 -18 160 46
264 185 276 368 11 185 -82 347 -237 409 -70 27 -213 35 -283 15z m250 -111
c23 -9 60 -37 82 -62 53 -61 74 -127 74 -234 0 -73 -4 -94 -28 -142 -84 -173
-307 -221 -449 -97 -61 54 -90 118 -95 213 -11 188 67 313 215 342 64 13 141
5 201 -20z"/>
<path d="M26368 4275 c-104 -28 -198 -110 -246 -213 -25 -52 -27 -68 -27 -182
0 -120 1 -128 32 -192 39 -82 106 -151 181 -186 52 -25 68 -27 177 -27 109 0
125 2 177 27 145 67 228 206 228 378 0 201 -118 357 -301 399 -59 14 -164 12
-221 -4z m238 -105 c88 -38 144 -114 165 -226 36 -196 -77 -361 -260 -380
-116 -13 -218 42 -276 147 -28 51 -30 61 -30 164 0 91 4 118 21 155 66 141
233 203 380 140z"/>
<path d="M27609 4267 c-163 -55 -249 -190 -249 -386 0 -185 74 -313 217 -378
102 -47 255 -47 357 0 83 39 166 137 178 212 3 17 -3 19 -47 18 -27 -1 -53 -2
-57 -2 -4 -1 -10 -11 -14 -23 -14 -49 -73 -106 -129 -127 -180 -68 -367 35
-392 214 l-6 45 329 -1 329 0 0 88 c0 98 -16 148 -67 220 -90 125 -283 177
-449 120z m272 -103 c77 -38 126 -109 136 -195 l6 -49 -261 0 c-143 0 -267 3
-276 6 -21 8 -20 32 4 96 57 152 240 219 391 142z"/>
<path d="M9230 3880 l0 -400 55 0 55 0 0 400 0 400 -55 0 -55 0 0 -400z"/>
<path d="M19086 4272 c-11 -18 0 -528 13 -580 28 -113 120 -197 242 -221 127
-25 279 26 324 108 14 25 14 23 15 -36 l0 -63 55 0 55 0 0 400 0 400 -54 0
-55 0 -3 -272 c-3 -264 -4 -274 -26 -317 -46 -85 -104 -122 -203 -129 -56 -4
-75 -1 -122 21 -66 30 -113 88 -122 150 -4 23 -8 51 -10 62 -2 11 -4 125 -4
253 l-1 232 -49 0 c-28 0 -52 -4 -55 -8z"/>
<path d="M20850 4273 c0 -5 56 -183 123 -398 l122 -390 57 -3 56 -3 108 325
c60 179 109 324 110 323 1 -1 50 -147 109 -325 l107 -323 55 3 56 3 123 395
c68 217 124 396 124 398 0 1 -24 2 -54 2 l-53 0 -93 -327 c-50 -181 -95 -331
-99 -335 -4 -4 -54 142 -112 325 l-105 332 -55 3 -55 3 -108 -338 c-60 -186
-110 -339 -111 -341 -2 -2 -134 456 -187 646 -9 31 -10 32 -63 32 -30 0 -55
-3 -55 -7z"/>
<path d="M23024 4262 c3 -9 76 -186 161 -392 85 -206 155 -380 155 -386 0 -6
-34 -94 -75 -195 -41 -100 -75 -184 -75 -186 0 -2 26 -3 57 -1 l57 3 39 95
c236 579 427 1058 427 1071 0 5 -24 9 -53 9 l-53 0 -56 -147 c-89 -234 -200
-518 -202 -520 -1 -2 -62 148 -135 332 l-133 335 -60 0 c-52 0 -59 -2 -54 -18z"/>
<path d="M17422 3578 c-59 -206 -82 -290 -82 -304 0 -11 9 -14 36 -12 l36 3
74 185 c41 102 74 188 74 193 0 4 -26 7 -59 7 l-58 0 -21 -72z"/>
<path d="M28840 3623 c-34 -13 -50 -37 -50 -75 0 -49 28 -78 74 -78 63 0 99
80 59 128 -19 23 -59 34 -83 25z"/>
</g>
</svg>
