<?xml version="1.0" standalone="no"?>
<!DOCTYPE svg PUBLIC "-//W3C//DTD SVG 20010904//EN"
 "http://www.w3.org/TR/2001/REC-SVG-20010904/DTD/svg10.dtd">
<svg version="1.0" xmlns="http://www.w3.org/2000/svg"
 width="4501.000000pt" height="4501.000000pt" viewBox="0 0 4501.000000 4501.000000"
 preserveAspectRatio="xMidYMid meet">

<g transform="translate(0.000000,4501.000000) scale(0.100000,-0.100000)"
fill="#000000" stroke="none">
<path d="M4910 39333 c-430 -44 -784 -182 -1125 -438 -143 -107 -333 -306
-442 -462 -169 -240 -284 -515 -350 -833 l-27 -135 -4 -827 -3 -828 15595 0
c8578 0 15596 2 15596 4 0 2 9 48 20 101 11 53 20 99 20 101 0 2 -1401 4
-3112 4 l-3113 0 -133 -57 c-110 -47 -135 -55 -142 -43 -12 19 -10 20 84 61
l79 34 -12341 3 -12342 2 0 659 c0 531 3 682 15 775 84 637 479 1187 1063
1480 137 69 330 131 532 173 81 16 816 18 14070 23 13344 5 13981 6 13895 22
-266 52 -658 88 -1120 104 -104 3 -215 7 -245 9 -30 1 -135 3 -232 4 -171 1
-178 2 -178 21 0 20 7 20 433 20 420 0 574 4 802 20 61 4 -6048 7 -13575 7
-7527 0 -13701 -2 -13720 -4z"/>
<path d="M32600 39324 c-52 -7 -167 -18 -255 -24 -238 -18 -329 -27 -274 -29
202 -6 615 -61 798 -107 l134 -34 3151 1 c3147 1 3151 1 2941 20 -507 45 -983
105 -1260 160 l-150 29 -2495 -1 c-2001 -1 -2514 -4 -2590 -15z"/>
<path d="M37980 39324 c346 -64 1058 -138 1720 -178 317 -20 560 -36 625 -41
28 -2 154 -9 280 -15 127 -6 256 -12 288 -15 31 -3 57 -2 57 0 0 3 -50 30
-110 60 -200 98 -456 170 -699 194 -66 7 -482 11 -1170 10 -941 -1 -1057 -3
-991 -15z"/>
<path d="M40610 39007 c89 -36 298 -145 370 -193 369 -245 643 -603 773 -1009
92 -286 97 -343 97 -1130 l0 -655 -2110 -2 -2111 -3 64 -100 63 -100 2153 -3
2152 -2 -3 817 c-4 806 -4 820 -27 943 -30 164 -79 333 -131 450 -23 52 -42
100 -44 105 -11 47 -163 289 -256 409 -118 151 -332 348 -485 447 -40 26 -43
26 -285 31 -170 4 -237 2 -220 -5z"/>
<path d="M5166 38175 c-230 -58 -414 -240 -481 -475 -26 -89 -26 -251 0 -340
40 -143 126 -271 236 -355 122 -92 250 -135 405 -135 291 0 539 179 630 456
25 77 29 104 29 204 0 100 -4 127 -29 204 -66 202 -227 363 -426 428 -86 27
-278 34 -364 13z"/>
<path d="M7855 38183 c-47 -10 -165 -54 -211 -79 -27 -15 -87 -66 -134 -113
-135 -136 -190 -269 -190 -461 0 -115 19 -200 66 -294 76 -155 213 -275 384
-337 57 -21 83 -23 210 -23 135 0 150 2 220 28 198 75 340 222 411 423 30 84
37 247 15 347 -43 189 -177 362 -346 444 -115 56 -183 72 -305 71 -55 -1 -109
-3 -120 -6z"/>
<path d="M10462 38170 c-180 -48 -341 -179 -419 -340 -101 -208 -96 -429 14
-630 54 -98 170 -208 274 -259 123 -60 190 -74 329 -69 184 7 312 62 439 188
262 260 262 677 0 939 -77 77 -148 122 -251 158 -101 36 -279 42 -386 13z"/>
<path d="M34220 35963 c-6 -32 -16 -74 -21 -93 -16 -60 -16 -60 69 -60 l77 0
38 98 c20 54 37 101 37 105 0 4 -42 7 -94 7 l-95 0 -11 -57z"/>
<path d="M34431 35928 c-19 -51 -36 -99 -39 -105 -3 -10 126 -13 627 -13 l631
0 -1 23 c0 12 -6 58 -12 102 l-12 80 -580 3 -580 2 -34 -92z"/>
<path d="M35690 35983 c0 -21 3 -68 7 -105 l6 -68 934 0 c603 0 933 3 931 10
-1 5 -36 52 -77 105 l-73 95 -864 0 -864 0 0 -37z"/>
<path d="M37477 36008 c157 -203 152 -198 194 -198 47 0 48 -6 -37 126 l-54
84 -56 0 c-44 0 -54 -3 -47 -12z"/>
<path d="M2963 22218 l2 -12963 22 -113 c60 -306 152 -543 310 -792 147 -233
379 -470 603 -615 41 -27 77 -52 80 -56 3 -3 75 -40 160 -82 254 -125 493
-193 770 -217 91 -8 4952 -10 17685 -8 16837 3 17564 4 17655 21 267 51 437
105 635 204 192 96 378 229 532 380 196 194 300 337 420 575 97 195 152 363
201 622 16 86 17 829 22 13049 l5 12957 -1942 0 c-1069 0 -1943 -3 -1943 -6 0
-4 29 -51 65 -105 l65 -99 1770 0 1770 0 0 -12794 c0 -11318 -2 -12808 -15
-12909 -46 -351 -188 -689 -402 -957 -64 -80 -217 -234 -299 -301 -281 -230
-648 -380 -1024 -419 -123 -13 -12918 -14 -12905 -1 6 5 215 106 465 224 261
124 454 221 452 227 -2 11 -595 1263 -795 1681 -41 86 -78 165 -81 177 -6 18
2 25 66 55 40 19 170 79 288 135 118 55 262 122 320 149 58 28 219 103 358
168 155 72 248 121 240 125 -142 77 -1479 811 -1518 835 -66 39 -425 237 -542
298 -46 24 -278 151 -516 282 -238 130 -435 236 -437 234 -2 -2 -22 -116 -44
-254 -22 -137 -52 -320 -66 -405 -14 -85 -79 -495 -145 -910 -66 -415 -156
-978 -199 -1250 -44 -272 -79 -496 -77 -497 1 -1 296 135 655 303 359 168 654
304 655 302 2 -2 95 -199 208 -438 114 -239 238 -502 277 -585 40 -82 147
-310 240 -505 l168 -355 -11071 -3 c-7880 -2 -11104 0 -11186 8 -326 31 -625
137 -895 318 -474 319 -780 820 -845 1387 -7 61 -10 4192 -10 12883 l0 12792
15389 0 15389 0 21 88 c12 48 24 95 27 105 5 16 -738 17 -15515 17 l-15521 0
3 -12962z m22907 -10428 c107 -59 382 -209 610 -335 228 -125 444 -243 480
-263 36 -19 79 -43 95 -52 17 -10 120 -67 230 -127 239 -131 703 -385 798
-438 37 -20 66 -39 63 -42 -4 -4 -108 -54 -386 -183 -69 -32 -170 -79 -225
-105 -55 -26 -127 -60 -160 -75 -225 -104 -351 -163 -358 -169 -4 -4 1 -25 12
-47 10 -21 144 -302 296 -624 153 -322 320 -675 372 -785 177 -370 203 -427
203 -431 0 -5 -118 -62 -286 -140 -28 -13 -118 -55 -199 -94 -82 -39 -152 -67
-156 -63 -4 5 -71 141 -147 303 -77 162 -168 354 -202 425 -34 72 -79 166
-100 210 -21 44 -53 114 -73 155 -46 98 -329 694 -352 743 -10 20 -23 37 -29
37 -9 0 -66 -26 -351 -160 -101 -48 -153 -72 -305 -143 -30 -14 -156 -73 -280
-131 -123 -58 -226 -103 -228 -102 -2 2 4 46 12 97 32 189 426 2654 426 2662
0 4 10 2 23 -4 12 -7 110 -60 217 -119z"/>
<path d="M34031 35143 c-25 -95 -41 -161 -41 -167 0 -3 13 -6 29 -6 27 0 30 5
65 101 20 55 36 102 36 105 0 2 -18 4 -40 4 -37 0 -40 -2 -49 -37z"/>
<path d="M34130 35088 c-17 -51 -34 -99 -37 -105 -4 -10 411 -13 2056 -13
l2060 0 -76 105 -75 105 -1948 0 -1948 0 -32 -92z"/>
<path d="M38110 35175 c0 -7 111 -155 116 -155 9 0 -99 160 -108 160 -5 0 -8
-2 -8 -5z"/>
</g>
</svg>
