<?xml version="1.0" standalone="no"?>
<!DOCTYPE svg PUBLIC "-//W3C//DTD SVG 20010904//EN"
 "http://www.w3.org/TR/2001/REC-SVG-20010904/DTD/svg10.dtd">
<svg version="1.0" xmlns="http://www.w3.org/2000/svg"
 width="4501.000000pt" height="4500.000000pt" viewBox="0 0 4501.000000 4500.000000"
 preserveAspectRatio="xMidYMid meet">

<g transform="translate(0.000000,4500.000000) scale(0.100000,-0.100000)"
fill="#000000" stroke="none">
<path d="M34555 42013 c-1190 -46 -2285 -324 -3325 -844 -685 -343 -1286 -753
-1848 -1262 -160 -145 -506 -496 -638 -647 -1607 -1838 -2302 -4214 -1938
-6630 227 -1513 898 -2947 1930 -4130 159 -183 597 -619 769 -766 1037 -886
2142 -1459 3410 -1769 1086 -266 2256 -303 3355 -109 1268 224 2453 739 3480
1513 176 132 200 152 410 331 1113 950 1969 2228 2427 3620 248 755 376 1481
403 2290 57 1704 -410 3349 -1355 4775 -223 337 -478 662 -779 995 -99 109
-464 468 -591 581 -1303 1159 -2930 1865 -4665 2024 -321 29 -737 40 -1045 28z
m935 -128 c459 -39 878 -107 1295 -211 1820 -454 3400 -1512 4534 -3037 610
-819 1063 -1777 1326 -2802 437 -1703 278 -3580 -440 -5195 -377 -848 -849
-1561 -1490 -2250 -1723 -1851 -4217 -2775 -6750 -2499 -1969 213 -3791 1158
-5121 2654 -1100 1238 -1790 2786 -1974 4428 -33 292 -41 420 -47 762 -17 931
114 1794 406 2675 667 2010 2106 3677 4006 4640 1015 514 2051 786 3255 854
155 9 826 -4 1000 -19z"/>
<path d="M34535 40174 c-486 -36 -685 -64 -1140 -161 -121 -26 -222 -50 -225
-54 -3 -3 -75 -28 -160 -54 -1146 -349 -2186 -1042 -2959 -1969 -154 -185
-249 -312 -389 -520 -64 -94 -121 -175 -127 -181 -20 -17 -211 -375 -310 -579
-330 -683 -527 -1390 -600 -2147 -23 -251 -40 -749 -27 -843 6 -45 16 -153 22
-241 6 -88 22 -243 36 -345 143 -1059 559 -2068 1203 -2918 64 -85 127 -170
140 -190 29 -45 197 -227 386 -420 619 -633 1375 -1134 2200 -1457 174 -68
439 -163 455 -163 8 0 92 -20 185 -46 836 -226 1754 -274 2625 -135 256 41
575 114 806 185 66 20 131 38 145 39 69 7 591 227 864 365 642 324 1241 769
1717 1274 223 235 338 363 333 367 -2 3 21 36 52 74 658 824 1120 1895 1272
2950 67 464 85 887 55 1320 -53 778 -226 1479 -529 2156 -97 214 -356 715
-366 705 -2 -3 -35 45 -72 105 -38 60 -118 178 -178 263 -780 1092 -1873 1898
-3144 2317 -88 29 -162 55 -165 59 -7 9 -457 112 -630 144 -383 71 -650 96
-1080 100 -190 2 -367 2 -395 0z m-742 -1374 l856 -685 0 -835 1 -836 -157
-113 c-87 -63 -189 -138 -228 -166 -38 -28 -425 -310 -860 -625 -434 -315
-801 -582 -815 -592 -26 -19 -31 -18 -825 147 -440 91 -801 169 -803 173 -1 4
-202 477 -446 1052 l-443 1045 35 50 c20 28 77 102 126 165 589 747 1371 1352
2249 1739 164 73 419 170 438 168 9 -1 401 -310 872 -687z m3200 614 c536
-204 1140 -557 1587 -928 366 -303 710 -661 978 -1020 45 -59 82 -112 82 -116
0 -4 -94 -254 -209 -556 -114 -302 -290 -766 -391 -1030 -100 -265 -185 -486
-189 -492 -5 -7 -788 -174 -1501 -318 l-85 -17 -830 603 c-456 332 -923 671
-1037 754 l-208 151 0 857 0 856 258 201 c315 245 514 401 1017 794 215 169
394 306 398 307 4 0 63 -21 130 -46z m-5508 -4809 c820 -170 1000 -207 1001
-209 1 0 25 -73 53 -161 96 -295 200 -616 384 -1180 36 -110 118 -362 182
-560 64 -198 120 -370 125 -382 8 -18 -16 -60 -149 -265 -166 -256 -216 -334
-316 -488 -34 -52 -137 -212 -230 -355 -92 -143 -173 -266 -181 -274 -17 -19
-2291 -216 -2310 -200 -7 5 -57 78 -112 162 -416 633 -710 1350 -857 2090 -28
146 -75 456 -75 504 0 30 40 62 858 691 471 362 887 682 923 709 l66 50 189
-39 c104 -22 306 -63 449 -93z m7885 -279 c272 -209 685 -525 917 -704 l422
-324 -5 -42 c-124 -976 -435 -1825 -956 -2604 l-69 -103 -47 6 c-26 3 -517 37
-1092 76 -574 38 -1045 71 -1045 72 -11 17 -516 798 -560 867 -177 272 -236
362 -283 435 l-51 81 59 179 c32 99 118 362 190 585 73 223 160 493 195 600
35 107 119 364 186 570 67 206 124 378 128 382 9 11 1494 316 1506 310 6 -3
233 -177 505 -386z m-2765 -3235 l443 -685 -366 -1093 -366 -1092 -126 -30
c-237 -57 -525 -103 -825 -133 -200 -20 -877 -17 -1075 5 -280 31 -726 105
-756 125 -6 4 -84 228 -174 497 -90 270 -255 762 -367 1094 -111 333 -203 611
-203 618 0 13 846 1329 878 1366 14 16 84 17 1254 15 l1240 -3 443 -684z"/>
<path d="M10520 33786 c0 -2 8 -10 18 -17 15 -13 16 -12 3 4 -13 16 -21 21
-21 13z"/>
<path d="M10173 33345 c0 -8 4 -12 9 -9 5 3 6 10 3 15 -9 13 -12 11 -12 -6z"/>
</g>
</svg>
