<?xml version="1.0" encoding="UTF-8"?>
<!DOCTYPE svg PUBLIC "-//W3C//DTD SVG 1.1//EN" "http://www.w3.org/Graphics/SVG/1.1/DTD/svg11.dtd">
<svg xmlns="http://www.w3.org/2000/svg" version="1.1" width="1123px" height="794px" style="shape-rendering:geometricPrecision; text-rendering:geometricPrecision; image-rendering:optimizeQuality; fill-rule:evenodd; clip-rule:evenodd" xmlns:xlink="http://www.w3.org/1999/xlink">
<g><path style="opacity:1" fill="#edeae3" d="M -0.5,-0.5 C 186.5,-0.5 373.5,-0.5 560.5,-0.5C 560.5,264.167 560.5,528.833 560.5,793.5C 373.5,793.5 186.5,793.5 -0.5,793.5C -0.5,528.833 -0.5,264.167 -0.5,-0.5 Z"/></g>
<g><path style="opacity:1" fill="#2c3b04" d="M 177.5,230.5 C 186.009,229.508 194.009,231.008 201.5,235C 209.379,241.294 209.379,247.628 201.5,254C 189.284,260.221 177.284,259.888 165.5,253C 159.145,244.512 160.811,237.846 170.5,233C 173.004,232.302 175.337,231.469 177.5,230.5 Z"/></g>
<g><path style="opacity:1" fill="#354210" d="M 252.5,230.5 C 254.833,230.5 257.167,230.5 259.5,230.5C 259.5,239.833 259.5,249.167 259.5,258.5C 257.167,258.5 254.833,258.5 252.5,258.5C 252.5,249.167 252.5,239.833 252.5,230.5 Z"/></g>
<g><path style="opacity:1" fill="#344211" d="M 311.5,230.5 C 313.833,230.5 316.167,230.5 318.5,230.5C 318.5,239.833 318.5,249.167 318.5,258.5C 316.167,258.5 313.833,258.5 311.5,258.5C 311.5,249.167 311.5,239.833 311.5,230.5 Z"/></g>
<g><path style="opacity:1" fill="#2b3a01" d="M 399.5,230.5 C 401.5,230.5 403.5,230.5 405.5,230.5C 405.5,237.833 405.5,245.167 405.5,252.5C 413.167,252.5 420.833,252.5 428.5,252.5C 428.5,254.5 428.5,256.5 428.5,258.5C 418.833,258.5 409.167,258.5 399.5,258.5C 399.5,249.167 399.5,239.833 399.5,230.5 Z"/></g>
<g><path style="opacity:1" fill="#e8e6de" d="M 180.5,235.5 C 187.6,234.813 193.767,236.813 199,241.5C 200.221,246.97 198.054,250.47 192.5,252C 185.227,254.216 178.227,253.549 171.5,250C 168.346,247.225 167.846,244.058 170,240.5C 173.147,237.841 176.647,236.174 180.5,235.5 Z"/></g>
<g><path style="opacity:1" fill="#2b3a02" d="M 211.5,230.5 C 221.247,230.08 230.914,230.58 240.5,232C 244.952,235.377 245.618,239.377 242.5,244C 244.345,248.581 245.012,253.415 244.5,258.5C 242.167,258.5 239.833,258.5 237.5,258.5C 237.5,254.833 237.5,251.167 237.5,247.5C 231.167,247.5 224.833,247.5 218.5,247.5C 218.5,251.167 218.5,254.833 218.5,258.5C 216.167,258.5 213.833,258.5 211.5,258.5C 211.5,249.167 211.5,239.833 211.5,230.5 Z"/></g>
<g><path style="opacity:1" fill="#ebeae2" d="M 218.5,236.5 C 224.509,236.334 230.509,236.501 236.5,237C 237.833,238.333 237.833,239.667 236.5,241C 230.509,241.499 224.509,241.666 218.5,241.5C 218.5,239.833 218.5,238.167 218.5,236.5 Z"/></g>
<g><path style="opacity:1" fill="#2c3b04" d="M 324.5,230.5 C 328.182,230.335 331.848,230.501 335.5,231C 340.667,238.167 345.833,245.333 351,252.5C 351.5,245.174 351.666,237.841 351.5,230.5C 353.833,230.5 356.167,230.5 358.5,230.5C 358.5,239.833 358.5,249.167 358.5,258.5C 354.818,258.665 351.152,258.499 347.5,258C 342.333,250.833 337.167,243.667 332,236.5C 331.5,243.826 331.334,251.159 331.5,258.5C 329.167,258.5 326.833,258.5 324.5,258.5C 324.5,249.167 324.5,239.833 324.5,230.5 Z"/></g>
<g><path style="opacity:1" fill="#2c3b04" d="M 373.5,230.5 C 377.106,230.211 380.606,230.544 384,231.5C 387.704,240.407 391.538,249.24 395.5,258C 390.651,259.752 387.651,258.252 386.5,253.5C 381.167,252.167 375.833,252.167 370.5,253.5C 368.995,258.032 365.995,259.365 361.5,257.5C 365.24,248.356 369.24,239.356 373.5,230.5 Z"/></g>
<g><path style="opacity:1" fill="#e2e1d8" d="M 377.5,236.5 C 380.196,238.851 382.196,241.851 383.5,245.5C 380.167,246.833 376.833,246.833 373.5,245.5C 374.84,242.471 376.173,239.471 377.5,236.5 Z"/></g>
<g><path style="opacity:1" fill="#2d3b05" d="M 282.5,230.5 C 289.887,230.286 296.887,231.786 303.5,235C 302.223,236.786 300.556,237.952 298.5,238.5C 289.622,235.481 280.955,235.981 272.5,240C 269.487,244.249 270.153,247.916 274.5,251C 280.431,252.471 286.431,252.804 292.5,252C 294.779,251.527 296.779,250.527 298.5,249C 295.183,248.502 291.85,248.335 288.5,248.5C 288.5,246.5 288.5,244.5 288.5,242.5C 294.833,242.5 301.167,242.5 307.5,242.5C 306.601,250.241 302.267,255.074 294.5,257C 283.137,260.066 273.304,257.566 265,249.5C 263.543,246.634 263.21,243.634 264,240.5C 268.918,234.628 275.084,231.295 282.5,230.5 Z"/></g>
<g><path style="opacity:1" fill="#ebe8e1" d="M 376.5,325.5 C 379.909,326.903 383.575,327.57 387.5,327.5C 389.099,327.232 390.432,327.566 391.5,328.5C 429.235,341.235 454.235,366.568 466.5,404.5C 467.557,410.453 468.224,416.453 468.5,422.5C 468.5,431.167 468.5,439.833 468.5,448.5C 458.544,491.762 432.544,520.429 390.5,534.5C 387.781,535.913 384.781,536.58 381.5,536.5C 364.643,538.475 347.977,537.475 331.5,533.5C 329.898,531.926 327.898,531.259 325.5,531.5C 320.786,528.593 315.786,526.26 310.5,524.5C 292.404,513.071 278.07,498.071 267.5,479.5C 264.64,471.027 261.64,462.694 258.5,454.5C 257.549,453.081 257.216,451.415 257.5,449.5C 252.6,405.662 267.6,370.495 302.5,344C 324.889,329.07 349.555,322.903 376.5,325.5 Z"/></g>
<g><path style="opacity:1" fill="#505634" d="M 376.5,325.5 C 379.518,325.335 382.518,325.502 385.5,326C 386.416,326.278 387.082,326.778 387.5,327.5C 383.575,327.57 379.909,326.903 376.5,325.5 Z"/></g>
<g><path style="opacity:1" fill="#444b25" d="M 376.5,325.5 C 349.555,322.903 324.889,329.07 302.5,344C 267.6,370.495 252.6,405.662 257.5,449.5C 250.889,402.217 267.555,365.384 307.5,339C 329.114,326.336 352.114,321.836 376.5,325.5 Z"/></g>
<g><path style="opacity:1" fill="#b1b57b" d="M 250.5,360.5 C 255.68,359.185 261.014,359.185 266.5,360.5C 266.376,361.107 266.043,361.44 265.5,361.5C 260.695,360.513 255.695,360.179 250.5,360.5 Z"/></g>
<g><path style="opacity:1" fill="#434b25" d="M 391.5,328.5 C 423.56,337.051 446.727,356.385 461,386.5C 463.72,392.262 465.554,398.262 466.5,404.5C 454.235,366.568 429.235,341.235 391.5,328.5 Z"/></g>
<g><path style="opacity:1" fill="#89960f" d="M 250.5,360.5 C 255.695,360.179 260.695,360.513 265.5,361.5C 263.856,363.481 262.19,365.481 260.5,367.5C 251.667,367.833 242.833,368.167 234,368.5C 193.847,366.969 153.681,365.969 113.5,365.5C 115.5,364.833 117.5,364.167 119.5,363.5C 163.159,362.274 206.826,361.274 250.5,360.5 Z"/></g>
<g><path style="opacity:1" fill="#a8af6c" d="M 119.5,363.5 C 117.5,364.167 115.5,364.833 113.5,365.5C 110.15,365.665 106.817,365.498 103.5,365C 108.808,364.17 114.141,363.67 119.5,363.5 Z"/></g>
<g><path style="opacity:1" fill="#899711" d="M 127.5,379.5 C 123.167,378.833 118.833,378.167 114.5,377.5C 161.489,375.958 208.489,375.124 255.5,375C 253.968,377.034 252.635,379.201 251.5,381.5C 245.5,381.833 239.5,382.167 233.5,382.5C 198.187,380.816 162.853,379.816 127.5,379.5 Z"/></g>
<g><path style="opacity:1" fill="#bbbe92" d="M 114.5,377.5 C 118.833,378.167 123.167,378.833 127.5,379.5C 116.784,379.844 106.118,379.344 95.5,378C 101.825,377.5 108.158,377.334 114.5,377.5 Z"/></g>
<g><path style="opacity:1" fill="#869506" d="M 138.5,393.5 C 130.5,392.833 122.5,392.167 114.5,391.5C 158.836,390.598 203.169,389.598 247.5,388.5C 247.45,394.008 244.784,396.674 239.5,396.5C 205.856,394.796 172.189,393.796 138.5,393.5 Z"/></g>
<g><path style="opacity:1" fill="#c5c69c" d="M 114.5,391.5 C 122.5,392.167 130.5,392.833 138.5,393.5C 129.915,393.183 121.415,393.517 113,394.5C 110.175,392.812 107.009,391.979 103.5,392C 107.152,391.501 110.818,391.335 114.5,391.5 Z"/></g>
<g><path style="opacity:1" fill="#879505" d="M 199.5,402.5 C 213.833,402.5 228.167,402.5 242.5,402.5C 242.007,404.806 241.674,407.139 241.5,409.5C 196.832,408.438 152.166,407.271 107.5,406C 138.348,405.385 169.015,404.219 199.5,402.5 Z"/></g>
<g><path style="opacity:1" fill="#323c0c" d="M 466.5,404.5 C 468.375,409.206 469.375,414.206 469.5,419.5C 469.737,420.791 469.404,421.791 468.5,422.5C 468.224,416.453 467.557,410.453 466.5,404.5 Z"/></g>
<g><path style="opacity:1" fill="#88960b" d="M 119.5,420.5 C 124.833,419.833 130.167,419.167 135.5,418.5C 170.165,417.755 204.832,417.088 239.5,416.5C 239.007,418.806 238.674,421.139 238.5,423.5C 198.827,422.692 159.16,421.692 119.5,420.5 Z"/></g>
<g><path style="opacity:1" fill="#b6ba85" d="M 135.5,418.5 C 130.167,419.167 124.833,419.833 119.5,420.5C 117.712,420.785 116.045,420.452 114.5,419.5C 121.468,418.503 128.468,418.17 135.5,418.5 Z"/></g>
<g><path style="opacity:1" fill="#6b7053" d="M 469.5,419.5 C 470.657,427.99 470.824,436.657 470,445.5C 469.768,446.737 469.268,447.737 468.5,448.5C 468.5,439.833 468.5,431.167 468.5,422.5C 469.404,421.791 469.737,420.791 469.5,419.5 Z"/></g>
<g><path style="opacity:1" fill="#88960e" d="M 231.5,429.5 C 233.833,429.5 236.167,429.5 238.5,429.5C 238.5,432.167 238.5,434.833 238.5,437.5C 199.166,436.245 159.833,434.912 120.5,433.5C 157.664,432.277 194.664,430.944 231.5,429.5 Z"/></g>
<g><path style="opacity:1" fill="#fe8b06" d="M 281.5,517.5 C 281.611,518.117 281.944,518.617 282.5,519C 241.501,519.5 200.501,519.667 159.5,519.5C 157.665,518.878 156.498,517.544 156,515.5C 149.735,500.207 143.569,484.873 137.5,469.5C 144.134,468.503 150.8,468.17 157.5,468.5C 158.483,472.298 158.817,476.298 158.5,480.5C 164.29,480.904 169.956,480.404 175.5,479C 176.894,478.044 177.561,476.711 177.5,475C 177.237,471.359 176.237,468.026 174.5,465C 161.504,464.5 148.504,464.333 135.5,464.5C 133.462,458.889 131.129,453.389 128.5,448C 165.498,447.5 202.498,447.333 239.5,447.5C 242.23,466.042 249.23,482.708 260.5,497.5C 251.525,498.498 242.525,498.832 233.5,498.5C 233.5,494.5 233.5,490.5 233.5,486.5C 232.167,486.5 230.833,486.5 229.5,486.5C 229.5,491.833 229.5,497.167 229.5,502.5C 241.505,502.333 253.505,502.5 265.5,503C 269.838,508.991 275.171,513.824 281.5,517.5 Z"/></g>
<g><path style="opacity:1" fill="#fdf9f6" d="M 135.5,464.5 C 148.504,464.333 161.504,464.5 174.5,465C 176.237,468.026 177.237,471.359 177.5,475C 177.561,476.711 176.894,478.044 175.5,479C 169.956,480.404 164.29,480.904 158.5,480.5C 158.817,476.298 158.483,472.298 157.5,468.5C 150.655,467.833 143.655,467.167 136.5,466.5C 136.137,465.817 135.804,465.15 135.5,464.5 Z"/></g>
<g><path style="opacity:1" fill="#fda359" d="M 162.5,468.5 C 165.572,468.183 168.572,468.516 171.5,469.5C 170,469.833 168.5,470.167 167,470.5C 165.014,470.431 163.514,469.765 162.5,468.5 Z"/></g>
<g><path style="opacity:1" fill="#444b24" d="M 258.5,454.5 C 261.64,462.694 264.64,471.027 267.5,479.5C 264.245,474.65 261.745,469.317 260,463.5C 259.304,460.522 258.804,457.522 258.5,454.5 Z"/></g>
<g><path style="opacity:1" fill="#fdf8f4" d="M 219.5,464.5 C 220.833,464.5 222.167,464.5 223.5,464.5C 223.5,468.5 223.5,472.5 223.5,476.5C 227.833,476.5 232.167,476.5 236.5,476.5C 236.5,477.833 236.5,479.167 236.5,480.5C 230.833,480.5 225.167,480.5 219.5,480.5C 219.5,475.167 219.5,469.833 219.5,464.5 Z"/></g>
<g><path style="opacity:1" fill="#fdf6f1" d="M 184.5,464.5 C 187.119,464.232 189.619,464.565 192,465.5C 194.038,470.408 196.205,475.241 198.5,480C 194.78,481.392 192.78,480.225 192.5,476.5C 189.813,476.336 187.146,476.503 184.5,477C 183.663,478.011 183.33,479.178 183.5,480.5C 181.712,480.785 180.045,480.452 178.5,479.5C 180.79,474.591 182.79,469.591 184.5,464.5 Z"/></g>
<g><path style="opacity:1" fill="#fc983c" d="M 187.5,468.5 C 191.546,471.464 191.213,473.131 186.5,473.5C 186.629,471.784 186.962,470.117 187.5,468.5 Z"/></g>
<g><path style="opacity:1" fill="#fc9530" d="M 162.5,473.5 C 165.833,473.5 169.167,473.5 172.5,473.5C 172.5,474.5 172.5,475.5 172.5,476.5C 169.167,476.5 165.833,476.5 162.5,476.5C 162.5,475.5 162.5,474.5 162.5,473.5 Z"/></g>
<g><path style="opacity:1" fill="#fdf3ed" d="M 199.5,464.5 C 201.167,464.5 202.833,464.5 204.5,464.5C 204.5,468.5 204.5,472.5 204.5,476.5C 208.5,476.5 212.5,476.5 216.5,476.5C 216.5,477.833 216.5,479.167 216.5,480.5C 210.833,480.5 205.167,480.5 199.5,480.5C 199.5,475.167 199.5,469.833 199.5,464.5 Z"/></g>
<g><path style="opacity:1" fill="#2c3b04" d="M 351.5,348.5 C 395.54,345.916 425.707,364.916 442,405.5C 450.913,440.699 442.079,470.533 415.5,495C 379.793,519.913 344.46,519.579 309.5,494C 282.53,468.627 274.364,438.127 285,402.5C 297.501,372.49 319.668,354.49 351.5,348.5 Z"/></g>
<g><path style="opacity:1" fill="#ece9e2" d="M 346.5,459.5 C 357.838,459.333 369.172,459.5 380.5,460C 384.945,465.562 388.611,471.562 391.5,478C 388.267,487.435 385.267,496.935 382.5,506.5C 370.289,509.091 358.122,509.091 346,506.5C 342.201,496.937 338.701,487.27 335.5,477.5C 339.221,471.465 342.887,465.465 346.5,459.5 Z"/></g>
<g><path style="opacity:1" fill="#ebe8e1" d="M 411.5,420.5 C 413.989,420.298 416.323,420.798 418.5,422C 425.382,427.883 432.548,433.383 440,438.5C 439.067,451.965 434.567,464.132 426.5,475C 416.756,475.161 407.089,474.328 397.5,472.5C 393.803,467.302 390.303,461.969 387,456.5C 388.954,445.624 391.954,434.958 396,424.5C 401.3,423.319 406.467,421.986 411.5,420.5 Z"/></g>
<g><path style="opacity:1" fill="#ebe9e1" d="M 308.5,420.5 C 315.867,421.339 323.2,422.505 330.5,424C 334.742,433.72 338.409,443.72 341.5,454C 337.966,460.233 334.299,466.4 330.5,472.5C 320.245,474.448 309.912,475.281 299.5,475C 291.104,464.234 286.604,452.068 286,438.5C 293.661,432.601 301.161,426.601 308.5,420.5 Z"/></g>
<g><path style="opacity:1" fill="#ece9e2" d="M 388.5,357.5 C 404.033,362.934 416.7,372.268 426.5,385.5C 422.603,394.6 418.937,403.766 415.5,413C 409.014,414.553 402.514,416.053 396,417.5C 386.508,411.084 377.174,404.418 368,397.5C 367.333,389.833 367.333,382.167 368,374.5C 375.023,368.969 381.857,363.302 388.5,357.5 Z"/></g>
<g><path style="opacity:1" fill="#ece9e2" d="M 335.5,357.5 C 336.552,357.351 337.552,357.517 338.5,358C 345.667,363.833 352.833,369.667 360,375.5C 360.667,382.833 360.667,390.167 360,397.5C 351.256,404.122 342.422,410.622 333.5,417C 326.609,416.49 319.776,415.323 313,413.5C 308.229,405.621 304.229,397.288 301,388.5C 300.333,386.833 300.333,385.167 301,383.5C 310.109,371.544 321.609,362.877 335.5,357.5 Z"/></g>
<g><path style="opacity:1" fill="#444b26" d="M 267.5,479.5 C 278.07,498.071 292.404,513.071 310.5,524.5C 291.021,514.356 276.688,499.356 267.5,479.5 Z"/></g>
<g><path style="opacity:1" fill="#fdf4ed" d="M 188.5,500.5 C 186.633,500.955 184.8,501.622 183,502.5C 178.317,500.803 173.484,500.136 168.5,500.5C 168.343,499.127 168.51,497.793 169,496.5C 172.405,493.216 175.905,490.05 179.5,487C 181.473,486.505 183.473,486.338 185.5,486.5C 185.5,489.833 185.5,493.167 185.5,496.5C 186.5,496.5 187.5,496.5 188.5,496.5C 188.5,497.833 188.5,499.167 188.5,500.5 Z"/></g>
<g><path style="opacity:1" fill="#fff2ea" d="M 214.5,498.5 C 218.298,499.483 222.298,499.817 226.5,499.5C 226.5,500.5 226.5,501.5 226.5,502.5C 220.833,502.5 215.167,502.5 209.5,502.5C 209.5,497.167 209.5,491.833 209.5,486.5C 211.167,486.5 212.833,486.5 214.5,486.5C 214.5,490.5 214.5,494.5 214.5,498.5 Z"/></g>
<g><path style="opacity:1" fill="#fb8e18" d="M 178.5,492.5 C 180.176,493.183 180.843,494.517 180.5,496.5C 178.801,496.66 177.134,496.494 175.5,496C 176.71,494.961 177.71,493.794 178.5,492.5 Z"/></g>
<g><path style="opacity:1" fill="#fdf5ef" d="M 188.5,500.5 C 190.725,496.377 192.725,492.044 194.5,487.5C 197.034,486.223 199.534,486.223 202,487.5C 203.977,492.434 206.143,497.268 208.5,502C 203.851,500.479 198.851,499.646 193.5,499.5C 193.5,500.5 193.5,501.5 193.5,502.5C 191.219,502.923 189.552,502.256 188.5,500.5 Z"/></g>
<g><path style="opacity:1" fill="#fd9a3e" d="M 197.5,490.5 C 201.546,493.464 201.213,495.131 196.5,495.5C 196.629,493.784 196.962,492.117 197.5,490.5 Z"/></g>
<g><path style="opacity:1" fill="#fec5a1" d="M 214.5,498.5 C 218.833,498.5 223.167,498.5 227.5,498.5C 227.768,500.099 227.434,501.432 226.5,502.5C 226.5,501.5 226.5,500.5 226.5,499.5C 222.298,499.817 218.298,499.483 214.5,498.5 Z"/></g>
<g><path style="opacity:1" fill="#f3d5c1" d="M 281.5,517.5 C 282.922,517.75 283.922,518.583 284.5,520C 242.665,520.831 200.998,520.665 159.5,519.5C 200.501,519.667 241.501,519.5 282.5,519C 281.944,518.617 281.611,518.117 281.5,517.5 Z"/></g>
<g><path style="opacity:1" fill="#424923" d="M 468.5,448.5 C 461.185,488.321 438.852,516.155 401.5,532C 397.888,533.15 394.222,533.983 390.5,534.5C 432.544,520.429 458.544,491.762 468.5,448.5 Z"/></g>
<g><path style="opacity:1" fill="#3d451d" d="M 310.5,524.5 C 315.786,526.26 320.786,528.593 325.5,531.5C 319.808,530.486 314.808,528.152 310.5,524.5 Z"/></g>
<g><path style="opacity:1" fill="#424921" d="M 325.5,531.5 C 327.898,531.259 329.898,531.926 331.5,533.5C 329.102,533.741 327.102,533.074 325.5,531.5 Z"/></g>
<g><path style="opacity:1" fill="#3b4619" d="M 331.5,533.5 C 347.977,537.475 364.643,538.475 381.5,536.5C 380.048,537.302 378.382,537.802 376.5,538C 363.065,539.077 349.731,538.411 336.5,536C 334.685,535.243 333.019,534.41 331.5,533.5 Z"/></g>
<g><path style="opacity:1" fill="#7b8275" d="M 560.5,-0.5 C 560.833,-0.5 561.167,-0.5 561.5,-0.5C 561.5,263.833 561.5,528.167 561.5,792.5C 748.167,792.5 934.833,792.5 1121.5,792.5C 1121.5,528.167 1121.5,263.833 1121.5,-0.5C 1121.83,-0.5 1122.17,-0.5 1122.5,-0.5C 1122.5,264.167 1122.5,528.833 1122.5,793.5C 935.167,793.5 747.833,793.5 560.5,793.5C 560.5,528.833 560.5,264.167 560.5,-0.5 Z"/></g>
<g><path style="opacity:1" fill="#2b3a00" d="M 561.5,-0.5 C 748.167,-0.5 934.833,-0.5 1121.5,-0.5C 1121.5,263.833 1121.5,528.167 1121.5,792.5C 934.833,792.5 748.167,792.5 561.5,792.5C 561.5,528.167 561.5,263.833 561.5,-0.5 Z"/></g>
<g><path style="opacity:1" fill="#cbcdc2" d="M 841.5,519.5 C 842.289,519.783 842.956,520.283 843.5,521C 801.665,521.831 759.998,521.665 718.5,520.5C 759.67,520.832 800.67,520.499 841.5,519.5 Z"/></g>
<g><path style="opacity:1" fill="#ebe9e1" d="M 841.5,519.5 C 800.67,520.499 759.67,520.832 718.5,520.5C 711.027,503.876 704.36,486.876 698.5,469.5C 705.5,469.5 712.5,469.5 719.5,469.5C 719.5,473.5 719.5,477.5 719.5,481.5C 724.844,481.666 730.177,481.499 735.5,481C 736.894,480.044 737.561,478.711 737.5,477C 736.946,474.176 736.446,471.343 736,468.5C 734.933,467.809 733.766,467.309 732.5,467C 720.5,466.667 708.5,466.333 696.5,466C 693.972,460.749 691.639,455.416 689.5,450C 726.498,449.5 763.498,449.333 800.5,449.5C 802.923,468.278 809.923,485.112 821.5,500C 812.173,500.5 802.839,500.666 793.5,500.5C 793.5,496.5 793.5,492.5 793.5,488.5C 792.167,488.5 790.833,488.5 789.5,488.5C 789.5,493.5 789.5,498.5 789.5,503.5C 801.171,503.333 812.838,503.5 824.5,504C 829.738,509.742 835.404,514.909 841.5,519.5 Z"/></g>
<g><path style="opacity:1" fill="#323f0e" d="M 755.5,488.5 C 757.604,488.201 759.604,488.534 761.5,489.5C 763.5,493.833 765.5,498.167 767.5,502.5C 767,502.833 766.5,503.167 766,503.5C 764.14,501.626 761.806,500.626 759,500.5C 757.5,500.667 756,500.833 754.5,501C 753.692,502.706 752.359,503.539 750.5,503.5C 751.969,498.426 753.636,493.426 755.5,488.5 Z"/></g>
<g><path style="opacity:1" fill="#303d09" d="M 744.5,488.5 C 744.816,491.978 744.316,495.312 743,498.5C 742.808,496.423 742.308,494.423 741.5,492.5C 740.893,492.624 740.56,492.957 740.5,493.5C 738.809,494.864 737.142,496.197 735.5,497.5C 734.957,497.56 734.624,497.893 734.5,498.5C 739.12,499.493 743.786,499.827 748.5,499.5C 747.398,501.357 745.731,502.691 743.5,503.5C 739.007,501.752 734.34,501.085 729.5,501.5C 729.297,499.61 729.963,498.11 731.5,497C 734.833,494.333 738.167,491.667 741.5,489C 742.448,488.517 743.448,488.351 744.5,488.5 Z"/></g>
<g><path style="opacity:1" fill="#61694b" d="M 744.5,488.5 C 745.479,491.625 745.813,494.958 745.5,498.5C 746.791,498.263 747.791,498.596 748.5,499.5C 743.786,499.827 739.12,499.493 734.5,498.5C 734.624,497.893 734.957,497.56 735.5,497.5C 737.265,498.461 739.265,498.795 741.5,498.5C 741.784,496.585 741.451,494.919 740.5,493.5C 740.56,492.957 740.893,492.624 741.5,492.5C 742.308,494.423 742.808,496.423 743,498.5C 744.316,495.312 744.816,491.978 744.5,488.5 Z"/></g>
<g><path style="opacity:1" fill="#e8e7e0" d="M 740.5,493.5 C 741.451,494.919 741.784,496.585 741.5,498.5C 739.265,498.795 737.265,498.461 735.5,497.5C 737.142,496.197 738.809,494.864 740.5,493.5 Z"/></g>
<g><path style="opacity:1" fill="#d7d7ce" d="M 757.5,491.5 C 760.292,492.392 761.625,494.392 761.5,497.5C 759.396,497.799 757.396,497.466 755.5,496.5C 756.95,495.15 757.617,493.484 757.5,491.5 Z"/></g>
<g><path style="opacity:1" fill="#3b471a" d="M 770.5,488.5 C 771.833,488.5 773.167,488.5 774.5,488.5C 774.5,492.5 774.5,496.5 774.5,500.5C 778.5,500.5 782.5,500.5 786.5,500.5C 786.5,501.5 786.5,502.5 786.5,503.5C 781.167,503.5 775.833,503.5 770.5,503.5C 770.5,498.5 770.5,493.5 770.5,488.5 Z"/></g>
<g><path style="opacity:1" fill="#384415" d="M 763.5,466.5 C 763.5,470.833 763.5,475.167 763.5,479.5C 768.294,478.903 772.627,479.57 776.5,481.5C 771.167,481.5 765.833,481.5 760.5,481.5C 760.5,476.5 760.5,471.5 760.5,466.5C 761.5,466.5 762.5,466.5 763.5,466.5 Z"/></g>
<g><path style="opacity:1" fill="#787a6c" d="M 783.5,478.5 C 787.833,478.5 792.167,478.5 796.5,478.5C 796.737,479.791 796.404,480.791 795.5,481.5C 791.768,479.869 787.768,478.869 783.5,478.5 Z"/></g>
<g><path style="opacity:1" fill="#7b7e6e" d="M 763.5,466.5 C 764.483,470.298 764.817,474.298 764.5,478.5C 768.833,478.5 773.167,478.5 777.5,478.5C 777.737,479.791 777.404,480.791 776.5,481.5C 772.627,479.57 768.294,478.903 763.5,479.5C 763.5,475.167 763.5,470.833 763.5,466.5 Z"/></g>
<g><path style="opacity:1" fill="#757a6a" d="M 733.5,475.5 C 730.167,475.5 726.833,475.5 723.5,475.5C 723.5,476.5 723.5,477.5 723.5,478.5C 726.833,478.5 730.167,478.5 733.5,478.5C 730.038,479.482 726.371,479.815 722.5,479.5C 722.5,477.833 722.5,476.167 722.5,474.5C 726.371,474.185 730.038,474.518 733.5,475.5 Z"/></g>
<g><path style="opacity:1" fill="#e9e7de" d="M 733.5,475.5 C 734.833,476.5 734.833,477.5 733.5,478.5C 730.167,478.5 726.833,478.5 723.5,478.5C 723.5,477.5 723.5,476.5 723.5,475.5C 726.833,475.5 730.167,475.5 733.5,475.5 Z"/></g>
<g><path style="opacity:1" fill="#2a3a01" d="M 783.5,478.5 C 787.768,478.869 791.768,479.869 795.5,481.5C 790.5,481.5 785.5,481.5 780.5,481.5C 780.5,476.5 780.5,471.5 780.5,466.5C 781.5,466.5 782.5,466.5 783.5,466.5C 783.5,470.5 783.5,474.5 783.5,478.5 Z"/></g>
<g><path style="opacity:1" fill="#334011" d="M 746.5,466.5 C 748.467,466.261 750.301,466.594 752,467.5C 754.146,472.117 755.98,476.784 757.5,481.5C 755.641,481.539 754.308,480.706 753.5,479C 750.5,478.333 747.5,478.333 744.5,479C 743.692,480.706 742.359,481.539 740.5,481.5C 742.107,476.348 744.107,471.348 746.5,466.5 Z"/></g>
<g><path style="opacity:1" fill="#dcdbd1" d="M 748.5,469.5 C 750.539,470.911 751.539,472.911 751.5,475.5C 749.396,475.799 747.396,475.466 745.5,474.5C 746.763,472.971 747.763,471.305 748.5,469.5 Z"/></g>
<g><path style="opacity:1" fill="#d1d0c7" d="M 722.5,469.5 C 726.375,469.085 730.042,469.585 733.5,471C 730.042,472.415 726.375,472.915 722.5,472.5C 722.5,471.5 722.5,470.5 722.5,469.5 Z"/></g>
<g><path style="opacity:1" fill="#dcdbd2" d="M 794.5,431.5 C 795.833,431.5 797.167,431.5 798.5,431.5C 798.5,434.167 798.5,436.833 798.5,439.5C 759.47,438.928 720.47,437.594 681.5,435.5C 684.447,434.679 687.447,434.179 690.5,434C 725.16,432.834 759.827,432 794.5,431.5 Z"/></g>
<g><path style="opacity:1" fill="#747768" d="M 794.5,431.5 C 795.919,430.549 797.585,430.216 799.5,430.5C 799.81,433.713 799.477,436.713 798.5,439.5C 798.5,436.833 798.5,434.167 798.5,431.5C 797.167,431.5 795.833,431.5 794.5,431.5 Z"/></g>
<g><path style="opacity:1" fill="#dbdad1" d="M 767.5,417.5 C 778.5,417.5 789.5,417.5 800.5,417.5C 799.908,420.127 799.575,422.794 799.5,425.5C 758.128,425.175 716.795,423.842 675.5,421.5C 706.315,419.968 736.982,418.635 767.5,417.5 Z"/></g>
<g><path style="opacity:1" fill="#d9d8cf" d="M 776.5,403.5 C 785.525,403.168 794.525,403.502 803.5,404.5C 802.215,407.021 801.548,409.687 801.5,412.5C 757.493,411.255 713.493,409.755 669.5,408C 705.287,406.241 740.954,404.741 776.5,403.5 Z"/></g>
<g><path style="opacity:1" fill="#dad9d0" d="M 785.5,389.5 C 793.196,389.169 800.862,389.503 808.5,390.5C 807.305,392.751 806.305,395.085 805.5,397.5C 758.155,397.529 710.822,396.363 663.5,394C 704.327,392.525 744.994,391.025 785.5,389.5 Z"/></g>
<g><path style="opacity:1" fill="#dbdad1" d="M 792.5,375.5 C 800.507,375.334 808.507,375.5 816.5,376C 814.583,378.498 812.916,381.165 811.5,384C 759.798,383.942 708.131,382.609 656.5,380C 701.999,378.644 747.333,377.144 792.5,375.5 Z"/></g>
<g><path style="opacity:1" fill="#767a69" d="M 662.5,365.5 C 661.167,366.167 659.833,366.833 658.5,367.5C 656.143,367.663 653.81,367.497 651.5,367C 655.026,365.663 658.692,365.163 662.5,365.5 Z"/></g>
<g><path style="opacity:1" fill="#bec0b4" d="M 662.5,365.5 C 668.833,365.5 675.167,365.5 681.5,365.5C 679.833,366.167 678.167,366.833 676.5,367.5C 670.5,367.5 664.5,367.5 658.5,367.5C 659.833,366.833 661.167,366.167 662.5,365.5 Z"/></g>
<g><path style="opacity:1" fill="#dcdbd2" d="M 676.5,367.5 C 678.167,366.833 679.833,366.167 681.5,365.5C 729.827,363.519 778.161,362.519 826.5,362.5C 824.047,365.241 821.714,368.075 819.5,371C 771.822,370.419 724.156,369.252 676.5,367.5 Z"/></g>
<g><path style="opacity:1" fill="#ebe9e1" d="M 913.5,323.5 C 959.871,321.596 995.038,340.263 1019,379.5C 1042.68,431.762 1033.51,477.262 991.5,516C 946.239,547.614 901.239,547.281 856.5,515C 822.301,483.385 810.801,444.885 822,399.5C 837.556,356.106 868.056,330.772 913.5,323.5 Z"/></g>
<g><path style="opacity:1" fill="#2c3b03" d="M 915.5,349.5 C 958.401,348.196 987.568,367.529 1003,407.5C 1011.09,441.879 1002.26,471.046 976.5,495C 941.806,519.575 907.139,519.575 872.5,495C 841.937,465.135 835.437,430.635 853,391.5C 867.175,367.658 888.009,353.658 915.5,349.5 Z"/></g>
<g><path style="opacity:1" fill="#ebe9e1" d="M 908.5,459.5 C 920.081,459.179 931.581,459.512 943,460.5C 946.768,466.374 950.268,472.374 953.5,478.5C 950.66,488.189 947.326,497.689 943.5,507C 931.204,510.494 919.037,510.327 907,506.5C 903.758,497.036 900.591,487.536 897.5,478C 901.045,471.739 904.712,465.573 908.5,459.5 Z"/></g>
<g><path style="opacity:1" fill="#ebe8e1" d="M 974.5,420.5 C 976.783,420.608 978.783,421.441 980.5,423C 987.333,428.5 994.167,434 1001,439.5C 1000.11,452.451 995.946,464.285 988.5,475C 978.43,475.83 968.43,475.33 958.5,473.5C 955.249,467.996 951.749,462.662 948,457.5C 949.739,446.551 952.739,435.884 957,425.5C 962.825,423.508 968.658,421.842 974.5,420.5 Z"/></g>
<g><path style="opacity:1" fill="#ebe8e1" d="M 871.5,420.5 C 878.893,421.681 886.226,423.181 893.5,425C 897.519,434.563 900.852,444.396 903.5,454.5C 900.142,461.38 896.142,467.88 891.5,474C 881.522,475.332 871.522,475.999 861.5,476C 853.803,465.417 849.136,453.583 847.5,440.5C 855.202,433.463 863.202,426.797 871.5,420.5 Z"/></g>
<g><path style="opacity:1" fill="#ebe8e1" d="M 949.5,358.5 C 964.224,363.051 976.391,371.384 986,383.5C 986.638,384.609 987.138,385.775 987.5,387C 984.306,395.888 980.972,404.722 977.5,413.5C 970.284,415.843 962.951,417.343 955.5,418C 946.578,411.622 937.744,405.122 929,398.5C 928.333,390.833 928.333,383.167 929,375.5C 936.023,369.969 942.857,364.302 949.5,358.5 Z"/></g>
<g><path style="opacity:1" fill="#ece9e2" d="M 895.5,358.5 C 897.527,358.338 899.527,358.505 901.5,359C 908.312,364.311 914.979,369.811 921.5,375.5C 922.665,383.145 922.831,390.812 922,398.5C 912.723,405.549 903.223,412.216 893.5,418.5C 886.67,417.336 880.004,415.669 873.5,413.5C 869.245,404.735 865.579,395.735 862.5,386.5C 866.197,380.293 870.864,374.793 876.5,370C 882.564,365.638 888.898,361.805 895.5,358.5 Z"/></g>
<g><path style="opacity:1" fill="#e4e2da" d="M 1003.5,258.5 C 1003.67,253.156 1003.5,247.823 1003,242.5C 1002.21,243.745 1001.71,245.078 1001.5,246.5C 999.604,250.297 998.27,254.297 997.5,258.5C 993.818,258.665 990.152,258.499 986.5,258C 984.814,253.458 982.981,248.958 981,244.5C 980.501,249.155 980.334,253.821 980.5,258.5C 977.833,258.5 975.167,258.5 972.5,258.5C 972.5,249.167 972.5,239.833 972.5,230.5C 976.167,230.5 979.833,230.5 983.5,230.5C 985.45,238.185 988.283,245.518 992,252.5C 994.863,245.578 997.53,238.578 1000,231.5C 1003.39,230.544 1006.89,230.211 1010.5,230.5C 1010.5,239.833 1010.5,249.167 1010.5,258.5C 1008.17,258.5 1005.83,258.5 1003.5,258.5 Z"/></g>
<g><path style="opacity:1" fill="#e3e1d8" d="M 820.5,229.5 C 831.732,228.402 840.899,232.069 848,240.5C 848.7,248.586 845.2,254.086 837.5,257C 826.969,260.904 816.969,259.904 807.5,254C 800.141,245.878 801.141,238.878 810.5,233C 813.85,231.514 817.184,230.347 820.5,229.5 Z"/></g>
<g><path style="opacity:1" fill="#e3e1d8" d="M 732.5,229.5 C 743.732,228.402 752.899,232.069 760,240.5C 760.7,248.586 757.2,254.086 749.5,257C 738.969,260.904 728.969,259.904 719.5,254C 712.141,245.878 713.141,238.878 722.5,233C 725.85,231.514 729.184,230.347 732.5,229.5 Z"/></g>
<g><path style="opacity:1" fill="#7b7e6b" d="M 1003.5,258.5 C 1002.83,254.5 1002.17,250.5 1001.5,246.5C 1001.71,245.078 1002.21,243.745 1003,242.5C 1003.5,247.823 1003.67,253.156 1003.5,258.5 Z"/></g>
<g><path style="opacity:1" fill="#e9e6df" d="M 946.5,230.5 C 950.5,230.5 954.5,230.5 958.5,230.5C 961.871,239.582 965.538,248.582 969.5,257.5C 964.372,259.572 961.038,258.072 959.5,253C 954.833,252.333 950.167,252.333 945.5,253C 943.629,258.226 939.962,259.892 934.5,258C 939.182,249.116 943.182,239.949 946.5,230.5 Z"/></g>
<g><path style="opacity:1" fill="#2e3b07" d="M 951.5,237.5 C 954.42,239.662 956.087,242.662 956.5,246.5C 953.482,246.665 950.482,246.498 947.5,246C 949.249,243.337 950.582,240.503 951.5,237.5 Z"/></g>
<g><path style="opacity:1" fill="#e9e7df" d="M 865.5,230.5 C 870.844,230.334 876.177,230.501 881.5,231C 884.874,231.521 887.874,232.854 890.5,235C 889,236.5 887.5,238 886,239.5C 877.939,235.725 869.772,235.558 861.5,239C 856.69,242.355 856.356,246.021 860.5,250C 869.012,253.559 877.346,253.226 885.5,249C 882.183,248.502 878.85,248.335 875.5,248.5C 875.5,246.5 875.5,244.5 875.5,242.5C 881.833,242.5 888.167,242.5 894.5,242.5C 894.622,249.092 891.622,253.592 885.5,256C 877.631,258.895 869.631,259.228 861.5,257C 855.267,254.935 851.267,250.768 849.5,244.5C 850.269,241.128 851.935,238.295 854.5,236C 858.017,233.674 861.683,231.84 865.5,230.5 Z"/></g>
<g><path style="opacity:1" fill="#eae8e0" d="M 764.5,230.5 C 768.182,230.335 771.848,230.501 775.5,231C 781.034,237.902 786.201,245.068 791,252.5C 791.5,245.174 791.666,237.841 791.5,230.5C 793.833,230.5 796.167,230.5 798.5,230.5C 798.5,239.833 798.5,249.167 798.5,258.5C 794.445,258.824 790.445,258.491 786.5,257.5C 781.667,250.5 776.833,243.5 772,236.5C 771.5,243.826 771.334,251.159 771.5,258.5C 769.167,258.5 766.833,258.5 764.5,258.5C 764.5,249.167 764.5,239.833 764.5,230.5 Z"/></g>
<g><path style="opacity:1" fill="#2c3b03" d="M 818.5,236.5 C 825.031,235.988 831.364,236.822 837.5,239C 840.29,241.21 841.123,244.044 840,247.5C 837.531,249.652 834.698,251.152 831.5,252C 825.245,253.127 819.245,252.46 813.5,250C 810.71,247.79 809.877,244.956 811,241.5C 813.17,239.177 815.67,237.51 818.5,236.5 Z"/></g>
<g><path style="opacity:1" fill="#2c3b03" d="M 730.5,236.5 C 737.031,235.988 743.364,236.822 749.5,239C 752.29,241.21 753.123,244.044 752,247.5C 749.531,249.652 746.698,251.152 743.5,252C 737.245,253.127 731.245,252.46 725.5,250C 722.71,247.79 721.877,244.956 723,241.5C 725.17,239.177 727.67,237.51 730.5,236.5 Z"/></g>
<g><path style="opacity:1" fill="#eae8e0" d="M 898.5,230.5 C 908.605,230.051 918.605,230.551 928.5,232C 933.268,235.706 933.601,239.706 929.5,244C 932.257,248.359 933.257,253.192 932.5,258.5C 929.833,258.5 927.167,258.5 924.5,258.5C 924.789,254.894 924.456,251.394 923.5,248C 917.509,247.501 911.509,247.334 905.5,247.5C 905.5,251.167 905.5,254.833 905.5,258.5C 903.167,258.5 900.833,258.5 898.5,258.5C 898.5,249.167 898.5,239.833 898.5,230.5 Z"/></g>
<g><path style="opacity:1" fill="#2c3a02" d="M 905.5,236.5 C 911.176,236.334 916.843,236.501 922.5,237C 925.167,238.333 925.167,239.667 922.5,241C 916.843,241.499 911.176,241.666 905.5,241.5C 905.5,239.833 905.5,238.167 905.5,236.5 Z"/></g>
<g><path style="opacity:1" fill="#e5e3db" d="M 703.5,258.5 C 703.666,253.156 703.499,247.823 703,242.5C 702.487,243.527 701.987,244.527 701.5,245.5C 699.879,249.743 698.546,254.076 697.5,258.5C 693.818,258.665 690.152,258.499 686.5,258C 684.476,253.597 682.642,249.097 681,244.5C 680.501,249.155 680.334,253.821 680.5,258.5C 677.833,258.5 675.167,258.5 672.5,258.5C 672.5,249.167 672.5,239.833 672.5,230.5C 676.106,230.211 679.606,230.544 683,231.5C 685.619,238.698 688.619,245.698 692,252.5C 694.863,245.578 697.53,238.578 700,231.5C 703.394,230.544 706.894,230.211 710.5,230.5C 710.5,239.833 710.5,249.167 710.5,258.5C 708.167,258.5 705.833,258.5 703.5,258.5 Z"/></g>
<g><path style="opacity:1" fill="#79806e" d="M 703.5,258.5 C 702.833,254.167 702.167,249.833 701.5,245.5C 701.987,244.527 702.487,243.527 703,242.5C 703.499,247.823 703.666,253.156 703.5,258.5 Z"/></g>
</svg>
