<?xml version="1.0" encoding="UTF-8"?>
<!DOCTYPE svg PUBLIC "-//W3C//DTD SVG 1.1//EN" "http://www.w3.org/Graphics/SVG/1.1/DTD/svg11.dtd">
<svg xmlns="http://www.w3.org/2000/svg" version="1.1" width="1123px" height="794px" style="shape-rendering:geometricPrecision; text-rendering:geometricPrecision; image-rendering:optimizeQuality; fill-rule:evenodd; clip-rule:evenodd" xmlns:xlink="http://www.w3.org/1999/xlink">
<g><path style="opacity:1" fill="#313c12" d="M -0.5,-0.5 C 109.167,-0.5 218.833,-0.5 328.5,-0.5C 328.5,264.167 328.5,528.833 328.5,793.5C 218.833,793.5 109.167,793.5 -0.5,793.5C -0.5,528.833 -0.5,264.167 -0.5,-0.5 Z"/></g>
<g><path style="opacity:1" fill="#849600" d="M 328.5,-0.5 C 328.833,-0.5 329.167,-0.5 329.5,-0.5C 329.167,263.501 329.5,527.501 330.5,791.5C 331.5,527.501 331.833,263.501 331.5,-0.5C 332.167,-0.5 332.833,-0.5 333.5,-0.5C 333.667,263.5 333.5,527.5 333,791.5C 331.698,792.085 330.531,792.751 329.5,793.5C 329.167,793.5 328.833,793.5 328.5,793.5C 328.5,528.833 328.5,264.167 328.5,-0.5 Z"/></g>
<g><path style="opacity:1" fill="#889401" d="M 329.5,-0.5 C 330.167,-0.5 330.833,-0.5 331.5,-0.5C 331.833,263.501 331.5,527.501 330.5,791.5C 329.5,527.501 329.167,263.501 329.5,-0.5 Z"/></g>
<g><path style="opacity:1" fill="#879500" d="M 333.5,-0.5 C 438.167,-0.5 542.833,-0.5 647.5,-0.5C 647.5,264.167 647.5,528.833 647.5,793.5C 541.5,793.5 435.5,793.5 329.5,793.5C 330.531,792.751 331.698,792.085 333,791.5C 333.5,527.5 333.667,263.5 333.5,-0.5 Z"/></g>
<g><path style="opacity:1" fill="#eb962a" d="M 647.5,-0.5 C 647.833,-0.5 648.167,-0.5 648.5,-0.5C 648.5,263.833 648.5,528.167 648.5,792.5C 755.167,792.5 861.833,792.5 968.5,792.5C 968.5,792.833 968.5,793.167 968.5,793.5C 861.5,793.5 754.5,793.5 647.5,793.5C 647.5,528.833 647.5,264.167 647.5,-0.5 Z"/></g>
<g><path style="opacity:1" fill="#fe8b00" d="M 648.5,-0.5 C 755.167,-0.5 861.833,-0.5 968.5,-0.5C 968.5,263.833 968.5,528.167 968.5,792.5C 861.833,792.5 755.167,792.5 648.5,792.5C 648.5,528.167 648.5,263.833 648.5,-0.5 Z"/></g>
<g><path style="opacity:1" fill="#edeae3" d="M 968.5,-0.5 C 1019.83,-0.5 1071.17,-0.5 1122.5,-0.5C 1122.5,264.167 1122.5,528.833 1122.5,793.5C 1071.17,793.5 1019.83,793.5 968.5,793.5C 968.5,793.167 968.5,792.833 968.5,792.5C 968.5,528.167 968.5,263.833 968.5,-0.5 Z"/></g>
<g><path style="opacity:1" fill="#f8b98d" d="M 704.5,80.5 C 706.693,79.2031 709.027,79.2031 711.5,80.5C 711.376,81.1067 711.043,81.44 710.5,81.5C 708.735,80.5386 706.735,80.2053 704.5,80.5 Z"/></g>
<g><path style="opacity:1" fill="#efe6dc" d="M 735.5,81.5 C 740.267,81.1908 744.934,81.6908 749.5,83C 752.835,85.6786 753.335,88.8453 751,92.5C 747.584,94.792 744.084,96.9586 740.5,99C 744.821,99.499 749.154,99.6657 753.5,99.5C 753.5,101.167 753.5,102.833 753.5,104.5C 745.167,104.5 736.833,104.5 728.5,104.5C 728.261,102.533 728.594,100.699 729.5,99C 736.176,97.0022 741.842,93.5022 746.5,88.5C 743.012,84.8597 739.346,84.693 735.5,88C 733.098,88.8141 730.765,88.6474 728.5,87.5C 730.307,84.7809 732.64,82.7809 735.5,81.5 Z"/></g>
<g><path style="opacity:1" fill="#e4e2da" d="M 69.5,79.5 C 71.8333,79.5 74.1667,79.5 76.5,79.5C 76.0074,81.8056 75.6741,84.139 75.5,86.5C 76.8333,86.5 78.1667,86.5 79.5,86.5C 79.5,84.1667 79.5,81.8333 79.5,79.5C 81.8333,79.5 84.1667,79.5 86.5,79.5C 86.5,81.8333 86.5,84.1667 86.5,86.5C 87.8333,86.5 89.1667,86.5 90.5,86.5C 90.5,87.5 90.5,88.5 90.5,89.5C 88.8333,89.5 87.1667,89.5 85.5,89.5C 85.5,91.1667 85.5,92.8333 85.5,94.5C 86.8333,94.5 88.1667,94.5 89.5,94.5C 89.5,95.5 89.5,96.5 89.5,97.5C 87.8333,97.5 86.1667,97.5 84.5,97.5C 84.5,99.8333 84.5,102.167 84.5,104.5C 82.1667,104.5 79.8333,104.5 77.5,104.5C 77.5,102.167 77.5,99.8333 77.5,97.5C 76.1667,97.5 74.8333,97.5 73.5,97.5C 73.5,99.8333 73.5,102.167 73.5,104.5C 71.1667,104.5 68.8333,104.5 66.5,104.5C 66.3184,102.409 66.6518,100.409 67.5,98.5C 66.3112,97.5713 64.9778,97.238 63.5,97.5C 63.5,96.5 63.5,95.5 63.5,94.5C 64.8333,94.5 66.1667,94.5 67.5,94.5C 67.4208,93.0695 67.7542,91.7362 68.5,90.5C 67.3112,89.5713 65.9778,89.238 64.5,89.5C 64.5,88.5 64.5,87.5 64.5,86.5C 65.8333,86.5 67.1667,86.5 68.5,86.5C 68.448,84.0971 68.7814,81.7638 69.5,79.5 Z"/></g>
<g><path style="opacity:1" fill="#e1dfd6" d="M 196.5,81.5 C 204.124,80.4487 211.124,81.9487 217.5,86C 222.01,90.5397 221.01,92.2063 214.5,91C 207.573,85.075 200.24,84.4083 192.5,89C 189.604,92.6706 190.271,95.6706 194.5,98C 197.365,98.8368 200.198,99.6702 203,100.5C 208.359,99.553 213.193,97.553 217.5,94.5C 220.951,94.6368 221.451,95.9701 219,98.5C 209.777,105.492 199.944,106.326 189.5,101C 182.833,95.6667 182.833,90.3333 189.5,85C 191.925,83.7874 194.259,82.6207 196.5,81.5 Z"/></g>
<g><path style="opacity:1" fill="#efe7dd" d="M 835.5,81.5 C 838.572,81.1826 841.572,81.5159 844.5,82.5C 847.695,89.4179 850.695,96.4179 853.5,103.5C 849.3,105.54 846.633,104.373 845.5,100C 841.459,99.1735 837.459,99.3401 833.5,100.5C 832.097,104.254 829.43,105.421 825.5,104C 828.702,96.4303 832.035,88.9303 835.5,81.5 Z"/></g>
<g><path style="opacity:1" fill="#efe7dc" d="M 862.5,81.5 C 868.932,80.347 874.432,82.0137 879,86.5C 882.367,99.8024 877.2,105.636 863.5,104C 856.445,101.617 853.611,96.7834 855,89.5C 856.955,86.2832 859.455,83.6166 862.5,81.5 Z"/></g>
<g><path style="opacity:1" fill="#fd8c0c" d="M 865.5,86.5 C 873.857,86.7167 876.19,90.55 872.5,98C 864.221,100.951 860.721,98.118 862,89.5C 863.145,88.3636 864.312,87.3636 865.5,86.5 Z"/></g>
<g><path style="opacity:1" fill="#e9e7dc" d="M 571.5,81.5 C 579.514,79.7611 585.347,82.4278 589,89.5C 590.474,99.3672 586.141,104.367 576,104.5C 567.132,103.306 563.132,98.3065 564,89.5C 566.028,86.3078 568.528,83.6411 571.5,81.5 Z"/></g>
<g><path style="opacity:1" fill="#2c3a03" d="M 1039.5,86.5 C 1041.5,86.5 1043.5,86.5 1045.5,86.5C 1045.5,88.5 1045.5,90.5 1045.5,92.5C 1049.91,92.938 1051.57,90.938 1050.5,86.5C 1052.17,86.5 1053.83,86.5 1055.5,86.5C 1055.5,88.5 1055.5,90.5 1055.5,92.5C 1056.83,92.5 1058.17,92.5 1059.5,92.5C 1059.5,93.5 1059.5,94.5 1059.5,95.5C 1057.83,95.5 1056.17,95.5 1054.5,95.5C 1054.5,97.1667 1054.5,98.8333 1054.5,100.5C 1055.83,100.5 1057.17,100.5 1058.5,100.5C 1058.5,101.5 1058.5,102.5 1058.5,103.5C 1056.83,103.5 1055.17,103.5 1053.5,103.5C 1053.5,105.833 1053.5,108.167 1053.5,110.5C 1051.47,110.662 1049.47,110.495 1047.5,110C 1048.42,107.959 1048.76,105.792 1048.5,103.5C 1046.83,103.5 1045.17,103.5 1043.5,103.5C 1043.5,105.833 1043.5,108.167 1043.5,110.5C 1041.5,110.5 1039.5,110.5 1037.5,110.5C 1037.5,108.167 1037.5,105.833 1037.5,103.5C 1036.17,103.5 1034.83,103.5 1033.5,103.5C 1033.5,102.5 1033.5,101.5 1033.5,100.5C 1035.17,100.5 1036.83,100.5 1038.5,100.5C 1038.5,98.8333 1038.5,97.1667 1038.5,95.5C 1037.17,95.5 1035.83,95.5 1034.5,95.5C 1034.5,94.5 1034.5,93.5 1034.5,92.5C 1036.17,92.5 1037.83,92.5 1039.5,92.5C 1039.5,90.5 1039.5,88.5 1039.5,86.5 Z"/></g>
<g><path style="opacity:1" fill="#e4e3da" d="M 99.5,81.5 C 105.965,80.697 111.965,81.8637 117.5,85C 118.982,87.5918 118.648,89.9251 116.5,92C 120.867,96.5018 120.201,100.168 114.5,103C 107.135,105.47 100.135,104.804 93.5,101C 90.6119,98.7042 91.1119,97.5376 95,97.5C 98.6782,98.5015 102.345,99.5015 106,100.5C 108.124,99.7728 110.291,99.1062 112.5,98.5C 113.386,97.675 113.719,96.675 113.5,95.5C 108.87,94.7705 104.203,94.4372 99.5,94.5C 99.5,93.1667 99.5,91.8333 99.5,90.5C 103.182,90.6653 106.848,90.4986 110.5,90C 111.308,89.6924 111.975,89.1924 112.5,88.5C 110.556,87.1491 108.389,86.4824 106,86.5C 102.333,87.1667 98.6667,87.8333 95,88.5C 93.8333,88.1667 92.6667,87.8333 91.5,87.5C 93.8738,84.9934 96.5405,82.9934 99.5,81.5 Z"/></g>
<g><path style="opacity:1" fill="#88960e" d="M 573.5,86.5 C 582.526,86.0685 585.192,89.9018 581.5,98C 573.228,101.061 569.728,98.2278 571,89.5C 572.045,88.6266 572.878,87.6266 573.5,86.5 Z"/></g>
<g><path style="opacity:1" fill="#efe6db" d="M 803.5,81.5 C 809.402,80.962 815.068,81.7953 820.5,84C 823.167,86.6667 823.167,89.3333 820.5,92C 825.298,98.2934 823.631,102.293 815.5,104C 809.606,105.037 803.939,104.371 798.5,102C 794.645,97.6199 795.979,96.2865 802.5,98C 807.099,100.93 811.766,101.097 816.5,98.5C 817.386,97.675 817.719,96.675 817.5,95.5C 812.87,94.7705 808.203,94.4372 803.5,94.5C 803.5,93.1667 803.5,91.8333 803.5,90.5C 807.182,90.6653 810.848,90.4986 814.5,90C 815.308,89.6924 815.975,89.1924 816.5,88.5C 814.556,87.1491 812.389,86.4824 810,86.5C 806.333,87.1667 802.667,87.8333 799,88.5C 797.833,88.1667 796.667,87.8333 795.5,87.5C 797.874,84.9934 800.541,82.9934 803.5,81.5 Z"/></g>
<g><path style="opacity:1" fill="#363d18" d="M 74.5,89.5 C 75.8333,89.5 77.1667,89.5 78.5,89.5C 78.5,91.1667 78.5,92.8333 78.5,94.5C 77.1667,94.5 75.8333,94.5 74.5,94.5C 74.5,92.8333 74.5,91.1667 74.5,89.5 Z"/></g>
<g><path style="opacity:1" fill="#e5e3da" d="M 244.5,81.5 C 250.965,80.697 256.965,81.8637 262.5,85C 263.926,87.7114 263.592,90.2114 261.5,92.5C 264.257,94.0876 265.09,96.421 264,99.5C 262.048,101.894 259.548,103.394 256.5,104C 250.606,105.037 244.939,104.371 239.5,102C 235.619,99.5415 235.786,98.0415 240,97.5C 243.678,98.5015 247.345,99.5015 251,100.5C 253.124,99.7728 255.291,99.1062 257.5,98.5C 258.386,97.675 258.719,96.675 258.5,95.5C 253.87,94.7705 249.203,94.4372 244.5,94.5C 244.5,93.1667 244.5,91.8333 244.5,90.5C 248.182,90.6653 251.848,90.4986 255.5,90C 256.308,89.6924 256.975,89.1924 257.5,88.5C 255.556,87.1491 253.389,86.4824 251,86.5C 247.333,87.1667 243.667,87.8333 240,88.5C 238.833,88.1667 237.667,87.8333 236.5,87.5C 238.874,84.9934 241.541,82.9934 244.5,81.5 Z"/></g>
<g><path style="opacity:1" fill="#efe7dd" d="M 704.5,80.5 C 706.735,80.2053 708.735,80.5386 710.5,81.5C 710.5,83.1667 710.5,84.8333 710.5,86.5C 711.833,86.5 713.167,86.5 714.5,86.5C 714.5,84.1667 714.5,81.8333 714.5,79.5C 716.833,79.5 719.167,79.5 721.5,79.5C 721.5,81.8333 721.5,84.1667 721.5,86.5C 722.833,86.5 724.167,86.5 725.5,86.5C 725.5,87.5 725.5,88.5 725.5,89.5C 723.833,89.5 722.167,89.5 720.5,89.5C 720.5,91.1667 720.5,92.8333 720.5,94.5C 721.833,94.5 723.167,94.5 724.5,94.5C 724.5,95.5 724.5,96.5 724.5,97.5C 722.833,97.5 721.167,97.5 719.5,97.5C 719.5,99.8333 719.5,102.167 719.5,104.5C 717.167,104.5 714.833,104.5 712.5,104.5C 712.5,102.167 712.5,99.8333 712.5,97.5C 711.167,97.5 709.833,97.5 708.5,97.5C 708.5,99.8333 708.5,102.167 708.5,104.5C 706.167,104.5 703.833,104.5 701.5,104.5C 701.674,102.139 702.007,99.8056 702.5,97.5C 701.167,97.5 699.833,97.5 698.5,97.5C 698.5,96.5 698.5,95.5 698.5,94.5C 699.833,94.5 701.167,94.5 702.5,94.5C 702.286,92.8561 702.62,91.3561 703.5,90C 702.207,89.51 700.873,89.3433 699.5,89.5C 699.5,88.5 699.5,87.5 699.5,86.5C 700.833,86.5 702.167,86.5 703.5,86.5C 703.325,84.3792 703.659,82.3792 704.5,80.5 Z"/></g>
<g><path style="opacity:1" fill="#fb8c10" d="M 709.5,89.5 C 710.833,89.5 712.167,89.5 713.5,89.5C 713.5,91.1667 713.5,92.8333 713.5,94.5C 712.167,94.5 710.833,94.5 709.5,94.5C 709.5,92.8333 709.5,91.1667 709.5,89.5 Z"/></g>
<g><path style="opacity:1" fill="#fb8d15" d="M 839.5,86.5 C 841.059,88.6076 842.392,90.9409 843.5,93.5C 841.167,94.8333 838.833,94.8333 836.5,93.5C 837.312,91.0554 838.312,88.7221 839.5,86.5 Z"/></g>
<g><path style="opacity:1" fill="#eae8e1" d="M 227.5,104.5 C 227.829,98.7945 227.495,93.1278 226.5,87.5C 225.893,87.6236 225.56,87.9569 225.5,88.5C 224.417,88.5394 223.417,88.8728 222.5,89.5C 221.386,88.277 221.219,86.9437 222,85.5C 225.027,83.8784 228.194,82.5451 231.5,81.5C 232.497,89.1378 232.831,96.8045 232.5,104.5C 230.833,104.5 229.167,104.5 227.5,104.5 Z"/></g>
<g><path style="opacity:1" fill="#e9e6db" d="M 484.5,81.5 C 500.251,79.7421 506.085,86.4087 502,101.5C 500.581,102.46 499.081,103.293 497.5,104C 491.175,104.5 484.842,104.666 478.5,104.5C 478.5,103.167 478.5,101.833 478.5,100.5C 484.642,100.9 490.642,100.233 496.5,98.5C 492.204,97.6725 487.871,97.1725 483.5,97C 477.943,95.4956 476.11,91.9956 478,86.5C 479.805,84.1743 481.972,82.5077 484.5,81.5 Z"/></g>
<g><path style="opacity:1" fill="#869506" d="M 487.5,86.5 C 490.271,86.4207 492.937,86.9207 495.5,88C 496.517,89.0495 496.684,90.2161 496,91.5C 492.315,93.9778 488.482,94.1445 484.5,92C 483.483,90.9505 483.316,89.7839 484,88.5C 485.302,87.9152 486.469,87.2485 487.5,86.5 Z"/></g>
<g><path style="opacity:1" fill="#959785" d="M 225.5,88.5 C 225.56,87.9569 225.893,87.6236 226.5,87.5C 227.495,93.1278 227.829,98.7945 227.5,104.5C 226.833,99.1667 226.167,93.8333 225.5,88.5 Z"/></g>
<g><path style="opacity:1" fill="#e9e6da" d="M 424.5,81.5 C 428.514,81.3345 432.514,81.5012 436.5,82C 442.542,83.6065 443.875,86.9398 440.5,92C 445.168,97.4857 444.001,101.319 437,103.5C 432.529,104.513 428.029,104.679 423.5,104C 416.841,101.367 415.841,97.3668 420.5,92C 418.203,90.7367 417.37,88.9034 418,86.5C 419.78,84.2059 421.947,82.5392 424.5,81.5 Z"/></g>
<g><path style="opacity:1" fill="#899816" d="M 429.5,85.5 C 439.352,86.6171 439.685,88.2837 430.5,90.5C 423.243,89.075 422.91,87.4083 429.5,85.5 Z"/></g>
<g><path style="opacity:1" fill="#eae7dd" d="M 394.5,79.5 C 396.833,79.5 399.167,79.5 401.5,79.5C 401.007,81.8056 400.674,84.139 400.5,86.5C 401.833,86.5 403.167,86.5 404.5,86.5C 404.5,84.1667 404.5,81.8333 404.5,79.5C 406.833,79.5 409.167,79.5 411.5,79.5C 411.5,81.8333 411.5,84.1667 411.5,86.5C 412.833,86.5 414.167,86.5 415.5,86.5C 415.5,87.5 415.5,88.5 415.5,89.5C 413.833,89.5 412.167,89.5 410.5,89.5C 410.5,91.1667 410.5,92.8333 410.5,94.5C 411.833,94.5 413.167,94.5 414.5,94.5C 414.5,95.5 414.5,96.5 414.5,97.5C 412.833,97.5 411.167,97.5 409.5,97.5C 409.5,99.8333 409.5,102.167 409.5,104.5C 407.167,104.5 404.833,104.5 402.5,104.5C 402.5,102.167 402.5,99.8333 402.5,97.5C 401.167,97.5 399.833,97.5 398.5,97.5C 398.5,99.8333 398.5,102.167 398.5,104.5C 396.167,104.5 393.833,104.5 391.5,104.5C 391.318,102.409 391.652,100.409 392.5,98.5C 391.311,97.5713 389.978,97.238 388.5,97.5C 388.5,96.5 388.5,95.5 388.5,94.5C 390.167,94.5 391.833,94.5 393.5,94.5C 393.5,92.8333 393.5,91.1667 393.5,89.5C 392.167,89.5 390.833,89.5 389.5,89.5C 389.5,88.5 389.5,87.5 389.5,86.5C 391.167,86.5 392.833,86.5 394.5,86.5C 394.5,84.1667 394.5,81.8333 394.5,79.5 Z"/></g>
<g><path style="opacity:1" fill="#86970c" d="M 399.5,89.5 C 400.833,89.5 402.167,89.5 403.5,89.5C 403.5,91.1667 403.5,92.8333 403.5,94.5C 402.167,94.5 400.833,94.5 399.5,94.5C 399.5,92.8333 399.5,91.1667 399.5,89.5 Z"/></g>
<g><path style="opacity:1" fill="#889710" d="M 427.5,94.5 C 431.384,94.024 434.717,95.024 437.5,97.5C 435.539,99.1128 433.206,100.113 430.5,100.5C 428.556,99.8108 426.556,99.3108 424.5,99C 423.549,98.2825 423.383,97.4491 424,96.5C 425.302,95.9152 426.469,95.2485 427.5,94.5 Z"/></g>
<g><path style="opacity:1" fill="#efe6dc" d="M 769.5,81.5 C 775.369,81.048 781.035,81.8813 786.5,84C 789.363,85.3635 791.363,87.5302 792.5,90.5C 790.579,91.641 788.579,91.8077 786.5,91C 779.315,84.8024 771.815,84.3024 764,89.5C 761.759,93.119 762.592,95.9523 766.5,98C 773.808,101.338 780.474,100.338 786.5,95C 788.579,94.1923 790.579,94.359 792.5,95.5C 789.771,100.052 785.771,102.886 780.5,104C 770.576,106.61 762.743,103.776 757,95.5C 756.14,91.0479 757.64,87.5479 761.5,85C 764.158,83.522 766.825,82.3554 769.5,81.5 Z"/></g>
<g><path style="opacity:1" fill="#efe7de" d="M 891.5,81.5 C 898.018,80.1229 903.185,82.1229 907,87.5C 909.714,100.788 904.214,106.288 890.5,104C 879.552,95.8891 879.886,88.3891 891.5,81.5 Z"/></g>
<g><path style="opacity:1" fill="#fc8c0d" d="M 892.5,86.5 C 901.535,86.09 904.202,89.9233 900.5,98C 891.666,100.835 888.166,97.6684 890,88.5C 890.995,87.9341 891.828,87.2674 892.5,86.5 Z"/></g>
<g><path style="opacity:1" fill="#d5d7ca" d="M 1044.5,95.5 C 1046.17,95.5 1047.83,95.5 1049.5,95.5C 1049.5,97.1667 1049.5,98.8333 1049.5,100.5C 1047.83,100.5 1046.17,100.5 1044.5,100.5C 1044.5,98.8333 1044.5,97.1667 1044.5,95.5 Z"/></g>
<g><path style="opacity:1" fill="#e9e6db" d="M 511.5,81.5 C 517.833,81.5 524.167,81.5 530.5,81.5C 530.5,82.8333 530.5,84.1667 530.5,85.5C 524.492,85.0757 518.659,85.7424 513,87.5C 512.333,88.1667 512.333,88.8333 513,89.5C 519.249,87.6165 525.083,88.4499 530.5,92C 531.804,92.804 532.471,93.9707 532.5,95.5C 531.85,98.6551 530.183,101.155 527.5,103C 511.173,107.946 504.339,102.113 507,85.5C 508.25,83.8065 509.75,82.4732 511.5,81.5 Z"/></g>
<g><path style="opacity:1" fill="#87960c" d="M 518.5,92.5 C 520.414,93.1847 522.414,93.6847 524.5,94C 525.554,95.3876 525.72,96.8876 525,98.5C 521.207,100.665 517.374,100.832 513.5,99C 512.253,97.5421 512.253,96.0421 513.5,94.5C 515.291,93.8302 516.958,93.1635 518.5,92.5 Z"/></g>
<g><path style="opacity:1" fill="#eae7dd" d="M 542.5,81.5 C 548.932,80.347 554.432,82.0137 559,86.5C 562.367,99.8024 557.2,105.636 543.5,104C 536.445,101.617 533.611,96.7834 535,89.5C 537.028,86.3078 539.528,83.6411 542.5,81.5 Z"/></g>
<g><path style="opacity:1" fill="#87960a" d="M 545.5,86.5 C 552.349,85.8463 555.182,88.8463 554,95.5C 550.352,100.247 546.352,100.58 542,96.5C 540.581,92.0823 541.748,88.7489 545.5,86.5 Z"/></g>
<g><path style="opacity:1" fill="#e6e4dc" d="M 131.5,81.5 C 136.267,81.1908 140.934,81.6908 145.5,83C 148.29,85.2103 149.123,88.0437 148,91.5C 144.707,94.7869 140.873,97.2869 136.5,99C 140.821,99.499 145.154,99.6657 149.5,99.5C 149.5,101.167 149.5,102.833 149.5,104.5C 141.167,104.5 132.833,104.5 124.5,104.5C 124.261,102.533 124.594,100.699 125.5,99C 132.176,97.0022 137.842,93.5022 142.5,88.5C 139.012,84.8597 135.346,84.693 131.5,88C 129.098,88.8141 126.765,88.6474 124.5,87.5C 126.288,84.7001 128.622,82.7001 131.5,81.5 Z"/></g>
<g><path style="opacity:1" fill="#e4e3da" d="M 161.5,81.5 C 167.402,80.962 173.068,81.7953 178.5,84C 181.167,86.6667 181.167,89.3333 178.5,92C 183.298,98.2934 181.631,102.293 173.5,104C 167.606,105.037 161.939,104.371 156.5,102C 152.619,99.5415 152.786,98.0415 157,97.5C 160.678,98.5015 164.345,99.5015 168,100.5C 170.124,99.7728 172.291,99.1062 174.5,98.5C 175.386,97.675 175.719,96.675 175.5,95.5C 170.87,94.7705 166.203,94.4372 161.5,94.5C 161.5,93.1667 161.5,91.8333 161.5,90.5C 165.182,90.6653 168.848,90.4986 172.5,90C 173.308,89.6924 173.975,89.1924 174.5,88.5C 172.556,87.1491 170.389,86.4824 168,86.5C 164.333,87.1667 160.667,87.8333 157,88.5C 155.833,88.1667 154.667,87.8333 153.5,87.5C 155.874,84.9934 158.541,82.9934 161.5,81.5 Z"/></g>
<g><path style="opacity:1" fill="#e8e6da" d="M 454.5,81.5 C 458.514,81.3345 462.514,81.5012 466.5,82C 473.297,83.851 474.63,87.351 470.5,92.5C 474.667,96.3554 474.334,99.8554 469.5,103C 464.589,104.492 459.589,104.826 454.5,104C 447.001,102.075 445.667,98.2415 450.5,92.5C 447.979,90.7399 447.146,88.4066 448,85.5C 450.095,83.8753 452.261,82.5419 454.5,81.5 Z"/></g>
<g><path style="opacity:1" fill="#889713" d="M 457.5,94.5 C 461.384,94.024 464.717,95.024 467.5,97.5C 465.539,99.1128 463.206,100.113 460.5,100.5C 458.556,99.8108 456.556,99.3108 454.5,99C 453.549,98.2825 453.383,97.4491 454,96.5C 455.302,95.9152 456.469,95.2485 457.5,94.5 Z"/></g>
<g><path style="opacity:1" fill="#87960e" d="M 459.5,85.5 C 461.764,86.2186 464.097,86.552 466.5,86.5C 466.5,87.5 466.5,88.5 466.5,89.5C 462.641,90.285 458.975,90.1183 455.5,89C 455.043,88.586 454.709,88.086 454.5,87.5C 456.291,86.8302 457.958,86.1635 459.5,85.5 Z"/></g>
<g><path style="opacity:1" fill="#313e0b" d="M 1034.5,119.5 C 1042.83,119.5 1051.17,119.5 1059.5,119.5C 1059.5,121.167 1059.5,122.833 1059.5,124.5C 1053.17,124.5 1046.83,124.5 1040.5,124.5C 1040.5,125.833 1040.5,127.167 1040.5,128.5C 1045.5,128.5 1050.5,128.5 1055.5,128.5C 1055.5,129.833 1055.5,131.167 1055.5,132.5C 1050.5,132.5 1045.5,132.5 1040.5,132.5C 1040.5,134.167 1040.5,135.833 1040.5,137.5C 1046.83,137.5 1053.17,137.5 1059.5,137.5C 1059.5,139.167 1059.5,140.833 1059.5,142.5C 1051.17,142.5 1042.83,142.5 1034.5,142.5C 1034.5,134.833 1034.5,127.167 1034.5,119.5 Z"/></g>
<g><path style="opacity:1" fill="#2c3b04" d="M 1035.5,151.5 C 1042.26,151.123 1048.92,151.623 1055.5,153C 1064.74,159.583 1064.74,166.25 1055.5,173C 1048.92,174.377 1042.26,174.877 1035.5,174.5C 1035.5,166.833 1035.5,159.167 1035.5,151.5 Z"/></g>
<g><path style="opacity:1" fill="#e9e7df" d="M 1040.5,156.5 C 1044.85,156.334 1049.18,156.501 1053.5,157C 1057.5,161.333 1057.5,165.667 1053.5,170C 1049.18,170.499 1044.85,170.666 1040.5,170.5C 1040.5,165.833 1040.5,161.167 1040.5,156.5 Z"/></g>
<g><path style="opacity:1" fill="#313e0b" d="M 1034.5,183.5 C 1042.83,183.5 1051.17,183.5 1059.5,183.5C 1059.5,185.167 1059.5,186.833 1059.5,188.5C 1053.17,188.5 1046.83,188.5 1040.5,188.5C 1040.5,189.833 1040.5,191.167 1040.5,192.5C 1045.5,192.5 1050.5,192.5 1055.5,192.5C 1055.5,193.833 1055.5,195.167 1055.5,196.5C 1050.5,196.5 1045.5,196.5 1040.5,196.5C 1040.5,198.167 1040.5,199.833 1040.5,201.5C 1046.83,201.5 1053.17,201.5 1059.5,201.5C 1059.5,203.167 1059.5,204.833 1059.5,206.5C 1051.17,206.5 1042.83,206.5 1034.5,206.5C 1034.5,198.833 1034.5,191.167 1034.5,183.5 Z"/></g>
<g><path style="opacity:1" fill="#2d3b05" d="M 1042.5,215.5 C 1045.5,215.5 1048.5,215.5 1051.5,215.5C 1054.07,223.152 1057.07,230.652 1060.5,238C 1056.18,239.305 1053.84,237.805 1053.5,233.5C 1049.15,233.334 1044.82,233.501 1040.5,234C 1039.73,238.257 1037.39,239.423 1033.5,237.5C 1036.52,230.141 1039.52,222.808 1042.5,215.5 Z"/></g>
<g><path style="opacity:1" fill="#e2e1d8" d="M 1046.5,219.5 C 1048.33,221.826 1049.66,224.493 1050.5,227.5C 1047.89,228.652 1045.23,228.818 1042.5,228C 1043.7,225.095 1045.04,222.262 1046.5,219.5 Z"/></g>
<g><path style="opacity:1" fill="#313e0b" d="M 1034.5,247.5 C 1042.83,247.5 1051.17,247.5 1059.5,247.5C 1059.5,249.167 1059.5,250.833 1059.5,252.5C 1053.17,252.5 1046.83,252.5 1040.5,252.5C 1040.5,253.833 1040.5,255.167 1040.5,256.5C 1045.5,256.5 1050.5,256.5 1055.5,256.5C 1055.5,257.833 1055.5,259.167 1055.5,260.5C 1050.5,260.5 1045.5,260.5 1040.5,260.5C 1040.5,262.167 1040.5,263.833 1040.5,265.5C 1046.83,265.5 1053.17,265.5 1059.5,265.5C 1059.5,267.167 1059.5,268.833 1059.5,270.5C 1051.17,270.5 1042.83,270.5 1034.5,270.5C 1034.5,262.833 1034.5,255.167 1034.5,247.5 Z"/></g>
<g><path style="opacity:1" fill="#2f3d08" d="M 1050.5,279.5 C 1052.5,279.5 1054.5,279.5 1056.5,279.5C 1056.5,284.5 1056.5,289.5 1056.5,294.5C 1057.83,294.5 1059.17,294.5 1060.5,294.5C 1060.5,296.167 1060.5,297.833 1060.5,299.5C 1059.17,299.5 1057.83,299.5 1056.5,299.5C 1056.5,300.5 1056.5,301.5 1056.5,302.5C 1054.5,302.5 1052.5,302.5 1050.5,302.5C 1050.5,301.5 1050.5,300.5 1050.5,299.5C 1044.83,299.5 1039.17,299.5 1033.5,299.5C 1033.2,297.396 1033.53,295.396 1034.5,293.5C 1040.17,289.154 1045.51,284.488 1050.5,279.5 Z"/></g>
<g><path style="opacity:1" fill="#e9e8e0" d="M 1049.5,286.5 C 1050.47,288.948 1050.81,291.615 1050.5,294.5C 1047.48,294.665 1044.48,294.498 1041.5,294C 1044.06,291.267 1046.73,288.767 1049.5,286.5 Z"/></g>
<g><path style="opacity:1" fill="#dcd8be" d="M 478.5,484.5 C 480.337,484.639 480.67,485.306 479.5,486.5C 478.702,486.043 478.369,485.376 478.5,484.5 Z"/></g>
<g><path style="opacity:1" fill="#cdd2bd" d="M 148.5,484.5 C 150.337,484.639 150.67,485.306 149.5,486.5C 148.702,486.043 148.369,485.376 148.5,484.5 Z"/></g>
<g><path style="opacity:1" fill="#f5dabf" d="M 797.5,484.5 C 799.337,484.639 799.67,485.306 798.5,486.5C 797.702,486.043 797.369,485.376 797.5,484.5 Z"/></g>
<g><path style="opacity:1" fill="#f4d4bc" d="M 802.5,487.5 C 803.937,488.722 805.437,488.722 807,487.5C 808.473,487.903 809.806,488.57 811,489.5C 814.571,486.467 817.238,487.134 819,491.5C 818.993,500.834 818.327,500.834 817,491.5C 815.216,488.997 813.549,488.997 812,491.5C 810.777,500.522 809.777,500.189 809,490.5C 807.951,489.483 806.784,489.316 805.5,490C 804.875,492.8 804.208,495.634 803.5,498.5C 802.511,494.893 802.177,491.226 802.5,487.5 Z"/></g>
<g><path style="opacity:1" fill="#54573d" d="M 1020.5,488.5 C 1022.79,488.244 1024.96,488.577 1027,489.5C 1027.52,491.939 1027.02,492.105 1025.5,490C 1019.5,489.667 1018.17,492 1021.5,497C 1023.7,497.825 1025.53,497.325 1027,495.5C 1027.62,496.449 1027.45,497.282 1026.5,498C 1018.42,498.805 1016.42,495.638 1020.5,488.5 Z"/></g>
<g><path style="opacity:1" fill="#525640" d="M 1073.5,489.5 C 1068.25,488.769 1066.08,491.102 1067,496.5C 1064.83,489.507 1067,487.174 1073.5,489.5 Z"/></g>
<g><path style="opacity:1" fill="#f3d9c4" d="M 794.5,487.5 C 796.934,488.354 796.767,489.354 794,490.5C 793.818,493.226 793.318,495.893 792.5,498.5C 791.513,495.232 791.18,491.898 791.5,488.5C 792.791,488.737 793.791,488.404 794.5,487.5 Z"/></g>
<g><path style="opacity:1" fill="#c6c8be" d="M 141.5,487.5 C 143.585,488.35 145.585,488.684 147.5,488.5C 146.24,489.382 145.074,490.382 144,491.5C 143.814,493.9 143.314,496.234 142.5,498.5C 141.511,494.893 141.177,491.226 141.5,487.5 Z"/></g>
<g><path style="opacity:1" fill="#50543c" d="M 1054.5,495.5 C 1052.67,490.155 1054.67,487.988 1060.5,489C 1056.21,489.117 1054.21,491.283 1054.5,495.5 Z"/></g>
<g><path style="opacity:1" fill="#5d5e47" d="M 1092.5,491.5 C 1092.27,489.645 1092.94,488.812 1094.5,489C 1093.93,489.995 1093.27,490.828 1092.5,491.5 Z"/></g>
<g><path style="opacity:1" fill="#d9d8c0" d="M 482.5,487.5 C 484.341,488.673 486.174,488.673 488,487.5C 489.285,487.95 490.452,488.617 491.5,489.5C 496.778,486.482 499.445,488.149 499.5,494.5C 499.167,495.833 498.833,497.167 498.5,498.5C 497.682,495.893 497.182,493.226 497,490.5C 495.667,489.167 494.333,489.167 493,490.5C 492,501.167 491,501.167 490,490.5C 488.542,489.253 487.042,489.253 485.5,490.5C 484.833,493.167 484.167,495.833 483.5,498.5C 482.511,494.893 482.177,491.226 482.5,487.5 Z"/></g>
<g><path style="opacity:1" fill="#d7d6bd" d="M 504.5,487.5 C 506.939,488.053 509.273,488.053 511.5,487.5C 512.489,491.107 512.823,494.774 512.5,498.5C 501.739,500.11 499.072,496.443 504.5,487.5 Z"/></g>
<g><path style="opacity:1" fill="#c8c9be" d="M 153.5,487.5 C 155.045,488.58 156.545,488.58 158,487.5C 159.473,487.903 160.806,488.57 162,489.5C 165.488,486.538 168.155,487.205 170,491.5C 170.814,493.902 170.647,496.235 169.5,498.5C 168.682,495.893 168.182,493.226 168,490.5C 165.978,489.009 164.312,489.342 163,491.5C 161.777,500.522 160.777,500.189 160,490.5C 158.951,489.483 157.784,489.316 156.5,490C 155.875,492.8 155.208,495.634 154.5,498.5C 153.511,494.893 153.177,491.226 153.5,487.5 Z"/></g>
<g><path style="opacity:1" fill="#c4c6ba" d="M 184.5,487.5 C 186.995,487.969 189.661,487.969 192.5,487.5C 193.421,495.065 195.254,495.731 198,489.5C 199.018,488.294 199.518,488.627 199.5,490.5C 198.268,495.201 196.268,499.534 193.5,503.5C 193.167,503.167 192.833,502.833 192.5,502.5C 193.304,501.059 193.971,499.559 194.5,498C 190.731,486.558 187.731,486.724 185.5,498.5C 184.511,494.893 184.177,491.226 184.5,487.5 Z"/></g>
<g><path style="opacity:1" fill="#5f654c" d="M 1008.5,488.5 C 1013.84,487.185 1016.5,489.185 1016.5,494.5C 1013.75,494.187 1011.09,494.52 1008.5,495.5C 1010.7,498.053 1013.04,498.053 1015.5,495.5C 1016.29,496.355 1015.96,497.189 1014.5,498C 1006.89,498.634 1004.89,495.468 1008.5,488.5 Z"/></g>
<g><path style="opacity:1" fill="#e9e8de" d="M 1009.5,489.5 C 1011.66,489.116 1013.33,489.783 1014.5,491.5C 1012.5,492.833 1010.5,492.833 1008.5,491.5C 1008.86,490.817 1009.2,490.15 1009.5,489.5 Z"/></g>
<g><path style="opacity:1" fill="#8a981a" d="M 504.5,489.5 C 511.562,490.679 512.229,493.345 506.5,497.5C 503.426,495.471 502.76,492.804 504.5,489.5 Z"/></g>
<g><path style="opacity:1" fill="#686b55" d="M 1003.5,494.5 C 999.063,494.695 997.396,492.861 998.5,489C 1000.44,488.257 1002.27,488.424 1004,489.5C 1004.67,490.167 1004.67,490.833 1004,491.5C 1002.89,489.963 1001.39,489.297 999.5,489.5C 999.5,490.5 999.5,491.5 999.5,492.5C 1001.38,492.229 1002.71,492.896 1003.5,494.5 Z"/></g>
<g><path style="opacity:1" fill="#6a6c59" d="M 1044.5,489.5 C 1046.82,488.058 1048.98,488.392 1051,490.5C 1050.99,501.167 1050.33,501.167 1049,490.5C 1047.64,489.62 1046.14,489.286 1044.5,489.5 Z"/></g>
<g><path style="opacity:1" fill="#61644b" d="M 1073.5,489.5 C 1074.15,489.196 1074.82,488.863 1075.5,488.5C 1076.83,491.833 1076.83,495.167 1075.5,498.5C 1073.33,498.324 1071,498.157 1068.5,498C 1074.17,497.476 1075.83,494.642 1073.5,489.5 Z"/></g>
<g><path style="opacity:1" fill="#61644d" d="M 1092.5,491.5 C 1092.6,493.553 1091.93,495.22 1090.5,496.5C 1090.4,494.447 1091.07,492.78 1092.5,491.5 Z"/></g>
<g><path style="opacity:1" fill="#f6c7a8" d="M 798.5,487.5 C 799.808,491.019 799.808,494.685 798.5,498.5C 797.242,494.79 797.242,491.123 798.5,487.5 Z"/></g>
<g><path style="opacity:1" fill="#2f3906" d="M 1081.5,489.5 C 1080.76,492.413 1080.26,495.413 1080,498.5C 1079.33,495.167 1079.33,491.833 1080,488.5C 1080.38,489.056 1080.88,489.389 1081.5,489.5 Z"/></g>
<g><path style="opacity:1" fill="#5a5e45" d="M 1081.5,489.5 C 1083.03,488.212 1084.7,488.212 1086.5,489.5C 1087.48,492.163 1088.81,494.496 1090.5,496.5C 1090.24,499.016 1089.41,501.35 1088,503.5C 1088.94,498.916 1088.11,494.583 1085.5,490.5C 1084.31,489.571 1082.98,489.238 1081.5,489.5 Z"/></g>
<g><path style="opacity:1" fill="#c6c7bb" d="M 129.5,487.5 C 131.787,488.355 134.12,488.522 136.5,488C 140.994,490.467 141.66,493.8 138.5,498C 136.231,498.758 134.064,498.591 132,497.5C 131.808,499.577 131.308,501.577 130.5,503.5C 129.505,498.208 129.172,492.875 129.5,487.5 Z"/></g>
<g><path style="opacity:1" fill="#39411b" d="M 133.5,489.5 C 136.352,489.352 138.019,490.686 138.5,493.5C 136.167,498.833 133.833,498.833 131.5,493.5C 131.752,491.927 132.418,490.594 133.5,489.5 Z"/></g>
<g><path style="opacity:1" fill="#c7c9be" d="M 174.5,487.5 C 176.722,487.178 178.556,487.845 180,489.5C 180.308,488.692 180.808,488.025 181.5,487.5C 182.833,491.167 182.833,494.833 181.5,498.5C 178.742,498.619 175.908,498.285 173,497.5C 170.729,493.697 171.229,490.363 174.5,487.5 Z"/></g>
<g><path style="opacity:1" fill="#353f16" d="M 175.5,489.5 C 178.352,489.352 180.019,490.686 180.5,493.5C 178.167,498.833 175.833,498.833 173.5,493.5C 173.752,491.927 174.418,490.594 175.5,489.5 Z"/></g>
<g><path style="opacity:1" fill="#d9d8c0" d="M 462.5,487.5 C 466.473,487.311 468.806,489.144 469.5,493C 469.167,497.932 466.5,499.765 461.5,498.5C 461.785,500.288 461.452,501.955 460.5,503.5C 459.506,498.544 459.173,493.544 459.5,488.5C 460.791,488.737 461.791,488.404 462.5,487.5 Z"/></g>
<g><path style="opacity:1" fill="#889713" d="M 463.5,489.5 C 464.822,489.33 465.989,489.663 467,490.5C 467.667,492.5 467.667,494.5 467,496.5C 463.884,498.024 462.05,497.024 461.5,493.5C 461.803,491.886 462.47,490.552 463.5,489.5 Z"/></g>
<g><path style="opacity:1" fill="#d8d7c3" d="M 478.5,487.5 C 479.787,488.871 480.453,490.705 480.5,493C 480.167,494.833 479.833,496.667 479.5,498.5C 478.511,494.893 478.177,491.226 478.5,487.5 Z"/></g>
<g><path style="opacity:1" fill="#f4d4bb" d="M 823.5,487.5 C 826.167,487.833 828.833,488.167 831.5,488.5C 831.5,491.833 831.5,495.167 831.5,498.5C 828.223,498.784 825.057,498.451 822,497.5C 819.729,493.697 820.229,490.363 823.5,487.5 Z"/></g>
<g><path style="opacity:1" fill="#fc8d13" d="M 824.5,489.5 C 827.352,489.352 829.019,490.686 829.5,493.5C 827.167,498.833 824.833,498.833 822.5,493.5C 822.752,491.927 823.418,490.594 824.5,489.5 Z"/></g>
<g><path style="opacity:1" fill="#caccc5" d="M 148.5,487.5 C 149.787,488.871 150.453,490.705 150.5,493C 150.167,494.833 149.833,496.667 149.5,498.5C 148.511,494.893 148.177,491.226 148.5,487.5 Z"/></g>
<g><path style="opacity:1" fill="#d5d6bd" d="M 471.5,487.5 C 473.458,487.908 475.458,488.241 477.5,488.5C 476.372,489.262 475.205,489.929 474,490.5C 473.818,493.226 473.318,495.893 472.5,498.5C 471.511,494.893 471.177,491.226 471.5,487.5 Z"/></g>
<g><path style="opacity:1" fill="#d5d5bb" d="M 517.5,487.5 C 519.144,487.286 520.644,487.62 522,488.5C 523.275,490.717 524.275,493.051 525,495.5C 526.258,493.236 527.425,490.902 528.5,488.5C 528.833,489 529.167,489.5 529.5,490C 527.895,494.707 525.895,499.207 523.5,503.5C 523.218,500.943 523.051,498.277 523,495.5C 522.152,493.126 520.819,491.126 519,489.5C 518.228,489.645 517.561,489.978 517,490.5C 516.818,493.226 516.318,495.893 515.5,498.5C 514.513,495.232 514.18,491.898 514.5,488.5C 515.791,488.737 516.791,488.404 517.5,487.5 Z"/></g>
<g><path style="opacity:1" fill="#f4d4bd" d="M 833.5,487.5 C 836.149,487.852 838.815,488.185 841.5,488.5C 842.502,490.51 843.502,492.51 844.5,494.5C 846.09,492.32 847.424,489.987 848.5,487.5C 848.833,487.833 849.167,488.167 849.5,488.5C 847.936,493.957 845.602,498.957 842.5,503.5C 842.167,503.333 841.833,503.167 841.5,503C 842.573,501.687 843.24,500.187 843.5,498.5C 842.202,495.578 841.202,492.578 840.5,489.5C 838.61,489.297 837.11,489.963 836,491.5C 835.814,493.9 835.314,496.234 834.5,498.5C 833.511,494.893 833.177,491.226 833.5,487.5 Z"/></g>
<g><path style="opacity:1" fill="#f4d5bd" d="M 778.5,487.5 C 781.541,487.454 784.541,487.954 787.5,489C 790.938,496.273 788.605,499.44 780.5,498.5C 780.785,500.288 780.452,501.955 779.5,503.5C 778.505,498.208 778.172,492.875 778.5,487.5 Z"/></g>
<g><path style="opacity:1" fill="#fb8f21" d="M 782.5,489.5 C 785.352,489.352 787.019,490.686 787.5,493.5C 786.339,497.722 784.172,498.388 781,495.5C 780.257,493.126 780.757,491.126 782.5,489.5 Z"/></g>
<g><path style="opacity:1" fill="#4f5435" d="M 1003.5,494.5 C 1004.79,495.542 1004.79,496.708 1003.5,498C 1001.04,498.946 999.044,498.446 997.5,496.5C 997.667,496.167 997.833,495.833 998,495.5C 1000.56,498.362 1002.39,498.029 1003.5,494.5 Z"/></g>
<g><path style="opacity:1" fill="#5c6041" d="M 1037.5,489.5 C 1040.14,492.217 1040.14,495.05 1037.5,498C 1031.14,499.481 1028.64,496.981 1030,490.5C 1032.36,488.354 1034.86,488.021 1037.5,489.5 Z"/></g>
<g><path style="opacity:1" fill="#e5e4db" d="M 1037.5,489.5 C 1039.88,494.933 1038.21,497.433 1032.5,497C 1030.02,491.562 1031.69,489.062 1037.5,489.5 Z"/></g>
<g><path style="opacity:1" fill="#424724" d="M 1054.5,495.5 C 1056.19,496.931 1058.19,497.764 1060.5,498C 1058.83,498.667 1057.17,498.667 1055.5,498C 1054.75,497.329 1054.41,496.496 1054.5,495.5 Z"/></g>
<g><path style="opacity:1" fill="#303c0c" d="M 1062.5,484.5 C 1063.65,488.981 1063.82,493.648 1063,498.5C 1062.63,497.584 1062.13,496.75 1061.5,496C 1061.24,492.243 1061.58,488.41 1062.5,484.5 Z"/></g>
<g><path style="opacity:1" fill="#c6c7bb" d="M 145.5,505.5 C 148.278,505.022 150.278,506.022 151.5,508.5C 151.167,508.833 150.833,509.167 150.5,509.5C 145.719,506.439 143.552,507.772 144,513.5C 146.12,516.08 148.287,516.08 150.5,513.5C 151.711,514.274 151.711,515.107 150.5,516C 144.07,518.219 141.237,516.053 142,509.5C 142.69,507.65 143.856,506.316 145.5,505.5 Z"/></g>
<g><path style="opacity:1" fill="#cccfc0" d="M 156.5,505.5 C 163.57,506.407 165.237,509.907 161.5,516C 155,517.5 152.5,515 154,508.5C 155.045,507.627 155.878,506.627 156.5,505.5 Z"/></g>
<g><path style="opacity:1" fill="#c8cabd" d="M 172.5,505.5 C 179.317,505.684 181.317,509.017 178.5,515.5C 171.55,518.046 168.717,515.713 170,508.5C 171.045,507.627 171.878,506.627 172.5,505.5 Z"/></g>
<g><path style="opacity:1" fill="#c1c3b6" d="M 182.5,505.5 C 186.777,505.9 187.277,507.233 184,509.5C 183.814,511.9 183.314,514.234 182.5,516.5C 181.242,512.79 181.242,509.123 182.5,505.5 Z"/></g>
<g><path style="opacity:1" fill="#d9d8c2" d="M 502.5,505.5 C 509.57,506.407 511.237,509.907 507.5,516C 501,517.5 498.5,515 500,508.5C 501.045,507.627 501.878,506.627 502.5,505.5 Z"/></g>
<g><path style="opacity:1" fill="#f4d5bd" d="M 794.5,505.5 C 798.509,505.014 800.342,506.68 800,510.5C 795.969,506.179 793.636,506.846 793,512.5C 794.603,516.085 796.769,516.418 799.5,513.5C 800.711,514.274 800.711,515.107 799.5,516C 792.32,517.513 789.82,514.679 792,507.5C 792.995,506.934 793.828,506.267 794.5,505.5 Z"/></g>
<g><path style="opacity:1" fill="#f3d3ba" d="M 822.5,505.5 C 829.582,506.402 831.249,509.902 827.5,516C 820.562,518.06 817.729,515.56 819,508.5C 820.145,507.364 821.312,506.364 822.5,505.5 Z"/></g>
<g><path style="opacity:1" fill="#52583a" d="M 1025.5,506.5 C 1027.79,506.244 1029.96,506.577 1032,507.5C 1032.52,509.939 1032.02,510.105 1030.5,508C 1024.5,507.667 1023.17,510 1026.5,515C 1028.7,515.825 1030.53,515.325 1032,513.5C 1032.62,514.449 1032.45,515.282 1031.5,516C 1023.42,516.805 1021.42,513.638 1025.5,506.5 Z"/></g>
<g><path style="opacity:1" fill="#f4d8c4" d="M 834.5,505.5 C 836.934,506.354 836.767,507.354 834,508.5C 833.818,511.226 833.318,513.893 832.5,516.5C 831.513,513.232 831.18,509.898 831.5,506.5C 832.791,506.737 833.791,506.404 834.5,505.5 Z"/></g>
<g><path style="opacity:1" fill="#616550" d="M 1058.5,507.5 C 1052.61,507.258 1050.95,509.924 1053.5,515.5C 1050.19,513.554 1049.69,510.887 1052,507.5C 1054.27,506.189 1056.44,506.189 1058.5,507.5 Z"/></g>
<g><path style="opacity:1" fill="#535640" d="M 1035.5,513.5 C 1033.85,507.654 1036.18,505.487 1042.5,507C 1046.5,514 1044.5,517 1036.5,516C 1035.75,515.329 1035.41,514.496 1035.5,513.5 Z"/></g>
<g><path style="opacity:1" fill="#d5d5b8" d="M 511.5,505.5 C 513.458,505.908 515.458,506.241 517.5,506.5C 516.24,507.382 515.074,508.382 514,509.5C 513.814,511.9 513.314,514.234 512.5,516.5C 511.511,512.893 511.177,509.226 511.5,505.5 Z"/></g>
<g><path style="opacity:1" fill="#838473" d="M 1046.5,502.5 C 1047.8,504.397 1048.47,506.731 1048.5,509.5C 1048.17,511.833 1047.83,514.167 1047.5,516.5C 1046.51,511.88 1046.17,507.214 1046.5,502.5 Z"/></g>
<g><path style="opacity:1" fill="#fc8d13" d="M 822.5,507.5 C 825.127,507.293 826.793,508.46 827.5,511C 825.42,516.759 823.087,516.926 820.5,511.5C 820.752,509.927 821.418,508.594 822.5,507.5 Z"/></g>
<g><path style="opacity:1" fill="#353e17" d="M 156.5,507.5 C 158.144,507.286 159.644,507.62 161,508.5C 161.758,510.769 161.591,512.936 160.5,515C 159.101,515.595 157.768,515.428 156.5,514.5C 155.286,512.141 155.286,509.808 156.5,507.5 Z"/></g>
<g><path style="opacity:1" fill="#cdcec3" d="M 165.5,502.5 C 166.805,504.397 167.471,506.731 167.5,509.5C 167.167,511.833 166.833,514.167 166.5,516.5C 165.507,511.88 165.173,507.214 165.5,502.5 Z"/></g>
<g><path style="opacity:1" fill="#d7d6bf" d="M 474.5,505.5 C 477.599,505.092 479.933,506.259 481.5,509C 479.822,508.888 478.155,508.388 476.5,507.5C 475.558,507.608 474.725,507.941 474,508.5C 473.036,514.723 475.203,516.389 480.5,513.5C 481.293,514.355 480.96,515.189 479.5,516C 473,517.5 470.5,515 472,508.5C 473.045,507.627 473.878,506.627 474.5,505.5 Z"/></g>
<g><path style="opacity:1" fill="#87970f" d="M 502.5,507.5 C 505.532,507.178 507.199,508.511 507.5,511.5C 505.5,516.833 503.5,516.833 501.5,511.5C 501.623,510.075 501.957,508.742 502.5,507.5 Z"/></g>
<g><path style="opacity:1" fill="#f3d8c4" d="M 814.5,502.5 C 815.805,504.397 816.471,506.731 816.5,509.5C 816.167,511.833 815.833,514.167 815.5,516.5C 814.507,511.88 814.173,507.214 814.5,502.5 Z"/></g>
<g><path style="opacity:1" fill="#2d3a05" d="M 1063.5,506.5 C 1064.29,506.783 1064.96,507.283 1065.5,508C 1064.72,510.74 1064.22,513.574 1064,516.5C 1063.5,513.183 1063.33,509.85 1063.5,506.5 Z"/></g>
<g><path style="opacity:1" fill="#383f1a" d="M 172.5,507.5 C 178.452,507.609 179.786,510.109 176.5,515C 171.632,514.711 170.299,512.211 172.5,507.5 Z"/></g>
<g><path style="opacity:1" fill="#dad8c2" d="M 495.5,502.5 C 496.805,504.397 497.471,506.731 497.5,509.5C 497.167,511.833 496.833,514.167 496.5,516.5C 495.507,511.88 495.173,507.214 495.5,502.5 Z"/></g>
<g><path style="opacity:1" fill="#f3d4bc" d="M 805.5,505.5 C 812.693,505.897 814.693,509.231 811.5,515.5C 804.55,518.046 801.717,515.713 803,508.5C 804.045,507.627 804.878,506.627 805.5,505.5 Z"/></g>
<g><path style="opacity:1" fill="#fc8f1e" d="M 806.5,507.5 C 812.552,509.152 813.052,511.819 808,515.5C 804.09,513.449 803.59,510.782 806.5,507.5 Z"/></g>
<g><path style="opacity:1" fill="#dcddd0" d="M 1035.5,513.5 C 1035.66,507.512 1038.16,506.179 1043,509.5C 1043.15,515.597 1040.65,516.93 1035.5,513.5 Z"/></g>
<g><path style="opacity:1" fill="#e4e4d8" d="M 1058.5,507.5 C 1060.86,512.768 1059.19,515.434 1053.5,515.5C 1050.95,509.924 1052.61,507.258 1058.5,507.5 Z"/></g>
<g><path style="opacity:1" fill="#dad9c3" d="M 485.5,506.5 C 493.486,505.998 495.486,509.165 491.5,516C 483.43,516.755 481.43,513.589 485.5,506.5 Z"/></g>
<g><path style="opacity:1" fill="#8a981a" d="M 486.5,507.5 C 491.181,507.876 492.515,510.209 490.5,514.5C 484.392,515.151 483.059,512.818 486.5,507.5 Z"/></g>
<g><path style="opacity:1" fill="#54583a" d="M 1058.5,507.5 C 1059.12,507.611 1059.62,507.944 1060,508.5C 1061.51,514.817 1059.35,517.15 1053.5,515.5C 1059.19,515.434 1060.86,512.768 1058.5,507.5 Z"/></g>
</svg>
