<?xml version="1.0" encoding="UTF-8"?>
<!DOCTYPE svg PUBLIC "-//W3C//DTD SVG 1.1//EN" "http://www.w3.org/Graphics/SVG/1.1/DTD/svg11.dtd">
<svg xmlns="http://www.w3.org/2000/svg" version="1.1" width="1123px" height="794px" style="shape-rendering:geometricPrecision; text-rendering:geometricPrecision; image-rendering:optimizeQuality; fill-rule:evenodd; clip-rule:evenodd" xmlns:xlink="http://www.w3.org/1999/xlink">
<g><path style="opacity:1" fill="#879500" d="M -0.5,-0.5 C 373.5,-0.5 747.5,-0.5 1121.5,-0.5C 1121.5,263.833 1121.5,528.167 1121.5,792.5C 747.5,792.5 373.5,792.5 -0.5,792.5C -0.5,528.167 -0.5,263.833 -0.5,-0.5 Z"/></g>
<g><path style="opacity:1" fill="#354003" d="M 98.5,172.5 C 99.5,172.5 100.5,172.5 101.5,172.5C 101.5,173.5 101.5,174.5 101.5,175.5C 100.5,175.5 99.5,175.5 98.5,175.5C 98.5,174.5 98.5,173.5 98.5,172.5 Z"/></g>
<g><path style="opacity:1" fill="#313e02" d="M 54.5,177.5 C 60.4343,176.283 63.4343,178.616 63.5,184.5C 60.1016,184.18 56.7683,184.513 53.5,185.5C 54.2697,187.272 55.6031,188.272 57.5,188.5C 59.3228,187.155 61.3228,186.655 63.5,187C 59.8187,191.422 55.9854,191.588 52,187.5C 51.3333,184.833 51.3333,182.167 52,179.5C 52.9947,178.934 53.828,178.267 54.5,177.5 Z"/></g>
<g><path style="opacity:1" fill="#303e02" d="M 105.5,177.5 C 108.787,177.597 112.12,177.93 115.5,178.5C 117.255,182.278 117.922,186.278 117.5,190.5C 116.5,190.5 115.5,190.5 114.5,190.5C 114.665,187.15 114.498,183.817 114,180.5C 111.733,179.065 109.733,179.398 108,181.5C 107.821,184.553 107.321,187.553 106.5,190.5C 105.508,186.217 105.174,181.884 105.5,177.5 Z"/></g>
<g><path style="opacity:1" fill="#2f3d02" d="M 123.5,177.5 C 126.993,177.998 130.326,177.998 133.5,177.5C 133.666,182.511 133.499,187.511 133,192.5C 131.982,195.683 129.815,197.016 126.5,196.5C 123.447,197.048 121.447,195.882 120.5,193C 122.757,192.888 124.924,193.388 127,194.5C 130.345,194.141 131.178,192.474 129.5,189.5C 122.195,191.025 119.361,188.025 121,180.5C 121.698,179.309 122.531,178.309 123.5,177.5 Z"/></g>
<g><path style="opacity:1" fill="#334202" d="M 34.5,173.5 C 35.5,173.5 36.5,173.5 37.5,173.5C 37.5,176.167 37.5,178.833 37.5,181.5C 40.1667,181.5 42.8333,181.5 45.5,181.5C 45.1924,179.076 45.5258,176.743 46.5,174.5C 47.8333,179.833 47.8333,185.167 46.5,190.5C 45.5258,188.257 45.1924,185.924 45.5,183.5C 42.8333,183.5 40.1667,183.5 37.5,183.5C 37.5,185.833 37.5,188.167 37.5,190.5C 36.5,190.5 35.5,190.5 34.5,190.5C 34.5,184.833 34.5,179.167 34.5,173.5 Z"/></g>
<g><path style="opacity:1" fill="#829103" d="M 55.5,179.5 C 58.0217,179.128 60.0217,179.961 61.5,182C 58.8333,182.667 56.1667,182.667 53.5,182C 54.3805,181.292 55.0472,180.458 55.5,179.5 Z"/></g>
<g><path style="opacity:1" fill="#303c02" d="M 68.5,177.5 C 71.6169,177.872 74.6169,177.872 77.5,177.5C 78.8333,181.833 78.8333,186.167 77.5,190.5C 76.8076,189.975 76.3076,189.308 76,188.5C 70.2004,191.851 66.7004,190.185 65.5,183.5C 65.6284,181.045 66.6284,179.045 68.5,177.5 Z"/></g>
<g><path style="opacity:1" fill="#344102" d="M 98.5,177.5 C 99.5,177.5 100.5,177.5 101.5,177.5C 101.5,181.833 101.5,186.167 101.5,190.5C 100.5,190.5 99.5,190.5 98.5,190.5C 98.5,186.167 98.5,181.833 98.5,177.5 Z"/></g>
<g><path style="opacity:1" fill="#fa8b01" d="M 799.5,180.5 C 815.104,178.855 828.938,182.855 841,192.5C 842.481,195.11 843.648,197.777 844.5,200.5C 840.445,200.824 836.445,200.491 832.5,199.5C 828.007,194.253 822.341,191.086 815.5,190C 804.887,188.527 795.387,191.027 787,197.5C 783.429,206.968 786.596,213.135 796.5,216C 806.256,219.297 815.923,218.963 825.5,215C 828.5,213.333 830.833,211 832.5,208C 836.541,207.173 840.541,207.34 844.5,208.5C 840.387,217.114 833.721,222.614 824.5,225C 806.756,230.767 790.922,227.601 777,215.5C 769.482,203.83 771.649,194.33 783.5,187C 788.827,184.518 794.16,182.351 799.5,180.5 Z"/></g>
<g><path style="opacity:1" fill="#fb8b01" d="M 466.5,181.5 C 470.5,181.5 474.5,181.5 478.5,181.5C 478.08,191.247 478.58,200.914 480,210.5C 489.982,219.754 499.982,219.754 510,210.5C 511.42,200.914 511.92,191.247 511.5,181.5C 515.5,181.5 519.5,181.5 523.5,181.5C 531.063,209.131 520.896,224.131 493,226.5C 481.295,225.986 472.628,220.653 467,210.5C 466.5,200.839 466.334,191.172 466.5,181.5 Z"/></g>
<g><path style="opacity:1" fill="#fb8b00" d="M 533.5,181.5 C 547.504,181.333 561.504,181.5 575.5,182C 589.511,185.786 592.178,193.453 583.5,205C 582.167,205.667 580.833,206.333 579.5,207C 568.23,208.409 556.896,208.909 545.5,208.5C 545.5,214.5 545.5,220.5 545.5,226.5C 541.5,226.5 537.5,226.5 533.5,226.5C 533.5,211.5 533.5,196.5 533.5,181.5 Z"/></g>
<g><path style="opacity:1" fill="#fb8b00" d="M 595.5,181.5 C 610.17,181.333 624.837,181.5 639.5,182C 651.142,185.917 653.642,193.084 647,203.5C 644.749,205.377 642.249,206.877 639.5,208C 628.839,208.5 618.172,208.667 607.5,208.5C 607.5,214.5 607.5,220.5 607.5,226.5C 603.5,226.5 599.5,226.5 595.5,226.5C 595.5,211.5 595.5,196.5 595.5,181.5 Z"/></g>
<g><path style="opacity:1" fill="#fb8b01" d="M 655.5,181.5 C 672.167,181.5 688.833,181.5 705.5,181.5C 705.5,184.5 705.5,187.5 705.5,190.5C 692.833,190.5 680.167,190.5 667.5,190.5C 667.5,193.833 667.5,197.167 667.5,200.5C 677.833,200.5 688.167,200.5 698.5,200.5C 698.5,203.167 698.5,205.833 698.5,208.5C 688.167,208.5 677.833,208.5 667.5,208.5C 667.5,211.5 667.5,214.5 667.5,217.5C 680.167,217.5 692.833,217.5 705.5,217.5C 705.5,220.5 705.5,223.5 705.5,226.5C 688.833,226.5 672.167,226.5 655.5,226.5C 655.5,211.5 655.5,196.5 655.5,181.5 Z"/></g>
<g><path style="opacity:1" fill="#fb8b01" d="M 712.5,181.5 C 726.171,181.333 739.837,181.5 753.5,182C 763.592,183.741 767.759,189.575 766,199.5C 764.647,200.685 763.48,202.019 762.5,203.5C 763.48,204.981 764.647,206.315 766,207.5C 766.5,213.825 766.666,220.158 766.5,226.5C 762.5,226.5 758.5,226.5 754.5,226.5C 754.829,220.794 754.495,215.128 753.5,209.5C 743.887,208.526 734.22,208.192 724.5,208.5C 724.5,214.5 724.5,220.5 724.5,226.5C 720.5,226.5 716.5,226.5 712.5,226.5C 712.5,211.5 712.5,196.5 712.5,181.5 Z"/></g>
<g><path style="opacity:1" fill="#fb8b01" d="M 867.5,181.5 C 873.206,181.171 878.872,181.505 884.5,182.5C 891.385,196.936 897.718,211.602 903.5,226.5C 899.5,226.5 895.5,226.5 891.5,226.5C 890.866,223.063 889.533,219.896 887.5,217C 879.507,216.5 871.507,216.334 863.5,216.5C 862.5,219.833 861.5,223.167 860.5,226.5C 856.154,226.666 851.821,226.499 847.5,226C 854.599,211.307 861.265,196.474 867.5,181.5 Z"/></g>
<g><path style="opacity:1" fill="#fa8b01" d="M 927.5,180.5 C 938.858,179.666 949.525,181.832 959.5,187C 957.542,189.748 955.709,192.582 954,195.5C 945.287,189.64 935.787,188.14 925.5,191C 922.661,191.741 920.661,193.407 919.5,196C 919.777,197.892 920.777,199.225 922.5,200C 931.147,200.915 939.814,201.582 948.5,202C 961.962,205.791 963.962,212.791 954.5,223C 939.77,228.841 925.103,228.841 910.5,223C 909.5,222 908.5,221 907.5,220C 909.716,217.447 912.216,215.28 915,213.5C 925.31,218.043 935.81,218.543 946.5,215C 947.38,213.644 947.714,212.144 947.5,210.5C 937.502,209.824 927.502,208.991 917.5,208C 909.554,205.277 906.387,199.777 908,191.5C 913.341,185.584 919.841,181.918 927.5,180.5 Z"/></g>
<g><path style="opacity:1" fill="#fb8b00" d="M 966.5,181.5 C 983.167,181.5 999.833,181.5 1016.5,181.5C 1016.78,184.448 1016.44,187.281 1015.5,190C 1003.17,190.5 990.838,190.667 978.5,190.5C 978.5,193.833 978.5,197.167 978.5,200.5C 988.833,200.5 999.167,200.5 1009.5,200.5C 1009.5,203.167 1009.5,205.833 1009.5,208.5C 999.167,208.5 988.833,208.5 978.5,208.5C 978.5,211.5 978.5,214.5 978.5,217.5C 991.167,217.5 1003.83,217.5 1016.5,217.5C 1016.78,220.448 1016.44,223.281 1015.5,226C 999.5,226.667 983.5,226.667 967.5,226C 966.509,211.245 966.176,196.412 966.5,181.5 Z"/></g>
<g><path style="opacity:1" fill="#809104" d="M 69.5,179.5 C 76.4438,179.272 78.1105,182.106 74.5,188C 72.2992,188.825 70.4659,188.325 69,186.5C 68.2967,184.071 68.4634,181.738 69.5,179.5 Z"/></g>
<g><path style="opacity:1" fill="#818f03" d="M 124.5,179.5 C 127.916,178.866 129.916,180.2 130.5,183.5C 129.643,188.671 127.143,189.671 123,186.5C 122.167,183.829 122.667,181.496 124.5,179.5 Z"/></g>
<g><path style="opacity:1" fill="#313f02" d="M 92.5,172.5 C 93.5,172.5 94.5,172.5 95.5,172.5C 95.5,178.5 95.5,184.5 95.5,190.5C 92.242,189.932 88.9087,189.766 85.5,190C 82.3837,187.039 81.7171,183.539 83.5,179.5C 86.128,177.367 88.9613,177.034 92,178.5C 92.4955,176.527 92.6621,174.527 92.5,172.5 Z"/></g>
<g><path style="opacity:1" fill="#829103" d="M 86.5,179.5 C 89.916,178.866 91.916,180.2 92.5,183.5C 91.6429,188.671 89.1429,189.671 85,186.5C 84.1668,183.829 84.6668,181.496 86.5,179.5 Z"/></g>
<g><path style="opacity:1" fill="#879500" d="M 545.5,190.5 C 554.506,190.334 563.506,190.5 572.5,191C 575.051,191.422 576.385,192.922 576.5,195.5C 576.41,197.425 575.41,198.592 573.5,199C 564.173,199.5 554.839,199.666 545.5,199.5C 545.5,196.5 545.5,193.5 545.5,190.5 Z"/></g>
<g><path style="opacity:1" fill="#879400" d="M 607.5,190.5 C 617.58,190.077 627.58,190.577 637.5,192C 639.22,195.086 638.553,197.419 635.5,199C 626.173,199.5 616.839,199.666 607.5,199.5C 607.5,196.5 607.5,193.5 607.5,190.5 Z"/></g>
<g><path style="opacity:1" fill="#879400" d="M 724.5,190.5 C 734.539,190.242 744.539,190.576 754.5,191.5C 754.945,194.365 754.278,196.865 752.5,199C 743.173,199.5 733.839,199.666 724.5,199.5C 724.5,196.5 724.5,193.5 724.5,190.5 Z"/></g>
<g><path style="opacity:1" fill="#8b9500" d="M 875.5,189.5 C 879.122,195.018 881.789,201.018 883.5,207.5C 878.456,207.827 873.456,207.494 868.5,206.5C 870.653,200.695 872.986,195.028 875.5,189.5 Z"/></g>
<g><path style="opacity:1" fill="#fa8b01" d="M 674.5,244.5 C 689.849,242.86 703.516,246.693 715.5,256C 717.782,258.397 719.116,261.231 719.5,264.5C 712.311,265.884 706.645,263.717 702.5,258C 690.5,252 678.5,252 666.5,258C 658.959,263.886 658.626,270.219 665.5,277C 678.15,284.225 690.816,284.225 703.5,277C 705.213,275.622 706.547,273.955 707.5,272C 711.486,271.501 715.486,271.334 719.5,271.5C 717.947,276.576 714.947,280.743 710.5,284C 694.163,293.063 677.496,293.73 660.5,286C 644.54,275.701 643.54,264.368 657.5,252C 663.001,248.911 668.668,246.411 674.5,244.5 Z"/></g>
<g><path style="opacity:1" fill="#fe8b01" d="M 467.5,245.5 C 471.167,245.5 474.833,245.5 478.5,245.5C 478.5,260.5 478.5,275.5 478.5,290.5C 474.833,290.5 471.167,290.5 467.5,290.5C 467.5,275.5 467.5,260.5 467.5,245.5 Z"/></g>
<g><path style="opacity:1" fill="#fd8b00" d="M 489.5,245.5 C 505.833,245.5 522.167,245.5 538.5,245.5C 538.5,248.5 538.5,251.5 538.5,254.5C 525.833,254.5 513.167,254.5 500.5,254.5C 500.5,257.5 500.5,260.5 500.5,263.5C 511.167,263.5 521.833,263.5 532.5,263.5C 532.5,266.5 532.5,269.5 532.5,272.5C 521.833,272.5 511.167,272.5 500.5,272.5C 500.5,278.5 500.5,284.5 500.5,290.5C 496.833,290.5 493.167,290.5 489.5,290.5C 489.5,275.5 489.5,260.5 489.5,245.5 Z"/></g>
<g><path style="opacity:1" fill="#fa8b01" d="M 619.5,279.5 C 620.069,283.329 619.402,286.663 617.5,289.5C 604.146,285.66 590.979,281.326 578,276.5C 577.501,281.155 577.334,285.821 577.5,290.5C 573.5,290.5 569.5,290.5 565.5,290.5C 565.5,275.5 565.5,260.5 565.5,245.5C 569.5,245.5 573.5,245.5 577.5,245.5C 577.173,250.214 577.507,254.88 578.5,259.5C 591.916,254.287 605.583,249.954 619.5,246.5C 619.789,250.106 619.456,253.606 618.5,257C 607.633,260.344 596.967,264.177 586.5,268.5C 597.288,272.763 608.288,276.429 619.5,279.5 Z"/></g>
<g><path style="opacity:1" fill="#fe8b00" d="M 628.5,245.5 C 632.167,245.5 635.833,245.5 639.5,245.5C 639.5,260.5 639.5,275.5 639.5,290.5C 635.833,290.5 632.167,290.5 628.5,290.5C 628.5,275.5 628.5,260.5 628.5,245.5 Z"/></g>
<g><path style="opacity:1" fill="#fb8b01" d="M 741.5,245.5 C 747.206,245.171 752.872,245.505 758.5,246.5C 765.402,260.966 771.736,275.633 777.5,290.5C 773.5,290.5 769.5,290.5 765.5,290.5C 764.5,287.167 763.5,283.833 762.5,280.5C 754.167,280.5 745.833,280.5 737.5,280.5C 736.5,283.833 735.5,287.167 734.5,290.5C 730.5,290.5 726.5,290.5 722.5,290.5C 728.587,275.335 734.92,260.335 741.5,245.5 Z"/></g>
<g><path style="opacity:1" fill="#8b9401" d="M 749.5,253.5 C 753.122,259.018 755.789,265.018 757.5,271.5C 752.5,271.5 747.5,271.5 742.5,271.5C 744.827,265.511 747.16,259.511 749.5,253.5 Z"/></g>
<g><path style="opacity:1" fill="#c29001" d="M 619.5,279.5 C 620.482,282.962 620.815,286.629 620.5,290.5C 619.209,290.737 618.209,290.404 617.5,289.5C 619.402,286.663 620.069,283.329 619.5,279.5 Z"/></g>
<g><path style="opacity:1" fill="#313d02" d="M 48.5,402.5 C 51.9571,402.667 52.2904,403.667 49.5,405.5C 48.6143,404.675 48.281,403.675 48.5,402.5 Z"/></g>
<g><path style="opacity:1" fill="#2b3a01" d="M 63.5,403.5 C 64.8142,405.915 65.4809,408.748 65.5,412C 65.1667,414.833 64.8333,417.667 64.5,420.5C 63.5046,414.872 63.1712,409.206 63.5,403.5 Z"/></g>
<g><path style="opacity:1" fill="#354401" d="M 33.5,403.5 C 37.5,403.5 41.5,403.5 45.5,403.5C 45.5,404.5 45.5,405.5 45.5,406.5C 44.1667,406.5 42.8333,406.5 41.5,406.5C 41.5,411.167 41.5,415.833 41.5,420.5C 40.5,420.5 39.5,420.5 38.5,420.5C 38.5,415.5 38.5,410.5 38.5,405.5C 36.2188,405.923 34.5521,405.256 33.5,403.5 Z"/></g>
<g><path style="opacity:1" fill="#2a3b01" d="M 48.5,407.5 C 49.8001,409.223 50.4668,411.39 50.5,414C 50.1667,416.167 49.8333,418.333 49.5,420.5C 48.5078,416.217 48.1744,411.884 48.5,407.5 Z"/></g>
<g><path style="opacity:1" fill="#323f03" d="M 54.5,404.5 C 55.5,404.5 56.5,404.5 57.5,404.5C 57.5,405.5 57.5,406.5 57.5,407.5C 61.5,408.167 61.5,408.833 57.5,409.5C 57.5,412.5 57.5,415.5 57.5,418.5C 60.9877,418.899 61.1544,419.566 58,420.5C 56.6739,420.245 55.6739,419.578 55,418.5C 54.1123,413.751 53.9456,409.084 54.5,404.5 Z"/></g>
<g><path style="opacity:1" fill="#323f03" d="M 72.5,407.5 C 78.4343,406.283 81.4343,408.616 81.5,414.5C 78.1016,414.18 74.7683,414.513 71.5,415.5C 72.2697,417.272 73.6031,418.272 75.5,418.5C 77.3228,417.155 79.3228,416.655 81.5,417C 77.8187,421.422 73.9854,421.588 70,417.5C 69.3333,414.833 69.3333,412.167 70,409.5C 70.9947,408.934 71.828,408.267 72.5,407.5 Z"/></g>
<g><path style="opacity:1" fill="#809003" d="M 72.5,409.5 C 75.3456,409.03 77.6789,409.863 79.5,412C 76.8333,412.667 74.1667,412.667 71.5,412C 72.2524,411.329 72.5858,410.496 72.5,409.5 Z"/></g>
<g><path style="opacity:1" fill="#e9e6da" d="M 593.5,406.5 C 600.775,408.921 601.275,412.255 595,416.5C 588.35,413.925 587.85,410.592 593.5,406.5 Z"/></g>
<g><path style="opacity:1" fill="#bdbf92" d="M 845.5,445.5 C 845.5,433.833 845.5,422.167 845.5,410.5C 843.167,410.5 840.833,410.5 838.5,410.5C 838.815,414.371 838.482,418.038 837.5,421.5C 837.5,417.5 837.5,413.5 837.5,409.5C 840.5,409.5 843.5,409.5 846.5,409.5C 846.828,421.678 846.495,433.678 845.5,445.5 Z"/></g>
<g><path style="opacity:1" fill="#ece9e1" d="M 464.5,411.5 C 470.509,411.334 476.509,411.501 482.5,412C 491.345,416.735 492.679,423.069 486.5,431C 482.078,433.104 477.412,433.937 472.5,433.5C 472.5,437.5 472.5,441.5 472.5,445.5C 469.833,445.5 467.167,445.5 464.5,445.5C 464.5,434.167 464.5,422.833 464.5,411.5 Z"/></g>
<g><path style="opacity:1" fill="#edeae3" d="M 805.5,410.5 C 808.167,410.5 810.833,410.5 813.5,410.5C 813.5,422.167 813.5,433.833 813.5,445.5C 810.833,445.5 808.167,445.5 805.5,445.5C 805.5,433.833 805.5,422.167 805.5,410.5 Z"/></g>
<g><path style="opacity:1" fill="#adb174" d="M 805.5,410.5 C 808.287,409.523 811.287,409.19 814.5,409.5C 814.828,421.678 814.495,433.678 813.5,445.5C 813.5,433.833 813.5,422.167 813.5,410.5C 810.833,410.5 808.167,410.5 805.5,410.5 Z"/></g>
<g><path style="opacity:1" fill="#e9e7dc" d="M 604.5,418.5 C 607.898,418.142 611.065,418.808 614,420.5C 622.023,416.274 627.689,418.274 631,426.5C 631.5,432.825 631.666,439.158 631.5,445.5C 628.5,445.5 625.5,445.5 622.5,445.5C 622.83,439.132 622.496,432.798 621.5,426.5C 618.467,425.073 615.634,425.406 613,427.5C 612.501,433.491 612.334,439.491 612.5,445.5C 609.833,445.5 607.167,445.5 604.5,445.5C 604.5,436.5 604.5,427.5 604.5,418.5 Z"/></g>
<g><path style="opacity:1" fill="#ebe8df" d="M 782.5,418.5 C 799.74,418.057 805.073,425.723 798.5,441.5C 789.593,448.646 781.76,447.646 775,438.5C 771.907,429.599 774.407,422.932 782.5,418.5 Z"/></g>
<g><path style="opacity:1" fill="#8b981d" d="M 472.5,418.5 C 479.468,416.971 482.135,419.471 480.5,426C 477.854,426.497 475.187,426.664 472.5,426.5C 472.5,423.833 472.5,421.167 472.5,418.5 Z"/></g>
<g><path style="opacity:1" fill="#eae7dc" d="M 641.5,418.5 C 649.602,416.377 655.269,419.043 658.5,426.5C 657.167,426.833 655.833,427.167 654.5,427.5C 651.635,426.954 648.969,425.954 646.5,424.5C 643.815,424.708 643.149,425.875 644.5,428C 649.802,428.648 654.302,430.815 658,434.5C 658.968,442.494 655.302,446.494 647,446.5C 641.01,446.007 636.843,443.007 634.5,437.5C 636,437.167 637.5,436.833 639,436.5C 642.073,436.759 644.739,437.759 647,439.5C 648.662,439.612 649.829,438.946 650.5,437.5C 647.046,435.549 643.379,434.049 639.5,433C 633.794,427.389 634.461,422.556 641.5,418.5 Z"/></g>
<g><path style="opacity:1" fill="#edeae2" d="M 590.5,418.5 C 593.167,418.5 595.833,418.5 598.5,418.5C 598.5,427.5 598.5,436.5 598.5,445.5C 595.833,445.5 593.167,445.5 590.5,445.5C 590.5,436.5 590.5,427.5 590.5,418.5 Z"/></g>
<g><path style="opacity:1" fill="#ebe8df" d="M 845.5,445.5 C 842.289,445.988 839.456,445.321 837,443.5C 829.886,447.975 823.886,446.642 819,439.5C 816.078,431.93 817.578,425.43 823.5,420C 828.521,417.712 833.188,418.212 837.5,421.5C 838.482,418.038 838.815,414.371 838.5,410.5C 840.833,410.5 843.167,410.5 845.5,410.5C 845.5,422.167 845.5,433.833 845.5,445.5 Z"/></g>
<g><path style="opacity:1" fill="#ebe8df" d="M 501.5,418.5 C 515.673,417.172 521.84,423.506 520,437.5C 518.73,441.77 515.896,444.27 511.5,445C 495.142,446.299 489.642,439.133 495,423.5C 496.965,421.45 499.132,419.783 501.5,418.5 Z"/></g>
<g><path style="opacity:1" fill="#87960b" d="M 504.5,425.5 C 506.936,425.317 509.103,425.984 511,427.5C 512.023,431.317 511.523,434.817 509.5,438C 502.676,438.494 500.176,435.328 502,428.5C 502.698,427.309 503.531,426.309 504.5,425.5 Z"/></g>
<g><path style="opacity:1" fill="#eae7dd" d="M 710.5,409.5 C 716.957,408.088 721.957,410.088 725.5,415.5C 726.452,417.045 726.785,418.712 726.5,420.5C 723.753,420.813 721.086,420.48 718.5,419.5C 716.992,416.582 714.825,415.916 712,417.5C 710.627,419.695 710.294,422.029 711,424.5C 716.522,421.398 721.522,422.065 726,426.5C 730.302,441.393 724.802,447.56 709.5,445C 705.99,442.831 703.823,439.664 703,435.5C 701.887,428.285 702.554,421.285 705,414.5C 706.73,412.598 708.563,410.931 710.5,409.5 Z"/></g>
<g><path style="opacity:1" fill="#879508" d="M 830.5,425.5 C 836.849,426.027 839.016,429.361 837,435.5C 833.667,439.5 830.333,439.5 827,435.5C 825.756,431.191 826.923,427.858 830.5,425.5 Z"/></g>
<g><path style="opacity:1" fill="#88960d" d="M 712.5,429.5 C 719.676,428.985 721.342,431.818 717.5,438C 710.416,438.475 708.749,435.642 712.5,429.5 Z"/></g>
<g><path style="opacity:1" fill="#889713" d="M 785.5,425.5 C 792.369,425.538 794.869,428.871 793,435.5C 789.492,439.436 786.159,439.436 783,435.5C 781.863,431.537 782.697,428.204 785.5,425.5 Z"/></g>
<g><path style="opacity:1" fill="#e9e7dc" d="M 679.5,409.5 C 685.324,408.588 690.49,409.922 695,413.5C 697.605,419.074 696.438,423.574 691.5,427C 699.601,433.322 699.268,439.322 690.5,445C 680.268,448.21 674.268,444.71 672.5,434.5C 676.586,433.846 679.919,435.012 682.5,438C 687.667,439.5 689.5,437.667 688,432.5C 685.959,431.577 683.792,431.244 681.5,431.5C 681.5,428.833 681.5,426.167 681.5,423.5C 686.675,424.493 688.509,422.493 687,417.5C 683.534,415.65 681.701,416.65 681.5,420.5C 678.5,420.5 675.5,420.5 672.5,420.5C 673.066,415.699 675.4,412.032 679.5,409.5 Z"/></g>
<g><path style="opacity:1" fill="#ebe9e0" d="M 743.5,411.5 C 750.175,411.334 756.842,411.5 763.5,412C 770.54,416.608 771.207,421.941 765.5,428C 772.502,434.642 771.835,440.309 763.5,445C 756.842,445.5 750.175,445.666 743.5,445.5C 743.5,434.167 743.5,422.833 743.5,411.5 Z"/></g>
<g><path style="opacity:1" fill="#899712" d="M 751.5,431.5 C 754.187,431.336 756.854,431.503 759.5,432C 761.698,433.67 762.032,435.67 760.5,438C 757.518,438.498 754.518,438.665 751.5,438.5C 751.5,436.167 751.5,433.833 751.5,431.5 Z"/></g>
<g><path style="opacity:1" fill="#8b991d" d="M 751.5,418.5 C 754.187,418.336 756.854,418.503 759.5,419C 760.833,421 760.833,423 759.5,425C 756.854,425.497 754.187,425.664 751.5,425.5C 751.5,423.167 751.5,420.833 751.5,418.5 Z"/></g>
<g><path style="opacity:1" fill="#ece9e0" d="M 567.5,443.5 C 567.44,442.957 567.107,442.624 566.5,442.5C 565.505,447.792 565.172,453.125 565.5,458.5C 562.833,458.5 560.167,458.5 557.5,458.5C 557.5,445.167 557.5,431.833 557.5,418.5C 561.03,417.989 564.196,418.656 567,420.5C 574.591,416.634 580.591,418.3 585,425.5C 587.001,433.181 585.167,439.681 579.5,445C 576.167,445.667 572.833,445.667 569.5,445C 568.584,444.722 567.918,444.222 567.5,443.5 Z"/></g>
<g><path style="opacity:1" fill="#87960e" d="M 569.5,425.5 C 576.444,426.189 578.61,429.856 576,436.5C 573,439.167 570,439.167 567,436.5C 566.333,433.5 566.333,430.5 567,427.5C 567.995,426.934 568.828,426.267 569.5,425.5 Z"/></g>
<g><path style="opacity:1" fill="#aaaf6e" d="M 535.5,443.5 C 534.833,448.5 534.167,453.5 533.5,458.5C 533.172,453.125 533.505,447.792 534.5,442.5C 535.107,442.624 535.44,442.957 535.5,443.5 Z"/></g>
<g><path style="opacity:1" fill="#aaaf6e" d="M 567.5,443.5 C 566.833,448.5 566.167,453.5 565.5,458.5C 565.172,453.125 565.505,447.792 566.5,442.5C 567.107,442.624 567.44,442.957 567.5,443.5 Z"/></g>
<g><path style="opacity:1" fill="#ece9e1" d="M 535.5,443.5 C 535.44,442.957 535.107,442.624 534.5,442.5C 533.505,447.792 533.172,453.125 533.5,458.5C 530.833,458.5 528.167,458.5 525.5,458.5C 525.5,445.167 525.5,431.833 525.5,418.5C 529.03,417.989 532.196,418.656 535,420.5C 546.471,415.818 552.638,419.652 553.5,432C 552.639,444.406 546.639,448.239 535.5,443.5 Z"/></g>
<g><path style="opacity:1" fill="#87960e" d="M 537.5,425.5 C 544.444,426.189 546.61,429.856 544,436.5C 541,439.167 538,439.167 535,436.5C 534.333,433.5 534.333,430.5 535,427.5C 535.995,426.934 536.828,426.267 537.5,425.5 Z"/></g>
<g><path style="opacity:1" fill="#e1dfcd" d="M 545.5,472.5 C 546.833,472.5 548.167,472.5 549.5,472.5C 549.778,474.346 549.111,475.68 547.5,476.5C 545.889,475.68 545.222,474.346 545.5,472.5 Z"/></g>
<g><path style="opacity:1" fill="#e2e0ce" d="M 603.5,472.5 C 613.309,472.155 616.143,476.488 612,485.5C 610.167,488.667 607.667,491.167 604.5,493C 607.817,493.498 611.15,493.665 614.5,493.5C 614.5,494.5 614.5,495.5 614.5,496.5C 609.5,496.5 604.5,496.5 599.5,496.5C 599.351,495.448 599.517,494.448 600,493.5C 604,490.833 607.333,487.5 610,483.5C 610.957,480.621 610.457,478.121 608.5,476C 604.652,475.013 602.652,476.513 602.5,480.5C 601.5,480.5 600.5,480.5 599.5,480.5C 599.343,479.127 599.51,477.793 600,476.5C 601.376,475.295 602.542,473.962 603.5,472.5 Z"/></g>
<g><path style="opacity:1" fill="#e4e3d4" d="M 472.5,474.5 C 477.776,475.293 479.609,478.293 478,483.5C 475.454,487.05 471.954,488.383 467.5,487.5C 467.5,490.5 467.5,493.5 467.5,496.5C 466.5,496.5 465.5,496.5 464.5,496.5C 464.5,489.167 464.5,481.833 464.5,474.5C 467.167,474.5 469.833,474.5 472.5,474.5 Z"/></g>
<g><path style="opacity:1" fill="#4e5b01" d="M 67.5,478.5 C 65.55,483.735 64.8833,489.402 65.5,495.5C 64.5104,489.69 64.1771,483.69 64.5,477.5C 65.791,477.263 66.791,477.596 67.5,478.5 Z"/></g>
<g><path style="opacity:1" fill="#333e05" d="M 89.5,477.5 C 90.5,477.5 91.5,477.5 92.5,477.5C 91.7542,481.31 90.7542,481.31 89.5,477.5 Z"/></g>
<g><path style="opacity:1" fill="#e0decd" d="M 646.5,474.5 C 650.514,474.334 654.514,474.501 658.5,475C 659.416,475.374 660.25,475.874 661,476.5C 662.48,481.147 661.314,484.813 657.5,487.5C 658.833,490.167 660.167,492.833 661.5,495.5C 660.635,496.583 659.635,496.749 658.5,496C 657.126,493.417 655.626,490.917 654,488.5C 652.989,487.663 651.822,487.33 650.5,487.5C 650.5,490.5 650.5,493.5 650.5,496.5C 649.167,496.5 647.833,496.5 646.5,496.5C 646.5,489.167 646.5,481.833 646.5,474.5 Z"/></g>
<g><path style="opacity:1" fill="#869509" d="M 650.5,476.5 C 656.933,475.652 659.266,478.152 657.5,484C 655.19,484.497 652.857,484.663 650.5,484.5C 650.5,481.833 650.5,479.167 650.5,476.5 Z"/></g>
<g><path style="opacity:1" fill="#2c3a01" d="M 105.5,478.5 C 106.814,480.915 107.481,483.748 107.5,487C 107.167,489.833 106.833,492.667 106.5,495.5C 105.505,489.872 105.171,484.206 105.5,478.5 Z"/></g>
<g><path style="opacity:1" fill="#bcbf93" d="M 548.5,496.5 C 547.833,473.833 547.167,473.833 546.5,496.5C 545.51,490.69 545.177,484.69 545.5,478.5C 546.833,478.5 548.167,478.5 549.5,478.5C 549.823,484.69 549.49,490.69 548.5,496.5 Z"/></g>
<g><path style="opacity:1" fill="#ecebe1" d="M 548.5,496.5 C 547.833,496.5 547.167,496.5 546.5,496.5C 547.167,473.833 547.833,473.833 548.5,496.5 Z"/></g>
<g><path style="opacity:1" fill="#abb272" d="M 707.5,479.5 C 708.568,478.566 709.901,478.232 711.5,478.5C 711.5,482.833 711.5,487.167 711.5,491.5C 710.517,487.702 710.183,483.702 710.5,479.5C 709.5,479.5 708.5,479.5 707.5,479.5 Z"/></g>
<g><path style="opacity:1" fill="#aaaf6e" d="M 750.5,479.5 C 751.209,478.596 752.209,478.263 753.5,478.5C 753.823,484.69 753.49,490.69 752.5,496.5C 753.117,490.402 752.45,484.735 750.5,479.5 Z"/></g>
<g><path style="opacity:1" fill="#bbbe8f" d="M 762.5,479.5 C 761.687,480.653 760.687,480.653 759.5,479.5C 758.505,485.128 758.171,490.794 758.5,496.5C 757.51,490.69 757.177,484.69 757.5,478.5C 759.292,478.366 760.958,478.699 762.5,479.5 Z"/></g>
<g><path style="opacity:1" fill="#e2e1d0" d="M 758.5,496.5 C 758.171,490.794 758.505,485.128 759.5,479.5C 760.687,480.653 761.687,480.653 762.5,479.5C 763.708,478.766 765.041,478.433 766.5,478.5C 766.5,479.833 766.5,481.167 766.5,482.5C 764.856,482.286 763.356,482.62 762,483.5C 761.501,487.821 761.334,492.154 761.5,496.5C 760.5,496.5 759.5,496.5 758.5,496.5 Z"/></g>
<g><path style="opacity:1" fill="#b7bc8e" d="M 472.5,474.5 C 469.833,474.5 467.167,474.5 464.5,474.5C 464.5,481.833 464.5,489.167 464.5,496.5C 463.508,489.018 463.175,481.352 463.5,473.5C 466.713,473.19 469.713,473.523 472.5,474.5 Z"/></g>
<g><path style="opacity:1" fill="#869507" d="M 467.5,476.5 C 469.927,476.523 472.26,477.023 474.5,478C 475.833,480 475.833,482 474.5,484C 472.19,484.497 469.857,484.663 467.5,484.5C 467.5,481.833 467.5,479.167 467.5,476.5 Z"/></g>
<g><path style="opacity:1" fill="#e3e1d1" d="M 750.5,479.5 C 752.45,484.735 753.117,490.402 752.5,496.5C 750.876,496.64 749.71,495.973 749,494.5C 740.999,498.75 736.166,496.416 734.5,487.5C 736.144,478.825 740.81,476.492 748.5,480.5C 749.183,480.137 749.85,479.804 750.5,479.5 Z"/></g>
<g><path style="opacity:1" fill="#314001" d="M 96.5,479.5 C 97.5,479.5 98.5,479.5 99.5,479.5C 99.5,480.5 99.5,481.5 99.5,482.5C 103.5,483.167 103.5,483.833 99.5,484.5C 99.5,487.5 99.5,490.5 99.5,493.5C 100.675,493.281 101.675,493.614 102.5,494.5C 100.389,495.848 98.5553,495.515 97,493.5C 96.1123,488.751 95.9456,484.084 96.5,479.5 Z"/></g>
<g><path style="opacity:1" fill="#2e3d02" d="M 81.5,479.5 C 83.0481,479.821 83.7148,480.821 83.5,482.5C 87.5,483.167 87.5,483.833 83.5,484.5C 83.3359,487.187 83.5026,489.854 84,492.5C 85.2051,493.071 86.3717,493.738 87.5,494.5C 85.6471,495.76 83.8138,495.76 82,494.5C 81.9853,490.585 81.1519,486.918 79.5,483.5C 80.8532,482.476 81.5198,481.143 81.5,479.5 Z"/></g>
<g><path style="opacity:1" fill="#e1dfce" d="M 529.5,495.5 C 529.44,494.957 529.107,494.624 528.5,494.5C 528.104,498.263 527.104,501.597 525.5,504.5C 524.343,496.344 524.177,488.01 525,479.5C 526.714,478.075 528.047,478.408 529,480.5C 533.877,477.479 538.21,478.146 542,482.5C 544.281,493.384 540.114,497.717 529.5,495.5 Z"/></g>
<g><path style="opacity:1" fill="#87960a" d="M 531.5,481.5 C 539.576,482.009 541.576,485.843 537.5,493C 530,494.833 527.167,492 529,484.5C 529.698,483.309 530.531,482.309 531.5,481.5 Z"/></g>
<g><path style="opacity:1" fill="#324003" d="M 36.5,478.5 C 39.3198,478.248 41.9865,478.748 44.5,480C 45.3366,481.011 45.67,482.178 45.5,483.5C 43.3153,483.112 41.482,482.112 40,480.5C 37.8434,481.385 37.0101,483.052 37.5,485.5C 43.3771,485.206 45.8771,487.872 45,493.5C 40.9456,496.487 37.4456,495.987 34.5,492C 35,491.833 35.5,491.667 36,491.5C 37.3957,492.394 38.8957,493.061 40.5,493.5C 43.3962,492.976 44.0628,491.476 42.5,489C 34.9733,488.354 32.9733,484.854 36.5,478.5 Z"/></g>
<g><path style="opacity:1" fill="#bdc093" d="M 730.5,496.5 C 729.833,465.833 729.167,465.833 728.5,496.5C 727.508,488.684 727.174,480.684 727.5,472.5C 728.833,472.5 730.167,472.5 731.5,472.5C 731.826,480.684 731.492,488.684 730.5,496.5 Z"/></g>
<g><path style="opacity:1" fill="#edeae4" d="M 730.5,496.5 C 729.833,496.5 729.167,496.5 728.5,496.5C 729.167,465.833 729.833,465.833 730.5,496.5 Z"/></g>
<g><path style="opacity:1" fill="#324102" d="M 89.5,482.5 C 90.5,482.5 91.5,482.5 92.5,482.5C 92.5,486.833 92.5,491.167 92.5,495.5C 91.5,495.5 90.5,495.5 89.5,495.5C 89.5,491.167 89.5,486.833 89.5,482.5 Z"/></g>
<g><path style="opacity:1" fill="#e2e0cf" d="M 577.5,478.5 C 580.32,478.248 582.986,478.748 585.5,480C 587.037,481.11 587.703,482.61 587.5,484.5C 585.336,483.522 583.17,482.522 581,481.5C 579.338,481.388 578.171,482.054 577.5,483.5C 580.559,485.586 583.725,487.586 587,489.5C 587.743,491.441 587.576,493.274 586.5,495C 582.549,497.101 578.716,496.934 575,494.5C 574.517,493.552 574.351,492.552 574.5,491.5C 577.658,492.876 580.991,493.542 584.5,493.5C 584.67,492.178 584.337,491.011 583.5,490C 574.364,489.432 572.364,485.599 577.5,478.5 Z"/></g>
<g><path style="opacity:1" fill="#87960c" d="M 741.5,481.5 C 749.576,482.009 751.576,485.843 747.5,493C 739.661,495.15 736.827,492.317 739,484.5C 739.698,483.309 740.531,482.309 741.5,481.5 Z"/></g>
<g><path style="opacity:1" fill="#324002" d="M 113.5,482.5 C 119.468,481.459 122.801,483.792 123.5,489.5C 120.167,489.5 116.833,489.5 113.5,489.5C 113.33,490.822 113.663,491.989 114.5,493C 116.938,493.682 119.105,493.182 121,491.5C 121.5,491.833 122,492.167 122.5,492.5C 119.285,495.953 115.785,496.287 112,493.5C 109.689,489.374 110.189,485.707 113.5,482.5 Z"/></g>
<g><path style="opacity:1" fill="#809004" d="M 114.5,484.5 C 116.977,484.051 118.977,484.717 120.5,486.5C 118.167,487.833 115.833,487.833 113.5,486.5C 113.863,485.817 114.196,485.15 114.5,484.5 Z"/></g>
<g><path style="opacity:1" fill="#adb174" d="M 681.5,484.5 C 682.451,485.919 682.784,487.585 682.5,489.5C 677.637,489.181 672.97,489.514 668.5,490.5C 667.957,490.44 667.624,490.107 667.5,489.5C 672.12,488.507 676.786,488.173 681.5,488.5C 681.5,487.167 681.5,485.833 681.5,484.5 Z"/></g>
<g><path style="opacity:1" fill="#deddc9" d="M 553.5,478.5 C 557.427,479.066 561.427,479.233 565.5,479C 566.931,479.465 568.097,480.299 569,481.5C 570.325,486.401 570.825,491.401 570.5,496.5C 569.167,496.5 567.833,496.5 566.5,496.5C 566.666,492.154 566.499,487.821 566,483.5C 563.791,481.294 561.291,480.96 558.5,482.5C 557.507,487.12 557.173,491.786 557.5,496.5C 556.167,496.5 554.833,496.5 553.5,496.5C 553.5,490.5 553.5,484.5 553.5,478.5 Z"/></g>
<g><path style="opacity:1" fill="#e7e4d8" d="M 627.5,473.5 C 628.833,473.5 630.167,473.5 631.5,473.5C 631.5,478.5 631.5,483.5 631.5,488.5C 632.5,488.5 633.5,488.5 634.5,488.5C 634.5,489.5 634.5,490.5 634.5,491.5C 633.5,491.5 632.5,491.5 631.5,491.5C 631.5,493.167 631.5,494.833 631.5,496.5C 630.5,496.5 629.5,496.5 628.5,496.5C 628.5,494.833 628.5,493.167 628.5,491.5C 624.5,491.5 620.5,491.5 616.5,491.5C 616.351,490.448 616.517,489.448 617,488.5C 620.72,483.62 624.22,478.62 627.5,473.5 Z"/></g>
<g><path style="opacity:1" fill="#889712" d="M 627.5,477.5 C 628.482,480.962 628.815,484.629 628.5,488.5C 625.813,488.664 623.146,488.497 620.5,488C 623.226,484.701 625.559,481.201 627.5,477.5 Z"/></g>
<g><path style="opacity:1" fill="#babf90" d="M 503.5,479.5 C 502.865,488.234 503.532,496.567 505.5,504.5C 504.791,505.404 503.791,505.737 502.5,505.5C 502.174,496.651 502.507,487.984 503.5,479.5 Z"/></g>
<g><path style="opacity:1" fill="#e1e0ce" d="M 487.5,478.5 C 496.842,478.069 500.675,482.402 499,491.5C 496.201,496.287 492.034,497.787 486.5,496C 479.62,489.772 479.954,483.939 487.5,478.5 Z"/></g>
<g><path style="opacity:1" fill="#879508" d="M 488.5,481.5 C 496.576,482.009 498.576,485.843 494.5,493C 486.492,494.655 483.659,491.488 486,483.5C 486.995,482.934 487.828,482.267 488.5,481.5 Z"/></g>
<g><path style="opacity:1" fill="#e3e1d1" d="M 690.5,478.5 C 693.545,478.342 696.379,479.009 699,480.5C 699.71,479.027 700.876,478.36 702.5,478.5C 702.666,485.841 702.5,493.174 702,500.5C 696.182,507.379 690.682,507.046 685.5,499.5C 686.167,499.167 686.833,498.833 687.5,498.5C 689.286,500.453 691.453,501.787 694,502.5C 698.691,501.793 700.357,499.126 699,494.5C 688.989,498.82 684.322,495.487 685,484.5C 686.36,481.977 688.193,479.977 690.5,478.5 Z"/></g>
<g><path style="opacity:1" fill="#88960c" d="M 690.5,481.5 C 699.244,481.413 701.577,485.246 697.5,493C 689.492,494.655 686.659,491.488 689,483.5C 689.717,482.956 690.217,482.289 690.5,481.5 Z"/></g>
<g><path style="opacity:1" fill="#2f3d02" d="M 49.5,482.5 C 51.2371,485.008 52.0704,488.008 52,491.5C 53.5227,493.62 55.3561,493.953 57.5,492.5C 58.487,489.232 58.8204,485.898 58.5,482.5C 59.5,482.5 60.5,482.5 61.5,482.5C 61.5,486.833 61.5,491.167 61.5,495.5C 59.136,494.471 56.8026,494.471 54.5,495.5C 52.8927,495.363 51.5594,494.696 50.5,493.5C 49.5741,489.906 49.2408,486.24 49.5,482.5 Z"/></g>
<g><path style="opacity:1" fill="#303e02" d="M 67.5,478.5 C 67.2148,480.288 67.5481,481.955 68.5,483.5C 77.7741,481.942 80.4408,485.442 76.5,494C 72.855,495.213 69.1883,495.713 65.5,495.5C 64.8833,489.402 65.55,483.735 67.5,478.5 Z"/></g>
<g><path style="opacity:1" fill="#829103" d="M 69.5,484.5 C 75.6426,485.026 76.9759,487.86 73.5,493C 68.5036,493.664 66.6703,491.498 68,486.5C 68.7172,485.956 69.2172,485.289 69.5,484.5 Z"/></g>
<g><path style="opacity:1" fill="#e4e2d4" d="M 681.5,484.5 C 681.5,485.833 681.5,487.167 681.5,488.5C 676.786,488.173 672.12,488.507 667.5,489.5C 667.624,490.107 667.957,490.44 668.5,490.5C 669.244,492.453 670.744,493.453 673,493.5C 675.738,493.424 678.072,492.424 680,490.5C 681.4,492.906 680.567,494.739 677.5,496C 669.838,498.163 665.505,495.33 664.5,487.5C 665.642,480.514 669.642,477.68 676.5,479C 679.079,480.076 680.746,481.909 681.5,484.5 Z"/></g>
<g><path style="opacity:1" fill="#86960c" d="M 670.5,481.5 C 675.175,480.339 677.841,482.006 678.5,486.5C 675.167,486.5 671.833,486.5 668.5,486.5C 668.392,484.486 669.058,482.82 670.5,481.5 Z"/></g>
<g><path style="opacity:1" fill="#e4e2d3" d="M 505.5,504.5 C 503.532,496.567 502.865,488.234 503.5,479.5C 504.793,478.355 505.959,478.689 507,480.5C 517.286,476.774 521.62,480.441 520,491.5C 517.149,496.48 512.982,497.813 507.5,495.5C 506.833,498.642 506.166,501.642 505.5,504.5 Z"/></g>
<g><path style="opacity:1" fill="#879609" d="M 509.5,481.5 C 517.576,482.009 519.576,485.843 515.5,493C 508,494.833 505.167,492 507,484.5C 507.698,483.309 508.531,482.309 509.5,481.5 Z"/></g>
<g><path style="opacity:1" fill="#e7e5d9" d="M 707.5,479.5 C 708.5,479.5 709.5,479.5 710.5,479.5C 710.183,483.702 710.517,487.702 711.5,491.5C 714.217,494.145 717.05,494.145 720,491.5C 720.499,487.179 720.666,482.846 720.5,478.5C 721.5,478.5 722.5,478.5 723.5,478.5C 723.5,484.5 723.5,490.5 723.5,496.5C 720.699,495.302 717.866,495.302 715,496.5C 711.279,496.779 708.945,495.112 708,491.5C 707.501,487.514 707.334,483.514 707.5,479.5 Z"/></g>
<g><path style="opacity:1" fill="#b9ba89" d="M 529.5,495.5 C 528.521,498.625 528.187,501.958 528.5,505.5C 527.209,505.737 526.209,505.404 525.5,504.5C 527.104,501.597 528.104,498.263 528.5,494.5C 529.107,494.624 529.44,494.957 529.5,495.5 Z"/></g>
<g><path style="opacity:1" fill="#dcd8be" d="M 510.5,524.5 C 512.337,524.639 512.67,525.306 511.5,526.5C 510.702,526.043 510.369,525.376 510.5,524.5 Z"/></g>
<g><path style="opacity:1" fill="#2f3e02" d="M 131.5,524.5 C 133.048,524.821 133.715,525.821 133.5,527.5C 138.833,528.167 138.833,528.833 133.5,529.5C 133.336,532.187 133.503,534.854 134,537.5C 135.205,538.071 136.372,538.738 137.5,539.5C 135.647,540.76 133.814,540.76 132,539.5C 131.985,535.585 131.152,531.918 129.5,528.5C 130.853,527.476 131.52,526.143 131.5,524.5 Z"/></g>
<g><path style="opacity:1" fill="#cfcca7" d="M 571.5,524.5 C 573.337,524.639 573.67,525.306 572.5,526.5C 571.702,526.043 571.369,525.376 571.5,524.5 Z"/></g>
<g><path style="opacity:1" fill="#2f3c02" d="M 43.5,524.5 C 47.1697,526.243 47.503,528.576 44.5,531.5C 47.4563,534.856 47.1229,537.689 43.5,540C 40.854,540.497 38.1873,540.664 35.5,540.5C 35.5,535.167 35.5,529.833 35.5,524.5C 38.1667,524.5 40.8333,524.5 43.5,524.5 Z"/></g>
<g><path style="opacity:1" fill="#313f03" d="M 96.5,524.5 C 98.0481,524.821 98.7148,525.821 98.5,527.5C 102.5,528.167 102.5,528.833 98.5,529.5C 98.5,532.5 98.5,535.5 98.5,538.5C 101.988,538.899 102.154,539.566 99,540.5C 97.6739,540.245 96.6739,539.578 96,538.5C 95.7537,535.11 95.2537,531.777 94.5,528.5C 95.8532,527.476 96.5198,526.143 96.5,524.5 Z"/></g>
<g><path style="opacity:1" fill="#d9d7c1" d="M 540.5,524.5 C 541.833,524.5 543.167,524.5 544.5,524.5C 544.827,529.214 544.493,533.88 543.5,538.5C 542.919,533.659 541.919,528.993 540.5,524.5 Z"/></g>
<g><path style="opacity:1" fill="#eeeae2" d="M 564.5,525.5 C 564.5,529.5 564.5,533.5 564.5,537.5C 566.167,537.5 567.833,537.5 569.5,537.5C 567.735,538.461 565.735,538.795 563.5,538.5C 563.182,533.968 563.515,529.634 564.5,525.5 Z"/></g>
<g><path style="opacity:1" fill="#b2b57f" d="M 564.5,525.5 C 563.515,529.634 563.182,533.968 563.5,538.5C 565.735,538.795 567.735,538.461 569.5,537.5C 567.833,537.5 566.167,537.5 564.5,537.5C 564.5,533.5 564.5,529.5 564.5,525.5 Z"/></g>
<g><path style="opacity:1" fill="#2e3c02" d="M 75.5,523.5 C 76.8142,525.915 77.4809,528.748 77.5,532C 77.1667,534.833 76.8333,537.667 76.5,540.5C 75.676,538.252 74.676,538.086 73.5,540C 66.2149,540.962 63.3816,537.795 65,530.5C 67.6121,527.424 70.7787,526.757 74.5,528.5C 75.4519,526.955 75.7852,525.288 75.5,523.5 Z"/></g>
<g><path style="opacity:1" fill="#d5d6bb" d="M 485.5,527.5 C 487.341,528.673 489.174,528.673 491,527.5C 495.84,530.036 496.673,533.536 493.5,538C 491.527,538.495 489.527,538.662 487.5,538.5C 487.785,540.288 487.452,541.955 486.5,543.5C 485.505,538.208 485.172,532.875 485.5,527.5 Z"/></g>
<g><path style="opacity:1" fill="#d7d6bc" d="M 518.5,527.5 C 520.993,527.329 522.826,528.329 524,530.5C 523.995,541.167 523.328,541.167 522,530.5C 520.542,529.253 519.042,529.253 517.5,530.5C 516.833,533.167 516.167,535.833 515.5,538.5C 514.513,535.232 514.18,531.898 514.5,528.5C 516.099,528.768 517.432,528.434 518.5,527.5 Z"/></g>
<g><path style="opacity:1" fill="#d6d5b9" d="M 587.5,524.5 C 588.943,525.335 589.943,526.668 590.5,528.5C 592.751,527.135 594.751,527.469 596.5,529.5C 597.748,532.494 597.748,535.494 596.5,538.5C 595.682,535.893 595.182,533.226 595,530.5C 593.542,529.253 592.042,529.253 590.5,530.5C 589.833,533.167 589.167,535.833 588.5,538.5C 587.507,533.88 587.173,529.214 587.5,524.5 Z"/></g>
<g><path style="opacity:1" fill="#819103" d="M 37.5,525.5 C 41.938,524.425 43.938,526.092 43.5,530.5C 41.5,530.5 39.5,530.5 37.5,530.5C 37.5,528.833 37.5,527.167 37.5,525.5 Z"/></g>
<g><path style="opacity:1" fill="#d9d9c0" d="M 462.5,525.5 C 465.448,525.223 468.281,525.556 471,526.5C 472.167,531.835 470,534.169 464.5,533.5C 464.785,535.288 464.452,536.955 463.5,538.5C 462.508,534.217 462.174,529.884 462.5,525.5 Z"/></g>
<g><path style="opacity:1" fill="#889813" d="M 464.5,526.5 C 468.5,525.833 470.167,527.5 469.5,531.5C 467.833,531.5 466.167,531.5 464.5,531.5C 464.5,529.833 464.5,528.167 464.5,526.5 Z"/></g>
<g><path style="opacity:1" fill="#dedcc8" d="M 498.5,543.5 C 498.179,538.305 498.513,533.305 499.5,528.5C 500.078,529.547 500.744,529.38 501.5,528C 507.313,527.829 509.48,530.662 508,536.5C 505.581,539.737 502.915,540.07 500,537.5C 499.809,539.708 499.309,541.708 498.5,543.5 Z"/></g>
<g><path style="opacity:1" fill="#c7c8a0" d="M 571.5,527.5 C 572.787,528.871 573.453,530.705 573.5,533C 573.167,534.833 572.833,536.667 572.5,538.5C 571.511,534.893 571.177,531.226 571.5,527.5 Z"/></g>
<g><path style="opacity:1" fill="#4d5c01" d="M 43.5,524.5 C 40.8333,524.5 38.1667,524.5 35.5,524.5C 35.5,529.833 35.5,535.167 35.5,540.5C 34.5111,535.025 34.1778,529.358 34.5,523.5C 37.7131,523.19 40.7131,523.523 43.5,524.5 Z"/></g>
<g><path style="opacity:1" fill="#313e02" d="M 80.5,527.5 C 81.4959,527.414 82.3292,527.748 83,528.5C 84.0718,531.218 85.2384,533.885 86.5,536.5C 87.7616,533.885 88.9282,531.218 90,528.5C 90.8928,527.289 91.7261,527.289 92.5,528.5C 90.147,534.532 87.8136,540.532 85.5,546.5C 84.448,546.649 83.448,546.483 82.5,546C 83.8476,544.426 84.5142,542.593 84.5,540.5C 83.4464,536.065 82.113,531.732 80.5,527.5 Z"/></g>
<g><path style="opacity:1" fill="#2f3d02" d="M 52.5,527.5 C 62.3144,527.113 64.6477,530.946 59.5,539C 51.6851,541.522 48.5184,538.689 50,530.5C 51.045,529.627 51.8783,528.627 52.5,527.5 Z"/></g>
<g><path style="opacity:1" fill="#819003" d="M 53.5,529.5 C 59.6426,530.026 60.9759,532.86 57.5,538C 52.5036,538.664 50.6703,536.498 52,531.5C 52.7172,530.956 53.2172,530.289 53.5,529.5 Z"/></g>
<g><path style="opacity:1" fill="#808f02" d="M 68.5,529.5 C 75.4438,529.272 77.1105,532.106 73.5,538C 71.7412,538.798 70.0745,538.631 68.5,537.5C 67.1764,534.802 67.1764,532.136 68.5,529.5 Z"/></g>
<g><path style="opacity:1" fill="#313e02" d="M 117.5,528.5 C 118.251,527.427 119.251,527.26 120.5,528C 122.167,532.667 123.833,532.667 125.5,528C 126.5,527.333 127.5,527.333 128.5,528C 127.044,529.745 125.711,531.578 124.5,533.5C 125.635,535.799 126.968,537.966 128.5,540C 127.5,540.667 126.5,540.667 125.5,540C 123.915,535.839 122.249,535.672 120.5,539.5C 119.635,540.583 118.635,540.749 117.5,540C 122.79,536.033 122.79,532.2 117.5,528.5 Z"/></g>
<g><path style="opacity:1" fill="#b6b982" d="M 499.5,528.5 C 498.513,533.305 498.179,538.305 498.5,543.5C 497.185,538.32 497.185,532.986 498.5,527.5C 499.107,527.624 499.44,527.957 499.5,528.5 Z"/></g>
<g><path style="opacity:1" fill="#899819" d="M 501.5,529.5 C 506.378,529.535 507.711,531.868 505.5,536.5C 502.569,537.703 500.569,536.703 499.5,533.5C 500.18,532.14 500.847,530.807 501.5,529.5 Z"/></g>
<g><path style="opacity:1" fill="#d9d7bf" d="M 528.5,527.5 C 531.257,527.378 533.257,528.545 534.5,531C 532.65,530.405 530.65,529.905 528.5,529.5C 528.5,530.5 528.5,531.5 528.5,532.5C 532.987,532.141 534.654,533.974 533.5,538C 531.231,538.758 529.064,538.591 527,537.5C 526.312,536.668 526.479,536.002 527.5,535.5C 529.249,538.127 530.916,538.127 532.5,535.5C 526.865,534.605 525.532,531.938 528.5,527.5 Z"/></g>
<g><path style="opacity:1" fill="#334002" d="M 106.5,527.5 C 112.643,525.99 115.976,528.323 116.5,534.5C 113.167,534.5 109.833,534.5 106.5,534.5C 106.33,535.822 106.663,536.989 107.5,538C 109.938,538.682 112.105,538.182 114,536.5C 114.5,536.833 115,537.167 115.5,537.5C 112.285,540.953 108.785,541.287 105,538.5C 102.842,534.461 103.342,530.794 106.5,527.5 Z"/></g>
<g><path style="opacity:1" fill="#829202" d="M 107.5,529.5 C 109.977,529.051 111.977,529.717 113.5,531.5C 111.167,532.833 108.833,532.833 106.5,531.5C 106.863,530.817 107.196,530.15 107.5,529.5 Z"/></g>
<g><path style="opacity:1" fill="#899614" d="M 488.5,529.5 C 490.144,529.286 491.644,529.62 493,530.5C 493.758,532.769 493.591,534.936 492.5,537C 491.101,537.595 489.768,537.428 488.5,536.5C 487.286,534.141 487.286,531.808 488.5,529.5 Z"/></g>
<g><path style="opacity:1" fill="#d4d4b7" d="M 599.5,525.5 C 601.818,525.657 603.484,526.824 604.5,529C 601.958,532.131 601.958,535.131 604.5,538C 602.567,538.783 601.067,538.283 600,536.5C 599.095,532.745 598.928,529.079 599.5,525.5 Z"/></g>
<g><path style="opacity:1" fill="#7d8c03" d="M 37.5,532.5 C 42.4786,531.65 44.4786,533.483 43.5,538C 41.5273,538.495 39.5273,538.662 37.5,538.5C 37.5,536.5 37.5,534.5 37.5,532.5 Z"/></g>
<g><path style="opacity:1" fill="#d1d2b7" d="M 510.5,528.5 C 511.777,529.694 512.444,531.36 512.5,533.5C 512.167,535.167 511.833,536.833 511.5,538.5C 510.513,535.232 510.18,531.898 510.5,528.5 Z"/></g>
<g><path style="opacity:1" fill="#d9d9c1" d="M 552.5,524.5 C 553.89,527.853 555.224,531.353 556.5,535C 555.23,535.9 554.23,537.066 553.5,538.5C 552.614,537.675 552.281,536.675 552.5,535.5C 550.5,535.5 548.5,535.5 546.5,535.5C 548.214,531.743 550.214,528.077 552.5,524.5 Z"/></g>
<g><path style="opacity:1" fill="#869812" d="M 551.5,528.5 C 552.451,529.919 552.784,531.585 552.5,533.5C 551.127,533.657 549.793,533.49 548.5,533C 550.141,531.871 551.141,530.371 551.5,528.5 Z"/></g>
<g><path style="opacity:1" fill="#d7d5bb" d="M 476.5,527.5 C 483.582,528.402 485.249,531.902 481.5,538C 474.562,540.06 471.729,537.56 473,530.5C 474.145,529.364 475.312,528.364 476.5,527.5 Z"/></g>
<g><path style="opacity:1" fill="#879610" d="M 475.5,529.5 C 480.486,529.305 482.152,531.472 480.5,536C 474.731,537.178 473.064,535.011 475.5,529.5 Z"/></g>
<g><path style="opacity:1" fill="#d4d5b9" d="M 578.5,527.5 C 580.584,528.248 582.584,528.248 584.5,527.5C 585.662,532.131 585.828,536.798 585,541.5C 581.457,544.38 578.29,544.047 575.5,540.5C 575.833,540.167 576.167,539.833 576.5,539.5C 578.523,541.173 580.856,541.84 583.5,541.5C 583.5,540.5 583.5,539.5 583.5,538.5C 577.062,540.216 574.228,537.883 575,531.5C 575.69,529.65 576.856,528.316 578.5,527.5 Z"/></g>
<g><path style="opacity:1" fill="#89991d" d="M 578.5,529.5 C 581.352,529.352 583.019,530.686 583.5,533.5C 581.167,538.833 578.833,538.833 576.5,533.5C 576.752,531.927 577.418,530.594 578.5,529.5 Z"/></g>
<g><path style="opacity:1" fill="#dad7c6" d="M 511.5,560.5 C 513.337,560.639 513.67,561.306 512.5,562.5C 511.702,562.043 511.369,561.376 511.5,560.5 Z"/></g>
<g><path style="opacity:1" fill="#dbd8c2" d="M 573.5,560.5 C 575.337,560.639 575.67,561.306 574.5,562.5C 573.702,562.043 573.369,561.376 573.5,560.5 Z"/></g>
<g><path style="opacity:1" fill="#d9dbc3" d="M 641.5,560.5 C 643.337,560.639 643.67,561.306 642.5,562.5C 641.702,562.043 641.369,561.376 641.5,560.5 Z"/></g>
<g><path style="opacity:1" fill="#d3d2b6" d="M 590.5,560.5 C 591.376,560.369 592.043,560.702 592.5,561.5C 590.983,564.475 591.649,565.142 594.5,563.5C 596.029,563.529 597.196,564.196 598,565.5C 598.797,568.721 598.297,571.721 596.5,574.5C 595.969,571.901 595.802,569.235 596,566.5C 594.667,565.167 593.333,565.167 592,566.5C 591.061,569.121 590.228,571.788 589.5,574.5C 588.697,569.775 589.031,565.109 590.5,560.5 Z"/></g>
<g><path style="opacity:1" fill="#d7d7bd" d="M 601.5,561.5 C 603.606,561.679 605.272,562.679 606.5,564.5C 602.225,566.992 601.559,570.159 604.5,574C 603.207,574.49 601.873,574.657 600.5,574.5C 600.777,569.978 601.111,565.644 601.5,561.5 Z"/></g>
<g><path style="opacity:1" fill="#d3d3b5" d="M 626.5,563.5 C 629.106,564.136 631.606,564.136 634,563.5C 634.59,567.297 634.09,570.964 632.5,574.5C 629.998,574.379 627.332,574.212 624.5,574C 622.675,572.534 622.175,570.701 623,568.5C 623.997,566.677 625.164,565.01 626.5,563.5 Z"/></g>
<g><path style="opacity:1" fill="#324003" d="M 84.5,559.5 C 85.5,559.5 86.5,559.5 87.5,559.5C 87.5,560.833 87.5,562.167 87.5,563.5C 91.5,564.167 91.5,564.833 87.5,565.5C 87.5,568.5 87.5,571.5 87.5,574.5C 88.675,574.281 89.675,574.614 90.5,575.5C 88.3886,576.848 86.5553,576.515 85,574.5C 84.0396,569.426 83.8729,564.426 84.5,559.5 Z"/></g>
<g><path style="opacity:1" fill="#dad9bf" d="M 476.5,563.5 C 482.099,563.382 484.266,566.049 483,571.5C 479.952,575.01 476.619,575.343 473,572.5C 472.333,570.833 472.333,569.167 473,567.5C 474.376,566.295 475.542,564.962 476.5,563.5 Z"/></g>
<g><path style="opacity:1" fill="#2f3d02" d="M 71.5,563.5 C 80.8053,562.951 83.472,566.785 79.5,575C 73.1776,578.292 69.5109,576.459 68.5,569.5C 68.9837,567.199 69.9837,565.199 71.5,563.5 Z"/></g>
<g><path style="opacity:1" fill="#d8d8bf" d="M 463.5,561.5 C 466.187,561.336 468.854,561.503 471.5,562C 472.688,567.326 470.354,569.826 464.5,569.5C 464.769,571.429 464.269,573.095 463,574.5C 462.466,570.141 462.632,565.808 463.5,561.5 Z"/></g>
<g><path style="opacity:1" fill="#8b981e" d="M 465.5,562.5 C 469.676,561.831 471.009,563.331 469.5,567C 468.207,567.49 466.873,567.657 465.5,567.5C 465.5,565.833 465.5,564.167 465.5,562.5 Z"/></g>
<g><path style="opacity:1" fill="#8a981b" d="M 477.5,565.5 C 481.669,566.519 482.503,568.853 480,572.5C 476.889,574.272 475.056,573.439 474.5,570C 474.557,567.791 475.557,566.291 477.5,565.5 Z"/></g>
<g><path style="opacity:1" fill="#d8d7be" d="M 515.5,563.5 C 524.41,562.456 526.744,566.123 522.5,574.5C 521.969,571.901 521.802,569.235 522,566.5C 520.062,565.14 518.396,565.473 517,567.5C 516.624,570.01 515.79,572.343 514.5,574.5C 514.167,574.167 513.833,573.833 513.5,573.5C 514.26,570.179 514.926,566.846 515.5,563.5 Z"/></g>
<g><path style="opacity:1" fill="#d3d4b7" d="M 641.5,563.5 C 642.497,563.47 643.164,563.97 643.5,565C 642.937,568.326 641.937,571.493 640.5,574.5C 640.038,570.882 640.372,567.215 641.5,563.5 Z"/></g>
<g><path style="opacity:1" fill="#7f8d02" d="M 72.5,565.5 C 78.487,564.977 80.487,567.477 78.5,573C 76.3763,574.582 74.2096,574.749 72,573.5C 71.2782,570.739 71.4448,568.073 72.5,565.5 Z"/></g>
<g><path style="opacity:1" fill="#d3d3b6" d="M 486.5,563.5 C 489.127,564.105 491.793,564.605 494.5,565C 496.821,568.123 496.487,571.123 493.5,574C 491.167,574.333 488.833,574.667 486.5,575C 485.91,576.509 485.244,578.009 484.5,579.5C 483.939,574.084 484.606,568.751 486.5,563.5 Z"/></g>
<g><path style="opacity:1" fill="#87970e" d="M 490.5,565.5 C 492.722,565.559 493.722,566.725 493.5,569C 493.116,572.745 491.282,573.911 488,572.5C 486.916,569.341 487.75,567.008 490.5,565.5 Z"/></g>
<g><path style="opacity:1" fill="#d8d6be" d="M 613.5,561.5 C 614.693,561.97 615.36,562.97 615.5,564.5C 614.98,567.912 614.147,571.245 613,574.5C 612.466,570.141 612.632,565.808 613.5,561.5 Z"/></g>
<g><path style="opacity:1" fill="#d5d6bc" d="M 618.5,561.5 C 620.078,562.066 621.412,563.066 622.5,564.5C 621.675,565.386 620.675,565.719 619.5,565.5C 619.756,567.792 619.423,569.959 618.5,572C 622.515,574.107 622.182,574.773 617.5,574C 616.978,573.439 616.645,572.772 616.5,572C 617.773,569.484 617.773,566.984 616.5,564.5C 617.612,563.735 618.279,562.735 618.5,561.5 Z"/></g>
<g><path style="opacity:1" fill="#87960a" d="M 627.5,565.5 C 631.225,565.78 632.392,567.78 631,571.5C 628.029,574.587 626.196,574.087 625.5,570C 625.519,568.167 626.185,566.667 627.5,565.5 Z"/></g>
<g><path style="opacity:1" fill="#314002" d="M 53.5,563.5 C 55.2371,566.008 56.0704,569.008 56,572.5C 57.7328,574.602 59.7328,574.935 62,573.5C 62.4983,570.183 62.665,566.85 62.5,563.5C 63.5,563.5 64.5,563.5 65.5,563.5C 65.5,567.833 65.5,572.167 65.5,576.5C 63.136,575.471 60.8026,575.471 58.5,576.5C 56.8927,576.363 55.5594,575.696 54.5,574.5C 53.5741,570.906 53.2408,567.24 53.5,563.5 Z"/></g>
<g><path style="opacity:1" fill="#dadbc3" d="M 542.5,562.5 C 543.209,561.596 544.209,561.263 545.5,561.5C 545.456,566.118 544.456,570.452 542.5,574.5C 542.729,570.479 542.729,566.479 542.5,562.5 Z"/></g>
<g><path style="opacity:1" fill="#d5d4bb" d="M 554.5,560.5 C 555.586,560.62 556.253,561.287 556.5,562.5C 555.29,565.193 555.29,567.859 556.5,570.5C 555.354,571.719 554.354,573.052 553.5,574.5C 552.614,573.675 552.281,572.675 552.5,571.5C 550.143,571.663 547.81,571.497 545.5,571C 548.336,567.333 551.336,563.833 554.5,560.5 Z"/></g>
<g><path style="opacity:1" fill="#879918" d="M 552.5,564.5 C 553.451,565.919 553.784,567.585 553.5,569.5C 552.127,569.657 550.793,569.49 549.5,569C 550.883,567.729 551.883,566.229 552.5,564.5 Z"/></g>
<g><path style="opacity:1" fill="#d8d7bd" d="M 498.5,563.5 C 501.085,564.072 503.751,564.239 506.5,564C 509.955,569.368 508.622,573.202 502.5,575.5C 501.264,574.754 499.93,574.421 498.5,574.5C 498.785,576.288 498.452,577.955 497.5,579.5C 497.167,578.5 496.833,577.5 496.5,576.5C 497.277,572.173 497.944,567.84 498.5,563.5 Z"/></g>
<g><path style="opacity:1" fill="#8b991f" d="M 502.5,565.5 C 506.225,565.78 507.392,567.78 506,571.5C 502.752,574.462 500.585,573.795 499.5,569.5C 499.787,567.557 500.787,566.223 502.5,565.5 Z"/></g>
<g><path style="opacity:1" fill="#d7d5bd" d="M 511.5,563.5 C 512.497,563.47 513.164,563.97 513.5,565C 512.437,568.153 511.437,571.32 510.5,574.5C 509.833,570.805 510.167,567.139 511.5,563.5 Z"/></g>
<g><path style="opacity:1" fill="#d3d5b9" d="M 572.5,564.5 C 573.649,564.791 574.316,565.624 574.5,567C 574.149,569.589 573.482,572.089 572.5,574.5C 571.599,571.205 571.599,567.872 572.5,564.5 Z"/></g>
<g><path style="opacity:1" fill="#d6d6bb" d="M 637.5,560.5 C 638.586,560.62 639.253,561.287 639.5,562.5C 638.753,566.571 637.753,570.571 636.5,574.5C 636.167,573.5 635.833,572.5 635.5,571.5C 636.169,567.82 636.836,564.154 637.5,560.5 Z"/></g>
<g><path style="opacity:1" fill="#dcdac4" d="M 528.5,563.5 C 530.722,563.178 532.556,563.845 534,565.5C 534.688,566.332 534.521,566.998 533.5,567.5C 531.991,565.085 530.324,564.919 528.5,567C 530.846,568.013 532.513,569.679 533.5,572C 532.956,573.947 531.623,574.78 529.5,574.5C 526.524,574.87 525.524,573.87 526.5,571.5C 527.842,573.005 529.508,573.672 531.5,573.5C 531.5,572.5 531.5,571.5 531.5,570.5C 526.391,569.831 525.391,567.498 528.5,563.5 Z"/></g>
<g><path style="opacity:1" fill="#dbd9c5" d="M 564.5,561.5 C 565.675,561.281 566.675,561.614 567.5,562.5C 566.079,566.028 565.412,569.694 565.5,573.5C 566.873,573.343 568.207,573.51 569.5,574C 567.527,574.495 565.527,574.662 563.5,574.5C 563.739,570.158 564.073,565.824 564.5,561.5 Z"/></g>
<g><path style="opacity:1" fill="#d7d6bd" d="M 648.5,563.5 C 651.278,563.022 653.278,564.022 654.5,566.5C 654.167,566.833 653.833,567.167 653.5,567.5C 651.287,564.92 649.12,564.92 647,567.5C 646.257,569.441 646.424,571.274 647.5,573C 649.655,573.116 651.655,572.783 653.5,572C 649.058,576.928 646.058,576.261 644.5,570C 644.434,566.913 645.768,564.746 648.5,563.5 Z"/></g>
<g><path style="opacity:1" fill="#313f02" d="M 95.5,563.5 C 101.643,561.99 104.976,564.323 105.5,570.5C 102.167,570.5 98.8333,570.5 95.5,570.5C 95.33,571.822 95.6634,572.989 96.5,574C 98.9383,574.682 101.105,574.182 103,572.5C 103.5,572.833 104,573.167 104.5,573.5C 101.285,576.953 97.7846,577.287 94,574.5C 91.8417,570.461 92.3417,566.794 95.5,563.5 Z"/></g>
<g><path style="opacity:1" fill="#819103" d="M 96.5,565.5 C 98.9775,565.051 100.977,565.717 102.5,567.5C 100.167,568.833 97.8333,568.833 95.5,567.5C 95.8627,566.817 96.1961,566.15 96.5,565.5 Z"/></g>
<g><path style="opacity:1" fill="#dad9c4" d="M 579.5,563.5 C 581.861,563.674 584.194,564.007 586.5,564.5C 586.737,569.837 585.404,574.67 582.5,579C 580.5,579.667 578.5,579.667 576.5,579C 575.483,577.951 575.316,576.784 576,575.5C 578.853,578.318 581.353,578.152 583.5,575C 583.333,574.5 583.167,574 583,573.5C 577.107,575.647 574.773,573.647 576,567.5C 577.376,566.295 578.542,564.962 579.5,563.5 Z"/></g>
<g><path style="opacity:1" fill="#8a981b" d="M 579.5,565.5 C 584.255,565.156 585.588,567.156 583.5,571.5C 580.439,574.531 578.439,574.031 577.5,570C 577.519,568.167 578.185,566.667 579.5,565.5 Z"/></g>
<g><path style="opacity:1" fill="#303d02" d="M 40.5,559.5 C 46.7848,558.956 50.1181,561.789 50.5,568C 50.4684,570.895 49.4684,573.395 47.5,575.5C 48.3128,576.814 49.3128,577.981 50.5,579C 47.2457,577.27 43.579,576.27 39.5,576C 34.9315,573.459 33.4315,569.625 35,564.5C 36.1065,561.887 37.9399,560.22 40.5,559.5 Z"/></g>
<g><path style="opacity:1" fill="#818f03" d="M 40.5,561.5 C 46.1327,561.961 48.6327,564.961 48,570.5C 44.74,575.285 41.0734,575.619 37,571.5C 35.7563,567.191 36.9229,563.858 40.5,561.5 Z"/></g>
<g><path style="opacity:1" fill="#aab475" d="M 1121.5,-0.5 C 1121.83,-0.5 1122.17,-0.5 1122.5,-0.5C 1122.5,264.167 1122.5,528.833 1122.5,793.5C 748.167,793.5 373.833,793.5 -0.5,793.5C -0.5,793.167 -0.5,792.833 -0.5,792.5C 373.5,792.5 747.5,792.5 1121.5,792.5C 1121.5,528.167 1121.5,263.833 1121.5,-0.5 Z"/></g>
</svg>
