<?xml version="1.0" standalone="no"?>
<!DOCTYPE svg PUBLIC "-//W3C//DTD SVG 20010904//EN"
 "http://www.w3.org/TR/2001/REC-SVG-20010904/DTD/svg10.dtd">
<svg version="1.0" xmlns="http://www.w3.org/2000/svg"
 width="4501.000000pt" height="4501.000000pt" viewBox="0 0 4501.000000 4501.000000"
 preserveAspectRatio="xMidYMid meet">

<g transform="translate(0.000000,4501.000000) scale(0.100000,-0.100000)"
fill="#000000" stroke="none">
<path d="M7070 42425 c-151 -24 -337 -92 -457 -168 -24 -15 -45 -27 -48 -27
-3 0 -36 -24 -73 -54 -175 -140 -291 -286 -383 -480 -55 -117 -83 -206 -104
-330 -13 -79 -15 -2150 -15 -18956 0 -16806 2 -18877 15 -18956 46 -267 175
-514 370 -707 52 -51 180 -157 190 -157 3 0 24 -12 48 -27 124 -78 307 -144
466 -168 83 -13 2113 -15 15437 -15 14034 0 15349 1 15435 16 101 17 266 69
355 111 74 35 216 130 289 195 116 101 247 273 308 402 42 89 94 254 111 355
15 87 16 1690 16 18951 0 17261 -1 18864 -16 18951 -17 101 -69 266 -111 355
-61 129 -192 301 -308 402 -73 64 -214 160 -287 194 -67 32 -212 82 -303 105
-67 16 -840 17 -15460 19 -12750 2 -15405 0 -15475 -11z m30920 -222 c223 -64
361 -144 511 -293 165 -163 263 -354 304 -584 13 -80 15 -2022 15 -18916 0
-16894 -2 -18836 -15 -18916 -41 -230 -139 -419 -304 -585 -164 -163 -358
-266 -580 -304 -73 -13 -1981 -15 -15411 -15 -13500 0 -15338 2 -15412 15
-232 40 -434 150 -602 325 -128 135 -216 291 -268 482 l-23 83 0 18915 0
18915 23 83 c52 190 136 342 266 479 164 174 369 286 599 328 59 11 2857 13
15447 12 l15375 -2 75 -22z"/>
<path d="M23790 40823 c-90 -9 -266 -47 -368 -79 -835 -259 -1396 -1057 -1358
-1931 14 -320 104 -632 260 -897 304 -517 825 -865 1416 -947 135 -19 410 -17
547 4 797 122 1432 714 1607 1498 37 167 49 310 43 494 -10 297 -73 541 -208
808 -97 195 -213 350 -380 513 -308 299 -688 480 -1119 534 -78 9 -360 12
-440 3z m365 -24 c294 -25 563 -111 818 -261 245 -144 464 -353 630 -601 72
-108 172 -317 216 -453 160 -490 111 -1048 -132 -1494 -339 -623 -985 -1010
-1687 -1010 -777 0 -1473 469 -1773 1195 -90 218 -137 466 -137 723 1 298 60
558 190 828 341 708 1097 1141 1875 1073z"/>
<path d="M23775 40380 c-184 -35 -259 -58 -414 -131 -434 -204 -740 -603 -828
-1082 -24 -128 -24 -409 1 -532 92 -465 378 -846 794 -1058 188 -96 347 -140
561 -157 608 -46 1177 278 1446 825 65 133 100 235 132 385 27 129 25 440 -5
572 -101 457 -385 829 -788 1032 -118 59 -239 103 -349 128 -103 22 -462 34
-550 18z m-29 -312 l204 -163 0 -200 0 -201 -240 -174 c-131 -96 -247 -177
-256 -179 -9 -1 -98 14 -198 34 l-181 37 -106 252 -106 251 46 59 c64 81 203
211 292 273 89 61 287 162 338 172 2 1 95 -72 207 -161z m815 122 c193 -82
412 -251 540 -417 l40 -52 -91 -243 c-51 -134 -95 -246 -99 -250 -3 -4 -89
-24 -191 -44 l-185 -38 -247 180 -248 179 3 205 2 204 195 153 c107 84 199
153 203 153 4 0 39 -13 78 -30z m-1309 -1135 l185 -38 86 -267 c48 -147 87
-273 87 -280 0 -8 -182 -300 -204 -327 -1 -1 -123 -13 -271 -26 l-270 -24 -22
25 c-93 109 -213 419 -228 587 l-5 60 217 167 c120 92 223 165 229 163 5 -1
93 -20 196 -40z m1847 -72 c77 -60 173 -134 215 -166 64 -49 76 -63 76 -87 0
-36 -24 -153 -51 -245 -23 -79 -136 -316 -171 -357 l-23 -28 -235 16 c-129 8
-245 17 -258 20 -16 3 -50 46 -117 149 -51 79 -99 153 -105 165 -9 16 5 69 76
287 48 148 90 271 93 276 7 7 309 75 343 76 10 1 81 -47 157 -106z m-680 -755
l105 -162 -88 -261 -87 -261 -57 -12 c-120 -24 -249 -34 -357 -28 -100 6 -240
27 -249 37 -2 2 -42 120 -89 263 -68 203 -84 263 -76 278 6 10 53 84 104 163
l95 145 297 0 298 0 104 -162z"/>
<path d="M9561 32168 c-41 -11 -128 -66 -158 -99 -12 -13 -34 -49 -50 -79 -25
-50 -28 -64 -28 -160 0 -122 16 -169 85 -244 188 -204 536 -119 605 149 19 75
19 115 0 190 -29 111 -113 201 -224 240 -49 17 -176 19 -230 3z m214 -107 c88
-40 142 -143 133 -255 -6 -74 -33 -130 -86 -178 -86 -78 -239 -72 -319 14 -69
74 -87 214 -40 311 31 61 48 79 103 107 52 26 154 26 209 1z"/>
<path d="M10140 31830 l0 -350 55 0 55 0 0 258 0 257 171 -257 170 -258 60 0
59 0 -2 348 -3 347 -57 3 -58 3 -2 -255 -3 -255 -169 254 -169 255 -53 0 -54
0 0 -350z"/>
<path d="M10860 31830 l0 -350 190 0 190 0 0 45 0 45 -135 0 -135 0 0 110 0
110 120 0 120 0 0 45 0 45 -120 0 -120 0 0 100 0 100 135 0 135 0 0 50 0 50
-190 0 -190 0 0 -350z"/>
<path d="M11650 31830 l0 -350 55 0 55 0 0 258 0 257 171 -257 170 -258 60 0
59 0 -2 348 -3 347 -57 3 -58 3 -2 -255 -3 -255 -169 254 -169 255 -53 0 -54
0 0 -350z"/>
<path d="M14570 31830 l0 -350 190 0 190 0 0 45 0 45 -135 0 -135 0 0 110 0
110 120 0 120 0 0 45 0 45 -120 0 -120 0 0 100 0 100 135 0 135 0 0 50 0 50
-190 0 -190 0 0 -350z"/>
<path d="M8060 31825 l0 -345 55 0 55 0 0 140 0 140 83 0 c186 1 272 58 284
188 9 100 -42 179 -136 211 -20 6 -99 11 -187 11 l-154 0 0 -345z m310 240
c38 -20 50 -43 50 -99 0 -82 -60 -116 -201 -116 l-49 0 0 115 0 115 85 0 c57
0 96 -5 115 -15z"/>
<path d="M8650 31825 l0 -345 55 0 55 0 0 150 0 150 165 0 165 0 0 -150 0
-150 55 0 55 0 0 345 0 345 -55 0 -55 0 0 -145 0 -145 -165 0 -165 0 0 145 0
145 -55 0 -55 0 0 -345z"/>
<path d="M12360 31945 c0 -123 5 -246 11 -274 27 -128 119 -196 264 -196 122
1 197 43 249 140 20 37 21 57 24 298 l3 257 -60 0 -61 0 0 -249 c0 -242 -1
-249 -23 -282 -30 -46 -70 -63 -140 -63 -67 1 -102 21 -129 75 -16 30 -18 65
-18 277 l0 242 -60 0 -60 0 0 -225z"/>
<path d="M13060 31825 l0 -345 55 0 55 0 2 230 3 230 102 -228 102 -227 42 0
43 0 100 226 101 226 3 -229 2 -228 60 0 60 0 0 345 0 346 -66 -3 -65 -3 -117
-263 c-81 -183 -120 -260 -126 -250 -4 8 -59 126 -120 263 l-113 250 -61 3
-62 3 0 -346z"/>
<path d="M13940 31825 l0 -345 158 0 c184 0 241 12 289 62 56 58 68 129 34
204 -17 38 -56 75 -90 85 -8 3 -1 13 22 29 50 35 67 68 67 137 0 73 -30 121
-93 152 -39 19 -61 21 -215 21 l-172 0 0 -345z m319 240 c60 -31 64 -117 8
-159 -23 -17 -46 -22 -123 -24 l-94 -4 0 101 0 101 90 0 c60 0 101 -5 119 -15z
m23 -300 c38 -28 53 -75 38 -121 -18 -52 -70 -73 -182 -74 l-88 0 0 111 0 111
103 -4 c83 -2 107 -7 129 -23z"/>
<path d="M15090 31826 l0 -346 55 0 55 0 0 140 0 140 43 0 42 0 80 -140 80
-140 68 0 c64 0 67 1 57 20 -6 10 -42 72 -80 136 -39 64 -70 119 -70 123 1 3
24 20 52 36 127 74 132 254 10 340 l-44 30 -174 3 -174 4 0 -346z m299 243
c37 -13 61 -53 61 -103 0 -86 -44 -116 -169 -116 l-81 0 0 115 0 115 79 0 c43
0 92 -5 110 -11z"/>
<path d="M7840 29235 l0 -1655 14700 0 14700 0 0 1655 0 1655 -14700 0 -14700
0 0 -1655z m29318 -2 l2 -1573 -14620 0 -14620 0 0 1575 0 1575 14618 -2
14617 -3 3 -1572z"/>
<path d="M9210 29753 c-49 -56 -112 -182 -135 -268 -69 -268 -19 -563 129
-752 36 -47 45 -53 78 -53 21 0 38 2 38 5 0 3 -21 31 -47 63 -57 69 -106 170
-134 277 -31 113 -31 316 0 430 27 104 78 205 140 283 l51 62 -39 0 c-34 0
-45 -6 -81 -47z"/>
<path d="M10984 29748 c58 -66 119 -188 147 -293 31 -114 31 -317 1 -430 -28
-102 -82 -211 -138 -281 -24 -29 -44 -56 -44 -59 0 -3 15 -5 34 -5 43 0 101
60 149 157 147 291 113 705 -75 918 -35 39 -45 45 -80 45 l-40 0 46 -52z"/>
<path d="M10250 29591 c-79 -26 -132 -75 -150 -139 -14 -52 -14 -52 24 -52 30
0 35 4 41 28 13 59 88 112 160 112 79 0 134 -44 142 -113 10 -88 -39 -134
-156 -145 -62 -7 -66 -9 -69 -33 -3 -25 -1 -26 58 -32 129 -14 180 -58 180
-157 0 -43 -5 -55 -32 -86 -64 -69 -186 -66 -252 6 -20 22 -38 51 -42 65 -5
21 -12 25 -41 25 -33 0 -35 -1 -28 -27 18 -76 65 -131 132 -160 44 -18 174
-17 220 2 73 31 113 92 113 175 0 88 -40 149 -116 175 l-37 12 35 12 c42 14
72 44 93 93 34 82 2 175 -74 217 -47 26 -154 38 -201 22z"/>
<path d="M10640 29555 l0 -35 50 0 50 0 0 -325 0 -325 35 0 35 0 0 360 0 360
-85 0 -85 0 0 -35z"/>
<path d="M9670 29380 l0 -110 -115 0 -115 0 0 -30 0 -30 115 0 115 0 0 -110 0
-110 30 0 30 0 0 110 0 110 110 0 110 0 0 30 0 30 -110 0 -110 0 0 110 0 110
-30 0 -30 0 0 -110z"/>
<path d="M32930 24346 c-200 -45 -322 -185 -346 -396 l-7 -60 112 0 c97 0 111
2 111 17 0 45 35 136 68 174 49 57 100 79 187 79 157 0 231 -82 229 -255 -2
-188 -124 -348 -537 -705 l-167 -144 0 -83 0 -83 485 0 485 0 0 95 0 95 -312
0 -313 1 80 72 c252 226 357 345 433 487 62 115 75 173 70 305 -4 98 -8 118
-35 175 -87 184 -312 278 -543 226z"/>
<path d="M35354 24345 c-192 -42 -316 -187 -340 -395 l-7 -60 112 0 c97 0 111
2 111 17 0 45 35 136 68 174 49 57 100 79 187 79 156 0 229 -79 228 -250 0
-65 -5 -98 -22 -140 -58 -141 -201 -300 -514 -569 l-167 -144 0 -84 0 -83 485
0 485 0 0 95 0 95 -312 0 -313 0 50 47 c325 300 400 383 471 525 53 105 67
175 62 300 -4 94 -8 114 -36 171 -92 185 -310 274 -548 222z"/>
<path d="M34108 24335 c-161 -44 -254 -147 -312 -346 -67 -234 -59 -592 18
-805 78 -214 212 -305 451 -307 212 -1 341 65 422 218 137 260 138 781 1 1038
-57 105 -140 170 -263 203 -63 17 -254 17 -317 -1z m292 -219 c97 -48 143
-154 160 -369 11 -139 1 -360 -21 -440 -30 -112 -93 -185 -181 -212 -135 -40
-265 10 -323 124 -34 69 -44 116 -56 263 -12 161 2 366 31 461 34 111 102 178
200 198 54 11 140 0 190 -25z"/>
<path d="M36757 24203 c-40 -60 -126 -182 -189 -273 -63 -91 -181 -259 -261
-375 l-147 -210 0 -87 0 -88 365 0 365 0 0 -150 0 -150 110 0 110 0 0 150 0
150 95 0 95 0 0 100 0 100 -95 0 -95 0 0 470 0 470 -139 0 -140 0 -74 -107z
m141 -485 l-3 -343 -232 -3 c-128 -1 -233 0 -233 3 0 11 454 685 462 685 5 0
7 -154 6 -342z"/>
<path d="M13045 24266 c-155 -31 -253 -83 -365 -196 -144 -143 -201 -285 -203
-500 0 -136 16 -208 72 -325 93 -192 244 -311 461 -366 121 -31 299 -24 419
16 173 59 321 190 389 348 l12 27 -138 0 -137 -1 -33 -49 c-68 -99 -170 -152
-308 -158 -155 -7 -264 30 -358 123 -105 104 -152 239 -143 415 6 117 28 193
78 271 119 186 378 259 583 166 64 -29 134 -91 162 -142 l19 -35 137 0 c76 0
138 2 138 5 0 15 -53 107 -92 160 -76 103 -223 197 -358 230 -94 22 -251 27
-335 11z"/>
<path d="M8130 23565 l0 -695 115 0 115 0 2 467 3 467 209 -467 209 -467 81 0
81 1 204 462 c112 254 208 466 213 472 4 5 8 -203 8 -463 l0 -472 110 0 110 0
0 695 0 696 -122 -3 -121 -3 -240 -538 c-132 -296 -243 -534 -247 -530 -4 4
-72 154 -152 333 -80 179 -187 418 -238 533 l-93 207 -123 0 -124 0 0 -695z"/>
<path d="M10141 23803 c-90 -252 -201 -563 -247 -690 -46 -128 -84 -235 -84
-238 0 -3 53 -5 119 -5 l119 0 48 140 49 140 291 0 292 0 41 -115 c22 -64 44
-127 47 -140 6 -25 7 -25 130 -25 l123 0 -13 38 c-8 20 -95 264 -194 542 -100
278 -205 573 -235 655 l-54 150 -134 3 -134 3 -164 -458z m413 -152 c59 -167
105 -306 103 -308 -2 -2 -103 -2 -224 -1 l-220 3 110 313 c61 172 114 309 118
305 4 -4 55 -145 113 -312z"/>
<path d="M11290 23565 l0 -695 115 0 115 0 0 280 0 281 86 -3 85 -3 159 -275
158 -275 136 -3 c75 -1 136 -1 136 2 0 2 -74 129 -165 281 -91 152 -165 281
-165 286 0 5 6 9 14 9 31 0 157 73 191 111 21 23 51 71 69 108 29 62 31 73 31
176 0 98 -3 116 -27 167 -35 75 -104 148 -176 186 -102 53 -169 62 -481 62
l-281 0 0 -695z m591 494 c51 -17 97 -55 119 -98 47 -94 32 -216 -37 -283 -59
-58 -101 -68 -284 -68 l-159 0 0 230 0 230 164 0 c95 0 177 -5 197 -11z"/>
<path d="M14100 23565 l0 -695 115 0 115 0 0 305 0 305 325 0 325 0 0 -305 0
-305 115 0 115 0 0 695 0 695 -115 0 -115 0 0 -300 0 -300 -325 0 -325 0 0
300 0 300 -115 0 -115 0 0 -695z"/>
<path d="M7840 13270 l0 -8870 14698 2 14697 3 3 8868 2 8867 -14700 0 -14700
0 0 -8870z m29320 7635 l0 -1155 -14620 0 -14620 0 0 1155 0 1155 14620 0
14620 0 0 -1155z m-24942 -3052 l2 -1813 -2150 0 -2150 0 0 1815 0 1815 2148
-2 2147 -3 3 -1812z m4160 0 l2 -1813 -2040 0 -2040 0 0 1815 0 1815 2038 -2
2037 -3 3 -1812z m4160 0 l2 -1813 -2040 0 -2040 0 0 1815 0 1815 2038 -2
2037 -3 3 -1812z m4160 0 l2 -1813 -2040 0 -2040 0 0 1815 0 1815 2038 -2
2037 -3 3 -1812z m4160 0 l2 -1813 -2040 0 -2040 0 0 1815 0 1815 2038 -2
2037 -3 3 -1812z m4160 0 l2 -1813 -2040 0 -2040 0 0 1815 0 1815 2038 -2
2037 -3 3 -1812z m4140 0 l2 -1813 -2030 0 -2030 0 0 1815 0 1815 2028 -2
2027 -3 3 -1812z m-24938 -3853 l0 -1960 -2150 0 -2150 0 0 1960 0 1960 2150
0 2150 0 0 -1960z m4160 0 l0 -1960 -2040 0 -2040 0 0 1960 0 1960 2040 0
2040 0 0 -1960z m4160 0 l0 -1960 -2040 0 -2040 0 0 1960 0 1960 2040 0 2040
0 0 -1960z m4160 0 l0 -1960 -2040 0 -2040 0 0 1960 0 1960 2040 0 2040 0 0
-1960z m4160 0 l0 -1960 -2040 0 -2040 0 0 1960 0 1960 2040 0 2040 0 0 -1960z
m4160 0 l0 -1960 -2040 0 -2040 0 0 1960 0 1960 2040 0 2040 0 0 -1960z m4140
0 l0 -1960 -2030 0 -2030 0 0 1960 0 1960 2030 0 2030 0 0 -1960z m-24940
-4000 l0 -1960 -2150 0 -2150 0 0 1960 0 1960 2150 0 2150 0 0 -1960z m4160 0
l0 -1960 -2040 0 -2040 0 0 1960 0 1960 2040 0 2040 0 0 -1960z m4160 0 l0
-1960 -2040 0 -2040 0 0 1960 0 1960 2040 0 2040 0 0 -1960z m4160 0 l0 -1960
-2040 0 -2040 0 0 1960 0 1960 2040 0 2040 0 0 -1960z m4160 0 l0 -1960 -2040
0 -2040 0 0 1960 0 1960 2040 0 2040 0 0 -1960z m4160 0 l0 -1960 -2040 0
-2040 0 0 1960 0 1960 2040 0 2040 0 0 -1960z m4140 0 l0 -1960 -2030 0 -2030
0 0 1960 0 1960 2030 0 2030 0 0 -1960z m-24942 -3777 l-3 -1738 -2147 -3
-2148 -2 0 1740 0 1740 2150 0 2150 0 -2 -1737z m4160 0 l-3 -1738 -2037 -3
-2038 -2 0 1740 0 1740 2040 0 2040 0 -2 -1737z m4160 0 l-3 -1738 -2037 -3
-2038 -2 0 1740 0 1740 2040 0 2040 0 -2 -1737z m4160 0 l-3 -1738 -2037 -3
-2038 -2 0 1740 0 1740 2040 0 2040 0 -2 -1737z m4160 0 l-3 -1738 -2037 -3
-2038 -2 0 1740 0 1740 2040 0 2040 0 -2 -1737z m4160 0 l-3 -1738 -2037 -3
-2038 -2 0 1740 0 1740 2040 0 2040 0 -2 -1737z m4140 0 l-3 -1738 -2027 -3
-2028 -2 0 1740 0 1740 2030 0 2030 0 -2 -1737z"/>
<path d="M9282 21290 c-85 -18 -157 -83 -169 -153 l-6 -37 55 0 c52 0 55 1 71
36 22 45 74 68 131 59 65 -10 96 -44 96 -105 0 -63 -37 -91 -142 -106 l-48 -6
0 -43 0 -42 60 -6 c80 -7 122 -32 138 -83 34 -106 -67 -194 -175 -153 -40 15
-71 47 -78 80 -6 28 -9 29 -61 29 -49 0 -54 -2 -54 -22 1 -67 74 -154 149
-177 60 -17 170 -14 216 8 88 41 119 94 113 197 -4 81 -21 114 -76 149 -17 11
-31 22 -32 25 0 3 13 13 29 23 37 22 71 91 71 146 0 45 -26 105 -57 133 -47
42 -152 64 -231 48z"/>
<path d="M8650 21274 c-67 -29 -113 -92 -126 -173 l-7 -41 54 0 54 0 15 47
c20 63 56 88 122 87 44 0 55 -5 80 -32 24 -28 28 -41 28 -90 0 -45 -7 -68 -31
-112 -32 -55 -139 -165 -256 -263 -59 -49 -63 -55 -63 -94 l0 -43 245 0 245 0
0 45 0 45 -155 0 c-85 0 -155 2 -155 4 0 2 51 55 113 118 140 140 172 196 171
303 0 100 -31 152 -116 196 -46 24 -166 26 -218 3z"/>
<path d="M9720 20896 l0 -346 55 0 55 0 0 140 0 140 43 0 42 0 80 -140 80
-140 68 0 c79 0 82 -19 -24 157 -38 62 -69 118 -69 123 0 4 21 18 46 30 63 31
95 82 101 162 6 80 -22 139 -85 183 l-44 30 -174 3 -174 4 0 -346z m303 243
c39 -20 57 -51 57 -101 0 -39 -6 -54 -29 -80 -29 -32 -31 -33 -125 -36 l-96
-4 0 116 0 116 86 0 c47 0 95 -5 107 -11z"/>
<path d="M10350 20895 l0 -347 168 4 c158 3 170 5 229 32 76 35 142 102 169
171 14 37 19 75 19 145 0 81 -4 103 -26 150 -36 77 -68 111 -141 151 l-63 34
-177 3 -178 4 0 -347z m366 220 c69 -43 104 -113 104 -209 0 -92 -13 -138 -53
-183 -47 -53 -105 -75 -214 -81 l-93 -5 0 258 0 257 104 -4 c94 -3 108 -6 152
-33z"/>
<path d="M9000 15474 c-67 -29 -113 -92 -126 -173 l-7 -41 54 0 54 0 15 47
c20 63 56 88 122 87 44 0 55 -5 80 -32 24 -28 28 -41 28 -90 0 -96 -59 -177
-239 -332 -108 -93 -110 -96 -111 -137 l0 -43 245 0 245 0 0 45 0 45 -155 0
c-85 0 -155 2 -155 4 0 2 51 55 113 118 139 139 171 196 171 303 0 45 -6 81
-16 100 -26 48 -77 94 -116 105 -54 15 -162 12 -202 -6z"/>
<path d="M8520 15431 l0 -50 43 -3 42 -3 3 -312 2 -313 55 0 55 0 0 365 0 365
-100 0 -100 0 0 -49z"/>
<path d="M9740 15217 c0 -123 -3 -279 -7 -345 l-6 -122 61 0 62 0 0 140 0 140
86 0 c108 0 162 14 209 53 124 101 88 295 -64 346 -20 6 -99 11 -187 11 l-154
0 0 -223z m310 118 c38 -20 50 -43 50 -99 0 -84 -51 -114 -197 -115 l-53 -1 0
115 0 115 85 0 c57 0 96 -5 115 -15z"/>
<path d="M10570 15095 l0 -345 55 0 55 0 2 231 3 232 44 -99 c24 -55 71 -159
104 -232 l60 -133 40 3 41 3 100 226 101 226 3 -228 2 -229 60 0 60 0 0 345 0
345 -64 0 -63 0 -55 -122 c-31 -68 -84 -187 -118 -266 -35 -78 -67 -139 -71
-135 -5 5 -59 123 -122 263 l-113 255 -62 3 -62 3 0 -346z"/>
<path d="M10319 14869 c-14 -14 -19 -30 -17 -56 8 -95 138 -92 138 3 0 66 -75
99 -121 53z"/>
<path d="M11440 14868 c-29 -32 -27 -81 6 -107 15 -12 34 -21 44 -21 33 0 70
39 70 74 0 65 -77 100 -120 54z"/>
<path d="M9052 11500 c-85 -18 -157 -83 -169 -153 l-6 -37 55 0 c52 0 55 1 71
36 22 45 74 68 131 59 66 -10 96 -44 96 -107 0 -53 -42 -86 -124 -100 l-66
-11 0 -42 0 -42 60 -6 c79 -7 121 -32 138 -82 16 -48 8 -86 -24 -125 -60 -71
-210 -38 -229 50 -6 29 -9 30 -61 30 -50 0 -54 -2 -54 -23 0 -38 47 -120 83
-145 47 -31 90 -42 172 -42 84 0 137 22 182 73 37 42 47 85 41 163 -5 61 -27
98 -76 129 -17 11 -31 22 -32 25 0 3 13 12 29 21 36 21 71 93 71 148 0 45 -26
105 -57 133 -47 42 -152 64 -231 48z"/>
<path d="M8520 11440 l0 -50 45 0 45 0 0 -315 0 -315 55 0 55 0 0 365 0 365
-100 0 -100 0 0 -50z"/>
<path d="M9750 11454 c-1 -5 -2 -163 -3 -351 l-2 -343 58 0 57 0 0 140 0 140
83 0 c147 1 228 35 267 114 37 78 18 188 -41 243 -49 45 -95 56 -261 61 -88 2
-158 1 -158 -4z m305 -108 c42 -18 55 -42 55 -100 0 -67 -28 -95 -107 -106
-34 -4 -80 -6 -102 -3 l-41 6 0 108 0 109 80 0 c47 0 95 -6 115 -14z"/>
<path d="M10590 11105 l0 -345 55 0 55 0 2 232 3 232 102 -229 102 -230 42 0
43 0 100 226 101 226 3 -228 2 -229 60 0 60 0 0 345 0 345 -64 0 -63 0 -91
-202 c-50 -112 -103 -231 -118 -266 -15 -35 -31 -59 -35 -55 -5 5 -59 123
-122 263 l-113 255 -62 3 -62 3 0 -346z"/>
<path d="M10339 10879 c-14 -14 -19 -30 -17 -56 8 -95 138 -92 138 3 0 66 -75
99 -121 53z"/>
<path d="M11466 10879 c-19 -15 -26 -30 -26 -54 0 -36 36 -75 70 -75 10 0 29
9 44 21 34 27 36 77 3 107 -29 28 -57 28 -91 1z"/>
</g>
</svg>
