<?xml version="1.0" encoding="UTF-8"?>
<!DOCTYPE svg PUBLIC "-//W3C//DTD SVG 1.1//EN" "http://www.w3.org/Graphics/SVG/1.1/DTD/svg11.dtd">
<svg xmlns="http://www.w3.org/2000/svg" version="1.1" width="4501px" height="4501px" style="shape-rendering:geometricPrecision; text-rendering:geometricPrecision; image-rendering:optimizeQuality; fill-rule:evenodd; clip-rule:evenodd" xmlns:xlink="http://www.w3.org/1999/xlink">
<g><path style="opacity:1" fill="#879600" d="M -0.5,-0.5 C 1499.83,-0.5 3000.17,-0.5 4500.5,-0.5C 4500.5,1499.83 4500.5,3000.17 4500.5,4500.5C 3000.17,4500.5 1499.83,4500.5 -0.5,4500.5C -0.5,3000.17 -0.5,1499.83 -0.5,-0.5 Z"/></g>
<g><path style="opacity:1" fill="#8a9400" d="M 3775.5,242.5 C 2759.67,243.5 1743.67,243.833 727.5,243.5C 1235.17,242.167 1743.17,241.5 2251.5,241.5C 2759.67,241.5 3267.67,241.833 3775.5,242.5 Z"/></g>
<g><path style="opacity:1" fill="#879402" d="M 3785.5,247.5 C 3782.24,246.676 3778.9,246.342 3775.5,246.5C 2759.67,245.667 1743.67,245.167 727.5,245C 725.5,244.667 723.5,244.333 721.5,244C 723.548,242.759 725.548,242.592 727.5,243.5C 1743.67,243.833 2759.67,243.5 3775.5,242.5C 3777.82,241.833 3780.15,241.666 3782.5,242C 3782.83,242.333 3783.17,242.667 3783.5,243C 3774.17,243.667 3774.17,244.333 3783.5,245C 3784.76,245.417 3785.42,246.25 3785.5,247.5 Z"/></g>
<g><path style="opacity:1" fill="#313c12" d="M 3775.5,246.5 C 3778.9,246.342 3782.24,246.676 3785.5,247.5C 3837.79,254.96 3874.29,282.96 3895,331.5C 3897.75,339.992 3899.59,348.659 3900.5,357.5C 3898.91,356.398 3898.07,357.065 3898,359.5C 3897.67,1615.5 3897.33,2871.5 3897,4127.5C 3896.28,4131.18 3895.95,4134.84 3896,4138.5C 3896.33,4137.5 3896.67,4136.5 3897,4135.5C 3897.26,4140.88 3897.76,4146.22 3898.5,4151.5C 3897.65,4156.88 3896.49,4162.22 3895,4167.5C 3875.8,4214.34 3841.3,4242 3791.5,4250.5C 3780.85,4250.33 3780.85,4249.83 3791.5,4249C 3279.5,4248.83 2767.5,4248.67 2255.5,4248.5C 1743.5,4248.67 1231.5,4248.83 719.5,4249C 1739.5,4249.33 2759.5,4249.67 3779.5,4250C 3778.5,4250.33 3777.5,4250.67 3776.5,4251C 2756.17,4251.5 1735.83,4251.67 715.5,4251.5C 671.843,4246.77 638.677,4225.77 616,4188.5C 607.13,4171.89 601.464,4154.22 599,4135.5C 598.333,2879.5 598.333,1623.5 599,367.5C 603.651,319.204 627.151,283.37 669.5,260C 685.427,252.852 702.093,248.518 719.5,247C 1738.17,246.5 2756.83,246.333 3775.5,246.5 Z"/></g>
<g><path style="opacity:1" fill="#e9ebdd" d="M 3783.5,268.5 C 2759.16,268.169 1734.82,268.502 710.5,269.5C 712.292,268.691 714.292,268.191 716.5,268C 1227.67,267.833 1738.83,267.667 2250,267.5C 2761.33,267.5 3272.5,267.833 3783.5,268.5 Z"/></g>
<g><path style="opacity:1" fill="#edeae5" d="M 3783.5,268.5 C 3833.27,275.704 3865.27,303.37 3879.5,351.5C 3879.75,355.04 3880.42,358.373 3881.5,361.5C 3881.5,363.5 3881.5,365.5 3881.5,367.5C 3881.67,1623.5 3881.5,2879.5 3881,4135.5C 3880.16,4140.85 3879.33,4146.18 3878.5,4151.5C 3863.35,4197.64 3831.69,4224.3 3783.5,4231.5C 2763.17,4231.5 1742.83,4231.5 722.5,4231.5C 675.501,4227.18 643.168,4203.18 625.5,4159.5C 622.363,4150.76 620.697,4141.76 620.5,4132.5C 620.5,4130.83 620.5,4129.17 620.5,4127.5C 621.239,4127.63 621.906,4127.46 622.5,4127C 622.166,3501.71 622.166,2876.21 622.5,2250.5C 622.5,1625.17 621.833,1000.17 620.5,375.5C 620.301,372.059 620.801,368.726 622,365.5C 622.333,367.167 622.667,368.833 623,370.5C 622.691,362.805 622.857,355.139 623.5,347.5C 636.721,303.948 665.721,277.948 710.5,269.5C 1734.82,268.502 2759.16,268.169 3783.5,268.5 Z"/></g>
<g><path style="opacity:1" fill="#353f13" d="M 3900.5,357.5 C 3901.16,360.787 3901.66,364.12 3902,367.5C 3902.67,1623.5 3902.67,2879.5 3902,4135.5C 3901.71,4141.15 3900.55,4146.49 3898.5,4151.5C 3897.76,4146.22 3897.26,4140.88 3897,4135.5C 3896.67,4136.5 3896.33,4137.5 3896,4138.5C 3895.95,4134.84 3896.28,4131.18 3897,4127.5C 3897.33,2871.5 3897.67,1615.5 3898,359.5C 3898.07,357.065 3898.91,356.398 3900.5,357.5 Z"/></g>
<g><path style="opacity:1" fill="#333b16" d="M 3881.5,367.5 C 3882.83,1625.01 3882.83,2882.68 3881.5,4140.5C 3881.83,4141.5 3882.17,4142.5 3882.5,4143.5C 3883.11,4143.38 3883.44,4143.04 3883.5,4142.5C 3884.39,4143.11 3885.39,4143.44 3886.5,4143.5C 3886.65,4144.55 3886.48,4145.55 3886,4146.5C 3884.16,4149.17 3881.66,4150.84 3878.5,4151.5C 3879.33,4146.18 3880.16,4140.85 3881,4135.5C 3881.5,2879.5 3881.67,1623.5 3881.5,367.5 Z"/></g>
<g><path style="opacity:1" fill="#313b15" d="M 3879.5,351.5 C 3882.12,353.782 3884.79,356.115 3887.5,358.5C 3886.83,359.167 3886.17,359.833 3885.5,360.5C 3886.5,1621.73 3886.83,2882.73 3886.5,4143.5C 3885.39,4143.44 3884.39,4143.11 3883.5,4142.5C 3883.17,2881.75 3883.5,1620.75 3884.5,359.5C 3882.82,359.285 3881.82,359.952 3881.5,361.5C 3880.42,358.373 3879.75,355.04 3879.5,351.5 Z"/></g>
<g><path style="opacity:1" fill="#e8eadd" d="M 623.5,347.5 C 622.857,355.139 622.691,362.805 623,370.5C 622.667,368.833 622.333,367.167 622,365.5C 620.801,368.726 620.301,372.059 620.5,375.5C 620.5,1626.17 620.5,2876.83 620.5,4127.5C 620.5,4129.17 620.5,4130.83 620.5,4132.5C 619.5,2879.67 619.167,1626.67 619.5,373.5C 619.122,364.442 620.456,355.776 623.5,347.5 Z"/></g>
<g><path style="opacity:1" fill="#323e12" d="M 3883.5,4142.5 C 3883.44,4143.04 3883.11,4143.38 3882.5,4143.5C 3882.17,4142.5 3881.83,4141.5 3881.5,4140.5C 3882.83,2882.68 3882.83,1625.01 3881.5,367.5C 3881.5,365.5 3881.5,363.5 3881.5,361.5C 3881.82,359.952 3882.82,359.285 3884.5,359.5C 3883.5,1620.75 3883.17,2881.75 3883.5,4142.5 Z"/></g>
<g><path style="opacity:1" fill="#889307" d="M 593.5,375.5 C 594.167,1624.24 594.833,2873.07 595.5,4122C 594.944,4122.38 594.611,4122.88 594.5,4123.5C 594.721,4124.73 595.388,4125.73 596.5,4126.5C 595.675,4127.39 594.675,4127.72 593.5,4127.5C 593.5,2876.83 593.5,1626.17 593.5,375.5 Z"/></g>
<g><path style="opacity:1" fill="#8a9501" d="M 594.5,4123.5 C 594.611,4122.88 594.944,4122.38 595.5,4122C 594.833,2873.07 594.167,1624.24 593.5,375.5C 593.539,372.679 594.205,370.012 595.5,367.5C 596.84,368.688 597.507,370.188 597.5,372C 597.167,1622.82 596.167,2873.32 594.5,4123.5 Z"/></g>
<g><path style="opacity:1" fill="#414926" d="M 619.5,373.5 C 619.167,1626.67 619.5,2879.67 620.5,4132.5C 620.697,4141.76 622.363,4150.76 625.5,4159.5C 623.824,4158.82 623.157,4157.48 623.5,4155.5C 622.178,4155.67 621.011,4155.34 620,4154.5C 618.826,4149.25 618.159,4143.92 618,4138.5C 617.667,4138.83 617.333,4139.17 617,4139.5C 616.667,4138.17 616.333,4136.83 616,4135.5C 615.333,2882.17 615.333,1628.83 616,375.5C 616,1628.91 616.667,2882.25 618,4135.5C 618.167,2881.33 618.667,1627.33 619.5,373.5 Z"/></g>
<g><path style="opacity:1" fill="#eceae8" d="M 620.5,375.5 C 621.833,1000.17 622.5,1625.17 622.5,2250.5C 622.166,2876.21 622.166,3501.71 622.5,4127C 621.906,4127.46 621.239,4127.63 620.5,4127.5C 620.5,2876.83 620.5,1626.17 620.5,375.5 Z"/></g>
<g><path style="opacity:1" fill="#333918" d="M 892.5,578.5 C 1254.5,578.5 1616.5,578.5 1978.5,578.5C 1978.5,1038.5 1978.5,1498.5 1978.5,1958.5C 1978.17,1958.5 1977.83,1958.5 1977.5,1958.5C 1977.5,1498.83 1977.5,1039.17 1977.5,579.5C 1616.17,579.167 1254.83,579.5 893.5,580.5C 895.092,582.225 894.758,583.225 892.5,583.5C 892.5,581.833 892.5,580.167 892.5,578.5 Z"/></g>
<g><path style="opacity:1" fill="#313c12" d="M 1977.5,1958.5 C 1615.83,1958.5 1254.17,1958.5 892.5,1958.5C 892.5,1500.17 892.5,1041.83 892.5,583.5C 894.758,583.225 895.092,582.225 893.5,580.5C 1254.83,579.5 1616.17,579.167 1977.5,579.5C 1977.5,1039.17 1977.5,1498.83 1977.5,1958.5 Z"/></g>
<g><path style="opacity:1" fill="#313c16" d="M 895.5,581.5 C 1255.5,581.167 1615.5,581.5 1975.5,582.5C 1795.5,582.833 1615.5,583.167 1435.5,583.5C 1255.17,583.5 1075.17,582.833 895.5,581.5 Z"/></g>
<g><path style="opacity:1" fill="#5e6440" d="M 2207.5,603.5 C 2196.99,603.172 2186.65,603.506 2176.5,604.5C 2175.96,604.44 2175.62,604.107 2175.5,603.5C 2186.33,602.177 2196.99,602.177 2207.5,603.5 Z"/></g>
<g><path style="opacity:1" fill="#5f6541" d="M 2266.5,603.5 C 2277.01,602.177 2287.67,602.177 2298.5,603.5C 2298.38,604.107 2298.04,604.44 2297.5,604.5C 2287.35,603.506 2277.01,603.172 2266.5,603.5 Z"/></g>
<g><path style="opacity:1" fill="#2c3a03" d="M 2370.5,600.5 C 2402.92,598.292 2427.42,610.959 2444,638.5C 2455.38,664.719 2453.72,690.053 2439,714.5C 2420.14,738.127 2395.64,747.627 2365.5,743C 2334.04,735.203 2315.2,715.37 2309,683.5C 2305.5,646.322 2320.66,620.156 2354.5,605C 2359.87,603.16 2365.21,601.66 2370.5,600.5 Z"/></g>
<g><path style="opacity:1" fill="#2b3a02" d="M 3105.5,655.5 C 3104.5,682.995 3104.17,710.662 3104.5,738.5C 3095.83,738.5 3087.17,738.5 3078.5,738.5C 3078.33,693.832 3078.5,649.165 3079,604.5C 3089.08,603.514 3099.25,603.181 3109.5,603.5C 3123.88,637.258 3138.54,670.924 3153.5,704.5C 3168.44,670.95 3183.11,637.284 3197.5,603.5C 3208.15,602.501 3218.81,602.168 3229.5,602.5C 3229.5,649.167 3229.5,695.833 3229.5,742.5C 3220.17,742.5 3210.83,742.5 3201.5,742.5C 3201.67,712.831 3201.5,683.165 3201,653.5C 3188.74,682.793 3176.57,712.126 3164.5,741.5C 3157.17,742.833 3149.83,742.833 3142.5,741.5C 3130.43,712.126 3118.26,682.793 3106,653.5C 3105.54,654.094 3105.37,654.761 3105.5,655.5 Z"/></g>
<g><path style="opacity:1" fill="#2b3a02" d="M 2472.5,697.5 C 2472.5,666.167 2472.5,634.833 2472.5,603.5C 2481.5,603.5 2490.5,603.5 2499.5,603.5C 2499.17,633.338 2499.5,663.005 2500.5,692.5C 2500.65,706.148 2507.32,714.648 2520.5,718C 2529.33,719.526 2537.67,718.193 2545.5,714C 2551.55,709.281 2555.05,703.114 2556,695.5C 2556.5,664.502 2556.67,633.502 2556.5,602.5C 2565.83,602.5 2575.17,602.5 2584.5,602.5C 2584.67,635.168 2584.5,667.835 2584,700.5C 2579.05,724.454 2564.55,738.62 2540.5,743C 2518.6,747.324 2499.77,741.824 2484,726.5C 2477.33,717.992 2473.5,708.325 2472.5,697.5 Z"/></g>
<g><path style="opacity:1" fill="#2c3a02" d="M 2611.5,602.5 C 2631.5,602.333 2651.5,602.5 2671.5,603C 2700.71,606.196 2714.87,622.362 2714,651.5C 2712.42,662.158 2707.59,670.991 2699.5,678C 2694.11,681.027 2688.77,684.027 2683.5,687C 2694.03,705.233 2704.7,723.399 2715.5,741.5C 2704.5,742.833 2693.5,742.833 2682.5,741.5C 2672.83,724.167 2663.17,706.833 2653.5,689.5C 2648.88,688.507 2644.21,688.173 2639.5,688.5C 2639.5,706.5 2639.5,724.5 2639.5,742.5C 2630.17,742.5 2620.83,742.5 2611.5,742.5C 2611.5,695.833 2611.5,649.167 2611.5,602.5 Z"/></g>
<g><path style="opacity:1" fill="#2b3a01" d="M 2787.5,602.5 C 2797.08,602.182 2806.58,602.515 2816,603.5C 2836.67,634.833 2857.33,666.167 2878,697.5C 2878.5,665.835 2878.67,634.168 2878.5,602.5C 2887.83,602.5 2897.17,602.5 2906.5,602.5C 2906.5,649.167 2906.5,695.833 2906.5,742.5C 2897.16,742.666 2887.83,742.5 2878.5,742C 2857.54,710.586 2836.71,679.086 2816,647.5C 2815.5,679.165 2815.33,710.832 2815.5,742.5C 2806.17,742.5 2796.83,742.5 2787.5,742.5C 2787.5,695.833 2787.5,649.167 2787.5,602.5 Z"/></g>
<g><path style="opacity:1" fill="#2c3a02" d="M 2975.5,602.5 C 2986.52,602.168 2997.52,602.501 3008.5,603.5C 3025.63,649.697 3042.3,696.031 3058.5,742.5C 3048.5,742.5 3038.5,742.5 3028.5,742.5C 3025.83,733.483 3023.16,724.483 3020.5,715.5C 3001.83,715.333 2983.16,715.5 2964.5,716C 2961.4,724.457 2958.4,732.957 2955.5,741.5C 2945.5,742.833 2935.5,742.833 2925.5,741.5C 2942.43,695.303 2959.09,648.969 2975.5,602.5 Z"/></g>
<g><path style="opacity:1" fill="#2b3901" d="M 3257.5,602.5 C 3284.5,602.5 3311.5,602.5 3338.5,602.5C 3338.5,610.167 3338.5,617.833 3338.5,625.5C 3320.83,625.5 3303.17,625.5 3285.5,625.5C 3285.5,637.167 3285.5,648.833 3285.5,660.5C 3301.17,660.5 3316.83,660.5 3332.5,660.5C 3332.5,667.833 3332.5,675.167 3332.5,682.5C 3316.83,682.5 3301.17,682.5 3285.5,682.5C 3285.5,694.833 3285.5,707.167 3285.5,719.5C 3303.17,719.5 3320.83,719.5 3338.5,719.5C 3338.5,727.167 3338.5,734.833 3338.5,742.5C 3311.5,742.5 3284.5,742.5 3257.5,742.5C 3257.5,695.833 3257.5,649.167 3257.5,602.5 Z"/></g>
<g><path style="opacity:1" fill="#2c3a03" d="M 2207.5,603.5 C 2217.54,623.924 2227.38,644.59 2237,665.5C 2247.1,644.959 2256.94,624.292 2266.5,603.5C 2277.01,603.172 2287.35,603.506 2297.5,604.5C 2282.6,633.921 2267.43,663.254 2252,692.5C 2251.5,709.163 2251.33,725.83 2251.5,742.5C 2242.17,742.5 2232.83,742.5 2223.5,742.5C 2223.67,726.163 2223.5,709.83 2223,693.5C 2207.49,663.807 2191.99,634.14 2176.5,604.5C 2186.65,603.506 2196.99,603.172 2207.5,603.5 Z"/></g>
<g><path style="opacity:1" fill="#6a7349" d="M 2500.5,692.5 C 2499.5,663.005 2499.17,633.338 2499.5,603.5C 2490.5,603.5 2481.5,603.5 2472.5,603.5C 2472.5,634.833 2472.5,666.167 2472.5,697.5C 2471.5,666.004 2471.17,634.338 2471.5,602.5C 2481.17,602.5 2490.83,602.5 2500.5,602.5C 2500.5,632.5 2500.5,662.5 2500.5,692.5 Z"/></g>
<g><path style="opacity:1" fill="#edeae4" d="M 2369.5,626.5 C 2406.9,624.403 2424.4,642.07 2422,679.5C 2416.85,709.004 2399.35,721.838 2369.5,718C 2353.12,712.959 2342.96,702.126 2339,685.5C 2333.9,664.477 2339.4,646.977 2355.5,633C 2360.02,630.335 2364.69,628.169 2369.5,626.5 Z"/></g>
<g><path style="opacity:1" fill="#ebe8e2" d="M 2639.5,626.5 C 2650.9,626.091 2662.23,626.591 2673.5,628C 2681.07,631.287 2685.07,637.12 2685.5,645.5C 2685.29,658.79 2678.62,665.956 2665.5,667C 2656.84,667.5 2648.17,667.666 2639.5,667.5C 2639.5,653.833 2639.5,640.167 2639.5,626.5 Z"/></g>
<g><path style="opacity:1" fill="#ebe8e2" d="M 2991.5,636.5 C 2999.32,654.969 3005.99,673.969 3011.5,693.5C 2998.5,693.5 2985.5,693.5 2972.5,693.5C 2978.63,674.449 2984.96,655.449 2991.5,636.5 Z"/></g>
<g><path style="opacity:1" fill="#303b0f" d="M 3109.5,603.5 C 3099.25,603.181 3089.08,603.514 3079,604.5C 3078.5,649.165 3078.33,693.832 3078.5,738.5C 3087.17,738.5 3095.83,738.5 3104.5,738.5C 3104.17,710.662 3104.5,682.995 3105.5,655.5C 3105.5,684.5 3105.5,713.5 3105.5,742.5C 3096.17,742.5 3086.83,742.5 3077.5,742.5C 3077.5,695.833 3077.5,649.167 3077.5,602.5C 3088.35,602.172 3099.01,602.506 3109.5,603.5 Z"/></g>
<g><path style="opacity:1" fill="#faaf3b" d="M 1618.5,808.5 C 1618.5,809.833 1618.5,811.167 1618.5,812.5C 1619.5,812.5 1620.5,812.5 1621.5,812.5C 1624.46,822.676 1626.96,833.009 1629,843.5C 1629.5,928.166 1629.67,1012.83 1629.5,1097.5C 1572.22,1101.81 1516.89,1093.81 1463.5,1073.5C 1444.54,1065.85 1426.21,1056.85 1408.5,1046.5C 1388.37,1033.54 1369.53,1018.87 1352,1002.5C 1351.52,1001.55 1351.35,1000.55 1351.5,999.5C 1347.17,998.5 1344.5,995.833 1343.5,991.5C 1340.94,990.134 1338.44,988.467 1336,986.5C 1301.35,948.206 1275.68,904.539 1259,855.5C 1254.32,839.571 1250.49,823.571 1247.5,807.5C 1243.64,784.692 1241.97,761.692 1242.5,738.5C 1337.52,738.019 1432.52,738.519 1527.5,740C 1563.55,746.856 1591.71,765.356 1612,795.5C 1614.46,799.732 1616.63,804.065 1618.5,808.5 Z"/></g>
<g><path style="opacity:1" fill="#cb8a33" d="M 1247.5,807.5 C 1250.49,823.571 1254.32,839.571 1259,855.5C 1275.68,904.539 1301.35,948.206 1336,986.5C 1338.44,988.467 1340.94,990.134 1343.5,991.5C 1344.5,995.833 1347.17,998.5 1351.5,999.5C 1351.35,1000.55 1351.52,1001.55 1352,1002.5C 1369.53,1018.87 1388.37,1033.54 1408.5,1046.5C 1374.2,1085.15 1333.87,1115.81 1287.5,1138.5C 1278.16,1138.33 1268.83,1138.5 1259.5,1139C 1247.87,1140.46 1239.87,1146.63 1235.5,1157.5C 1210.52,1163.72 1185.19,1167.89 1159.5,1170C 1151.84,1170.5 1144.17,1170.67 1136.5,1170.5C 1120.5,1170.5 1104.5,1170.5 1088.5,1170.5C 1088.33,1086.83 1088.5,1003.17 1089,919.5C 1095.88,877.548 1117.72,846.048 1154.5,825C 1184.14,812.06 1215.14,807.56 1247.5,811.5C 1247.5,810.167 1247.5,808.833 1247.5,807.5 Z"/></g>
<g><path style="opacity:1" fill="#cc8a33" d="M 1618.5,808.5 C 1619.4,809.209 1619.74,810.209 1619.5,811.5C 1637.86,811.167 1656.19,811.667 1674.5,813C 1722.84,822.696 1756.34,850.196 1775,895.5C 1777.97,903.242 1779.8,911.242 1780.5,919.5C 1781.48,1003.15 1781.81,1086.82 1781.5,1170.5C 1766.17,1170.5 1750.83,1170.5 1735.5,1170.5C 1696.53,1172.67 1658.2,1169 1620.5,1159.5C 1616.37,1148.21 1608.37,1141.37 1596.5,1139C 1584.17,1138.5 1571.84,1138.33 1559.5,1138.5C 1524.12,1121.81 1492.12,1100.14 1463.5,1073.5C 1516.89,1093.81 1572.22,1101.81 1629.5,1097.5C 1629.67,1012.83 1629.5,928.166 1629,843.5C 1626.96,833.009 1624.46,822.676 1621.5,812.5C 1620.5,812.5 1619.5,812.5 1618.5,812.5C 1618.5,811.167 1618.5,809.833 1618.5,808.5 Z"/></g>
<g><path style="opacity:1" fill="#9c7a33" d="M 1780.5,919.5 C 1781.31,921.292 1781.81,923.292 1782,925.5C 1782.83,1007.33 1782.67,1089 1781.5,1170.5C 1781.81,1086.82 1781.48,1003.15 1780.5,919.5 Z"/></g>
<g><path style="opacity:1" fill="#d3882f" d="M 1089.5,924.5 C 1090.5,924.47 1091.16,924.97 1091.5,926C 1090.5,1007.32 1090.17,1088.48 1090.5,1169.5C 1089.5,1087.84 1089.17,1006.17 1089.5,924.5 Z"/></g>
<g><path style="opacity:1" fill="#fba03b" d="M 2176.5,1035.5 C 2176.5,1035.17 2176.5,1034.83 2176.5,1034.5C 2563.83,1034.5 2951.17,1034.5 3338.5,1034.5C 3338.83,1074 3338.5,1113.34 3337.5,1152.5C 3337.5,1113.5 3337.5,1074.5 3337.5,1035.5C 2950.5,1035.5 2563.5,1035.5 2176.5,1035.5 Z"/></g>
<g><path style="opacity:1" fill="#fe8b00" d="M 2176.5,1035.5 C 2563.5,1035.5 2950.5,1035.5 3337.5,1035.5C 3337.5,1074.5 3337.5,1113.5 3337.5,1152.5C 2951,1153.5 2564.33,1153.83 2177.5,1153.5C 2176.51,1114.24 2176.17,1074.91 2176.5,1035.5 Z"/></g>
<g><path style="opacity:1" fill="#f7b870" d="M 2176.5,1034.5 C 2176.5,1034.83 2176.5,1035.17 2176.5,1035.5C 2176.17,1074.91 2176.51,1114.24 2177.5,1153.5C 2176.17,1134.01 2175.5,1114.18 2175.5,1094C 2175.5,1074 2175.83,1054.16 2176.5,1034.5 Z"/></g>
<g><path style="opacity:1" fill="#fee0be" d="M 1408.5,1046.5 C 1426.21,1056.85 1444.54,1065.85 1463.5,1073.5C 1492.12,1100.14 1524.12,1121.81 1559.5,1138.5C 1538.16,1138.33 1516.83,1138.5 1495.5,1139C 1476.58,1144.94 1468.75,1157.77 1472,1177.5C 1473.49,1185.98 1477.66,1192.81 1484.5,1198C 1487.03,1198.62 1489.37,1199.62 1491.5,1201C 1509.28,1202.14 1527.12,1202.64 1545,1202.5C 1563.21,1202.63 1581.37,1202.13 1599.5,1201C 1610.55,1197.28 1617.39,1189.78 1620,1178.5C 1620.5,1172.18 1620.67,1165.84 1620.5,1159.5C 1658.2,1169 1696.53,1172.67 1735.5,1170.5C 1735.67,1197.84 1735.5,1225.17 1735,1252.5C 1725.73,1351.09 1680.57,1428.09 1599.5,1483.5C 1599.17,1483.5 1598.83,1483.5 1598.5,1483.5C 1489.83,1483.5 1381.17,1483.5 1272.5,1483.5C 1190.78,1426.77 1145.61,1348.44 1137,1248.5C 1136.5,1222.5 1136.33,1196.5 1136.5,1170.5C 1144.17,1170.67 1151.84,1170.5 1159.5,1170C 1185.19,1167.89 1210.52,1163.72 1235.5,1157.5C 1230.24,1176.61 1235.91,1191.11 1252.5,1201C 1271.13,1202.13 1289.79,1202.63 1308.5,1202.5C 1326.56,1202.65 1344.56,1202.15 1362.5,1201C 1373.37,1196.82 1380.2,1188.99 1383,1177.5C 1385.39,1165.59 1382.56,1155.26 1374.5,1146.5C 1370,1142.96 1365,1140.46 1359.5,1139C 1335.5,1138.5 1311.5,1138.33 1287.5,1138.5C 1333.87,1115.81 1374.2,1085.15 1408.5,1046.5 Z"/></g>
<g><path style="opacity:1" fill="#fab03b" d="M 1559.5,1138.5 C 1571.84,1138.33 1584.17,1138.5 1596.5,1139C 1608.37,1141.37 1616.37,1148.21 1620.5,1159.5C 1620.67,1165.84 1620.5,1172.18 1620,1178.5C 1617.39,1189.78 1610.55,1197.28 1599.5,1201C 1581.37,1202.13 1563.21,1202.63 1545,1202.5C 1527.12,1202.64 1509.28,1202.14 1491.5,1201C 1489.37,1199.62 1487.03,1198.62 1484.5,1198C 1477.66,1192.81 1473.49,1185.98 1472,1177.5C 1468.75,1157.77 1476.58,1144.94 1495.5,1139C 1516.83,1138.5 1538.16,1138.33 1559.5,1138.5 Z"/></g>
<g><path style="opacity:1" fill="#fab03b" d="M 1287.5,1138.5 C 1311.5,1138.33 1335.5,1138.5 1359.5,1139C 1365,1140.46 1370,1142.96 1374.5,1146.5C 1382.56,1155.26 1385.39,1165.59 1383,1177.5C 1380.2,1188.99 1373.37,1196.82 1362.5,1201C 1344.56,1202.15 1326.56,1202.65 1308.5,1202.5C 1289.79,1202.63 1271.13,1202.13 1252.5,1201C 1235.91,1191.11 1230.24,1176.61 1235.5,1157.5C 1239.87,1146.63 1247.87,1140.46 1259.5,1139C 1268.83,1138.5 1278.16,1138.33 1287.5,1138.5 Z"/></g>
<g><path style="opacity:1" fill="#2eabe2" d="M 1313.5,1207.5 C 1336.77,1207.08 1347.6,1218.41 1346,1241.5C 1339.66,1258.59 1327.49,1265.09 1309.5,1261C 1292.8,1251.74 1288.3,1238.24 1296,1220.5C 1300.61,1214.37 1306.44,1210.04 1313.5,1207.5 Z"/></g>
<g><path style="opacity:1" fill="#2fabe2" d="M 1535.5,1207.5 C 1557.02,1208.19 1567.19,1219.19 1566,1240.5C 1560.96,1257.11 1549.79,1264.28 1532.5,1262C 1516.22,1255.61 1509.72,1243.78 1513,1226.5C 1517.06,1215.92 1524.56,1209.59 1535.5,1207.5 Z"/></g>
<g><path style="opacity:1" fill="#fcc497" d="M 1426.5,1244.5 C 1449.35,1241.16 1464.52,1250.16 1472,1271.5C 1472.89,1285.54 1472.55,1299.54 1471,1313.5C 1459.21,1336.66 1441.21,1342.99 1417,1332.5C 1407.72,1326.68 1402.05,1318.35 1400,1307.5C 1399.06,1294.43 1399.39,1281.43 1401,1268.5C 1405.84,1256.49 1414.34,1248.49 1426.5,1244.5 Z"/></g>
<g><path style="opacity:1" fill="#e6ebdf" d="M 3338.5,1306.5 C 3337.5,1306.5 3336.5,1306.5 3335.5,1306.5C 2950.67,1305.67 2565.67,1305.17 2180.5,1305C 2565.74,1304.83 2950.9,1304.33 3336,1303.5C 3336.7,1304.69 3337.53,1305.69 3338.5,1306.5 Z"/></g>
<g><path style="opacity:1" fill="#f5c280" d="M 3335.5,1306.5 C 3336.5,1306.5 3337.5,1306.5 3338.5,1306.5C 3338.5,1306.83 3338.5,1307.17 3338.5,1307.5C 2951.17,1307.5 2563.83,1307.5 2176.5,1307.5C 2176.17,1347 2176.5,1386.34 2177.5,1425.5C 2179.17,1425.5 2180.83,1425.5 2182.5,1425.5C 2567.5,1425.5 2952.5,1425.5 3337.5,1425.5C 3337.83,1425.5 3338.17,1425.5 3338.5,1425.5C 2951,1426.5 2563.33,1426.83 2175.5,1426.5C 2175.5,1386.5 2175.5,1346.5 2175.5,1306.5C 2562.17,1306.5 2948.83,1306.5 3335.5,1306.5 Z"/></g>
<g><path style="opacity:1" fill="#f59009" d="M 3338.5,1307.5 C 3338.5,1346.83 3338.5,1386.17 3338.5,1425.5C 3338.17,1425.5 3337.83,1425.5 3337.5,1425.5C 3337.5,1425.17 3337.5,1424.83 3337.5,1424.5C 3337.5,1385.83 3337.5,1347.17 3337.5,1308.5C 2950.83,1308.5 2564.17,1308.5 2177.5,1308.5C 2177.5,1347.5 2177.5,1386.5 2177.5,1425.5C 2176.5,1386.34 2176.17,1347 2176.5,1307.5C 2563.83,1307.5 2951.17,1307.5 3338.5,1307.5 Z"/></g>
<g><path style="opacity:1" fill="#fe8a00" d="M 3337.5,1424.5 C 2952.6,1424.83 2567.76,1424.5 2183,1423.5C 2182.54,1424.09 2182.37,1424.76 2182.5,1425.5C 2180.83,1425.5 2179.17,1425.5 2177.5,1425.5C 2177.5,1386.5 2177.5,1347.5 2177.5,1308.5C 2564.17,1308.5 2950.83,1308.5 3337.5,1308.5C 3337.5,1347.17 3337.5,1385.83 3337.5,1424.5 Z"/></g>
<g><path style="opacity:1" fill="#7b531e" d="M 1351.5,1381.5 C 1408.17,1381.33 1464.83,1381.5 1521.5,1382C 1525.8,1382.97 1527.8,1385.63 1527.5,1390C 1527.9,1393.93 1526.24,1396.6 1522.5,1398C 1465.5,1398.67 1408.5,1398.67 1351.5,1398C 1346.56,1394.53 1345.39,1390.03 1348,1384.5C 1349.52,1383.84 1350.69,1382.84 1351.5,1381.5 Z"/></g>
<g><path style="opacity:1" fill="#f78c06" d="M 3337.5,1424.5 C 3337.5,1424.83 3337.5,1425.17 3337.5,1425.5C 2952.5,1425.5 2567.5,1425.5 2182.5,1425.5C 2182.37,1424.76 2182.54,1424.09 2183,1423.5C 2567.76,1424.5 2952.6,1424.83 3337.5,1424.5 Z"/></g>
<g><path style="opacity:1" fill="#fe8b01" d="M 1234.5,1483.5 C 1247.17,1483.5 1259.83,1483.5 1272.5,1483.5C 1381.17,1483.5 1489.83,1483.5 1598.5,1483.5C 1611.32,1484.5 1624.32,1484.83 1637.5,1484.5C 1637.5,1502.5 1637.5,1520.5 1637.5,1538.5C 1503.1,1538.83 1368.76,1538.5 1234.5,1537.5C 1234.5,1519.5 1234.5,1501.5 1234.5,1483.5 Z"/></g>
<g><path style="opacity:1" fill="#c8780b" d="M 1598.5,1483.5 C 1598.83,1483.5 1599.17,1483.5 1599.5,1483.5C 1612.5,1483.5 1625.5,1483.5 1638.5,1483.5C 1638.5,1501.5 1638.5,1519.5 1638.5,1537.5C 1638.67,1538.49 1638.34,1539.16 1637.5,1539.5C 1637.5,1539.17 1637.5,1538.83 1637.5,1538.5C 1637.5,1520.5 1637.5,1502.5 1637.5,1484.5C 1624.32,1484.83 1611.32,1484.5 1598.5,1483.5 Z"/></g>
<g><path style="opacity:1" fill="#ac5f2b" d="M 1234.5,1483.5 C 1234.5,1501.5 1234.5,1519.5 1234.5,1537.5C 1368.5,1539.5 1502.83,1540.16 1637.5,1539.5C 1638.34,1539.16 1638.67,1538.49 1638.5,1537.5C 1692.9,1572.33 1730.4,1620.66 1751,1682.5C 1756.05,1702.54 1759.21,1722.88 1760.5,1743.5C 1760.83,1806.54 1760.49,1869.54 1759.5,1932.5C 1759.15,1936.23 1757.81,1939.56 1755.5,1942.5C 1752.49,1945.85 1749.15,1948.85 1745.5,1951.5C 1742.26,1952.42 1739.09,1953.42 1736,1954.5C 1733.14,1954.13 1730.31,1953.63 1727.5,1953C 1532.83,1952.33 1338.17,1952.33 1143.5,1953C 1146.36,1953.18 1149.03,1953.68 1151.5,1954.5C 1150.83,1955.17 1150.17,1955.83 1149.5,1956.5C 1144.85,1956 1140.18,1955.67 1135.5,1955.5C 1123.65,1949.81 1116.49,1940.48 1114,1927.5C 1113.33,1863.5 1113.33,1799.5 1114,1735.5C 1118.68,1681.63 1138.02,1633.97 1172,1592.5C 1173.01,1591.66 1174.18,1591.33 1175.5,1591.5C 1175.49,1589.69 1175.99,1588.02 1177,1586.5C 1181.74,1582.52 1185.91,1578.02 1189.5,1573C 1198.87,1564.63 1208.53,1556.63 1218.5,1549C 1223.3,1546.36 1227.97,1543.52 1232.5,1540.5C 1233.17,1521.34 1233.83,1502.34 1234.5,1483.5 Z"/></g>
<g><path style="opacity:1" fill="#e5820b" d="M 1234.5,1537.5 C 1368.76,1538.5 1503.1,1538.83 1637.5,1538.5C 1637.5,1538.83 1637.5,1539.17 1637.5,1539.5C 1502.83,1540.16 1368.5,1539.5 1234.5,1537.5 Z"/></g>
<g><path style="opacity:1" fill="#5a4313" d="M 1760.5,1743.5 C 1761.67,1806 1761.83,1868.67 1761,1931.5C 1760.62,1932.06 1760.12,1932.39 1759.5,1932.5C 1760.49,1869.54 1760.83,1806.54 1760.5,1743.5 Z"/></g>
<g><path style="opacity:1" fill="#aa612f" d="M 1745.5,1951.5 C 1742.02,1954.77 1737.68,1956.43 1732.5,1956.5C 1731.05,1955.7 1729.38,1955.2 1727.5,1955C 1535.5,1954.5 1343.5,1954.33 1151.5,1954.5C 1149.03,1953.68 1146.36,1953.18 1143.5,1953C 1338.17,1952.33 1532.83,1952.33 1727.5,1953C 1730.31,1953.63 1733.14,1954.13 1736,1954.5C 1739.09,1953.42 1742.26,1952.42 1745.5,1951.5 Z"/></g>
<g><path style="opacity:1" fill="#b15d28" d="M 1151.5,1954.5 C 1343.5,1954.33 1535.5,1954.5 1727.5,1955C 1729.38,1955.2 1731.05,1955.7 1732.5,1956.5C 1732.17,1956.5 1731.83,1956.5 1731.5,1956.5C 1537.5,1956.5 1343.5,1956.5 1149.5,1956.5C 1150.17,1955.83 1150.83,1955.17 1151.5,1954.5 Z"/></g>
<g><path style="opacity:1" fill="#a46230" d="M 1135.5,1955.5 C 1140.18,1955.67 1144.85,1956 1149.5,1956.5C 1343.5,1956.5 1537.5,1956.5 1731.5,1956.5C 1534.67,1957.67 1337.67,1957.83 1140.5,1957C 1138.62,1956.8 1136.95,1956.3 1135.5,1955.5 Z"/></g>
<g><path style="opacity:1" fill="#6e7857" d="M 892.5,578.5 C 892.5,580.167 892.5,581.833 892.5,583.5C 892.5,1041.83 892.5,1500.17 892.5,1958.5C 1254.17,1958.5 1615.83,1958.5 1977.5,1958.5C 1977.83,1958.5 1978.17,1958.5 1978.5,1958.5C 1616.33,1959.5 1254,1959.83 891.5,1959.5C 891.167,1499 891.5,1038.67 892.5,578.5 Z"/></g>
<g><path style="opacity:1" fill="#fe8b02" d="M 967.5,2470.5 C 1006.62,2468.48 1031.79,2486.14 1043,2523.5C 1046.78,2555.59 1034.94,2579.76 1007.5,2596C 983.498,2606.16 960.498,2604.49 938.5,2591C 912.358,2569.21 904.858,2542.04 916,2509.5C 926.727,2487.93 943.893,2474.93 967.5,2470.5 Z"/></g>
<g><path style="opacity:1" fill="#fe8a00" d="M 1171.5,2481.5 C 1893.83,2481.5 2616.17,2481.5 3338.5,2481.5C 3338.83,2521 3338.5,2560.34 3337.5,2599.5C 2615.5,2599.5 1893.5,2599.5 1171.5,2599.5C 1171.5,2560.17 1171.5,2520.83 1171.5,2481.5 Z"/></g>
<g><path style="opacity:1" fill="#fd8802" d="M 3335.5,2484.5 C 2615.17,2483.83 1895.17,2484.5 1175.5,2486.5C 1174.57,2485.43 1174.23,2484.1 1174.5,2482.5C 1895.17,2481.83 2615.5,2482.5 3335.5,2484.5 Z"/></g>
<g><path style="opacity:1" fill="#f88f00" d="M 3335.5,2484.5 C 2615.83,2486.5 1895.83,2487.17 1175.5,2486.5C 1895.17,2484.5 2615.17,2483.83 3335.5,2484.5 Z"/></g>
<g><path style="opacity:1" fill="#f3c792" d="M 1171.5,2481.5 C 1171.5,2520.83 1171.5,2560.17 1171.5,2599.5C 1893.5,2599.5 2615.5,2599.5 3337.5,2599.5C 2616.83,2600.17 1896.17,2600.83 1175.5,2601.5C 1173.59,2601.78 1171.92,2601.45 1170.5,2600.5C 1170.17,2560.66 1170.5,2521 1171.5,2481.5 Z"/></g>
<g><path style="opacity:1" fill="#e6ebe4" d="M 1175.5,2603.5 C 1172.83,2603.17 1170.17,2602.83 1167.5,2602.5C 1167.82,2600.95 1168.82,2600.29 1170.5,2600.5C 1171.92,2601.45 1173.59,2601.78 1175.5,2601.5C 1896.83,2601.67 2618.17,2601.5 3339.5,2601C 3340.03,2600.31 3340.69,2599.81 3341.5,2599.5C 3342.33,2562.17 3342.83,2524.84 3343,2487.5C 3343.67,2526.5 3343.67,2565.5 3343,2604.5C 3342.69,2603.69 3342.19,2603.03 3341.5,2602.5C 2619.41,2602.17 1897.41,2602.5 1175.5,2603.5 Z"/></g>
<g><path style="opacity:1" fill="#eee9de" d="M 1167.5,2602.5 C 1170.17,2602.83 1172.83,2603.17 1175.5,2603.5C 1897.33,2604.33 2619.33,2604.83 3341.5,2605C 3340.97,2605.69 3340.31,2606.19 3339.5,2606.5C 2617.21,2605.67 1894.87,2605.17 1172.5,2605C 1170.26,2604.95 1168.59,2604.12 1167.5,2602.5 Z"/></g>
<g><path style="opacity:1" fill="#fe8b02" d="M 964.5,2770.5 C 1005.29,2767.19 1031.45,2784.86 1043,2823.5C 1046.9,2852.18 1037.4,2875.02 1014.5,2892C 995.225,2903.16 974.892,2905.49 953.5,2899C 932.465,2890.12 918.965,2874.62 913,2852.5C 906.864,2810.2 924.031,2782.87 964.5,2770.5 Z"/></g>
<g><path style="opacity:1" fill="#fe8a00" d="M 1171.5,2777.5 C 1893.83,2777.5 2616.17,2777.5 3338.5,2777.5C 3338.83,2817 3338.5,2856.34 3337.5,2895.5C 2615.5,2895.5 1893.5,2895.5 1171.5,2895.5C 1171.5,2856.17 1171.5,2816.83 1171.5,2777.5 Z"/></g>
<g><path style="opacity:1" fill="#fd8802" d="M 3335.5,2780.5 C 2615.17,2779.83 1895.17,2780.5 1175.5,2782.5C 1174.57,2781.43 1174.23,2780.1 1174.5,2778.5C 1895.17,2777.83 2615.5,2778.5 3335.5,2780.5 Z"/></g>
<g><path style="opacity:1" fill="#f88f00" d="M 3335.5,2780.5 C 2615.83,2782.5 1895.83,2783.17 1175.5,2782.5C 1895.17,2780.5 2615.17,2779.83 3335.5,2780.5 Z"/></g>
<g><path style="opacity:1" fill="#f3c792" d="M 1171.5,2777.5 C 1171.5,2816.83 1171.5,2856.17 1171.5,2895.5C 1893.5,2895.5 2615.5,2895.5 3337.5,2895.5C 2616.83,2896.17 1896.17,2896.83 1175.5,2897.5C 1173.59,2897.78 1171.92,2897.45 1170.5,2896.5C 1170.17,2856.66 1170.5,2817 1171.5,2777.5 Z"/></g>
<g><path style="opacity:1" fill="#e6ebe4" d="M 1175.5,2899.5 C 1172.83,2899.17 1170.17,2898.83 1167.5,2898.5C 1167.82,2896.95 1168.82,2896.29 1170.5,2896.5C 1171.92,2897.45 1173.59,2897.78 1175.5,2897.5C 1896.83,2897.67 2618.17,2897.5 3339.5,2897C 3340.03,2896.31 3340.69,2895.81 3341.5,2895.5C 3342.33,2858.17 3342.83,2820.84 3343,2783.5C 3343.67,2822.5 3343.67,2861.5 3343,2900.5C 3342.69,2899.69 3342.19,2899.03 3341.5,2898.5C 2619.41,2898.17 1897.41,2898.5 1175.5,2899.5 Z"/></g>
<g><path style="opacity:1" fill="#eee9de" d="M 1167.5,2898.5 C 1170.17,2898.83 1172.83,2899.17 1175.5,2899.5C 1897.33,2900.33 2619.33,2900.83 3341.5,2901C 3340.97,2901.69 3340.31,2902.19 3339.5,2902.5C 2617.21,2901.67 1894.87,2901.17 1172.5,2901C 1170.26,2900.95 1168.59,2900.12 1167.5,2898.5 Z"/></g>
<g><path style="opacity:1" fill="#fe8b01" d="M 967.5,3070.5 C 1006.63,3068.49 1031.8,3086.15 1043,3123.5C 1046.78,3155.59 1034.94,3179.76 1007.5,3196C 983.498,3206.16 960.498,3204.49 938.5,3191C 912.358,3169.21 904.858,3142.04 916,3109.5C 926.727,3087.93 943.893,3074.93 967.5,3070.5 Z"/></g>
<g><path style="opacity:1" fill="#fe8b01" d="M 964.5,3370.5 C 1005.29,3367.2 1031.46,3384.87 1043,3423.5C 1046.9,3452.18 1037.4,3475.02 1014.5,3492C 995.225,3503.16 974.892,3505.49 953.5,3499C 932.465,3490.12 918.965,3474.62 913,3452.5C 906.864,3410.2 924.031,3382.87 964.5,3370.5 Z"/></g>
<g><path style="opacity:1" fill="#fe8b01" d="M 967.5,3670.5 C 1006.63,3668.49 1031.8,3686.15 1043,3723.5C 1046.78,3755.59 1034.94,3779.76 1007.5,3796C 983.542,3806.08 960.542,3804.41 938.5,3791C 912.358,3769.21 904.858,3742.04 916,3709.5C 926.727,3687.93 943.893,3674.93 967.5,3670.5 Z"/></g>
<g><path style="opacity:1" fill="#3c4721" d="M 722.5,4231.5 C 1742.83,4231.5 2763.17,4231.5 3783.5,4231.5C 3783.66,4233.53 3783.5,4235.53 3783,4237.5C 3782.09,4236.35 3781.25,4236.51 3780.5,4238C 3784.41,4238.9 3784.25,4239.4 3780,4239.5C 3778.83,4239.33 3777.67,4239.17 3776.5,4239C 3776.25,4237.94 3776.25,4236.77 3776.5,4235.5C 2759.5,4234.67 1742.5,4234.17 725.5,4234C 725.833,4233.67 726.167,4233.33 726.5,4233C 724.942,4232.79 723.609,4232.29 722.5,4231.5 Z"/></g>
<g><path style="opacity:1" fill="#343d0f" d="M 3791.5,4250.5 C 3789.03,4251.32 3786.36,4251.82 3783.5,4252C 3272.17,4252.17 2760.83,4252.33 2249.5,4252.5C 1738,4252.5 1226.67,4252.17 715.5,4251.5C 1735.83,4251.67 2756.17,4251.5 3776.5,4251C 3777.5,4250.67 3778.5,4250.33 3779.5,4250C 2759.5,4249.67 1739.5,4249.33 719.5,4249C 1231.5,4248.83 1743.5,4248.67 2255.5,4248.5C 2767.5,4248.67 3279.5,4248.83 3791.5,4249C 3780.85,4249.83 3780.85,4250.33 3791.5,4250.5 Z"/></g>
</svg>
