<?xml version="1.0" encoding="UTF-8"?>
<!DOCTYPE svg PUBLIC "-//W3C//DTD SVG 1.1//EN" "http://www.w3.org/Graphics/SVG/1.1/DTD/svg11.dtd">
<svg xmlns="http://www.w3.org/2000/svg" version="1.1" width="7616px" height="4555px" style="shape-rendering:geometricPrecision; text-rendering:geometricPrecision; image-rendering:optimizeQuality; fill-rule:evenodd; clip-rule:evenodd" xmlns:xlink="http://www.w3.org/1999/xlink">
<g><path style="opacity:0.998" fill="#fefefe" d="M 4929.5,450.5 C 5329.86,447.122 5688.2,566.289 6004.5,808C 6251.24,1002.11 6432.41,1245.27 6548,1537.5C 6661.36,1836.45 6690.36,2143.45 6635,2458.5C 6576.9,2767.29 6445.57,3039.29 6241,3274.5C 6016.61,3527.87 5740.78,3701.04 5413.5,3794C 5139.79,3867.47 4864.46,3874.14 4587.5,3814C 4224.81,3729.33 3920.97,3548.16 3676,3270.5C 3434.98,2990.43 3297.65,2665.09 3264,2294.5C 3237.43,1954.35 3305.09,1634.35 3467,1334.5C 3625.2,1050.3 3845.7,827.803 4128.5,667C 4377.57,528.815 4644.57,456.649 4929.5,450.5 Z M 4921.5,849.5 C 5230.52,843.681 5507.85,933.181 5753.5,1118C 5975.92,1291.5 6128.42,1513.67 6211,1784.5C 6278.43,2020.85 6280.77,2257.85 6218,2495.5C 6133.16,2793.88 5965.66,3033.71 5715.5,3215C 5447.46,3401.86 5150.12,3479.86 4823.5,3449C 4536.05,3416.3 4286.38,3302.96 4074.5,3109C 3848,2895.54 3712.5,2633.7 3668,2323.5C 3631.79,2025.22 3688.79,1746.22 3839,1486.5C 3909.86,1361.93 3999.69,1252.43 4108.5,1158C 4260.02,1037.06 4429.69,949.393 4617.5,895C 4717.28,868.423 4818.61,853.257 4921.5,849.5 Z"/></g>
<g><path style="opacity:0.997" fill="#fefefe" d="M 4557.5,991.5 C 4678.39,1086.88 4798.89,1182.88 4919,1279.5C 4919.83,1395.83 4919.67,1512.17 4918.5,1628.5C 4773.69,1733.47 4629.03,1838.64 4484.5,1944C 4372.49,1921.5 4260.49,1898.66 4148.5,1875.5C 4087.07,1728.63 4025.07,1581.97 3962.5,1435.5C 4115.14,1226.57 4313.47,1078.57 4557.5,991.5 Z"/></g>
<g><path style="opacity:0.998" fill="#fefefe" d="M 5378.5,997.5 C 5617.14,1085.02 5810.64,1231.69 5959,1437.5C 5958.17,1443.33 5956.51,1448.99 5954,1454.5C 5900.72,1594.06 5847.72,1733.72 5795,1873.5C 5691.33,1895.83 5587.5,1917.67 5483.5,1939C 5476.25,1940.92 5468.92,1941.92 5461.5,1942C 5317.67,1837.5 5173.83,1733 5030,1628.5C 5029.33,1509.17 5029.33,1389.83 5030,1270.5C 5146.33,1179.6 5262.49,1088.6 5378.5,997.5 Z"/></g>
<g><path style="opacity:0.989" fill="#fefefe" d="M 3382.5,1050.5 C 3389.86,1050.17 3397.2,1050.5 3404.5,1051.5C 3361.83,1097.99 3322,1146.65 3285,1197.5C 3280.08,1198.15 3275.08,1198.49 3270,1198.5C 2382.14,1174.8 1494.31,1150.63 606.5,1126C 1532,1101.06 2457.33,1075.89 3382.5,1050.5 Z"/></g>
<g><path style="opacity:0.989" fill="#fefefe" d="M 3200.5,1273.5 C 3210.85,1273.17 3221.19,1273.5 3231.5,1274.5C 3202.47,1318.74 3175.64,1364.4 3151,1411.5C 3146.58,1412.15 3142.08,1412.49 3137.5,1412.5C 2321.49,1389.55 1505.49,1366.39 689.5,1343C 1526.66,1319.77 2363.66,1296.61 3200.5,1273.5 Z"/></g>
<g><path style="opacity:0.988" fill="#fefefe" d="M 3088.5,1494.5 C 3095.53,1494.17 3102.53,1494.5 3109.5,1495.5C 3089.57,1538.37 3071.57,1582.03 3055.5,1626.5C 3051.33,1626.83 3047.17,1627.17 3043,1627.5C 2292.16,1605.82 1541.33,1583.99 790.5,1562C 1556.65,1539.39 2322.65,1516.89 3088.5,1494.5 Z"/></g>
<g><path style="opacity:0.988" fill="#fefefe" d="M 3011.5,1714.5 C 3016.17,1714.5 3020.83,1714.5 3025.5,1714.5C 3013.42,1756.82 3002.59,1799.48 2993,1842.5C 2989.08,1843.15 2985.08,1843.48 2981,1843.5C 2295.17,1823.56 1609.34,1803.73 923.5,1784C 914.482,1783.83 905.482,1783.33 896.5,1782.5C 895.627,1780.59 894.627,1778.75 893.5,1777C 1599.63,1755.92 2305.63,1735.09 3011.5,1714.5 Z"/></g>
<g><path style="opacity:0.989" fill="#fefefe" d="M 2968.5,1933.5 C 2970.83,1933.5 2973.17,1933.5 2975.5,1933.5C 2968.44,1975.61 2963.11,2017.94 2959.5,2060.5C 2307.5,2041.65 1655.5,2022.81 1003.5,2004C 1001.74,2003.8 1000.08,2003.3 998.5,2002.5C 996.262,1998.7 994.596,1994.7 993.5,1990.5C 1652.01,1972.14 2310.34,1953.14 2968.5,1933.5 Z"/></g>
<g><path style="opacity:0.998" fill="#fefefe" d="M 4124.5,1982.5 C 4238.37,2006.67 4352.37,2030.34 4466.5,2053.5C 4519.87,2214.11 4572.54,2374.94 4624.5,2536C 4563.21,2631.41 4501.55,2726.57 4439.5,2821.5C 4278.91,2836.33 4118.25,2850.16 3957.5,2863C 3834.23,2687.92 3761.4,2493.42 3739,2279.5C 3867.48,2180.36 3995.98,2081.36 4124.5,1982.5 Z"/></g>
<g><path style="opacity:0.998" fill="#fefefe" d="M 5791.5,1987.5 C 5794.89,1987.06 5797.89,1987.9 5800.5,1990C 5927.33,2087.5 6054.17,2185 6181,2282.5C 6158.92,2492.46 6087.75,2683.62 5967.5,2856C 5815.08,2846.73 5662.75,2836.39 5510.5,2825C 5448.54,2729.59 5386.71,2634.09 5325,2538.5C 5324.33,2536.83 5324.33,2535.17 5325,2533.5C 5377.07,2373.13 5429.23,2212.8 5481.5,2052.5C 5584.95,2030.81 5688.28,2009.14 5791.5,1987.5 Z"/></g>
<g><path style="opacity:0.989" fill="#fefefe" d="M 2926.5,2152.5 C 2935.5,2152.5 2944.5,2152.5 2953.5,2152.5C 2952.51,2194.51 2952.18,2236.51 2952.5,2278.5C 2339.21,2260.35 1725.88,2242.52 1112.5,2225C 1108.46,2224.83 1104.46,2224.33 1100.5,2223.5C 1098.11,2217.71 1095.44,2212.05 1092.5,2206.5C 1703.99,2188.44 2315.32,2170.44 2926.5,2152.5 Z"/></g>
<g><path style="opacity:0.996" fill="#fefefe" d="M 1221.5,2438.5 C 1710.83,2438.85 2200.17,2439.35 2689.5,2440C 2783.17,2440.17 2876.84,2440.67 2970.5,2441.5C 3016.33,2742.93 3133.33,3012.27 3321.5,3249.5C 3172.17,3250.5 3022.83,3250.83 2873.5,3250.5C 2873.5,3185.5 2873.5,3120.5 2873.5,3055.5C 2852.83,3055.5 2832.17,3055.5 2811.5,3055.5C 2811.5,3137.5 2811.5,3219.5 2811.5,3301.5C 2996.17,3301.33 3180.83,3301.5 3365.5,3302C 3455.72,3404.59 3556.05,3495.25 3666.5,3574C 3004.17,3574.83 2341.83,3574.67 1679.5,3573.5C 1570.36,3302.75 1461.03,3032.09 1351.5,2761.5C 1464.16,2760.5 1576.83,2760.17 1689.5,2760.5C 1689.5,2824.17 1689.5,2887.83 1689.5,2951.5C 1760.34,2951.18 1831.18,2951.52 1902,2952.5C 1932.16,2952.75 1956.82,2941.42 1976,2918.5C 1995.78,2888.72 1995.11,2859.39 1974,2830.5C 1969.99,2825.32 1965.49,2820.66 1960.5,2816.5C 1984.07,2784.29 1981.4,2754.46 1952.5,2727C 1938.38,2715.94 1922.38,2709.28 1904.5,2707C 1712.83,2706.67 1521.17,2706.33 1329.5,2706C 1293.36,2616.88 1257.36,2527.72 1221.5,2438.5 Z M 2115.5,2706.5 C 2146.41,2706.17 2177.24,2706.5 2208,2707.5C 2242.76,2788.86 2277.93,2870.02 2313.5,2951C 2292.16,2951.83 2270.83,2951.67 2249.5,2950.5C 2241.64,2932.92 2233.97,2915.25 2226.5,2897.5C 2183.17,2896.17 2139.83,2896.17 2096.5,2897.5C 2089.03,2915.25 2081.36,2932.92 2073.5,2950.5C 2052.17,2951.67 2030.84,2951.83 2009.5,2951C 2045.25,2869.66 2080.59,2788.16 2115.5,2706.5 Z M 2348.5,2706.5 C 2368.83,2706.5 2389.17,2706.5 2409.5,2706.5C 2409.5,2771.17 2409.5,2835.83 2409.5,2900.5C 2476.17,2900.5 2542.83,2900.5 2609.5,2900.5C 2609.5,2917.5 2609.5,2934.5 2609.5,2951.5C 2522.5,2951.5 2435.5,2951.5 2348.5,2951.5C 2348.5,2869.83 2348.5,2788.17 2348.5,2706.5 Z M 2654.5,2706.5 C 2674.83,2706.5 2695.17,2706.5 2715.5,2706.5C 2715.5,2771.17 2715.5,2835.83 2715.5,2900.5C 2782.5,2900.5 2849.5,2900.5 2916.5,2900.5C 2916.5,2917.5 2916.5,2934.5 2916.5,2951.5C 2829.17,2951.5 2741.83,2951.5 2654.5,2951.5C 2654.5,2869.83 2654.5,2788.17 2654.5,2706.5 Z M 2272.5,3055.5 C 2303.17,3055.17 2333.84,3055.5 2364.5,3056.5C 2399.83,3137.83 2435.17,3219.17 2470.5,3300.5C 2449.17,3301.83 2427.83,3301.83 2406.5,3300.5C 2398.83,3282.5 2391.17,3264.5 2383.5,3246.5C 2340.5,3245.33 2297.5,3245.17 2254.5,3246C 2246.65,3264.21 2238.65,3282.38 2230.5,3300.5C 2209.17,3301.67 2187.84,3301.83 2166.5,3301C 2202.52,3219.44 2237.85,3137.6 2272.5,3055.5 Z M 2505.5,3055.5 C 2525.83,3055.5 2546.17,3055.5 2566.5,3055.5C 2566.5,3120.5 2566.5,3185.5 2566.5,3250.5C 2633.5,3250.5 2700.5,3250.5 2767.5,3250.5C 2767.5,3267.5 2767.5,3284.5 2767.5,3301.5C 2680.17,3301.5 2592.83,3301.5 2505.5,3301.5C 2505.5,3219.5 2505.5,3137.5 2505.5,3055.5 Z M 2044.5,3056.5 C 2065.17,3056.5 2085.83,3056.5 2106.5,3056.5C 2106.5,3110.5 2106.5,3164.5 2106.5,3218.5C 2122.83,3218.5 2139.17,3218.5 2155.5,3218.5C 2155.5,3235.5 2155.5,3252.5 2155.5,3269.5C 2139.17,3269.5 2122.83,3269.5 2106.5,3269.5C 2106.5,3280.17 2106.5,3290.83 2106.5,3301.5C 2086.17,3301.5 2065.83,3301.5 2045.5,3301.5C 2045.5,3290.83 2045.5,3280.17 2045.5,3269.5C 1981.17,3269.5 1916.83,3269.5 1852.5,3269.5C 1852.17,3252.15 1852.5,3234.82 1853.5,3217.5C 1917.5,3164.16 1981.17,3110.49 2044.5,3056.5 Z"/></g>
<g><path style="opacity:0.998" fill="#fefefe" d="M 4713.5,2600.5 C 4887.17,2600.17 5060.83,2600.5 5234.5,2601.5C 5296.26,2696.59 5357.6,2791.92 5418.5,2887.5C 5367.99,3039.53 5316.99,3191.36 5265.5,3343C 5071.8,3391.58 4877.64,3393.75 4683,3349.5C 4631.5,3195.67 4580,3041.83 4528.5,2888C 4589.8,2791.9 4651.46,2696.07 4713.5,2600.5 Z"/></g>
<g><path style="opacity:0.976" fill="#fefefe" d="M 2160.5,2748.5 C 2161.5,2748.41 2162.33,2748.75 2163,2749.5C 2177.23,2780.95 2191.73,2812.29 2206.5,2843.5C 2176.5,2844.83 2146.5,2844.83 2116.5,2843.5C 2131.45,2811.93 2146.12,2780.26 2160.5,2748.5 Z"/></g>
<g><path style="opacity:0.983" fill="#fefefe" d="M 1751.5,2760.5 C 1800.17,2760.33 1848.83,2760.5 1897.5,2761C 1907.05,2763.57 1911.71,2769.9 1911.5,2780C 1912.38,2789.26 1908.38,2794.93 1899.5,2797C 1850.17,2797.5 1800.83,2797.67 1751.5,2797.5C 1751.5,2785.17 1751.5,2772.83 1751.5,2760.5 Z"/></g>
<g><path style="opacity:0.983" fill="#fefefe" d="M 1751.5,2848.5 C 1802.53,2848.04 1853.53,2848.54 1904.5,2850C 1922.5,2854.82 1929,2866.32 1924,2884.5C 1920.4,2893.74 1913.57,2898.91 1903.5,2900C 1852.83,2900.5 1802.17,2900.67 1751.5,2900.5C 1751.5,2883.17 1751.5,2865.83 1751.5,2848.5 Z"/></g>
<g><path style="opacity:0.971" fill="#fefefe" d="M 2318.5,3097.5 C 2334,3129.17 2349,3161.17 2363.5,3193.5C 2333.51,3194.67 2303.51,3194.83 2273.5,3194C 2288.37,3161.76 2303.37,3129.6 2318.5,3097.5 Z"/></g>
<g><path style="opacity:0.958" fill="#fefefe" d="M 2043.5,3122.5 C 2045.49,3154.15 2046.16,3186.15 2045.5,3218.5C 2007.83,3218.67 1970.17,3218.5 1932.5,3218C 1969.69,3186.3 2006.69,3154.47 2043.5,3122.5 Z"/></g>
</svg>
