<?xml version="1.0" standalone="no"?>
<!DOCTYPE svg PUBLIC "-//W3C//DTD SVG 20010904//EN"
 "http://www.w3.org/TR/2001/REC-SVG-20010904/DTD/svg10.dtd">
<svg version="1.0" xmlns="http://www.w3.org/2000/svg"
 width="4501.000000pt" height="4501.000000pt" viewBox="0 0 4501.000000 4501.000000"
 preserveAspectRatio="xMidYMid meet">

<g transform="translate(0.000000,4501.000000) scale(0.100000,-0.100000)"
fill="#000000" stroke="none">
<path d="M4923 39589 c-283 -27 -623 -137 -846 -272 -43 -26 -80 -47 -82 -47
-10 0 -153 -105 -225 -166 -69 -57 -191 -178 -283 -282 -21 -23 -77 -100 -123
-170 -178 -265 -289 -554 -340 -887 -17 -110 -19 -189 -19 -905 l0 -785 12295
0 12295 0 226 100 226 100 -12416 5 -12416 5 -3 590 c-4 771 8 911 99 1189
179 548 606 994 1150 1201 124 48 315 93 459 110 109 13 1856 15 13800 15
l13675 0 103 25 c157 38 291 107 323 166 10 19 -258 19 -13903 18 -7652 -1
-13950 -5 -13995 -10z"/>
<path d="M32870 39590 c0 -16 -79 -98 -117 -121 -19 -12 -67 -35 -107 -50
l-71 -28 2250 0 2250 1 -80 27 c-116 40 -229 98 -279 142 l-44 39 -1901 0
c-1288 0 -1901 -3 -1901 -10z"/>
<path d="M36740 39592 c0 -11 93 -65 165 -97 33 -14 112 -43 175 -63 l115 -37
1495 -6 c1486 -5 1496 -5 1609 -27 259 -50 467 -129 686 -263 l80 -48 168 -8
c93 -4 171 -5 172 -2 8 11 -121 115 -244 197 -310 205 -615 314 -990 352 -122
12 -3431 14 -3431 2z"/>
<path d="M41185 38958 c292 -245 498 -545 614 -893 91 -275 103 -418 99 -1190
l-3 -590 -2412 -3 c-1327 -1 -2413 -5 -2413 -9 0 -3 28 -51 62 -105 l61 -98
2456 2 2456 3 0 785 c0 717 -2 795 -19 905 -44 284 -134 545 -261 761 -25 41
-45 78 -45 80 0 17 -156 216 -227 291 l-88 92 -165 5 -165 6 50 -42z"/>
<path d="M5202 38430 c-115 -30 -205 -84 -298 -176 -129 -127 -194 -282 -194
-465 0 -312 225 -590 527 -649 35 -7 107 -10 170 -8 176 7 308 65 432 189 127
128 181 253 189 439 5 125 -5 189 -45 285 -126 302 -463 468 -781 385z"/>
<path d="M7875 38436 c-127 -29 -263 -110 -350 -208 -63 -73 -132 -214 -151
-313 -56 -288 92 -589 351 -716 108 -52 179 -69 300 -69 121 0 193 17 300 70
183 90 311 261 351 468 28 146 9 279 -61 420 -77 154 -209 270 -377 329 -90
32 -266 41 -363 19z"/>
<path d="M10512 38430 c-231 -61 -410 -237 -473 -464 -30 -112 -24 -299 13
-398 74 -196 232 -350 423 -411 59 -18 92 -22 210 -22 161 1 214 15 336 88
298 177 405 570 242 880 -51 97 -173 219 -270 270 -144 76 -326 97 -481 57z"/>
<path d="M27940 36185 c-118 -51 -222 -98 -230 -104 -10 -7 973 -10 3037 -10
l3052 -1 11 58 c6 31 13 71 16 87 3 17 8 38 10 48 5 16 -40 17 -844 17 l-850
0 -67 -75 c-37 -41 -72 -75 -77 -75 -5 0 -11 7 -15 16 -4 10 13 35 53 75 l58
59 -1969 -1 -1970 0 -215 -94z"/>
<path d="M33880 36278 c0 -2 -9 -46 -19 -98 -11 -52 -16 -99 -12 -103 4 -4 50
-6 101 -5 l94 3 38 94 c21 52 38 98 38 103 0 7 -239 12 -240 6z"/>
<path d="M34166 36272 c-10 -16 -76 -184 -76 -193 0 -5 247 -9 560 -9 527 0
560 1 560 18 0 19 -17 134 -25 170 l-5 22 -505 0 c-277 0 -506 -4 -509 -8z"/>
<path d="M35221 36264 c0 -11 3 -14 6 -6 3 7 2 16 -1 19 -3 4 -6 -2 -5 -13z"/>
<path d="M35270 36243 c0 -21 3 -68 7 -105 l6 -68 844 -2 c617 -2 842 0 839 8
-2 6 -39 55 -81 108 l-77 96 -769 0 -769 0 0 -37z"/>
<path d="M36867 36268 c46 -60 149 -184 157 -190 13 -9 116 -11 116 -2 0 3
-27 50 -61 105 l-61 99 -80 0 c-63 0 -78 -3 -71 -12z"/>
<path d="M3003 22503 c2 -12351 3 -12943 20 -13043 89 -526 308 -936 682
-1277 309 -283 677 -458 1110 -530 106 -17 730 -18 17735 -18 16955 0 17629 1
17740 18 487 77 899 294 1242 655 295 311 480 694 555 1152 17 99 18 823 20
13043 l3 12937 -2250 0 c-1504 0 -2250 -3 -2250 -10 0 -6 28 -53 63 -105 l62
-94 2080 -3 2080 -3 3 -12730 c2 -8360 -1 -12775 -7 -12860 -54 -700 -459
-1299 -1083 -1600 -179 -86 -316 -131 -532 -173 -74 -15 -1599 -16 -17646 -19
-12711 -3 -17595 -1 -17675 7 -372 37 -698 168 -1005 402 -98 75 -296 282
-372 389 -175 245 -284 508 -340 814 l-23 130 0 12820 0 12820 15197 3 15197
2 10 38 c25 94 41 160 41 166 0 3 -6899 6 -15330 6 l-15330 0 3 -12937z"/>
<path d="M33681 35353 c-12 -49 -24 -96 -27 -105 -5 -15 1 -18 39 -18 l44 0
32 93 c17 50 31 98 31 105 0 8 -16 12 -49 12 l-49 0 -21 -87z"/>
<path d="M33845 35428 c-10 -27 -65 -192 -65 -195 0 -2 862 -3 1915 -3 1053 0
1915 2 1915 5 0 3 -34 51 -75 105 l-76 100 -1061 0 -1061 0 7 -80 c7 -75 6
-80 -12 -80 -18 0 -21 10 -27 80 l-7 80 -724 0 c-571 0 -726 -3 -729 -12z"/>
<path d="M37523 35428 c11 -29 140 -193 154 -196 8 -2 -17 44 -56 102 -41 60
-78 106 -87 106 -9 0 -14 -6 -11 -12z"/>
<path d="M15405 31799 c-110 -61 -311 -172 -447 -246 -137 -74 -250 -138 -252
-142 -2 -3 45 -96 106 -206 109 -198 635 -1160 795 -1452 45 -84 84 -158 85
-164 2 -7 -6 -17 -17 -23 -337 -180 -1225 -662 -1225 -666 0 -4 608 -295 1766
-844 132 -62 486 -231 788 -375 302 -144 551 -259 554 -257 2 3 37 330 77 728
41 398 117 1148 170 1667 52 519 94 945 93 946 -2 1 -66 -33 -143 -75 -587
-322 -1129 -609 -1134 -601 -3 5 -229 417 -501 915 -272 498 -499 906 -505
905 -5 0 -100 -50 -210 -110z m232 -266 c108 -198 438 -802 658 -1203 98 -179
196 -359 218 -400 22 -41 41 -76 43 -78 1 -2 195 101 431 228 235 128 490 266
566 307 76 41 140 73 142 71 4 -4 2 -23 -69 -728 -25 -245 -66 -647 -91 -895
-100 -985 -115 -1140 -118 -1151 -1 -6 -46 10 -102 37 -55 26 -163 78 -240
114 -167 80 -809 386 -1345 640 -212 101 -461 220 -555 265 -93 45 -209 100
-257 122 -49 23 -88 44 -88 47 0 6 58 39 415 231 99 53 212 114 250 135 39 21
149 80 245 132 96 52 178 98 183 102 4 4 -12 43 -37 87 -24 43 -124 225 -221
404 -307 563 -641 1172 -689 1259 -25 46 -45 85 -44 86 8 7 613 335 619 335 3
0 42 -66 86 -147z"/>
<path d="M16153 25173 c-68 -38 -101 -112 -88 -199 9 -65 74 -130 139 -139 65
-10 111 1 153 38 44 39 63 82 63 143 0 61 -25 110 -73 145 -34 24 -50 29 -101
29 -40 0 -73 -6 -93 -17z"/>
<path d="M28620 25182 c-67 -31 -110 -98 -110 -173 0 -122 124 -209 243 -170
46 16 104 80 113 126 16 89 -19 175 -86 210 -29 15 -132 20 -160 7z"/>
<path d="M19190 24195 l0 -925 140 0 140 0 0 408 c0 317 4 422 15 476 24 114
84 194 180 238 42 19 67 23 155 23 95 0 111 -3 162 -28 107 -53 164 -147 179
-300 4 -50 9 -255 9 -454 l0 -363 141 0 140 0 -3 473 c-5 520 -5 526 -71 656
-37 76 -123 165 -195 204 -200 109 -506 78 -665 -68 -21 -19 -40 -35 -43 -35
-2 0 -4 140 -4 310 l0 310 -140 0 -140 0 0 -925z"/>
<path d="M22280 24195 l0 -925 140 0 140 0 0 96 0 96 58 -54 c70 -65 176 -122
263 -143 83 -19 238 -19 314 0 176 45 332 172 413 337 150 302 86 713 -141
913 -67 59 -192 121 -282 140 -208 43 -435 -17 -568 -151 l-57 -57 0 336 0
337 -140 0 -140 0 0 -925z m873 188 c166 -78 258 -251 244 -458 -13 -183 -100
-319 -247 -389 -60 -29 -73 -31 -170 -31 -97 0 -110 2 -172 32 -320 151 -326
685 -10 840 74 36 105 42 202 40 72 -3 96 -8 153 -34z"/>
<path d="M27160 24195 l0 -925 140 0 140 0 0 290 c0 160 3 290 8 289 4 0 39
-37 77 -83 39 -45 150 -176 248 -289 l178 -207 190 0 c104 0 189 2 189 5 0 3
-139 156 -310 340 -170 185 -310 339 -310 343 0 4 46 57 103 118 247 266 512
556 515 565 2 5 -77 9 -191 9 l-194 0 -188 -227 c-104 -126 -216 -261 -249
-301 l-61 -73 -3 536 -2 535 -140 0 -140 0 0 -925z"/>
<path d="M14610 24146 l0 -866 140 0 140 0 0 350 0 350 201 0 c294 0 388 19
520 106 103 68 168 164 199 293 18 77 8 231 -19 303 -52 134 -169 240 -326
295 l-80 28 -387 3 -388 3 0 -865z m767 605 c98 -44 153 -136 153 -257 0 -107
-46 -193 -127 -237 -69 -37 -144 -47 -340 -47 l-173 0 0 286 0 286 218 -4
c201 -3 221 -5 269 -27z"/>
<path d="M16800 24820 l0 -170 -80 0 -80 0 0 -115 0 -115 80 0 80 0 0 -402 c0
-427 6 -501 45 -578 64 -126 174 -170 428 -170 l147 0 0 120 0 120 -115 0
c-137 0 -174 12 -198 63 -15 31 -17 82 -17 441 l0 406 165 0 165 0 0 115 0
115 -165 0 -165 0 0 170 0 170 -145 0 -145 0 0 -170z"/>
<path d="M18105 24655 c-186 -41 -350 -168 -432 -335 -60 -121 -76 -198 -76
-360 -1 -159 15 -235 75 -357 73 -150 203 -264 365 -320 104 -35 283 -44 400
-18 181 39 341 161 416 315 19 41 39 85 42 98 l6 22 -153 0 -154 0 -17 -35
c-27 -56 -93 -121 -150 -146 -44 -20 -68 -24 -157 -24 -93 0 -112 3 -162 27
-100 47 -173 144 -203 269 -8 36 -15 111 -15 174 0 179 40 288 140 378 68 61
131 82 245 82 82 0 97 -3 157 -33 70 -34 116 -80 146 -144 l17 -37 154 -1 153
0 -6 28 c-4 15 -25 65 -47 111 -71 144 -203 252 -364 296 -86 23 -292 29 -380
10z"/>
<path d="M24419 24656 c-262 -55 -468 -256 -524 -511 -26 -117 -17 -333 18
-441 73 -222 260 -389 491 -439 97 -22 291 -16 376 10 193 59 342 183 426 355
47 94 65 168 71 290 18 348 -165 621 -482 720 -90 28 -280 36 -376 16z m313
-265 c167 -64 275 -271 253 -480 -22 -200 -125 -340 -293 -395 -81 -27 -219
-19 -294 16 -66 31 -147 106 -177 166 -70 138 -70 377 1 515 44 87 142 167
237 194 68 19 203 11 273 -16z"/>
<path d="M26019 24656 c-262 -55 -468 -256 -524 -511 -26 -117 -17 -333 18
-441 73 -222 260 -389 491 -439 97 -22 291 -16 376 10 193 59 342 183 426 355
47 94 65 168 71 290 18 348 -165 621 -482 720 -90 28 -280 36 -376 16z m313
-265 c167 -64 275 -271 253 -480 -22 -200 -125 -340 -293 -395 -81 -27 -219
-19 -294 16 -66 31 -147 106 -177 166 -70 138 -70 377 1 515 44 87 142 167
237 194 68 19 203 11 273 -16z"/>
<path d="M29785 24660 c-92 -19 -240 -97 -268 -142 -21 -32 -27 -19 -27 57 l0
75 -140 0 -140 0 0 -690 0 -690 140 0 140 0 0 408 c0 442 6 505 54 587 31 53
86 101 145 129 38 17 65 21 151 21 95 0 111 -3 162 -28 107 -53 164 -147 179
-300 4 -50 9 -255 9 -454 l0 -363 141 0 140 0 -4 473 c-3 415 -6 479 -21 532
-61 205 -201 338 -401 380 -75 16 -195 18 -260 5z"/>
<path d="M31245 24655 c-277 -60 -466 -277 -506 -580 -43 -329 104 -636 367
-764 100 -49 181 -64 309 -58 168 7 298 64 404 176 l43 46 -4 -175 c-5 -189
-16 -238 -73 -320 -98 -141 -351 -184 -533 -91 -62 32 -127 94 -151 146 l-21
45 -141 0 -141 0 7 -42 c33 -195 181 -345 411 -414 80 -24 106 -27 249 -28
141 -1 169 2 235 22 220 69 364 218 427 442 17 60 18 120 18 825 l0 760 -142
3 -143 3 0 -98 0 -99 -60 58 c-137 130 -356 187 -555 143z m365 -271 c121 -57
207 -167 235 -301 51 -237 -42 -456 -233 -550 -52 -26 -67 -28 -167 -28 -105
0 -114 2 -177 33 -109 54 -199 169 -227 293 -15 63 -13 215 3 275 36 137 129
241 259 290 52 20 77 24 152 21 76 -2 100 -8 155 -33z"/>
<path d="M16100 23960 l0 -690 140 0 140 0 0 690 0 690 -140 0 -140 0 0 -690z"/>
<path d="M28550 23960 l0 -690 140 0 140 0 0 690 0 690 -140 0 -140 0 0 -690z"/>
<path d="M20840 24175 l0 -115 510 0 510 0 0 115 0 115 -510 0 -510 0 0 -115z"/>
<path d="M17880 19865 l0 -925 140 0 140 0 0 925 0 925 -140 0 -140 0 0 -925z"/>
<path d="M18540 19865 l0 -925 140 0 140 0 0 925 0 925 -140 0 -140 0 0 -925z"/>
<path d="M14610 19815 l0 -865 408 0 c323 0 420 3 469 15 155 37 286 136 345
260 26 57 32 83 36 164 3 80 1 107 -18 160 -44 131 -158 251 -262 276 -16 4
-28 10 -28 14 0 4 23 18 52 32 70 32 148 111 184 184 27 56 29 68 29 175 0
109 -2 119 -32 183 -41 86 -111 155 -206 202 -122 60 -165 65 -594 65 l-383 0
0 -865z m775 614 c56 -19 130 -94 144 -144 26 -94 7 -191 -47 -248 -66 -70
-143 -87 -397 -87 l-195 0 0 251 0 251 228 -5 c159 -3 239 -8 267 -18z m-10
-724 c117 -30 188 -105 207 -216 21 -123 -34 -230 -145 -280 -49 -23 -64 -24
-299 -27 l-248 -3 0 270 0 271 213 0 c158 0 228 -4 272 -15z"/>
<path d="M32710 20490 l0 -170 -80 0 -80 0 0 -115 0 -115 79 0 80 0 3 -442 c3
-438 4 -444 27 -503 31 -78 98 -145 177 -175 51 -20 82 -24 237 -28 l177 -4 0
121 0 121 -116 0 c-134 0 -174 13 -198 65 -14 28 -16 90 -16 439 l0 406 165 0
165 0 0 115 0 115 -165 0 -165 0 0 170 0 170 -145 0 -145 0 0 -170z"/>
<path d="M16605 20325 c-221 -48 -398 -208 -469 -423 -143 -430 70 -876 460
-968 96 -22 265 -15 353 16 77 27 199 107 241 158 l30 37 0 -103 0 -102 145 0
145 0 -2 688 -3 687 -142 3 -143 3 0 -97 0 -96 -60 55 c-145 131 -358 185
-555 142z m366 -271 c119 -56 206 -168 234 -301 51 -237 -42 -456 -233 -550
-52 -26 -67 -28 -167 -28 -105 0 -114 2 -177 33 -112 55 -201 174 -229 303 -7
30 -9 100 -7 160 4 99 7 114 41 181 55 111 128 178 238 218 84 31 213 24 300
-16z"/>
<path d="M19630 20326 c-256 -54 -440 -233 -506 -491 -27 -105 -25 -315 4
-418 89 -316 331 -497 661 -497 58 0 137 7 174 15 87 18 197 71 265 128 78 65
161 182 186 265 l7 22 -153 0 -153 0 -33 -51 c-100 -152 -357 -186 -528 -69
-57 40 -112 118 -135 191 -34 111 -94 99 505 99 l525 0 7 47 c11 75 -3 241
-26 318 -34 111 -78 183 -160 266 -80 81 -173 135 -280 165 -78 21 -279 27
-360 10z m325 -264 c117 -55 188 -147 202 -260 l6 -52 -382 0 c-209 0 -381 3
-381 8 0 22 30 113 49 150 41 81 141 157 238 182 21 5 76 7 122 5 65 -3 97
-11 146 -33z"/>
<path d="M21315 20326 c-86 -21 -147 -57 -217 -128 l-68 -68 0 95 0 95 -140 0
-140 0 0 -690 0 -690 139 0 140 0 3 423 c4 373 6 428 22 477 43 130 117 184
274 200 48 6 93 10 100 10 9 0 12 36 12 145 l0 145 -37 -1 c-21 0 -61 -6 -88
-13z"/>
<path d="M22963 20320 c-112 -29 -201 -80 -280 -161 l-43 -43 0 102 0 102
-140 0 -140 0 0 -1015 0 -1015 140 0 140 0 0 420 0 421 63 -53 c131 -112 221
-148 387 -155 135 -6 204 7 320 64 108 52 220 167 278 285 113 227 108 537
-13 749 -139 246 -437 371 -712 299z m270 -267 c165 -78 257 -248 244 -453 -7
-100 -32 -179 -82 -255 -44 -65 -92 -105 -172 -143 -52 -24 -70 -27 -163 -27
-97 0 -110 2 -170 31 -125 59 -215 184 -241 337 -34 205 64 423 227 503 77 37
107 43 204 41 72 -3 96 -8 153 -34z"/>
<path d="M24460 20324 c-211 -45 -394 -211 -465 -423 -65 -192 -52 -447 31
-613 140 -279 404 -412 710 -357 87 15 215 82 285 148 l59 57 0 -98 0 -98 145
0 145 0 -2 688 -3 687 -142 3 -143 3 0 -97 0 -96 -62 57 c-145 131 -355 183
-558 139z m373 -271 c119 -57 204 -165 232 -300 51 -237 -42 -456 -233 -550
-52 -26 -67 -28 -167 -28 -105 0 -114 2 -177 33 -113 55 -201 172 -229 303 -6
29 -9 99 -7 159 4 92 8 115 35 171 81 170 211 252 393 246 71 -2 97 -8 153
-34z"/>
<path d="M26083 20329 c-173 -29 -324 -141 -370 -274 -22 -66 -14 -215 15
-271 31 -60 65 -98 125 -136 67 -44 124 -67 330 -128 259 -77 307 -109 307
-201 0 -56 -29 -97 -94 -132 -35 -19 -57 -22 -146 -22 -95 0 -110 3 -156 27
-61 32 -99 75 -115 128 l-12 40 -149 0 -149 0 6 -37 c31 -187 189 -339 402
-387 157 -35 366 -13 486 51 68 37 147 116 177 178 22 44 25 64 25 160 0 119
-7 140 -67 217 -64 82 -148 121 -483 223 -136 42 -200 80 -222 133 -42 100 42
188 191 199 141 11 251 -49 278 -152 l12 -45 144 0 143 0 -6 38 c-29 173 -121
294 -268 356 -98 41 -276 56 -404 35z"/>
<path d="M27413 20329 c-177 -30 -335 -151 -374 -286 -18 -64 -7 -209 18 -258
67 -127 145 -172 473 -270 243 -74 290 -105 290 -196 0 -92 -80 -149 -217
-157 -97 -5 -172 15 -227 60 -37 30 -76 94 -76 123 0 13 -22 15 -150 15 l-151
0 6 -37 c40 -243 268 -403 575 -403 183 0 316 46 415 145 74 72 99 131 103
236 4 101 -7 148 -49 213 -64 96 -160 148 -406 220 -229 67 -285 96 -317 159
-23 47 -16 94 21 137 34 41 83 60 168 67 140 11 250 -49 277 -152 l12 -45 143
0 c108 0 143 3 143 13 -1 36 -34 146 -57 189 -34 63 -123 145 -193 180 -105
51 -285 71 -427 47z"/>
<path d="M29025 20321 c-108 -27 -202 -81 -283 -161 l-42 -42 0 101 0 101
-140 0 -140 0 0 -1015 0 -1015 140 0 140 0 0 420 0 421 63 -53 c131 -112 221
-148 387 -155 135 -6 204 7 320 64 109 53 221 168 278 285 158 320 80 742
-173 935 -155 118 -361 161 -550 114z m265 -267 c93 -45 153 -102 195 -187 44
-90 59 -169 52 -272 -13 -186 -101 -321 -255 -393 -50 -24 -69 -27 -162 -27
-97 0 -110 2 -170 31 -174 83 -270 279 -242 494 24 179 125 312 283 370 84 32
213 24 299 -16z"/>
<path d="M30560 20326 c-268 -57 -468 -251 -526 -514 -12 -55 -15 -107 -12
-215 4 -123 8 -153 33 -226 75 -220 245 -375 475 -432 119 -30 300 -24 411 14
233 79 386 236 451 462 30 104 32 314 5 415 -63 235 -227 406 -462 480 -89 28
-279 36 -375 16z m281 -256 c33 -12 77 -31 97 -44 142 -90 218 -299 179 -496
-31 -159 -99 -255 -225 -317 -68 -34 -85 -38 -168 -41 -67 -3 -107 1 -143 13
-109 36 -199 123 -242 232 -31 81 -39 284 -14 369 43 147 136 248 268 289 65
21 178 18 248 -5z"/>
<path d="M32275 20326 c-86 -21 -147 -57 -217 -128 l-68 -68 0 95 0 95 -140 0
-140 0 0 -690 0 -690 139 0 140 0 3 423 c4 373 6 428 22 477 43 130 117 184
274 200 48 6 93 10 100 10 9 0 12 36 12 145 l0 145 -37 -1 c-21 0 -61 -6 -88
-13z"/>
<path d="M29780 16482 c-112 -51 -147 -204 -67 -290 71 -76 187 -82 261 -14
83 78 72 223 -21 287 -31 20 -49 25 -98 24 -33 0 -67 -3 -75 -7z"/>
<path d="M20940 15495 l0 -925 140 0 140 0 0 398 c0 406 6 493 39 568 27 61
85 120 149 151 51 25 67 28 162 28 95 0 111 -3 162 -28 105 -52 163 -146 178
-294 5 -48 10 -253 10 -455 l0 -368 141 0 140 0 -3 473 c-4 412 -6 480 -21
532 -78 267 -282 408 -566 392 -138 -8 -272 -60 -346 -136 -16 -17 -33 -31
-37 -31 -5 0 -8 140 -8 310 l0 310 -140 0 -140 0 0 -925z"/>
<path d="M28320 15495 l0 -925 140 0 140 0 2 295 3 294 45 -53 c25 -29 139
-162 253 -295 l208 -241 190 0 c104 0 189 2 189 5 0 3 -82 94 -182 202 -350
377 -439 476 -436 484 3 8 145 166 237 264 145 154 376 408 379 416 2 5 -78 9
-191 9 l-194 0 -249 -300 -249 -301 -3 536 -2 535 -140 0 -140 0 0 -925z"/>
<path d="M14610 15445 l0 -865 140 0 140 0 0 588 c1 539 2 585 16 558 9 -16
123 -268 254 -560 131 -292 243 -543 250 -558 13 -28 14 -28 115 -28 l101 0
259 583 260 584 3 -584 2 -583 145 0 145 0 0 865 0 866 -156 -3 -156 -3 -298
-668 c-163 -368 -300 -669 -304 -670 -4 -1 -142 301 -308 671 l-301 672 -153
0 -154 0 0 -865z"/>
<path d="M18550 16120 l0 -170 -80 0 -80 0 0 -115 0 -115 79 0 80 0 3 -442 c3
-438 4 -444 27 -503 31 -78 98 -145 177 -175 51 -20 82 -24 237 -28 l177 -4 0
121 0 121 -116 0 c-134 0 -174 13 -198 65 -14 28 -16 90 -16 439 l0 406 165 0
165 0 0 115 0 115 -165 0 -165 0 0 170 0 170 -145 0 -145 0 0 -170z"/>
<path d="M17245 15959 c-285 -64 -475 -280 -516 -585 -50 -376 151 -717 473
-804 108 -29 278 -25 376 10 76 27 195 103 240 154 l32 37 0 -101 0 -100 145
0 145 0 -2 688 -3 687 -142 3 -143 3 0 -97 0 -96 -60 55 c-116 105 -259 158
-419 156 -47 -1 -104 -5 -126 -10z m355 -275 c193 -91 289 -315 234 -554 -29
-128 -116 -240 -232 -297 -52 -26 -67 -28 -167 -28 -105 0 -114 2 -177 33
-109 54 -199 169 -227 293 -15 63 -13 215 3 275 37 139 137 249 269 295 83 30
213 22 297 -17z"/>
<path d="M19855 15955 c-240 -52 -428 -239 -491 -490 -24 -96 -24 -313 0 -410
55 -225 211 -399 423 -472 62 -21 102 -27 199 -31 224 -8 369 43 505 178 71
71 132 168 154 248 l6 22 -153 0 -154 0 -17 -35 c-27 -56 -93 -121 -150 -146
-44 -20 -68 -24 -157 -24 -93 0 -111 3 -160 26 -146 70 -220 215 -220 431 0
187 39 298 136 387 168 154 464 104 551 -91 l17 -38 153 0 c91 0 153 4 153 10
0 27 -48 133 -87 192 -73 111 -192 195 -328 233 -86 23 -292 29 -380 10z"/>
<path d="M24620 15963 c-90 -15 -176 -55 -253 -118 l-57 -46 0 75 0 76 -140 0
-140 0 0 -690 0 -690 140 0 140 0 0 398 c0 223 5 426 10 462 20 125 85 216
189 264 38 17 65 21 151 21 86 0 113 -4 151 -21 113 -52 173 -149 189 -302 6
-48 10 -252 10 -454 l0 -368 140 0 140 0 0 423 c0 475 3 502 68 596 28 41 53
63 102 90 64 35 67 36 175 36 99 0 115 -3 161 -27 93 -49 149 -125 173 -236 7
-34 11 -198 11 -467 l0 -415 140 0 140 0 0 458 c0 424 -1 465 -20 536 -64 252
-270 406 -542 406 -185 -1 -366 -90 -455 -224 l-29 -44 -28 44 c-62 98 -191
181 -324 209 -63 14 -185 18 -242 8z"/>
<path d="M27025 15951 c-265 -65 -446 -281 -486 -578 -27 -207 30 -433 148
-588 79 -102 208 -185 343 -220 91 -24 270 -16 358 15 76 27 195 103 240 154
l32 37 0 -101 0 -100 145 0 145 0 -2 688 -3 687 -142 3 -143 3 0 -97 0 -96
-60 55 c-34 30 -87 69 -120 86 -127 68 -307 89 -455 52z m388 -269 c190 -89
285 -315 231 -552 -29 -128 -116 -240 -232 -297 -52 -26 -67 -28 -167 -28
-105 0 -114 2 -177 33 -109 54 -199 169 -227 293 -15 63 -13 215 3 275 31 117
114 222 212 270 76 37 107 43 204 41 72 -3 96 -8 153 -35z"/>
<path d="M30926 15954 c-80 -19 -176 -68 -227 -115 -23 -22 -44 -39 -46 -39
-1 0 -3 34 -3 75 l0 75 -140 0 -140 0 0 -690 0 -690 140 0 140 0 0 398 c0 223
5 426 10 462 20 125 85 216 189 264 38 17 65 21 151 21 95 0 111 -3 162 -28
105 -52 163 -146 178 -294 5 -48 10 -253 10 -455 l0 -368 141 0 140 0 -3 473
c-4 408 -6 480 -21 530 -60 205 -202 340 -402 382 -87 18 -201 18 -279 -1z"/>
<path d="M32385 15951 c-265 -65 -446 -281 -486 -578 -47 -357 141 -695 442
-794 63 -20 93 -24 204 -24 110 0 140 4 197 23 84 29 180 91 236 151 l42 46 0
-145 c0 -153 -14 -240 -49 -308 -20 -38 -87 -107 -132 -134 -100 -62 -295 -63
-422 -3 -57 27 -125 93 -153 146 l-24 49 -140 0 c-108 0 -140 -3 -140 -13 0
-7 7 -39 15 -72 68 -259 351 -421 704 -402 58 3 133 13 166 21 214 57 374 215
437 431 l23 80 0 760 0 760 -142 3 -143 3 0 -97 0 -96 -60 55 c-144 134 -372
189 -575 138z m388 -269 c190 -89 285 -315 231 -552 -29 -128 -116 -240 -232
-297 -52 -26 -67 -28 -167 -28 -105 0 -114 2 -177 33 -109 54 -199 169 -227
293 -15 63 -13 215 3 275 31 117 114 222 212 270 76 37 107 43 204 41 72 -3
96 -8 153 -35z"/>
<path d="M29710 15260 l0 -690 140 0 140 0 0 690 0 690 -140 0 -140 0 0 -690z"/>
<path d="M22600 15475 l0 -115 510 0 510 0 0 115 0 115 -510 0 -510 0 0 -115z"/>
</g>
</svg>
