<?xml version="1.0" encoding="UTF-8"?>
<!DOCTYPE svg PUBLIC "-//W3C//DTD SVG 1.1//EN" "http://www.w3.org/Graphics/SVG/1.1/DTD/svg11.dtd">
<svg xmlns="http://www.w3.org/2000/svg" version="1.1" width="900px" height="1600px" style="shape-rendering:geometricPrecision; text-rendering:geometricPrecision; image-rendering:optimizeQuality; fill-rule:evenodd; clip-rule:evenodd" xmlns:xlink="http://www.w3.org/1999/xlink">
<g><path style="opacity:1" fill="#eeeae5" d="M -0.5,-0.5 C 299.5,-0.5 599.5,-0.5 899.5,-0.5C 899.5,532.833 899.5,1066.17 899.5,1599.5C 599.5,1599.5 299.5,1599.5 -0.5,1599.5C -0.5,1066.17 -0.5,532.833 -0.5,-0.5 Z"/></g>
<g><path style="opacity:1" fill="#676a4a" d="M 538.5,546.5 C 546.709,546.801 554.376,548.801 561.5,552.5C 552.154,550.264 542.821,548.597 533.5,547.5C 535.415,547.784 537.081,547.451 538.5,546.5 Z"/></g>
<g><path style="opacity:1" fill="#575b39" d="M 538.5,546.5 C 537.081,547.451 535.415,547.784 533.5,547.5C 497.594,547.121 468.928,561.121 447.5,589.5C 448.471,587.517 449.471,585.517 450.5,583.5C 473.42,556.385 502.753,544.052 538.5,546.5 Z"/></g>
<g><path style="opacity:1" fill="#5a5d3e" d="M 561.5,552.5 C 582.491,559.157 598.824,571.824 610.5,590.5C 604.067,582.232 596.734,574.732 588.5,568C 579.827,562.138 570.827,556.971 561.5,552.5 Z"/></g>
<g><path style="opacity:1" fill="#e8e7c0" d="M 404.5,579.5 C 384.682,580.871 364.682,581.537 344.5,581.5C 364.318,580.129 384.318,579.463 404.5,579.5 Z"/></g>
<g><path style="opacity:1" fill="#8b9919" d="M 404.5,579.5 C 416.171,579.333 427.838,579.5 439.5,580C 437.666,582.663 435.666,585.163 433.5,587.5C 395.467,587.486 357.467,586.486 319.5,584.5C 319.5,583.833 319.5,583.167 319.5,582.5C 327.918,582.802 336.252,582.469 344.5,581.5C 364.682,581.537 384.682,580.871 404.5,579.5 Z"/></g>
<g><path style="opacity:1" fill="#919a42" d="M 308.5,582.5 C 312.167,582.5 315.833,582.5 319.5,582.5C 319.5,583.167 319.5,583.833 319.5,584.5C 310.161,584.666 300.827,584.5 291.5,584C 297.348,583.827 303.015,583.327 308.5,582.5 Z"/></g>
<g><path style="opacity:1" fill="#e3e4b7" d="M 308.5,582.5 C 303.015,583.327 297.348,583.827 291.5,584C 300.827,584.5 310.161,584.666 319.5,584.5C 357.467,586.486 395.467,587.486 433.5,587.5C 427.69,588.49 421.69,588.823 415.5,588.5C 373.249,587.265 330.915,586.431 288.5,586C 287.663,584.989 287.33,583.822 287.5,582.5C 294.5,582.5 301.5,582.5 308.5,582.5 Z"/></g>
<g><path style="opacity:1" fill="#43462a" d="M 447.5,589.5 C 447.573,591.027 446.906,592.027 445.5,592.5C 445.427,590.973 446.094,589.973 447.5,589.5 Z"/></g>
<g><path style="opacity:1" fill="#ebebc6" d="M 402.5,592.5 C 402.5,592.833 402.5,593.167 402.5,593.5C 382.166,593.812 361.833,594.145 341.5,594.5C 342.952,593.698 344.618,593.198 346.5,593C 365.164,592.5 383.83,592.333 402.5,592.5 Z"/></g>
<g><path style="opacity:1" fill="#a1a850" d="M 402.5,593.5 C 402.5,593.167 402.5,592.833 402.5,592.5C 403.5,592.5 404.5,592.5 405.5,592.5C 413.528,592.169 421.528,592.502 429.5,593.5C 429.058,594.739 428.391,595.739 427.5,596.5C 427.5,595.5 427.5,594.5 427.5,593.5C 419.167,593.5 410.833,593.5 402.5,593.5 Z"/></g>
<g><path style="opacity:1" fill="#c1c68c" d="M 303.5,595.5 C 303.5,596.167 303.5,596.833 303.5,597.5C 282.167,596.833 282.167,596.167 303.5,595.5 Z"/></g>
<g><path style="opacity:1" fill="#8b9818" d="M 402.5,593.5 C 410.833,593.5 419.167,593.5 427.5,593.5C 427.5,594.5 427.5,595.5 427.5,596.5C 426.972,597.721 426.305,598.887 425.5,600C 422.183,600.498 418.85,600.665 415.5,600.5C 389.001,599.549 362.335,598.883 335.5,598.5C 324.852,597.723 314.185,597.39 303.5,597.5C 303.5,596.833 303.5,596.167 303.5,595.5C 316.246,595.813 328.913,595.48 341.5,594.5C 361.833,594.145 382.166,593.812 402.5,593.5 Z"/></g>
<g><path style="opacity:1" fill="#505430" d="M 610.5,590.5 C 614.194,594.551 616.86,599.217 618.5,604.5C 615.331,600.167 612.664,595.5 610.5,590.5 Z"/></g>
<g><path style="opacity:1" fill="#535637" d="M 445.5,592.5 C 439.355,603.469 434.855,615.136 432,627.5C 431.505,625.527 431.338,623.527 431.5,621.5C 434.888,612.033 438.888,602.699 443.5,593.5C 443.957,592.702 444.624,592.369 445.5,592.5 Z"/></g>
<g><path style="opacity:1" fill="#e2e2bc" d="M 335.5,598.5 C 362.335,598.883 389.001,599.549 415.5,600.5C 410.167,600.5 404.833,600.5 399.5,600.5C 382.163,600.667 364.83,600.5 347.5,600C 343.312,599.824 339.312,599.324 335.5,598.5 Z"/></g>
<g><path style="opacity:1" fill="#ebe9da" d="M 450.5,583.5 C 449.471,585.517 448.471,587.517 447.5,589.5C 446.094,589.973 445.427,590.973 445.5,592.5C 444.624,592.369 443.957,592.702 443.5,593.5C 438.888,602.699 434.888,612.033 431.5,621.5C 431.782,618.09 432.449,614.757 433.5,611.5C 432.311,610.571 430.978,610.238 429.5,610.5C 429.48,608.857 430.147,607.524 431.5,606.5C 430.67,604.865 430.503,603.198 431,601.5C 427.799,601.766 427.633,600.6 430.5,598C 430.167,597.833 429.833,597.667 429.5,597.5C 428.246,599.538 426.579,601.204 424.5,602.5C 423.83,604.291 423.163,605.958 422.5,607.5C 419.062,606.177 415.229,605.51 411,605.5C 388.509,606.523 366.009,607.189 343.5,607.5C 343.611,606.883 343.944,606.383 344.5,606C 357.547,605.901 370.547,605.234 383.5,604C 382.833,603.667 382.167,603.333 381.5,603C 386.833,602.333 392.167,602.333 397.5,603C 395.5,603.333 393.5,603.667 391.5,604C 401.5,604.667 411.5,604.667 421.5,604C 421.957,603.586 422.291,603.086 422.5,602.5C 414.677,601.833 407.01,601.167 399.5,600.5C 404.833,600.5 410.167,600.5 415.5,600.5C 418.85,600.665 422.183,600.498 425.5,600C 426.305,598.887 426.972,597.721 427.5,596.5C 428.391,595.739 429.058,594.739 429.5,593.5C 421.528,592.502 413.528,592.169 405.5,592.5C 411.987,591.672 418.654,591.172 425.5,591C 421.91,590.689 418.577,589.856 415.5,588.5C 421.69,588.823 427.69,588.49 433.5,587.5C 435.666,585.163 437.666,582.663 439.5,580C 427.838,579.5 416.171,579.333 404.5,579.5C 416.007,578.833 427.674,578.167 439.5,577.5C 443.198,574.672 443.865,575.005 441.5,578.5C 443.5,579.167 445.5,579.833 447.5,580.5C 447.879,582.213 448.879,583.213 450.5,583.5 Z"/></g>
<g><path style="opacity:1" fill="#8b9818" d="M 422.5,607.5 C 421.326,608.514 420.66,609.847 420.5,611.5C 401.239,612.172 381.905,612.172 362.5,611.5C 353.318,611.827 344.318,611.493 335.5,610.5C 330.167,609.833 324.833,609.167 319.5,608.5C 327.316,607.508 335.316,607.174 343.5,607.5C 366.009,607.189 388.509,606.523 411,605.5C 415.229,605.51 419.062,606.177 422.5,607.5 Z"/></g>
<g><path style="opacity:1" fill="#5b5e3d" d="M 618.5,604.5 C 620.226,606.942 621.726,609.609 623,612.5C 627.124,627.2 628.624,642.2 627.5,657.5C 626.833,649.5 626.167,641.5 625.5,633.5C 623.774,623.663 621.441,613.996 618.5,604.5 Z"/></g>
<g><path style="opacity:1" fill="#93974a" d="M 319.5,608.5 C 324.833,609.167 330.167,609.833 335.5,610.5C 326.833,610.5 318.167,610.5 309.5,610.5C 303.866,609.812 298.199,609.312 292.5,609C 301.494,608.5 310.494,608.334 319.5,608.5 Z"/></g>
<g><path style="opacity:1" fill="#ededcd" d="M 309.5,610.5 C 318.167,610.5 326.833,610.5 335.5,610.5C 344.318,611.493 353.318,611.827 362.5,611.5C 362.5,611.833 362.5,612.167 362.5,612.5C 361.833,612.5 361.167,612.5 360.5,612.5C 344.163,612.667 327.83,612.5 311.5,612C 310.584,611.722 309.918,611.222 309.5,610.5 Z"/></g>
<g><path style="opacity:1" fill="#cdd28e" d="M 362.5,612.5 C 362.5,612.167 362.5,611.833 362.5,611.5C 381.905,612.172 401.239,612.172 420.5,611.5C 415.544,612.828 410.211,613.495 404.5,613.5C 390.505,612.91 376.505,612.577 362.5,612.5 Z"/></g>
<g><path style="opacity:1" fill="#e7e6c4" d="M 372.5,618.5 C 381.5,618.5 390.5,618.5 399.5,618.5C 379.647,619.214 359.647,619.881 339.5,620.5C 332.833,620.5 326.167,620.5 319.5,620.5C 336.802,618.514 354.468,617.847 372.5,618.5 Z"/></g>
<g><path style="opacity:1" fill="#8d991b" d="M 399.5,618.5 C 405.5,618.5 411.5,618.5 417.5,618.5C 417.5,619.5 417.5,620.5 417.5,621.5C 416.609,622.261 415.942,623.261 415.5,624.5C 407.528,625.498 399.528,625.831 391.5,625.5C 373.021,624.005 354.354,623.338 335.5,623.5C 326.5,623.5 317.5,623.5 308.5,623.5C 318.853,622.744 329.187,621.744 339.5,620.5C 359.647,619.881 379.647,619.214 399.5,618.5 Z"/></g>
<g><path style="opacity:1" fill="#9fa54f" d="M 319.5,620.5 C 326.167,620.5 332.833,620.5 339.5,620.5C 329.187,621.744 318.853,622.744 308.5,623.5C 303.156,623.666 297.823,623.499 292.5,623C 292.833,622.667 293.167,622.333 293.5,622C 302.343,621.83 311.01,621.33 319.5,620.5 Z"/></g>
<g><path style="opacity:1" fill="#cfd099" d="M 335.5,624.5 C 335.5,624.167 335.5,623.833 335.5,623.5C 354.354,623.338 373.021,624.005 391.5,625.5C 391.167,625.5 390.833,625.5 390.5,625.5C 380.833,625.5 371.167,625.5 361.5,625.5C 353.016,624.507 344.349,624.174 335.5,624.5 Z"/></g>
<g><path style="opacity:1" fill="#ecebd9" d="M 417.5,621.5 C 417.5,625.5 417.5,629.5 417.5,633.5C 416.313,635.072 415.313,636.739 414.5,638.5C 414.318,636.409 414.652,634.409 415.5,632.5C 390.504,631.541 365.504,631.541 340.5,632.5C 341.263,631.732 342.263,631.232 343.5,631C 326.409,630.972 309.409,630.306 292.5,629C 293.43,628.009 294.596,627.509 296,627.5C 312.812,628.631 329.646,628.798 346.5,628C 335.572,626.735 324.572,626.068 313.5,626C 313.167,625.667 312.833,625.333 312.5,625C 320.468,624.565 328.135,624.398 335.5,624.5C 344.349,624.174 353.016,624.507 361.5,625.5C 349.684,625.065 349.017,626.565 359.5,630C 378.164,630.5 396.83,630.667 415.5,630.5C 415.5,629.167 415.5,627.833 415.5,626.5C 406.983,626.826 398.65,626.493 390.5,625.5C 390.833,625.5 391.167,625.5 391.5,625.5C 399.528,625.831 407.528,625.498 415.5,624.5C 415.942,623.261 416.609,622.261 417.5,621.5 Z"/></g>
<g><path style="opacity:1" fill="#eeeae6" d="M 361.5,625.5 C 371.167,625.5 380.833,625.5 390.5,625.5C 398.65,626.493 406.983,626.826 415.5,626.5C 415.5,627.833 415.5,629.167 415.5,630.5C 396.83,630.667 378.164,630.5 359.5,630C 349.017,626.565 349.684,625.065 361.5,625.5 Z"/></g>
<g><path style="opacity:1" fill="#ebebc8" d="M 340.5,632.5 C 333.018,633.492 325.352,633.825 317.5,633.5C 311.523,634.141 305.523,634.641 299.5,635C 304.019,635.175 308.353,635.675 312.5,636.5C 307.5,636.5 302.5,636.5 297.5,636.5C 297.33,635.178 297.663,634.011 298.5,633C 312.496,632.5 326.496,632.333 340.5,632.5 Z"/></g>
<g><path style="opacity:1" fill="#8d991d" d="M 414.5,638.5 C 388.175,637.524 361.842,636.857 335.5,636.5C 328.679,635.671 321.679,635.171 314.5,635C 315.737,634.768 316.737,634.268 317.5,633.5C 325.352,633.825 333.018,633.492 340.5,632.5C 365.504,631.541 390.504,631.541 415.5,632.5C 414.652,634.409 414.318,636.409 414.5,638.5 Z"/></g>
<g><path style="opacity:1" fill="#b6bb6d" d="M 317.5,633.5 C 316.737,634.268 315.737,634.768 314.5,635C 321.679,635.171 328.679,635.671 335.5,636.5C 330.167,636.5 324.833,636.5 319.5,636.5C 317.167,636.5 314.833,636.5 312.5,636.5C 308.353,635.675 304.019,635.175 299.5,635C 305.523,634.641 311.523,634.141 317.5,633.5 Z"/></g>
<g><path style="opacity:1" fill="#ebe9d0" d="M 319.5,636.5 C 324.833,636.5 330.167,636.5 335.5,636.5C 361.842,636.857 388.175,637.524 414.5,638.5C 415.303,639.423 415.47,640.423 415,641.5C 410.581,640.847 406.081,640.514 401.5,640.5C 396.391,640.386 391.391,640.886 386.5,642C 395.676,642.17 404.676,642.67 413.5,643.5C 405.49,643.644 397.49,643.977 389.5,644.5C 384.5,644.5 379.5,644.5 374.5,644.5C 377.977,643.677 381.644,643.177 385.5,643C 383.167,642.667 380.833,642.333 378.5,642C 382.957,640.365 387.623,639.365 392.5,639C 366.497,638.75 340.497,638.75 314.5,639C 321.5,638.667 328.5,638.333 335.5,638C 329.984,637.827 324.651,637.327 319.5,636.5 Z"/></g>
<g><path style="opacity:1" fill="#bcbfa2" d="M 625.5,633.5 C 626.167,641.5 626.833,649.5 627.5,657.5C 627.784,659.415 627.451,661.081 626.5,662.5C 626.737,661.209 626.404,660.209 625.5,659.5C 625.5,650.833 625.5,642.167 625.5,633.5 Z"/></g>
<g><path style="opacity:1" fill="#e1e4ad" d="M 367.5,644.5 C 350.318,645.403 332.985,646.403 315.5,647.5C 323.323,648.167 330.99,648.833 338.5,649.5C 330.16,649.666 321.827,649.5 313.5,649C 312.062,648.781 310.729,648.281 309.5,647.5C 309.709,646.914 310.043,646.414 310.5,646C 329.489,645.021 348.489,644.521 367.5,644.5 Z"/></g>
<g><path style="opacity:1" fill="#899910" d="M 413.5,643.5 C 413.5,643.833 413.5,644.167 413.5,644.5C 413.5,646.833 413.5,649.167 413.5,651.5C 406.11,651.764 398.777,651.43 391.5,650.5C 375.345,649.261 359.012,648.428 342.5,648C 358.193,646.68 373.86,645.513 389.5,644.5C 397.49,643.977 405.49,643.644 413.5,643.5 Z"/></g>
<g><path style="opacity:1" fill="#8d962f" d="M 367.5,644.5 C 369.833,644.5 372.167,644.5 374.5,644.5C 379.5,644.5 384.5,644.5 389.5,644.5C 373.86,645.513 358.193,646.68 342.5,648C 359.012,648.428 375.345,649.261 391.5,650.5C 383.5,650.5 375.5,650.5 367.5,650.5C 358.014,649.506 348.348,649.173 338.5,649.5C 330.99,648.833 323.323,648.167 315.5,647.5C 332.985,646.403 350.318,645.403 367.5,644.5 Z"/></g>
<g><path style="opacity:1" fill="#eeedd3" d="M 413.5,644.5 C 414.236,647.695 414.903,651.029 415.5,654.5C 410.198,655.663 404.864,655.829 399.5,655C 404.202,654.828 408.868,654.328 413.5,653.5C 400.179,652.667 386.846,652.167 373.5,652C 371.292,651.809 369.292,651.309 367.5,650.5C 375.5,650.5 383.5,650.5 391.5,650.5C 398.777,651.43 406.11,651.764 413.5,651.5C 413.5,649.167 413.5,646.833 413.5,644.5 Z"/></g>
<g><path style="opacity:1" fill="#fb8c0c" d="M 415.5,664.5 C 415.5,665.167 415.5,665.833 415.5,666.5C 415.077,668.781 415.744,670.448 417.5,671.5C 420.444,683.026 425.111,693.693 431.5,703.5C 432.141,704.482 432.807,705.482 433.5,706.5C 425.528,707.498 417.528,707.831 409.5,707.5C 409.5,703.833 409.5,700.167 409.5,696.5C 408.167,696.5 406.833,696.5 405.5,696.5C 405.5,701.5 405.5,706.5 405.5,711.5C 416.5,711.5 427.5,711.5 438.5,711.5C 442.929,716.863 447.929,721.53 453.5,725.5C 415.67,726.499 377.67,726.832 339.5,726.5C 333.362,711.418 327.028,696.418 320.5,681.5C 326.412,679.544 332.745,678.877 339.5,679.5C 339.185,683.371 339.518,687.038 340.5,690.5C 345.511,690.666 350.511,690.499 355.5,690C 356.43,688.806 357.097,687.473 357.5,686C 356.652,683.23 356.319,680.397 356.5,677.5C 354.897,677.688 353.563,677.188 352.5,676C 341.172,675.5 329.838,675.333 318.5,675.5C 316.539,670.583 314.872,665.583 313.5,660.5C 347.5,660.5 381.5,660.5 415.5,660.5C 415.5,661.833 415.5,663.167 415.5,664.5 Z"/></g>
<g><path style="opacity:1" fill="#5c5f42" d="M 625.5,659.5 C 626.404,660.209 626.737,661.209 626.5,662.5C 625.449,671.154 622.783,679.154 618.5,686.5C 621.026,677.582 623.359,668.582 625.5,659.5 Z"/></g>
<g><path style="opacity:1" fill="#f4c487" d="M 415.5,666.5 C 417.213,667.635 417.88,669.302 417.5,671.5C 415.744,670.448 415.077,668.781 415.5,666.5 Z"/></g>
<g><path style="opacity:1" fill="#fdf3e0" d="M 318.5,675.5 C 329.838,675.333 341.172,675.5 352.5,676C 353.563,677.188 354.897,677.688 356.5,677.5C 356.319,680.397 356.652,683.23 357.5,686C 357.097,687.473 356.43,688.806 355.5,690C 350.511,690.499 345.511,690.666 340.5,690.5C 340.5,686.5 340.5,682.5 340.5,678.5C 333.5,678.5 326.5,678.5 319.5,678.5C 319.611,677.883 319.944,677.383 320.5,677C 319.584,676.722 318.918,676.222 318.5,675.5 Z"/></g>
<g><path style="opacity:1" fill="#fee0ad" d="M 319.5,678.5 C 326.5,678.5 333.5,678.5 340.5,678.5C 340.5,682.5 340.5,686.5 340.5,690.5C 339.518,687.038 339.185,683.371 339.5,679.5C 332.745,678.877 326.412,679.544 320.5,681.5C 319.596,680.791 319.263,679.791 319.5,678.5 Z"/></g>
<g><path style="opacity:1" fill="#f49732" d="M 343.5,679.5 C 346.572,679.183 349.572,679.516 352.5,680.5C 351,680.833 349.5,681.167 348,681.5C 346.014,681.431 344.514,680.765 343.5,679.5 Z"/></g>
<g><path style="opacity:1" fill="#f8c07c" d="M 399.5,676.5 C 398.5,676.5 397.5,676.5 396.5,676.5C 396.5,681.167 396.5,685.833 396.5,690.5C 395.513,685.695 395.179,680.695 395.5,675.5C 397.099,675.232 398.432,675.566 399.5,676.5 Z"/></g>
<g><path style="opacity:1" fill="#fcf2de" d="M 365.5,675.5 C 367.288,675.215 368.955,675.548 370.5,676.5C 372.966,680.901 374.633,685.567 375.5,690.5C 372.997,689.274 370.331,688.274 367.5,687.5C 364.669,688.274 362.003,689.274 359.5,690.5C 360.675,685.154 362.675,680.154 365.5,675.5 Z"/></g>
<g><path style="opacity:1" fill="#eda03f" d="M 366.5,680.5 C 370.708,682.926 370.375,684.259 365.5,684.5C 365.433,683.041 365.766,681.708 366.5,680.5 Z"/></g>
<g><path style="opacity:1" fill="#f99627" d="M 343.5,684.5 C 346.833,684.5 350.167,684.5 353.5,684.5C 353.5,685.5 353.5,686.5 353.5,687.5C 350.167,687.5 346.833,687.5 343.5,687.5C 343.5,686.5 343.5,685.5 343.5,684.5 Z"/></g>
<g><path style="opacity:1" fill="#fdf2ce" d="M 378.5,675.5 C 379.833,675.5 381.167,675.5 382.5,675.5C 382.5,679.5 382.5,683.5 382.5,687.5C 386.167,687.5 389.833,687.5 393.5,687.5C 393.5,688.5 393.5,689.5 393.5,690.5C 388.5,690.5 383.5,690.5 378.5,690.5C 378.5,685.5 378.5,680.5 378.5,675.5 Z"/></g>
<g><path style="opacity:1" fill="#fcf4de" d="M 399.5,676.5 C 399.5,680.167 399.5,683.833 399.5,687.5C 403.5,687.5 407.5,687.5 411.5,687.5C 411.5,688.5 411.5,689.5 411.5,690.5C 406.5,690.5 401.5,690.5 396.5,690.5C 396.5,685.833 396.5,681.167 396.5,676.5C 397.5,676.5 398.5,676.5 399.5,676.5 Z"/></g>
<g><path style="opacity:1" fill="#525636" d="M 618.5,686.5 C 615.935,694.637 611.602,701.637 605.5,707.5C 609.586,700.324 613.919,693.324 618.5,686.5 Z"/></g>
<g><path style="opacity:1" fill="#fef2dc" d="M 367.5,709.5 C 365.723,709.786 364.056,710.453 362.5,711.5C 358.345,709.775 354.011,709.109 349.5,709.5C 349.178,707.278 349.845,705.444 351.5,704C 354.312,702.023 356.978,699.856 359.5,697.5C 361.045,696.548 362.712,696.215 364.5,696.5C 364.5,699.833 364.5,703.167 364.5,706.5C 365.5,706.5 366.5,706.5 367.5,706.5C 367.5,707.5 367.5,708.5 367.5,709.5 Z"/></g>
<g><path style="opacity:1" fill="#ece9e3" d="M 533.5,547.5 C 542.821,548.597 552.154,550.264 561.5,552.5C 570.827,556.971 579.827,562.138 588.5,568C 596.734,574.732 604.067,582.232 610.5,590.5C 612.664,595.5 615.331,600.167 618.5,604.5C 621.441,613.996 623.774,623.663 625.5,633.5C 625.5,642.167 625.5,650.833 625.5,659.5C 623.359,668.582 621.026,677.582 618.5,686.5C 613.919,693.324 609.586,700.324 605.5,707.5C 600.167,712.167 595.167,717.167 590.5,722.5C 585.886,725.117 581.553,728.117 577.5,731.5C 574.246,731.794 571.579,733.127 569.5,735.5C 560.295,738.233 550.961,740.566 541.5,742.5C 532.833,743.833 524.167,743.833 515.5,742.5C 500.474,740.318 486.474,735.318 473.5,727.5C 481.536,734.018 490.536,738.685 500.5,741.5C 498.266,741.38 496.099,741.713 494,742.5C 490.172,741.5 486.672,739.834 483.5,737.5C 482.914,737.709 482.414,738.043 482,738.5C 481.368,736.469 480.201,734.802 478.5,733.5C 476.669,734.929 474.669,735.429 472.5,735C 473.5,734 474.5,733 475.5,732C 475.167,731.833 474.833,731.667 474.5,731.5C 472.337,733.78 469.67,735.114 466.5,735.5C 462.661,735.242 458.661,735.242 454.5,735.5C 454.5,734.5 454.5,733.5 454.5,732.5C 420.167,732.5 385.833,732.5 351.5,732.5C 351.649,733.552 351.483,734.552 351,735.5C 350.506,733.866 350.34,732.199 350.5,730.5C 385.543,730.173 420.543,730.507 455.5,731.5C 456.562,730.575 456.562,729.575 455.5,728.5C 455.737,727.209 455.404,726.209 454.5,725.5C 454.167,725.5 453.833,725.5 453.5,725.5C 447.929,721.53 442.929,716.863 438.5,711.5C 428.013,710.506 417.346,710.172 406.5,710.5C 406.174,706.116 406.508,701.783 407.5,697.5C 408.167,700.977 408.834,704.311 409.5,707.5C 417.65,708.493 425.983,708.826 434.5,708.5C 434.5,706.833 434.5,705.167 434.5,703.5C 433.5,703.5 432.5,703.5 431.5,703.5C 425.111,693.693 420.444,683.026 417.5,671.5C 417.88,669.302 417.213,667.635 415.5,666.5C 415.5,665.833 415.5,665.167 415.5,664.5C 416.15,664.804 416.817,665.137 417.5,665.5C 418.221,663.314 418.887,661.147 419.5,659C 418.874,658.25 418.374,657.416 418,656.5C 417.5,648.841 417.334,641.174 417.5,633.5C 417.5,629.5 417.5,625.5 417.5,621.5C 417.5,620.5 417.5,619.5 417.5,618.5C 411.5,618.5 405.5,618.5 399.5,618.5C 390.5,618.5 381.5,618.5 372.5,618.5C 376.312,617.676 380.312,617.176 384.5,617C 365.5,616.667 346.5,616.333 327.5,616C 329.588,614.97 331.755,614.137 334,613.5C 344.466,614.632 354.966,614.799 365.5,614C 363.618,613.802 361.952,613.302 360.5,612.5C 361.167,612.5 361.833,612.5 362.5,612.5C 376.505,612.577 390.505,612.91 404.5,613.5C 410.211,613.495 415.544,612.828 420.5,611.5C 420.66,609.847 421.326,608.514 422.5,607.5C 423.163,605.958 423.83,604.291 424.5,602.5C 426.579,601.204 428.246,599.538 429.5,597.5C 429.833,597.667 430.167,597.833 430.5,598C 427.633,600.6 427.799,601.766 431,601.5C 430.503,603.198 430.67,604.865 431.5,606.5C 430.147,607.524 429.48,608.857 429.5,610.5C 430.978,610.238 432.311,610.571 433.5,611.5C 432.449,614.757 431.782,618.09 431.5,621.5C 431.338,623.527 431.505,625.527 432,627.5C 434.855,615.136 439.355,603.469 445.5,592.5C 446.906,592.027 447.573,591.027 447.5,589.5C 468.928,561.121 497.594,547.121 533.5,547.5 Z"/></g>
<g><path style="opacity:1" fill="#2d3b06" d="M 519.5,568.5 C 560.333,567.212 587.833,585.546 602,623.5C 610.875,664.907 596.708,695.407 559.5,715C 526.285,727.214 497.118,721.047 472,696.5C 453.427,674.077 448.094,648.744 456,620.5C 467.82,591.494 488.986,574.16 519.5,568.5 Z"/></g>
<g><path style="opacity:1" fill="#ece9e3" d="M 548.5,676.5 C 550.826,680.483 553.159,684.483 555.5,688.5C 552.75,697.249 549.75,705.916 546.5,714.5C 535.92,716.36 525.253,716.86 514.5,716C 513.584,715.626 512.75,715.126 512,714.5C 509.23,705.816 506.396,697.149 503.5,688.5C 505.324,684.182 507.658,680.182 510.5,676.5C 511.601,675.152 512.601,673.652 513.5,672C 524.182,671.168 534.849,671.334 545.5,672.5C 546.521,673.901 547.521,675.235 548.5,676.5 Z"/></g>
<g><path style="opacity:1" fill="#565b39" d="M 447.5,701.5 C 446.206,700.71 445.039,699.71 444,698.5C 430.74,676.837 426.407,653.504 431,628.5C 429.782,646.204 431.782,663.537 437,680.5C 439.999,687.832 443.499,694.832 447.5,701.5 Z"/></g>
<g><path style="opacity:1" fill="#ece9e3" d="M 583.5,639.5 C 588.457,643.446 593.457,647.446 598.5,651.5C 598.805,663.92 595.305,675.253 588,685.5C 587.439,686.022 586.772,686.355 586,686.5C 577.537,685.42 569.037,684.586 560.5,684C 558.192,679.872 555.525,676.039 552.5,672.5C 550.712,669.772 550.212,666.772 551,663.5C 553.417,655.413 556.084,647.413 559,639.5C 564.411,637.939 569.911,636.606 575.5,635.5C 578.376,636.366 581.042,637.699 583.5,639.5 Z"/></g>
<g><path style="opacity:1" fill="#ece9e3" d="M 497.5,638.5 C 500.084,640.847 501.75,643.847 502.5,647.5C 504.595,653.952 506.595,660.452 508.5,667C 505.423,672.485 502.09,677.818 498.5,683C 488.913,684.88 479.247,685.88 469.5,686C 462.067,675.649 458.234,664.149 458,651.5C 465.102,646.698 471.936,641.531 478.5,636C 484.913,636.017 491.247,636.85 497.5,638.5 Z"/></g>
<g><path style="opacity:1" fill="#2c3a03" d="M 539.5,619.5 C 545.289,623.449 550.956,627.616 556.5,632C 563.728,632.112 570.728,630.779 577.5,628C 578.731,625.834 579.731,623.667 580.5,621.5C 580.811,622.478 581.478,623.145 582.5,623.5C 583.139,618.883 585.305,615.216 589,612.5C 589.113,610.026 590.113,608.026 592,606.5C 593.299,607.09 594.132,608.09 594.5,609.5C 593.52,611.705 593.52,613.538 594.5,615C 596.493,615.647 598.159,617.313 599.5,620C 598.833,620.333 598.167,620.667 597.5,621C 598.667,621.5 599.5,622.333 600,623.5C 600.333,626.5 600.667,629.5 601,632.5C 603.849,638.716 604.182,645.05 602,651.5C 599.863,649.624 597.863,647.624 596,645.5C 595.586,645.957 595.086,646.291 594.5,646.5C 591.539,642.838 587.873,640.505 583.5,639.5C 581.042,637.699 578.376,636.366 575.5,635.5C 569.911,636.606 564.411,637.939 559,639.5C 556.084,647.413 553.417,655.413 551,663.5C 550.212,666.772 550.712,669.772 552.5,672.5C 551.833,674.5 550.5,675.833 548.5,676.5C 547.521,675.235 546.521,673.901 545.5,672.5C 534.849,671.334 524.182,671.168 513.5,672C 512.601,673.652 511.601,675.152 510.5,676.5C 509.071,675.766 508.071,674.599 507.5,673C 508.94,670.123 509.94,667.123 510.5,664C 510.167,663.667 509.833,663.333 509.5,663C 512.044,661.437 512.044,659.937 509.5,658.5C 510.025,657.808 510.692,657.308 511.5,657C 508.239,653.91 505.239,650.744 502.5,647.5C 501.75,643.847 500.084,640.847 497.5,638.5C 501.866,637.791 504.2,635.125 504.5,630.5C 509.795,626.512 515.128,622.512 520.5,618.5C 522.827,618.247 524.827,618.914 526.5,620.5C 527.332,611.852 527.832,603.186 528,594.5C 529.612,594.952 530.612,596.285 531,598.5C 530.899,604.205 531.065,609.872 531.5,615.5C 533.932,617.414 536.598,618.748 539.5,619.5 Z"/></g>
<g><path style="opacity:1" fill="#ece9e3" d="M 580.5,621.5 C 579.731,623.667 578.731,625.834 577.5,628C 570.728,630.779 563.728,632.112 556.5,632C 550.956,627.616 545.289,623.449 539.5,619.5C 537.519,617.697 535.352,616.03 533,614.5C 532.333,607.5 532.333,600.5 533,593.5C 539.69,587.976 546.523,582.642 553.5,577.5C 566.752,582.256 577.585,590.256 586,601.5C 586.667,603.167 586.667,604.833 586,606.5C 584.012,611.457 582.179,616.457 580.5,621.5 Z"/></g>
<g><path style="opacity:1" fill="#ebe9e3" d="M 520.5,618.5 C 515.128,622.512 509.795,626.512 504.5,630.5C 502.714,631.722 500.714,632.389 498.5,632.5C 493.465,631.491 488.465,630.325 483.5,629C 481.939,628.682 480.772,627.849 480,626.5C 477.235,618.882 474.068,611.382 470.5,604C 478.659,591.088 489.992,582.255 504.5,577.5C 511.46,582.654 518.46,587.821 525.5,593C 526.646,600.086 526.812,607.253 526,614.5C 523.985,615.697 522.151,617.03 520.5,618.5 Z"/></g>
<g><path style="opacity:1" fill="#ec9433" d="M 358.5,701.5 C 360.256,702.552 360.923,704.219 360.5,706.5C 358.473,706.662 356.473,706.495 354.5,706C 356.192,704.693 357.525,703.193 358.5,701.5 Z"/></g>
<g><path style="opacity:1" fill="#fdf0da" d="M 367.5,709.5 C 369.997,705.84 371.997,701.84 373.5,697.5C 375.695,696.231 377.861,696.231 380,697.5C 382.146,702.117 383.98,706.784 385.5,711.5C 382.469,710.001 379.302,708.667 376,707.5C 373.275,707.982 371.108,709.315 369.5,711.5C 368.287,711.253 367.62,710.586 367.5,709.5 Z"/></g>
<g><path style="opacity:1" fill="#ea9725" d="M 375.5,700.5 C 377.121,700.787 378.121,701.787 378.5,703.5C 377.277,704.614 375.944,704.781 374.5,704C 375.337,702.989 375.67,701.822 375.5,700.5 Z"/></g>
<g><path style="opacity:1" fill="#fdcd96" d="M 431.5,703.5 C 432.5,703.5 433.5,703.5 434.5,703.5C 434.5,705.167 434.5,706.833 434.5,708.5C 425.983,708.826 417.65,708.493 409.5,707.5C 417.528,707.831 425.528,707.498 433.5,706.5C 432.807,705.482 432.141,704.482 431.5,703.5 Z"/></g>
<g><path style="opacity:1" fill="#5c5f3f" d="M 447.5,701.5 C 450.552,704.576 453.386,707.91 456,711.5C 461.812,716.967 467.645,722.3 473.5,727.5C 465.349,722.864 458.182,716.864 452,709.5C 449.843,707.183 448.343,704.516 447.5,701.5 Z"/></g>
<g><path style="opacity:1" fill="#fed69f" d="M 387.5,696.5 C 388.833,696.5 390.167,696.5 391.5,696.5C 391.5,700.167 391.5,703.833 391.5,707.5C 395.5,707.5 399.5,707.5 403.5,707.5C 403.5,708.833 403.5,710.167 403.5,711.5C 398.167,711.5 392.833,711.5 387.5,711.5C 387.5,706.5 387.5,701.5 387.5,696.5 Z"/></g>
<g><path style="opacity:1" fill="#fdfdf9" d="M 388.5,697.5 C 390.414,700.684 391.08,704.351 390.5,708.5C 394.555,708.176 398.555,708.509 402.5,709.5C 397.88,710.493 393.214,710.827 388.5,710.5C 388.5,706.167 388.5,701.833 388.5,697.5 Z"/></g>
<g><path style="opacity:1" fill="#fedda9" d="M 409.5,707.5 C 408.834,704.311 408.167,700.977 407.5,697.5C 406.508,701.783 406.174,706.116 406.5,710.5C 417.346,710.172 428.013,710.506 438.5,711.5C 427.5,711.5 416.5,711.5 405.5,711.5C 405.5,706.5 405.5,701.5 405.5,696.5C 406.833,696.5 408.167,696.5 409.5,696.5C 409.5,700.167 409.5,703.833 409.5,707.5 Z"/></g>
<g><path style="opacity:1" fill="#51552f" d="M 605.5,707.5 C 601.5,713.5 596.5,718.5 590.5,722.5C 595.167,717.167 600.167,712.167 605.5,707.5 Z"/></g>
<g><path style="opacity:1" fill="#f9ac4f" d="M 453.5,725.5 C 453.833,725.5 454.167,725.5 454.5,725.5C 416.515,727.494 378.181,728.161 339.5,727.5C 339.5,727.167 339.5,726.833 339.5,726.5C 377.67,726.832 415.67,726.499 453.5,725.5 Z"/></g>
<g><path style="opacity:1" fill="#fee6ca" d="M 454.5,725.5 C 455.404,726.209 455.737,727.209 455.5,728.5C 417.5,728.5 379.5,728.5 341.5,728.5C 340.508,728.672 339.842,728.338 339.5,727.5C 378.181,728.161 416.515,727.494 454.5,725.5 Z"/></g>
<g><path style="opacity:1" fill="#515630" d="M 590.5,722.5 C 587.047,726.73 582.713,729.73 577.5,731.5C 581.553,728.117 585.886,725.117 590.5,722.5 Z"/></g>
<g><path style="opacity:1" fill="#e5ecf3" d="M 341.5,728.5 C 379.5,728.5 417.5,728.5 455.5,728.5C 456.562,729.575 456.562,730.575 455.5,731.5C 420.543,730.507 385.543,730.173 350.5,730.5C 348.396,730.201 346.396,730.534 344.5,731.5C 346.045,732.452 347.712,732.785 349.5,732.5C 349.5,733.5 349.5,734.5 349.5,735.5C 344.924,735.253 342.257,732.919 341.5,728.5 Z"/></g>
<g><path style="opacity:1" fill="#505238" d="M 577.5,731.5 C 575.421,733.873 572.754,735.206 569.5,735.5C 571.579,733.127 574.246,731.794 577.5,731.5 Z"/></g>
<g><path style="opacity:1" fill="#56593c" d="M 473.5,727.5 C 486.474,735.318 500.474,740.318 515.5,742.5C 514.432,743.434 513.099,743.768 511.5,743.5C 507.833,742.833 504.167,742.167 500.5,741.5C 490.536,738.685 481.536,734.018 473.5,727.5 Z"/></g>
<g><path style="opacity:1" fill="#5a5d3c" d="M 569.5,735.5 C 562.062,739.535 554.062,742.201 545.5,743.5C 543.901,743.768 542.568,743.434 541.5,742.5C 550.961,740.566 560.295,738.233 569.5,735.5 Z"/></g>
<g><path style="opacity:1" fill="#a3a689" d="M 515.5,742.5 C 524.167,743.833 532.833,743.833 541.5,742.5C 542.568,743.434 543.901,743.768 545.5,743.5C 540.084,745.029 534.417,745.695 528.5,745.5C 522.583,745.695 516.916,745.029 511.5,743.5C 513.099,743.768 514.432,743.434 515.5,742.5 Z"/></g>
<g><path style="opacity:1" fill="#f6aa54" d="M 279.5,828.5 C 270.148,828.434 260.815,828.768 251.5,829.5C 257.1,828.057 262.933,827.39 269,827.5C 272.683,827.501 276.183,827.835 279.5,828.5 Z"/></g>
<g><path style="opacity:1" fill="#fd8c07" d="M 495.5,828.5 C 504.026,853.562 513.693,878.228 524.5,902.5C 533.59,881.81 541.924,860.81 549.5,839.5C 551.097,837.152 552.097,834.486 552.5,831.5C 553.167,830.5 553.833,829.5 554.5,828.5C 564.167,828.5 573.833,828.5 583.5,828.5C 583.5,858.5 583.5,888.5 583.5,918.5C 576.5,918.5 569.5,918.5 562.5,918.5C 562.667,900.497 562.5,882.497 562,864.5C 560.583,865.078 559.75,866.078 559.5,867.5C 559.5,868.167 559.5,868.833 559.5,869.5C 552.59,885.555 546.257,901.889 540.5,918.5C 529.849,919.666 519.182,919.832 508.5,919C 504.558,907.626 500.224,896.459 495.5,885.5C 494.397,880.379 492.397,875.712 489.5,871.5C 489.5,870.5 489.5,869.5 489.5,868.5C 489.585,867.005 488.919,866.005 487.5,865.5C 486.5,883.154 486.167,900.821 486.5,918.5C 479.167,918.5 471.833,918.5 464.5,918.5C 464.5,888.5 464.5,858.5 464.5,828.5C 474.833,828.5 485.167,828.5 495.5,828.5 Z"/></g>
<g><path style="opacity:1" fill="#fc8c0c" d="M 429.5,916.5 C 428.007,912.66 426.341,908.993 424.5,905.5C 424.34,903.847 423.674,902.514 422.5,901.5C 422.586,900.504 422.252,899.671 421.5,899C 413.5,898.833 405.5,898.667 397.5,898.5C 389.138,898.502 381.138,899.169 373.5,900.5C 370.834,906.495 368.167,912.495 365.5,918.5C 357.833,918.5 350.167,918.5 342.5,918.5C 342.5,917.5 342.5,916.5 342.5,915.5C 355.765,886.354 368.432,857.021 380.5,827.5C 392.167,827.5 403.833,827.5 415.5,827.5C 425.453,852.072 435.953,876.405 447,900.5C 449.73,906.63 451.897,912.963 453.5,919.5C 445.804,919.831 438.138,919.497 430.5,918.5C 430.137,917.817 429.804,917.15 429.5,916.5 Z"/></g>
<g><path style="opacity:1" fill="#fcaf4a" d="M 495.5,828.5 C 485.167,828.5 474.833,828.5 464.5,828.5C 464.5,858.5 464.5,888.5 464.5,918.5C 471.833,918.5 479.167,918.5 486.5,918.5C 478.833,919.833 471.167,919.833 463.5,918.5C 463.5,888.167 463.5,857.833 463.5,827.5C 474.346,827.172 485.013,827.506 495.5,828.5 Z"/></g>
<g><path style="opacity:1" fill="#e59633" d="M 554.5,828.5 C 564.319,827.506 574.319,827.173 584.5,827.5C 584.5,857.833 584.5,888.167 584.5,918.5C 584.167,918.5 583.833,918.5 583.5,918.5C 583.5,888.5 583.5,858.5 583.5,828.5C 573.833,828.5 564.167,828.5 554.5,828.5 Z"/></g>
<g><path style="opacity:1" fill="#fd8b02" d="M 603.5,828.5 C 635.833,828.5 668.167,828.5 700.5,828.5C 700.5,834.167 700.5,839.833 700.5,845.5C 674.825,845.167 649.158,845.5 623.5,846.5C 624.816,852.364 624.816,858.197 623.5,864C 624.094,864.464 624.761,864.631 625.5,864.5C 645.993,865.497 666.66,865.831 687.5,865.5C 687.5,870.833 687.5,876.167 687.5,881.5C 666.833,881.5 646.167,881.5 625.5,881.5C 625.5,887.5 625.5,893.5 625.5,899.5C 650.328,900.498 675.328,900.831 700.5,900.5C 700.5,906.5 700.5,912.5 700.5,918.5C 699.5,918.5 698.5,918.5 697.5,918.5C 694.713,917.523 691.713,917.19 688.5,917.5C 688.167,908.167 687.833,908.167 687.5,917.5C 659.833,917.5 632.167,917.5 604.5,917.5C 603.524,887.865 603.19,858.198 603.5,828.5 Z"/></g>
<g><path style="opacity:1" fill="#fcd19b" d="M 552.5,831.5 C 552.097,834.486 551.097,837.152 549.5,839.5C 549.518,836.264 550.518,833.597 552.5,831.5 Z"/></g>
<g><path style="opacity:1" fill="#f39a2b" d="M 700.5,828.5 C 700.833,828.5 701.167,828.5 701.5,828.5C 701.5,834.833 701.5,841.167 701.5,847.5C 676.5,847.5 651.5,847.5 626.5,847.5C 625.511,852.975 625.178,858.642 625.5,864.5C 624.761,864.631 624.094,864.464 623.5,864C 624.816,858.197 624.816,852.364 623.5,846.5C 649.158,845.5 674.825,845.167 700.5,845.5C 700.5,839.833 700.5,834.167 700.5,828.5 Z"/></g>
<g><path style="opacity:1" fill="#fee4be" d="M 626.5,847.5 C 626.5,852.833 626.5,858.167 626.5,863.5C 647.5,863.5 668.5,863.5 689.5,863.5C 689.821,869.026 689.488,874.36 688.5,879.5C 688.5,874.5 688.5,869.5 688.5,864.5C 667.5,864.5 646.5,864.5 625.5,864.5C 625.178,858.642 625.511,852.975 626.5,847.5 Z"/></g>
<g><path style="opacity:1" fill="#e29e50" d="M 625.5,864.5 C 646.5,864.5 667.5,864.5 688.5,864.5C 688.5,869.5 688.5,874.5 688.5,879.5C 688.5,880.167 688.5,880.833 688.5,881.5C 688.167,881.5 687.833,881.5 687.5,881.5C 687.5,876.167 687.5,870.833 687.5,865.5C 666.66,865.831 645.993,865.497 625.5,864.5 Z"/></g>
<g><path style="opacity:1" fill="#ea9c3e" d="M 337.5,876.5 C 337.5,873.5 337.5,870.5 337.5,867.5C 317.167,867.5 296.833,867.5 276.5,867.5C 276.5,873.5 276.5,879.5 276.5,885.5C 275.51,879.355 275.177,873.022 275.5,866.5C 296.5,866.5 317.5,866.5 338.5,866.5C 338.813,870.042 338.479,873.375 337.5,876.5 Z"/></g>
<g><path style="opacity:1" fill="#edeae6" d="M 386.5,869.5 C 388.175,865.466 389.842,861.466 391.5,857.5C 393.406,855.045 395.739,853.045 398.5,851.5C 399.327,855.459 399.827,859.459 400,863.5C 401.353,862.315 402.52,860.981 403.5,859.5C 404.734,861.398 404.401,863.065 402.5,864.5C 400.563,865.158 398.73,865.491 397,865.5C 397.019,867.107 397.185,868.774 397.5,870.5C 399.167,870.5 400.833,870.5 402.5,870.5C 402.397,865.356 403.563,864.69 406,868.5C 406.414,868.043 406.914,867.709 407.5,867.5C 409.873,870.018 410.873,873.018 410.5,876.5C 409.325,876.719 408.325,876.386 407.5,875.5C 408.645,874.109 408.645,872.776 407.5,871.5C 404.904,872.482 402.238,873.149 399.5,873.5C 399.5,874.5 399.5,875.5 399.5,876.5C 396.833,876.5 394.167,876.5 391.5,876.5C 391.716,874.319 390.883,872.653 389,871.5C 388.405,872.899 388.572,874.232 389.5,875.5C 388.675,876.386 387.675,876.719 386.5,876.5C 386.5,874.167 386.5,871.833 386.5,869.5 Z"/></g>
<g><path style="opacity:1" fill="#f9af60" d="M 489.5,868.5 C 488.883,868.389 488.383,868.056 488,867.5C 487.832,884.672 487.332,901.672 486.5,918.5C 486.167,900.821 486.5,883.154 487.5,865.5C 488.919,866.005 489.585,867.005 489.5,868.5 Z"/></g>
<g><path style="opacity:1" fill="#f2e7d7" d="M 412.5,875.5 C 412.5,876.5 412.5,877.5 412.5,878.5C 402.442,879.14 392.775,878.473 383.5,876.5C 383.182,873.519 384.182,871.185 386.5,869.5C 386.5,871.833 386.5,874.167 386.5,876.5C 387.675,876.719 388.675,876.386 389.5,875.5C 388.572,874.232 388.405,872.899 389,871.5C 390.883,872.653 391.716,874.319 391.5,876.5C 394.167,876.5 396.833,876.5 399.5,876.5C 399.5,875.5 399.5,874.5 399.5,873.5C 402.238,873.149 404.904,872.482 407.5,871.5C 408.645,872.776 408.645,874.109 407.5,875.5C 408.325,876.386 409.325,876.719 410.5,876.5C 410.873,873.018 409.873,870.018 407.5,867.5C 406.914,867.709 406.414,868.043 406,868.5C 403.563,864.69 402.397,865.356 402.5,870.5C 400.833,870.5 399.167,870.5 397.5,870.5C 397.185,868.774 397.019,867.107 397,865.5C 398.73,865.491 400.563,865.158 402.5,864.5C 404.401,863.065 404.734,861.398 403.5,859.5C 402.52,860.981 401.353,862.315 400,863.5C 399.827,859.459 399.327,855.459 398.5,851.5C 395.739,853.045 393.406,855.045 391.5,857.5C 393.047,852.74 395.38,848.406 398.5,844.5C 403.444,854.721 408.111,865.054 412.5,875.5 Z"/></g>
<g><path style="opacity:1" fill="#e3c797" d="M 412.5,875.5 C 413.434,876.568 413.768,877.901 413.5,879.5C 402.813,879.832 392.146,879.499 381.5,878.5C 381.855,877.478 382.522,876.811 383.5,876.5C 392.775,878.473 402.442,879.14 412.5,878.5C 412.5,877.5 412.5,876.5 412.5,875.5 Z"/></g>
<g><path style="opacity:1" fill="#fee6c0" d="M 561.5,918.5 C 560.833,902.167 560.167,885.833 559.5,869.5C 559.5,868.833 559.5,868.167 559.5,867.5C 560.117,867.389 560.617,867.056 561,866.5C 561.5,883.83 561.667,901.163 561.5,918.5 Z"/></g>
<g><path style="opacity:1" fill="#fcaa4f" d="M 583.5,918.5 C 583.833,918.5 584.167,918.5 584.5,918.5C 576.833,919.833 569.167,919.833 561.5,918.5C 561.667,901.163 561.5,883.83 561,866.5C 560.617,867.056 560.117,867.389 559.5,867.5C 559.75,866.078 560.583,865.078 562,864.5C 562.5,882.497 562.667,900.497 562.5,918.5C 569.5,918.5 576.5,918.5 583.5,918.5 Z"/></g>
<g><path style="opacity:1" fill="#f7dab7" d="M 489.5,871.5 C 492.397,875.712 494.397,880.379 495.5,885.5C 494.25,885.423 493.417,884.756 493,883.5C 490.957,879.75 489.791,875.75 489.5,871.5 Z"/></g>
<g><path style="opacity:1" fill="#fc8c07" d="M 279.5,828.5 C 295.852,828.536 310.852,832.869 324.5,841.5C 325.521,842.002 325.688,842.668 325,843.5C 320.833,847.333 316.667,851.167 312.5,855C 310.833,855.667 309.167,855.667 307.5,855C 301.242,851.691 294.575,849.357 287.5,848C 270.206,846.31 253.206,847.644 236.5,852C 232.332,854.25 228.332,856.75 224.5,859.5C 221.544,862.607 219.544,866.273 218.5,870.5C 217.348,874.054 217.515,877.72 219,881.5C 219.708,882.381 220.542,883.047 221.5,883.5C 224.379,888.873 228.712,892.707 234.5,895C 238.787,896.153 243.121,896.987 247.5,897.5C 248.609,898.29 249.942,898.79 251.5,899C 261.009,899.824 270.343,899.658 279.5,898.5C 289.89,897.772 299.223,894.439 307.5,888.5C 308.478,888.189 309.145,887.522 309.5,886.5C 298.52,885.501 287.52,885.168 276.5,885.5C 276.5,879.5 276.5,873.5 276.5,867.5C 296.833,867.5 317.167,867.5 337.5,867.5C 337.5,870.5 337.5,873.5 337.5,876.5C 336.972,880.212 336.138,883.879 335,887.5C 330.79,893.202 325.956,898.369 320.5,903C 314.739,906.208 309.072,909.375 303.5,912.5C 295.938,914.641 288.271,916.307 280.5,917.5C 267.789,917.497 255.122,916.83 242.5,915.5C 223.404,912.897 208.57,903.564 198,887.5C 192.406,875.264 193.739,863.931 202,853.5C 215.828,840.003 232.328,832.003 251.5,829.5C 260.815,828.768 270.148,828.434 279.5,828.5 Z"/></g>
<g><path style="opacity:1" fill="#f7ca93" d="M 276.5,885.5 C 287.52,885.168 298.52,885.501 309.5,886.5C 309.145,887.522 308.478,888.189 307.5,888.5C 297.374,886.842 287.04,885.842 276.5,885.5 Z"/></g>
<g><path style="opacity:1" fill="#eea151" d="M 218.5,870.5 C 218.414,875.15 219.414,879.483 221.5,883.5C 220.542,883.047 219.708,882.381 219,881.5C 217.515,877.72 217.348,874.054 218.5,870.5 Z"/></g>
<g><path style="opacity:1" fill="#fbe7d0" d="M 489.5,868.5 C 489.5,869.5 489.5,870.5 489.5,871.5C 488.669,887.328 488.169,903.328 488,919.5C 479.53,920.18 471.03,920.847 462.5,921.5C 461.335,920.14 461.668,919.14 463.5,918.5C 471.167,919.833 478.833,919.833 486.5,918.5C 487.332,901.672 487.832,884.672 488,867.5C 488.383,868.056 488.883,868.389 489.5,868.5 Z"/></g>
<g><path style="opacity:1" fill="#e9eaf1" d="M 687.5,882.5 C 671.624,884.173 655.457,885.173 639,885.5C 635.606,884.544 632.106,884.211 628.5,884.5C 628.177,888.226 628.511,891.893 629.5,895.5C 630.524,894.147 631.857,893.48 633.5,893.5C 633.5,894.5 633.5,895.5 633.5,896.5C 655.859,895.844 677.859,896.511 699.5,898.5C 675.167,898.5 650.833,898.5 626.5,898.5C 626.5,893.167 626.5,887.833 626.5,882.5C 646.833,882.5 667.167,882.5 687.5,882.5 Z"/></g>
<g><path style="opacity:1" fill="#f6cd98" d="M 247.5,897.5 C 258.14,898.375 268.806,898.709 279.5,898.5C 270.343,899.658 261.009,899.824 251.5,899C 249.942,898.79 248.609,898.29 247.5,897.5 Z"/></g>
<g><path style="opacity:1" fill="#fee4ba" d="M 422.5,901.5 C 421.711,901.217 421.044,900.717 420.5,900C 404.759,899.183 389.092,899.35 373.5,900.5C 381.138,899.169 389.138,898.502 397.5,898.5C 405.5,898.667 413.5,898.833 421.5,899C 422.252,899.671 422.586,900.504 422.5,901.5 Z"/></g>
<g><path style="opacity:1" fill="#fddeba" d="M 687.5,881.5 C 687.833,881.5 688.167,881.5 688.5,881.5C 688.5,882.167 688.167,882.5 687.5,882.5C 667.167,882.5 646.833,882.5 626.5,882.5C 626.5,887.833 626.5,893.167 626.5,898.5C 650.833,898.5 675.167,898.5 699.5,898.5C 700.492,898.328 701.158,898.662 701.5,899.5C 676.167,899.5 650.833,899.5 625.5,899.5C 625.5,893.5 625.5,887.5 625.5,881.5C 646.167,881.5 666.833,881.5 687.5,881.5 Z"/></g>
<g><path style="opacity:1" fill="#f3a33b" d="M 625.5,899.5 C 650.833,899.5 676.167,899.5 701.5,899.5C 701.5,905.833 701.5,912.167 701.5,918.5C 701.167,918.5 700.833,918.5 700.5,918.5C 700.5,912.5 700.5,906.5 700.5,900.5C 675.328,900.831 650.328,900.498 625.5,899.5 Z"/></g>
<g><path style="opacity:1" fill="#f7c98e" d="M 424.5,905.5 C 426.341,908.993 428.007,912.66 429.5,916.5C 428.542,916.047 427.708,915.381 427,914.5C 426.007,911.526 425.174,908.526 424.5,905.5 Z"/></g>
<g><path style="opacity:1" fill="#f8e1c3" d="M 303.5,912.5 C 302.653,913.966 301.32,914.8 299.5,915C 300.993,916.156 300.826,916.99 299,917.5C 297.538,917.006 296.038,916.673 294.5,916.5C 290.063,918.214 285.396,918.88 280.5,918.5C 280.5,918.167 280.5,917.833 280.5,917.5C 288.271,916.307 295.938,914.641 303.5,912.5 Z"/></g>
<g><path style="opacity:1" fill="#f3a043" d="M 242.5,915.5 C 255.122,916.83 267.789,917.497 280.5,917.5C 280.5,917.833 280.5,918.167 280.5,918.5C 272.176,919.291 263.843,919.458 255.5,919C 250.89,918.386 246.557,917.22 242.5,915.5 Z"/></g>
<g><path style="opacity:1" fill="#f1901c" d="M 603.5,828.5 C 603.19,858.198 603.524,887.865 604.5,917.5C 632.167,917.5 659.833,917.5 687.5,917.5C 687.833,908.167 688.167,908.167 688.5,917.5C 691.713,917.19 694.713,917.523 697.5,918.5C 665.833,918.5 634.167,918.5 602.5,918.5C 602.169,888.329 602.502,858.329 603.5,828.5 Z"/></g>
<g><path style="opacity:1" fill="#fabe7a" d="M 342.5,915.5 C 342.5,916.5 342.5,917.5 342.5,918.5C 350.167,918.5 357.833,918.5 365.5,918.5C 357.684,919.492 349.684,919.826 341.5,919.5C 341.232,917.901 341.566,916.568 342.5,915.5 Z"/></g>
<g><path style="opacity:1" fill="#fabc73" d="M 701.5,828.5 C 701.167,828.5 700.833,828.5 700.5,828.5C 668.167,828.5 635.833,828.5 603.5,828.5C 602.502,858.329 602.169,888.329 602.5,918.5C 634.167,918.5 665.833,918.5 697.5,918.5C 698.5,918.5 699.5,918.5 700.5,918.5C 700.833,918.5 701.167,918.5 701.5,918.5C 701.5,918.833 701.5,919.167 701.5,919.5C 668.5,919.5 635.5,919.5 602.5,919.5C 601.502,889.005 601.169,858.338 601.5,827.5C 635.004,827.168 668.338,827.502 701.5,828.5 Z"/></g>
<g><path style="opacity:1" fill="#f2eadb" d="M 602.5,919.5 C 635.5,919.5 668.5,919.5 701.5,919.5C 697.647,920.166 693.647,920.833 689.5,921.5C 689.023,922.478 688.357,923.311 687.5,924C 567.506,924.166 567.506,923.333 687.5,921.5C 659.003,920.833 630.67,920.167 602.5,919.5 Z"/></g>
<g><path style="opacity:1" fill="#fce0bd" d="M 415.5,964.5 C 410.99,964.116 406.657,963.449 402.5,962.5C 392.648,961.258 382.648,961.258 372.5,962.5C 372.918,961.778 373.584,961.278 374.5,961C 384.167,960.333 393.833,960.333 403.5,961C 407.783,961.768 411.783,962.934 415.5,964.5 Z"/></g>
<g><path style="opacity:1" fill="#f29d37" d="M 402.5,962.5 C 388.423,962.51 374.423,963.51 360.5,965.5C 364.399,964.068 368.399,963.068 372.5,962.5C 382.648,961.258 392.648,961.258 402.5,962.5 Z"/></g>
<g><path style="opacity:1" fill="#fd8b04" d="M 511.5,964.5 C 527.093,986.034 542.427,1007.7 557.5,1029.5C 558.63,1031.31 559.296,1033.31 559.5,1035.5C 560.791,1035.74 561.791,1035.4 562.5,1034.5C 563.498,1011.34 563.831,988.006 563.5,964.5C 570.5,964.5 577.5,964.5 584.5,964.5C 584.5,994.167 584.5,1023.83 584.5,1053.5C 572.833,1053.5 561.167,1053.5 549.5,1053.5C 547.861,1051.19 545.861,1049.19 543.5,1047.5C 530.343,1026.66 516.343,1006.33 501.5,986.5C 500.833,985.5 500.167,984.5 499.5,983.5C 499.44,982.957 499.107,982.624 498.5,982.5C 497.5,1006.16 497.167,1029.82 497.5,1053.5C 490.5,1053.5 483.5,1053.5 476.5,1053.5C 476.5,1023.83 476.5,994.167 476.5,964.5C 488.167,964.5 499.833,964.5 511.5,964.5 Z"/></g>
<g><path style="opacity:1" fill="#ee952c" d="M 511.5,964.5 C 499.833,964.5 488.167,964.5 476.5,964.5C 476.5,994.167 476.5,1023.83 476.5,1053.5C 483.5,1053.5 490.5,1053.5 497.5,1053.5C 490.352,1054.49 483.019,1054.82 475.5,1054.5C 475.5,1024.17 475.5,993.833 475.5,963.5C 487.678,963.172 499.678,963.505 511.5,964.5 Z"/></g>
<g><path style="opacity:1" fill="#fecf96" d="M 585.5,963.5 C 577.833,963.5 570.167,963.5 562.5,963.5C 562.5,987.167 562.5,1010.83 562.5,1034.5C 561.791,1035.4 560.791,1035.74 559.5,1035.5C 559.296,1033.31 558.63,1031.31 557.5,1029.5C 558.482,1030.14 559.482,1030.81 560.5,1031.5C 561.5,1008.51 561.833,985.51 561.5,962.5C 569.684,962.174 577.684,962.508 585.5,963.5 Z"/></g>
<g><path style="opacity:1" fill="#eb9531" d="M 585.5,963.5 C 585.5,993.833 585.5,1024.17 585.5,1054.5C 573.322,1054.83 561.322,1054.5 549.5,1053.5C 561.167,1053.5 572.833,1053.5 584.5,1053.5C 584.5,1023.83 584.5,994.167 584.5,964.5C 577.5,964.5 570.5,964.5 563.5,964.5C 563.831,988.006 563.498,1011.34 562.5,1034.5C 562.5,1010.83 562.5,987.167 562.5,963.5C 570.167,963.5 577.833,963.5 585.5,963.5 Z"/></g>
<g><path style="opacity:1" fill="#fc8c09" d="M 402.5,962.5 C 406.657,963.449 410.99,964.116 415.5,964.5C 426.963,968.108 437.63,973.441 447.5,980.5C 469.008,1000.13 468.674,1019.46 446.5,1038.5C 432.52,1048.72 416.853,1054.38 399.5,1055.5C 390.167,1055.5 380.833,1055.5 371.5,1055.5C 350.951,1052.75 333.785,1043.75 320,1028.5C 310.071,1012.26 311.737,997.264 325,983.5C 335.19,974.155 347.023,968.155 360.5,965.5C 374.423,963.51 388.423,962.51 402.5,962.5 Z"/></g>
<g><path style="opacity:1" fill="#eeeae4" d="M 401.5,982.5 C 412.775,984.146 423.108,988.146 432.5,994.5C 440.255,1004.15 440.255,1013.81 432.5,1023.5C 422.571,1030.33 411.571,1034.33 399.5,1035.5C 394.167,1035.83 388.833,1036.17 383.5,1036.5C 377.949,1036.47 372.616,1035.81 367.5,1034.5C 365.485,1033.08 363.152,1032.41 360.5,1032.5C 356.902,1030.91 353.236,1029.41 349.5,1028C 334.318,1016.61 333.652,1004.61 347.5,992C 350.792,989.824 354.125,987.991 357.5,986.5C 361.618,986.435 365.618,985.769 369.5,984.5C 372.833,985.167 376.167,985.833 379.5,986.5C 380.833,986.167 382.167,985.833 383.5,985.5C 380.893,984.682 378.226,984.182 375.5,984C 375.833,983.667 376.167,983.333 376.5,983C 384.827,982.5 393.16,982.334 401.5,982.5 Z"/></g>
<g><path style="opacity:1" fill="#f6e4ca" d="M 401.5,982.5 C 393.16,982.334 384.827,982.5 376.5,983C 376.167,983.333 375.833,983.667 375.5,984C 378.226,984.182 380.893,984.682 383.5,985.5C 382.167,985.833 380.833,986.167 379.5,986.5C 376.167,985.833 372.833,985.167 369.5,984.5C 365.618,985.769 361.618,986.435 357.5,986.5C 371.831,981.015 386.497,979.682 401.5,982.5 Z"/></g>
<g><path style="opacity:1" fill="#e5a251" d="M 499.5,983.5 C 498.502,1006.66 498.169,1029.99 498.5,1053.5C 498.167,1053.5 497.833,1053.5 497.5,1053.5C 497.167,1029.82 497.5,1006.16 498.5,982.5C 499.107,982.624 499.44,982.957 499.5,983.5 Z"/></g>
<g><path style="opacity:1" fill="#fee4bb" d="M 499.5,983.5 C 500.167,984.5 500.833,985.5 501.5,986.5C 499.837,1008.65 498.837,1030.98 498.5,1053.5C 498.169,1029.99 498.502,1006.66 499.5,983.5 Z"/></g>
<g><path style="opacity:1" fill="#f9cf97" d="M 360.5,1032.5 C 363.152,1032.41 365.485,1033.08 367.5,1034.5C 364.848,1034.59 362.515,1033.92 360.5,1032.5 Z"/></g>
<g><path style="opacity:1" fill="#f5cc97" d="M 399.5,1035.5 C 394.233,1037.43 388.9,1037.76 383.5,1036.5C 388.833,1036.17 394.167,1035.83 399.5,1035.5 Z"/></g>
<g><path style="opacity:1" fill="#fbe5c2" d="M 543.5,1047.5 C 545.861,1049.19 547.861,1051.19 549.5,1053.5C 561.322,1054.5 573.322,1054.83 585.5,1054.5C 572.327,1055.83 558.994,1055.83 545.5,1054.5C 545.833,1053.83 546.167,1053.17 546.5,1052.5C 545.048,1051.06 544.048,1049.39 543.5,1047.5 Z"/></g>
<g><path style="opacity:1" fill="#f4dec1" d="M 371.5,1055.5 C 380.833,1055.5 390.167,1055.5 399.5,1055.5C 398.77,1057.05 397.437,1057.88 395.5,1058C 389.5,1058.67 383.5,1058.67 377.5,1058C 375.389,1057.16 373.389,1056.32 371.5,1055.5 Z"/></g>
</svg>
