<?xml version="1.0" encoding="UTF-8"?>
<!DOCTYPE svg PUBLIC "-//W3C//DTD SVG 1.1//EN" "http://www.w3.org/Graphics/SVG/1.1/DTD/svg11.dtd">
<svg xmlns="http://www.w3.org/2000/svg" version="1.1" width="512px" height="512px" style="shape-rendering:geometricPrecision; text-rendering:geometricPrecision; image-rendering:optimizeQuality; fill-rule:evenodd; clip-rule:evenodd" xmlns:xlink="http://www.w3.org/1999/xlink">
<g><path style="opacity:0.984" fill="#fefefe" d="M 167.5,-0.5 C 228.5,-0.5 289.5,-0.5 350.5,-0.5C 374.986,0.0734893 398.986,4.24016 422.5,12C 472.628,33.8221 501.128,71.9887 508,126.5C 509.457,140.297 510.624,153.964 511.5,167.5C 511.5,228.5 511.5,289.5 511.5,350.5C 511.711,383.259 504.211,414.259 489,443.5C 464.506,481.349 429.672,502.849 384.5,508C 370.709,509.532 357.042,510.699 343.5,511.5C 282.5,511.5 221.5,511.5 160.5,511.5C 136.014,510.927 112.014,506.76 88.5,499C 38.3717,477.178 9.87168,439.011 3,384.5C 1.54256,370.703 0.375892,357.036 -0.5,343.5C -0.5,282.5 -0.5,221.5 -0.5,160.5C 0.0734893,136.014 4.24016,112.014 12,88.5C 33.8221,38.3717 71.9887,9.87168 126.5,3C 140.291,1.46815 153.958,0.30148 167.5,-0.5 Z M 170.5,46.5 C 229.501,46.3333 288.501,46.5 347.5,47C 372.423,46.3181 396.089,51.3181 418.5,62C 438.533,74.7081 451.699,92.5414 458,115.5C 460.693,126.681 462.359,138.014 463,149.5C 464.088,186.155 464.588,222.822 464.5,259.5C 464.603,294.847 464.103,330.181 463,365.5C 462.74,399.858 448.906,427.025 421.5,447C 402.89,457.32 382.89,462.653 361.5,463C 324.845,464.088 288.178,464.588 251.5,464.5C 216.153,464.603 180.819,464.103 145.5,463C 111.142,462.74 83.9751,448.906 64,421.5C 55.5925,406.608 50.5925,390.608 49,373.5C 48.0485,362.518 47.3818,351.518 47,340.5C 46.3333,281.167 46.3333,221.833 47,162.5C 46.7863,141.114 50.4529,120.447 58,100.5C 74.5847,68.4338 101.085,51.2672 137.5,49C 148.659,48.2111 159.659,47.3777 170.5,46.5 Z M 248.5,170.5 C 294.145,170.559 323.978,192.225 338,235.5C 345.571,283.555 327.071,317.055 282.5,336C 238.046,347.18 203.88,333.346 180,294.5C 162.576,253.948 170.076,218.782 202.5,189C 216.282,178.799 231.616,172.632 248.5,170.5 Z"/></g>
<g><path style="opacity:0.978" fill="#fefefe" d="M 386.5,87.5 C 408.112,86.801 420.445,97.1343 423.5,118.5C 420.46,140.71 407.794,150.876 385.5,149C 370.033,144.698 361.699,134.531 360.5,118.5C 361.999,102.012 370.666,91.6785 386.5,87.5 Z"/></g>
<g><path style="opacity:0.986" fill="#fefefe" d="M 247.5,123.5 C 307.468,123.356 350.634,150.023 377,203.5C 395.819,254.112 388.486,300.445 355,342.5C 312.063,386.491 261.563,397.991 203.5,377C 152.69,352.582 126.024,312.082 123.5,255.5C 126.024,198.918 152.69,158.418 203.5,134C 217.777,128.284 232.443,124.784 247.5,123.5 Z M 248.5,170.5 C 231.616,172.632 216.282,178.799 202.5,189C 170.076,218.782 162.576,253.948 180,294.5C 203.88,333.346 238.046,347.18 282.5,336C 327.071,317.055 345.571,283.555 338,235.5C 323.978,192.225 294.145,170.559 248.5,170.5 Z"/></g>
</svg>
