<?xml version="1.0" encoding="UTF-8"?>
<!DOCTYPE svg PUBLIC "-//W3C//DTD SVG 1.1//EN" "http://www.w3.org/Graphics/SVG/1.1/DTD/svg11.dtd">
<svg xmlns="http://www.w3.org/2000/svg" version="1.1" width="1242px" height="376px" style="shape-rendering:geometricPrecision; text-rendering:geometricPrecision; image-rendering:optimizeQuality; fill-rule:evenodd; clip-rule:evenodd" xmlns:xlink="http://www.w3.org/1999/xlink">
<g><path style="opacity:1" fill="#000000" d="M -0.5,-0.5 C 413.5,-0.5 827.5,-0.5 1241.5,-0.5C 1241.5,43.5 1241.5,87.5 1241.5,131.5C 827.5,131.5 413.5,131.5 -0.5,131.5C -0.5,87.5 -0.5,43.5 -0.5,-0.5 Z"/></g>
<g><path style="opacity:1" fill="#929292" d="M 459.5,11.5 C 466.175,11.3337 472.842,11.5004 479.5,12C 485.178,13.8574 487.345,17.6907 486,23.5C 484.833,26 483,27.8333 480.5,29C 488.049,31.9301 490.216,37.0968 487,44.5C 485.269,46.6166 483.102,48.1166 480.5,49C 473.508,49.4996 466.508,49.6663 459.5,49.5C 459.5,36.8333 459.5,24.1667 459.5,11.5 Z"/></g>
<g><path style="opacity:1" fill="#919191" d="M 504.5,11.5 C 507.448,11.2229 510.281,11.5562 513,12.5C 517.474,24.7571 521.641,37.0904 525.5,49.5C 523.167,49.5 520.833,49.5 518.5,49.5C 517.978,46.4318 517.145,43.4318 516,40.5C 511.218,39.1977 506.385,39.1977 501.5,40.5C 500.5,43.1667 499.5,45.8333 498.5,48.5C 496.167,49.8333 493.833,49.8333 491.5,48.5C 496.038,36.2186 500.371,23.8853 504.5,11.5 Z"/></g>
<g><path style="opacity:1" fill="#939393" d="M 531.5,11.5 C 533.5,11.5 535.5,11.5 537.5,11.5C 537.5,22.1667 537.5,32.8333 537.5,43.5C 543.5,43.5 549.5,43.5 555.5,43.5C 555.5,45.5 555.5,47.5 555.5,49.5C 547.5,49.5 539.5,49.5 531.5,49.5C 531.5,36.8333 531.5,24.1667 531.5,11.5 Z"/></g>
<g><path style="opacity:1" fill="#939393" d="M 561.5,11.5 C 563.5,11.5 565.5,11.5 567.5,11.5C 567.5,22.1667 567.5,32.8333 567.5,43.5C 573.5,43.5 579.5,43.5 585.5,43.5C 585.5,45.5 585.5,47.5 585.5,49.5C 577.5,49.5 569.5,49.5 561.5,49.5C 561.5,36.8333 561.5,24.1667 561.5,11.5 Z"/></g>
<g><path style="opacity:1" fill="#909090" d="M 604.5,11.5 C 607.833,11.5 611.167,11.5 614.5,11.5C 614.5,19.8333 614.5,28.1667 614.5,36.5C 616.167,36.5 617.833,36.5 619.5,36.5C 619.5,38.5 619.5,40.5 619.5,42.5C 617.833,42.5 616.167,42.5 614.5,42.5C 614.5,44.8333 614.5,47.1667 614.5,49.5C 612.167,49.5 609.833,49.5 607.5,49.5C 607.5,47.1667 607.5,44.8333 607.5,42.5C 601.5,42.5 595.5,42.5 589.5,42.5C 589.337,40.1432 589.503,37.8098 590,35.5C 594.662,27.3513 599.495,19.3513 604.5,11.5 Z"/></g>
<g><path style="opacity:1" fill="#919191" d="M 636.5,11.5 C 639.448,11.2229 642.281,11.5562 645,12.5C 649.474,24.7571 653.641,37.0904 657.5,49.5C 655.167,49.5 652.833,49.5 650.5,49.5C 649.978,46.4318 649.145,43.4318 648,40.5C 643.218,39.1977 638.385,39.1977 633.5,40.5C 632.5,43.1667 631.5,45.8333 630.5,48.5C 628.167,49.8333 625.833,49.8333 623.5,48.5C 628.038,36.2186 632.371,23.8853 636.5,11.5 Z"/></g>
<g><path style="opacity:1" fill="#939393" d="M 663.5,11.5 C 665.5,11.5 667.5,11.5 669.5,11.5C 669.5,22.1667 669.5,32.8333 669.5,43.5C 675.5,43.5 681.5,43.5 687.5,43.5C 687.5,45.5 687.5,47.5 687.5,49.5C 679.5,49.5 671.5,49.5 663.5,49.5C 663.5,36.8333 663.5,24.1667 663.5,11.5 Z"/></g>
<g><path style="opacity:1" fill="#939393" d="M 693.5,11.5 C 695.5,11.5 697.5,11.5 699.5,11.5C 699.5,22.1667 699.5,32.8333 699.5,43.5C 705.5,43.5 711.5,43.5 717.5,43.5C 717.5,45.5 717.5,47.5 717.5,49.5C 709.5,49.5 701.5,49.5 693.5,49.5C 693.5,36.8333 693.5,24.1667 693.5,11.5 Z"/></g>
<g><path style="opacity:1" fill="#8d8d8d" d="M 730.5,10.5 C 740.103,8.66635 746.103,12.333 748.5,21.5C 748.237,24.0278 747.404,26.3611 746,28.5C 741.867,33.6344 737.367,38.4677 732.5,43C 738.157,43.4994 743.824,43.6661 749.5,43.5C 749.5,45.5 749.5,47.5 749.5,49.5C 740.5,49.5 731.5,49.5 722.5,49.5C 722.34,47.8008 722.506,46.1341 723,44.5C 727.667,39.8333 732.333,35.1667 737,30.5C 739.543,28.0468 741.043,25.0468 741.5,21.5C 739.766,16.8178 736.433,15.3178 731.5,17C 729.393,18.2635 728.393,20.0968 728.5,22.5C 726.5,22.5 724.5,22.5 722.5,22.5C 722.676,16.8089 725.343,12.8089 730.5,10.5 Z"/></g>
<g><path style="opacity:1" fill="#909090" d="M 768.5,11.5 C 771.833,11.5 775.167,11.5 778.5,11.5C 778.5,19.8333 778.5,28.1667 778.5,36.5C 780.167,36.5 781.833,36.5 783.5,36.5C 783.5,38.5 783.5,40.5 783.5,42.5C 781.833,42.5 780.167,42.5 778.5,42.5C 778.5,44.8333 778.5,47.1667 778.5,49.5C 776.167,49.5 773.833,49.5 771.5,49.5C 771.5,47.1667 771.5,44.8333 771.5,42.5C 765.5,42.5 759.5,42.5 753.5,42.5C 753.337,40.1432 753.503,37.8098 754,35.5C 758.662,27.3513 763.495,19.3513 768.5,11.5 Z"/></g>
<g><path style="opacity:1" fill="#3b3b3b" d="M 476.5,17.5 C 473.167,17.5 469.833,17.5 466.5,17.5C 466.5,20.8333 466.5,24.1667 466.5,27.5C 465.518,24.0381 465.185,20.3714 465.5,16.5C 469.371,16.185 473.038,16.5184 476.5,17.5 Z"/></g>
<g><path style="opacity:1" fill="#020202" d="M 476.5,17.5 C 480.473,20.5397 480.473,23.7064 476.5,27C 473.183,27.4983 469.85,27.665 466.5,27.5C 466.5,24.1667 466.5,20.8333 466.5,17.5C 469.833,17.5 473.167,17.5 476.5,17.5 Z"/></g>
<g><path style="opacity:1" fill="#3c3c3c" d="M 607.5,36.5 C 607.823,30.31 607.49,24.31 606.5,18.5C 606.783,17.7109 607.283,17.0442 608,16.5C 608.821,23.3464 608.654,30.013 607.5,36.5 Z"/></g>
<g><path style="opacity:1" fill="#3c3c3c" d="M 771.5,36.5 C 771.823,30.31 771.49,24.31 770.5,18.5C 770.783,17.7109 771.283,17.0442 772,16.5C 772.821,23.3464 772.654,30.013 771.5,36.5 Z"/></g>
<g><path style="opacity:1" fill="#030303" d="M 606.5,18.5 C 607.49,24.31 607.823,30.31 607.5,36.5C 603.774,36.8226 600.107,36.4892 596.5,35.5C 599.593,29.6412 602.926,23.9745 606.5,18.5 Z"/></g>
<g><path style="opacity:1" fill="#030303" d="M 770.5,18.5 C 771.49,24.31 771.823,30.31 771.5,36.5C 767.774,36.8226 764.107,36.4892 760.5,35.5C 763.593,29.6412 766.926,23.9745 770.5,18.5 Z"/></g>
<g><path style="opacity:1" fill="#0e0e0e" d="M 508.5,18.5 C 510.943,23.5005 512.61,28.8338 513.5,34.5C 510.167,34.5 506.833,34.5 503.5,34.5C 504.768,29.0298 506.435,23.6964 508.5,18.5 Z"/></g>
<g><path style="opacity:1" fill="#0e0e0e" d="M 640.5,18.5 C 642.943,23.5005 644.61,28.8338 645.5,34.5C 642.167,34.5 638.833,34.5 635.5,34.5C 636.768,29.0298 638.435,23.6964 640.5,18.5 Z"/></g>
<g><path style="opacity:1" fill="#f2f2f2" d="M 74.5,26.5 C 79.9885,26.504 81.8219,29.1707 80,34.5C 70.3491,42.9841 61.1824,51.9841 52.5,61.5C 61.1667,70.8333 70.1667,79.8333 79.5,88.5C 81.7105,94.4521 79.7105,96.9521 73.5,96C 63.304,85.4699 52.804,75.3032 42,65.5C 40.6986,63.6354 40.3653,61.6354 41,59.5C 52.0617,48.2707 63.2284,37.2707 74.5,26.5 Z"/></g>
<g><path style="opacity:1" fill="#0c0c0c" d="M 465.5,32.5 C 470.297,32.1211 474.964,32.6211 479.5,34C 482.439,37.9734 481.772,41.3067 477.5,44C 473.833,44.6667 470.167,44.6667 466.5,44C 465.54,40.27 465.207,36.4367 465.5,32.5 Z"/></g>
<g><path style="opacity:1" fill="#f5f5f5" d="M 538.5,59.5 C 546.571,59.1367 554.571,59.6367 562.5,61C 571.608,64.379 575.108,70.879 573,80.5C 571.474,86.0265 567.974,89.5265 562.5,91C 557.582,91.1948 552.749,91.6948 548,92.5C 547.501,97.1548 547.334,101.821 547.5,106.5C 544.5,106.5 541.5,106.5 538.5,106.5C 538.5,90.8333 538.5,75.1667 538.5,59.5 Z"/></g>
<g><path style="opacity:1" fill="#8b8b8b" d="M 663.5,63.5 C 660.5,63.5 657.5,63.5 654.5,63.5C 654.806,66.3854 654.473,69.0521 653.5,71.5C 653.5,68.5 653.5,65.5 653.5,62.5C 657.042,62.1872 660.375,62.5206 663.5,63.5 Z"/></g>
<g><path style="opacity:1" fill="#f0f0f0" d="M 663.5,63.5 C 663.5,66.1667 663.5,68.8333 663.5,71.5C 665.833,71.5 668.167,71.5 670.5,71.5C 670.5,73.8333 670.5,76.1667 670.5,78.5C 668.167,78.5 665.833,78.5 663.5,78.5C 663.334,84.8421 663.5,91.1754 664,97.5C 665.789,99.229 667.956,99.8957 670.5,99.5C 670.5,101.833 670.5,104.167 670.5,106.5C 666.486,106.666 662.486,106.499 658.5,106C 657.333,104.833 656.167,103.667 655,102.5C 653.599,94.5852 653.099,86.5852 653.5,78.5C 651.833,78.5 650.167,78.5 648.5,78.5C 648.5,76.1667 648.5,73.8333 648.5,71.5C 650.167,71.5 651.833,71.5 653.5,71.5C 654.473,69.0521 654.806,66.3854 654.5,63.5C 657.5,63.5 660.5,63.5 663.5,63.5 Z"/></g>
<g><path style="opacity:1" fill="#646464" d="M 558.5,68.5 C 555.167,68.5 551.833,68.5 548.5,68.5C 548.5,73.5 548.5,78.5 548.5,83.5C 551.833,83.5 555.167,83.5 558.5,83.5C 555.038,84.4816 551.371,84.815 547.5,84.5C 547.5,78.8333 547.5,73.1667 547.5,67.5C 551.371,67.185 555.038,67.5184 558.5,68.5 Z"/></g>
<g><path style="opacity:1" fill="#040404" d="M 558.5,68.5 C 563.109,70.7245 564.609,74.3912 563,79.5C 561.951,81.3844 560.451,82.7177 558.5,83.5C 555.167,83.5 551.833,83.5 548.5,83.5C 548.5,78.5 548.5,73.5 548.5,68.5C 551.833,68.5 555.167,68.5 558.5,68.5 Z"/></g>
<g><path style="opacity:1" fill="#f0f0f0" d="M 589.5,70.5 C 608.824,71.3468 615.324,81.0135 609,99.5C 602.314,107.499 594.147,109.332 584.5,105C 577.861,98.5436 575.694,90.7102 578,81.5C 580.437,76.2262 584.271,72.5595 589.5,70.5 Z"/></g>
<g><path style="opacity:1" fill="#f0f0f0" d="M 625.5,70.5 C 631.233,69.8951 636.566,71.0617 641.5,74C 643.747,75.995 644.747,78.495 644.5,81.5C 640.089,82.34 636.423,81.1733 633.5,78C 627.365,76.1868 625.032,78.1868 626.5,84C 631.167,85.3333 635.833,86.6667 640.5,88C 645.224,90.4353 646.724,94.2686 645,99.5C 640.228,106.296 633.728,108.796 625.5,107C 619.467,105.862 616.134,102.362 615.5,96.5C 618.572,96.1826 621.572,96.5159 624.5,97.5C 627.983,101.049 631.817,101.382 636,98.5C 636.711,96.6332 636.211,95.1332 634.5,94C 629.677,93.1698 625.011,91.8365 620.5,90C 612.828,81.2301 614.494,74.7301 625.5,70.5 Z"/></g>
<g><path style="opacity:1" fill="#efefef" d="M 684.5,70.5 C 690.233,69.8951 695.566,71.0617 700.5,74C 702.747,75.995 703.747,78.495 703.5,81.5C 699.089,82.34 695.423,81.1733 692.5,78C 686.365,76.1868 684.032,78.1868 685.5,84C 692.439,84.7233 698.605,87.2233 704,91.5C 705.83,99.6657 702.664,104.832 694.5,107C 687.56,108.527 681.393,107.027 676,102.5C 674.872,100.655 674.372,98.6547 674.5,96.5C 677.572,96.1826 680.572,96.5159 683.5,97.5C 686.983,101.049 690.817,101.382 695,98.5C 695.711,96.6332 695.211,95.1332 693.5,94C 688.677,93.1698 684.011,91.8365 679.5,90C 671.828,81.2301 673.494,74.7301 684.5,70.5 Z"/></g>
<g><path style="opacity:1" fill="#050505" d="M 590.5,78.5 C 595.439,77.3519 598.939,79.0186 601,83.5C 602.409,89.3539 601.243,94.5206 597.5,99C 593.219,100.458 590.053,99.2916 588,95.5C 585.381,89.2055 586.214,83.5388 590.5,78.5 Z"/></g>
<g><path style="opacity:1" fill="#010101" d="M -0.5,131.5 C 413.5,131.5 827.5,131.5 1241.5,131.5C 1241.5,206.5 1241.5,281.5 1241.5,356.5C 1136.5,356.5 1031.5,356.5 926.5,356.5C 924.5,356.5 922.5,356.5 920.5,356.5C 613.5,356.5 306.5,356.5 -0.5,356.5C -0.5,281.5 -0.5,206.5 -0.5,131.5 Z"/></g>
<g><path style="opacity:1" fill="#eaeaea" d="M 159.5,157.5 C 162.167,157.5 164.833,157.5 167.5,157.5C 167.334,163.176 167.501,168.843 168,174.5C 171.254,169.777 175.754,168.277 181.5,170C 188.015,173.037 191.015,178.204 190.5,185.5C 188.999,201.331 181.499,205.331 168,197.5C 167.51,198.793 167.343,200.127 167.5,201.5C 164.833,201.5 162.167,201.5 159.5,201.5C 159.5,186.833 159.5,172.167 159.5,157.5 Z"/></g>
<g><path style="opacity:1" fill="#e5e5e5" d="M 227.5,157.5 C 230.167,157.5 232.833,157.5 235.5,157.5C 235.5,172.167 235.5,186.833 235.5,201.5C 232.833,201.5 230.167,201.5 227.5,201.5C 227.5,186.833 227.5,172.167 227.5,157.5 Z"/></g>
<g><path style="opacity:1" fill="#e5e5e5" d="M 242.5,157.5 C 245.167,157.5 247.833,157.5 250.5,157.5C 250.5,172.167 250.5,186.833 250.5,201.5C 247.833,201.5 245.167,201.5 242.5,201.5C 242.5,186.833 242.5,172.167 242.5,157.5 Z"/></g>
<g><path style="opacity:1" fill="#e5e5e5" d="M 327.5,157.5 C 330.167,157.5 332.833,157.5 335.5,157.5C 335.5,172.167 335.5,186.833 335.5,201.5C 332.833,201.5 330.167,201.5 327.5,201.5C 327.5,186.833 327.5,172.167 327.5,157.5 Z"/></g>
<g><path style="opacity:1" fill="#e5e5e5" d="M 342.5,157.5 C 345.167,157.5 347.833,157.5 350.5,157.5C 350.5,172.167 350.5,186.833 350.5,201.5C 347.833,201.5 345.167,201.5 342.5,201.5C 342.5,186.833 342.5,172.167 342.5,157.5 Z"/></g>
<g><path style="opacity:1" fill="#f1f1f1" d="M 369.5,193.5 C 368.957,193.56 368.624,193.893 368.5,194.5C 374.463,195.496 380.463,195.829 386.5,195.5C 386.5,197.5 386.5,199.5 386.5,201.5C 376.833,201.5 367.167,201.5 357.5,201.5C 357.338,199.473 357.505,197.473 358,195.5C 365.032,188.803 371.698,181.803 378,174.5C 379.5,166.667 376.333,163.5 368.5,165C 366.077,166.571 364.744,168.737 364.5,171.5C 362.167,171.5 359.833,171.5 357.5,171.5C 357.538,165.283 360.538,161.116 366.5,159C 373.806,157.215 379.972,159.048 385,164.5C 386.913,168.471 386.913,172.471 385,176.5C 379.996,182.336 374.829,188.003 369.5,193.5 Z"/></g>
<g><path style="opacity:1" fill="#f5f5f5" d="M 273.5,159.5 C 277.167,159.5 280.833,159.5 284.5,159.5C 284.5,168.833 284.5,178.167 284.5,187.5C 286.5,187.5 288.5,187.5 290.5,187.5C 290.5,189.5 290.5,191.5 290.5,193.5C 288.5,193.5 286.5,193.5 284.5,193.5C 284.5,196.167 284.5,198.833 284.5,201.5C 282.167,201.5 279.833,201.5 277.5,201.5C 277.5,198.833 277.5,196.167 277.5,193.5C 270.5,193.5 263.5,193.5 256.5,193.5C 256.337,191.143 256.503,188.81 257,186.5C 262.511,177.472 268.011,168.472 273.5,159.5 Z"/></g>
<g><path style="opacity:1" fill="#f5f5f5" d="M 408.5,159.5 C 412.167,159.5 415.833,159.5 419.5,159.5C 419.5,168.833 419.5,178.167 419.5,187.5C 421.5,187.5 423.5,187.5 425.5,187.5C 425.5,189.5 425.5,191.5 425.5,193.5C 423.5,193.5 421.5,193.5 419.5,193.5C 419.5,196.167 419.5,198.833 419.5,201.5C 417.167,201.5 414.833,201.5 412.5,201.5C 412.5,198.833 412.5,196.167 412.5,193.5C 405.5,193.5 398.5,193.5 391.5,193.5C 391.337,191.143 391.503,188.81 392,186.5C 397.511,177.472 403.011,168.472 408.5,159.5 Z"/></g>
<g><path style="opacity:1" fill="#0d0d0d" d="M 276.5,165.5 C 277.492,172.648 277.825,179.981 277.5,187.5C 272.786,187.827 268.12,187.493 263.5,186.5C 268.095,179.64 272.428,172.64 276.5,165.5 Z"/></g>
<g><path style="opacity:1" fill="#0d0d0d" d="M 411.5,165.5 C 412.492,172.648 412.825,179.981 412.5,187.5C 407.786,187.827 403.12,187.493 398.5,186.5C 403.095,179.64 407.428,172.64 411.5,165.5 Z"/></g>
<g><path style="opacity:1" fill="#f2f2f2" d="M 202.5,169.5 C 208.352,168.861 213.852,169.861 219,172.5C 219.667,173.833 220.333,175.167 221,176.5C 221.5,184.827 221.666,193.16 221.5,201.5C 219.167,201.5 216.833,201.5 214.5,201.5C 214.762,200.022 214.429,198.689 213.5,197.5C 212.636,199.197 211.303,200.363 209.5,201C 196.933,203.438 192.433,198.604 196,186.5C 201.604,182.995 207.771,181.662 214.5,182.5C 214.896,179.956 214.229,177.789 212.5,176C 209.5,175.333 206.5,175.333 203.5,176C 201.347,178.165 198.681,178.998 195.5,178.5C 195.986,174.019 198.319,171.019 202.5,169.5 Z"/></g>
<g><path style="opacity:1" fill="#f2f2f2" d="M 302.5,169.5 C 308.352,168.861 313.852,169.861 319,172.5C 319.667,173.833 320.333,175.167 321,176.5C 321.5,184.827 321.666,193.16 321.5,201.5C 319.167,201.5 316.833,201.5 314.5,201.5C 314.762,200.022 314.429,198.689 313.5,197.5C 312.636,199.197 311.303,200.363 309.5,201C 296.933,203.438 292.433,198.604 296,186.5C 301.604,182.995 307.771,181.662 314.5,182.5C 314.896,179.956 314.229,177.789 312.5,176C 309.5,175.333 306.5,175.333 303.5,176C 301.347,178.165 298.681,178.998 295.5,178.5C 295.986,174.019 298.319,171.019 302.5,169.5 Z"/></g>
<g><path style="opacity:1" fill="#040404" d="M 171.5,175.5 C 181.7,175.559 185.2,180.559 182,190.5C 179.928,195.143 176.428,196.643 171.5,195C 167.695,190.909 166.528,186.076 168,180.5C 168.997,178.677 170.164,177.01 171.5,175.5 Z"/></g>
<g><path style="opacity:1" fill="#121212" d="M 204.5,187.5 C 207.833,187.5 211.167,187.5 214.5,187.5C 213.512,195.742 209.345,198.075 202,194.5C 200.916,191.341 201.75,189.008 204.5,187.5 Z"/></g>
<g><path style="opacity:1" fill="#121212" d="M 304.5,187.5 C 307.833,187.5 311.167,187.5 314.5,187.5C 313.512,195.742 309.345,198.075 302,194.5C 300.916,191.341 301.75,189.008 304.5,187.5 Z"/></g>
<g><path style="opacity:1" fill="#464646" d="M 369.5,193.5 C 375.31,194.49 381.31,194.823 387.5,194.5C 387.802,197.059 387.468,199.393 386.5,201.5C 386.5,199.5 386.5,197.5 386.5,195.5C 380.463,195.829 374.463,195.496 368.5,194.5C 368.624,193.893 368.957,193.56 369.5,193.5 Z"/></g>
<g><path style="opacity:1" fill="#848484" d="M 250.5,231.5 C 249.167,231.5 247.833,231.5 246.5,231.5C 246.5,244.5 246.5,257.5 246.5,270.5C 245.504,257.344 245.171,244.01 245.5,230.5C 247.415,230.216 249.081,230.549 250.5,231.5 Z"/></g>
<g><path style="opacity:1" fill="#efefef" d="M 250.5,231.5 C 250.334,236.511 250.501,241.511 251,246.5C 252.529,243.066 255.196,241.4 259,241.5C 263.943,241.631 267.276,243.964 269,248.5C 269.5,255.826 269.666,263.159 269.5,270.5C 267.833,270.5 266.167,270.5 264.5,270.5C 264.666,263.492 264.5,256.492 264,249.5C 261.369,245.371 257.869,244.538 253.5,247C 252.299,247.903 251.465,249.069 251,250.5C 250.5,257.158 250.334,263.825 250.5,270.5C 249.167,270.5 247.833,270.5 246.5,270.5C 246.5,257.5 246.5,244.5 246.5,231.5C 247.833,231.5 249.167,231.5 250.5,231.5 Z"/></g>
<g><path style="opacity:1" fill="#fafafa" d="M 328.5,231.5 C 328.5,244.5 328.5,257.5 328.5,270.5C 327.167,270.5 325.833,270.5 324.5,270.5C 324.5,257.5 324.5,244.5 324.5,231.5C 325.833,231.5 327.167,231.5 328.5,231.5 Z"/></g>
<g><path style="opacity:1" fill="#f0f0f0" d="M 414.5,231.5 C 415.833,231.5 417.167,231.5 418.5,231.5C 418.5,244.5 418.5,257.5 418.5,270.5C 417.167,270.5 415.833,270.5 414.5,270.5C 414.657,269.127 414.49,267.793 414,266.5C 409.454,270.749 404.287,271.582 398.5,269C 394.874,265.46 393.207,261.126 393.5,256C 393.773,246.055 398.773,241.389 408.5,242C 410.624,243.122 412.457,244.622 414,246.5C 414.499,241.511 414.666,236.511 414.5,231.5 Z"/></g>
<g><path style="opacity:1" fill="#888888" d="M 414.5,231.5 C 415.919,230.549 417.585,230.216 419.5,230.5C 419.829,244.01 419.496,257.344 418.5,270.5C 418.5,257.5 418.5,244.5 418.5,231.5C 417.167,231.5 415.833,231.5 414.5,231.5 Z"/></g>
<g><path style="opacity:1" fill="#f4f4f4" d="M 184.5,260.5 C 184.56,261.043 184.893,261.376 185.5,261.5C 186.498,251.856 186.832,242.19 186.5,232.5C 187.833,232.5 189.167,232.5 190.5,232.5C 190.5,245.167 190.5,257.833 190.5,270.5C 188.533,270.739 186.699,270.406 185,269.5C 178.823,260.471 172.657,251.471 166.5,242.5C 166.44,241.957 166.107,241.624 165.5,241.5C 164.502,251.144 164.168,260.81 164.5,270.5C 163.167,270.5 161.833,270.5 160.5,270.5C 160.5,257.833 160.5,245.167 160.5,232.5C 162.467,232.261 164.301,232.594 166,233.5C 172.177,242.529 178.343,251.529 184.5,260.5 Z"/></g>
<g><path style="opacity:1" fill="#808080" d="M 186.5,232.5 C 186.832,242.19 186.498,251.856 185.5,261.5C 184.893,261.376 184.56,261.043 184.5,260.5C 185.167,251.167 185.833,241.833 186.5,232.5 Z"/></g>
<g><path style="opacity:1" fill="#f4f4f4" d="M 229.5,235.5 C 230.833,235.5 232.167,235.5 233.5,235.5C 233.5,237.833 233.5,240.167 233.5,242.5C 235.833,242.5 238.167,242.5 240.5,242.5C 240.5,243.5 240.5,244.5 240.5,245.5C 238.167,245.5 235.833,245.5 233.5,245.5C 233.177,251.69 233.51,257.69 234.5,263.5C 234.414,264.496 234.748,265.329 235.5,266C 237.134,266.494 238.801,266.66 240.5,266.5C 240.5,267.833 240.5,269.167 240.5,270.5C 238.143,270.663 235.81,270.497 233.5,270C 231.667,269.5 230.5,268.333 230,266.5C 229.5,259.508 229.334,252.508 229.5,245.5C 227.833,245.5 226.167,245.5 224.5,245.5C 224.5,244.5 224.5,243.5 224.5,242.5C 226.167,242.5 227.833,242.5 229.5,242.5C 229.5,240.167 229.5,237.833 229.5,235.5 Z"/></g>
<g><path style="opacity:1" fill="#9e9e9e" d="M 229.5,235.5 C 230.919,234.549 232.585,234.216 234.5,234.5C 234.5,236.833 234.5,239.167 234.5,241.5C 236.735,241.205 238.735,241.539 240.5,242.5C 238.167,242.5 235.833,242.5 233.5,242.5C 233.5,240.167 233.5,237.833 233.5,235.5C 232.167,235.5 230.833,235.5 229.5,235.5 Z"/></g>
<g><path style="opacity:1" fill="#ededed" d="M 1154.5,239.5 C 1161.16,238.344 1163.16,240.844 1160.5,247C 1153.75,248.469 1151.75,245.969 1154.5,239.5 Z"/></g>
<g><path style="opacity:1" fill="#ededed" d="M 1172.5,239.5 C 1179.16,238.344 1181.16,240.844 1178.5,247C 1171.75,248.469 1169.75,245.969 1172.5,239.5 Z"/></g>
<g><path style="opacity:1" fill="#ededed" d="M 1190.5,239.5 C 1197.16,238.344 1199.16,240.844 1196.5,247C 1189.75,248.469 1187.75,245.969 1190.5,239.5 Z"/></g>
<g><path style="opacity:1" fill="#797979" d="M 166.5,242.5 C 165.833,251.833 165.167,261.167 164.5,270.5C 164.168,260.81 164.502,251.144 165.5,241.5C 166.107,241.624 166.44,241.957 166.5,242.5 Z"/></g>
<g><path style="opacity:1" fill="#e9e9e9" d="M 205.5,241.5 C 216.48,241.147 221.814,246.48 221.5,257.5C 214.833,257.5 208.167,257.5 201.5,257.5C 201.972,265.124 205.972,267.957 213.5,266C 215.41,263.518 217.743,263.018 220.5,264.5C 216.236,270.202 210.569,272.035 203.5,270C 196.984,265.121 194.818,258.621 197,250.5C 198.688,246.315 201.521,243.315 205.5,241.5 Z"/></g>
<g><path style="opacity:1" fill="#e9e9e9" d="M 283.5,241.5 C 294.48,241.147 299.814,246.48 299.5,257.5C 292.833,257.5 286.167,257.5 279.5,257.5C 279.972,265.124 283.972,267.957 291.5,266C 293.41,263.518 295.743,263.018 298.5,264.5C 294.236,270.202 288.569,272.035 281.5,270C 274.984,265.121 272.818,258.621 275,250.5C 276.688,246.315 279.521,243.315 283.5,241.5 Z"/></g>
<g><path style="opacity:1" fill="#e7e7e7" d="M 314.5,241.5 C 316.167,241.5 317.833,241.5 319.5,241.5C 319.5,243.167 319.5,244.833 319.5,246.5C 315.713,245.814 312.546,246.814 310,249.5C 309.5,256.492 309.334,263.492 309.5,270.5C 307.833,270.5 306.167,270.5 304.5,270.5C 304.5,261.167 304.5,251.833 304.5,242.5C 306.167,242.5 307.833,242.5 309.5,242.5C 309.351,243.552 309.517,244.552 310,245.5C 311.397,243.93 312.897,242.596 314.5,241.5 Z"/></g>
<g><path style="opacity:1" fill="#e8e8e8" d="M 343.5,241.5 C 350.204,240.27 355.038,242.603 358,248.5C 358.5,255.826 358.666,263.159 358.5,270.5C 356.833,270.5 355.167,270.5 353.5,270.5C 353.657,269.127 353.49,267.793 353,266.5C 347.261,271.773 341.595,271.773 336,266.5C 333.912,259.587 336.412,255.42 343.5,254C 346.817,253.502 350.15,253.335 353.5,253.5C 353.68,247.18 350.68,244.68 344.5,246C 342.884,246.615 341.551,247.615 340.5,249C 339.207,249.49 337.873,249.657 336.5,249.5C 337.428,245.574 339.761,242.907 343.5,241.5 Z"/></g>
<g><path style="opacity:1" fill="#ededed" d="M 374.5,241.5 C 380.204,240.436 384.371,242.436 387,247.5C 387.5,255.159 387.666,262.826 387.5,270.5C 386.167,270.5 384.833,270.5 383.5,270.5C 383.666,263.492 383.5,256.492 383,249.5C 378.667,244.167 374.333,244.167 370,249.5C 369.5,256.492 369.334,263.492 369.5,270.5C 367.833,270.5 366.167,270.5 364.5,270.5C 364.5,261.167 364.5,251.833 364.5,242.5C 366.167,242.5 367.833,242.5 369.5,242.5C 369.351,243.552 369.517,244.552 370,245.5C 371.397,243.93 372.897,242.596 374.5,241.5 Z"/></g>
<g><path style="opacity:1" fill="#e5e5e5" d="M 432.5,241.5 C 439.233,240.369 444.233,242.702 447.5,248.5C 446.667,248.833 445.833,249.167 445,249.5C 441.864,246.189 438.031,245.022 433.5,246C 430.833,248.333 430.833,250.667 433.5,253C 438.442,253.866 442.942,255.7 447,258.5C 448.569,263.625 447.069,267.459 442.5,270C 438.5,270.667 434.5,270.667 430.5,270C 427.967,268.967 426.301,267.133 425.5,264.5C 426.333,264.167 427.167,263.833 428,263.5C 430.556,265.207 433.389,266.207 436.5,266.5C 441.667,266.879 443.334,264.713 441.5,260C 436.006,259.174 431.172,257.007 427,253.5C 426.333,251.167 426.333,248.833 427,246.5C 428.73,244.598 430.563,242.931 432.5,241.5 Z"/></g>
<g><path style="opacity:1" fill="#838383" d="M 328.5,231.5 C 327.167,231.5 325.833,231.5 324.5,231.5C 324.5,244.5 324.5,257.5 324.5,270.5C 323.504,257.344 323.171,244.01 323.5,230.5C 325.415,230.216 327.081,230.549 328.5,231.5 Z"/></g>
<g><path style="opacity:1" fill="#e5e2d9" d="M 48.5,263.5 C 49.2485,264.531 49.9152,265.698 50.5,267C 58.8533,267.832 67.1866,267.665 75.5,266.5C 75.1445,265.478 74.4778,264.811 73.5,264.5C 72.8333,263.167 71.8333,262.167 70.5,261.5C 69.3711,258.491 68.3711,255.491 67.5,252.5C 60.6787,251.671 53.6787,251.171 46.5,251C 52.4908,250.501 58.4908,250.334 64.5,250.5C 65.675,250.719 66.675,250.386 67.5,249.5C 62.544,248.506 57.544,248.173 52.5,248.5C 49.1501,248.335 45.8168,248.502 42.5,249C 43.6787,251.796 43.6787,254.629 42.5,257.5C 43.3126,262.326 42.6459,266.993 40.5,271.5C 31.5601,257.292 30.5601,242.625 37.5,227.5C 37.2267,229.451 37.8934,230.951 39.5,232C 38.0439,232.423 37.5439,233.256 38,234.5C 39.0852,233.707 40.2519,233.04 41.5,232.5C 48.4419,233.464 55.4419,233.797 62.5,233.5C 59.3586,234.321 56.0252,234.821 52.5,235C 55.8333,235.167 59.1667,235.333 62.5,235.5C 66.2386,235.486 69.572,234.82 72.5,233.5C 74.4101,232.295 75.7434,232.962 76.5,235.5C 71.8598,241.627 71.3598,246.627 75,250.5C 75.1981,248.618 75.6981,246.952 76.5,245.5C 75.3377,255.862 79.671,262.528 89.5,265.5C 93.2647,266.774 96.9313,266.441 100.5,264.5C 103.768,263.564 106.101,261.564 107.5,258.5C 109.694,256.779 110.861,254.445 111,251.5C 111.796,248.961 111.629,246.628 110.5,244.5C 106.301,232.938 98.301,229.104 86.5,233C 91.9751,234.174 93.9751,237.341 92.5,242.5C 89.6391,244.98 86.3058,245.98 82.5,245.5C 82.4139,243.323 81.7472,241.323 80.5,239.5C 81.8569,237.814 83.1902,236.148 84.5,234.5C 85.3007,232.958 85.634,231.292 85.5,229.5C 83.5165,229.383 81.8498,230.05 80.5,231.5C 79.707,230.645 80.0403,229.811 81.5,229C 97.4579,222.232 108.958,226.732 116,242.5C 116.191,248.083 116.691,253.583 117.5,259C 116.551,259.617 115.718,259.451 115,258.5C 106.897,271.645 95.73,275.145 81.5,269C 78.8172,265.654 77.4839,265.821 77.5,269.5C 68.214,268.693 58.8807,268.193 49.5,268C 48.6198,266.644 48.2865,265.144 48.5,263.5 Z"/></g>
<g><path style="opacity:1" fill="#abaf6d" d="M 50.5,242.5 C 56.5368,242.171 62.5368,242.504 68.5,243.5C 59.8525,244.665 51.1858,244.832 42.5,244C 45.3647,243.817 48.0314,243.317 50.5,242.5 Z"/></g>
<g><path style="opacity:1" fill="#b1b572" d="M 46.5,240.5 C 54.0098,239.18 61.6765,239.18 69.5,240.5C 61.8065,241.767 54.1398,241.767 46.5,240.5 Z"/></g>
<g><path style="opacity:1" fill="#98a04b" d="M 62.5,233.5 C 65.8333,233.5 69.1667,233.5 72.5,233.5C 69.572,234.82 66.2386,235.486 62.5,235.5C 59.1667,235.333 55.8333,235.167 52.5,235C 56.0252,234.821 59.3586,234.321 62.5,233.5 Z"/></g>
<g><path style="opacity:1" fill="#363e1a" d="M 110.5,244.5 C 110.795,246.735 110.461,248.735 109.5,250.5C 104.317,244.546 100.65,245.379 98.5,253C 98.8985,254.981 99.8985,256.481 101.5,257.5C 103.265,258.461 105.265,258.795 107.5,258.5C 106.101,261.564 103.768,263.564 100.5,264.5C 99.5084,264.672 98.8417,264.338 98.5,263.5C 100.317,254.49 97.1501,252.157 89,256.5C 88.2971,259.482 88.7971,262.149 90.5,264.5C 90.5,265.167 90.1667,265.5 89.5,265.5C 79.671,262.528 75.3377,255.862 76.5,245.5C 77.4934,240.475 80.16,236.808 84.5,234.5C 83.1902,236.148 81.8569,237.814 80.5,239.5C 81.7472,241.323 82.4139,243.323 82.5,245.5C 86.3058,245.98 89.6391,244.98 92.5,242.5C 93.9751,237.341 91.9751,234.174 86.5,233C 98.301,229.104 106.301,232.938 110.5,244.5 Z"/></g>
<g><path style="opacity:1" fill="#aab162" d="M 52.5,245.5 C 57.544,245.173 62.544,245.506 67.5,246.5C 65,246.833 62.5,247.167 60,247.5C 57.0706,247.475 54.5706,246.809 52.5,245.5 Z"/></g>
<g><path style="opacity:1" fill="#0e0e0e" d="M 206.5,245.5 C 212.54,244.88 215.874,247.547 216.5,253.5C 211.5,253.5 206.5,253.5 201.5,253.5C 201.667,249.821 203.334,247.154 206.5,245.5 Z"/></g>
<g><path style="opacity:1" fill="#a8a8a8" d="M 240.5,245.5 C 238.735,246.461 236.735,246.795 234.5,246.5C 234.5,252.167 234.5,257.833 234.5,263.5C 233.51,257.69 233.177,251.69 233.5,245.5C 235.833,245.5 238.167,245.5 240.5,245.5 Z"/></g>
<g><path style="opacity:1" fill="#0e0e0e" d="M 284.5,245.5 C 290.54,244.88 293.874,247.547 294.5,253.5C 289.5,253.5 284.5,253.5 279.5,253.5C 279.667,249.821 281.334,247.154 284.5,245.5 Z"/></g>
<g><path style="opacity:1" fill="#070707" d="M 403.5,245.5 C 412.453,245.963 415.953,250.63 414,259.5C 412.535,265.653 408.702,267.82 402.5,266C 400.951,264.786 399.785,263.286 399,261.5C 398.333,257.833 398.333,254.167 399,250.5C 400.025,248.313 401.525,246.646 403.5,245.5 Z"/></g>
<g><path style="opacity:1" fill="#9ca44d" d="M 52.5,248.5 C 57.544,248.173 62.544,248.506 67.5,249.5C 66.675,250.386 65.675,250.719 64.5,250.5C 60.5,249.833 56.5,249.167 52.5,248.5 Z"/></g>
<g><path style="opacity:1" fill="#e1d9ba" d="M 52.5,248.5 C 56.5,249.167 60.5,249.833 64.5,250.5C 58.4908,250.334 52.4908,250.501 46.5,251C 53.6787,251.171 60.6787,251.671 67.5,252.5C 59.8045,252.169 52.1378,252.503 44.5,253.5C 44.8555,254.522 45.5222,255.189 46.5,255.5C 46.5,256.5 46.5,257.5 46.5,258.5C 45.2921,257.766 43.9587,257.433 42.5,257.5C 43.6787,254.629 43.6787,251.796 42.5,249C 45.8168,248.502 49.1501,248.335 52.5,248.5 Z"/></g>
<g><path style="opacity:1" fill="#e5e5db" d="M 109.5,250.5 C 109.951,256.382 107.284,258.716 101.5,257.5C 99.8985,256.481 98.8985,254.981 98.5,253C 100.65,245.379 104.317,244.546 109.5,250.5 Z"/></g>
<g><path style="opacity:1" fill="#e6e7dc" d="M 81.5,246.5 C 88.0771,246.979 90.0771,250.312 87.5,256.5C 82.0786,258.666 78.7453,256.999 77.5,251.5C 78.8229,249.835 80.1562,248.168 81.5,246.5 Z"/></g>
<g><path style="opacity:1" fill="#e8c68b" d="M 46.5,255.5 C 53.5601,256.12 60.2268,257.286 66.5,259C 63.2397,259.784 60.0731,259.617 57,258.5C 56.5065,260.134 56.3398,261.801 56.5,263.5C 51.5776,263.89 51.2443,262.723 55.5,260C 53.1311,259.686 50.9644,258.852 49,257.5C 47.9701,257.836 47.4701,258.503 47.5,259.5C 46.8333,259.5 46.5,259.167 46.5,258.5C 46.5,257.5 46.5,256.5 46.5,255.5 Z"/></g>
<g><path style="opacity:1" fill="#e9e9e0" d="M 98.5,263.5 C 95.9455,264.388 93.2788,264.721 90.5,264.5C 88.7971,262.149 88.2971,259.482 89,256.5C 97.1501,252.157 100.317,254.49 98.5,263.5 Z"/></g>
<g><path style="opacity:1" fill="#767965" d="M 110.5,244.5 C 111.629,246.628 111.796,248.961 111,251.5C 110.861,254.445 109.694,256.779 107.5,258.5C 105.265,258.795 103.265,258.461 101.5,257.5C 107.284,258.716 109.951,256.382 109.5,250.5C 110.461,248.735 110.795,246.735 110.5,244.5 Z"/></g>
<g><path style="opacity:1" fill="#101010" d="M 343.5,257.5 C 346.833,257.5 350.167,257.5 353.5,257.5C 353.028,265.124 349.028,267.957 341.5,266C 338.614,262.374 339.281,259.541 343.5,257.5 Z"/></g>
<g><path style="opacity:1" fill="#e6953e" d="M 67.5,252.5 C 68.3711,255.491 69.3711,258.491 70.5,261.5C 68.7697,262.912 67.2697,262.578 66,260.5C 64.6667,263.167 63.3333,263.167 62,260.5C 61.3086,262.891 60.3086,262.891 59,260.5C 56.8333,262 57,263.167 59.5,264C 64.1548,264.499 68.8215,264.666 73.5,264.5C 74.4778,264.811 75.1445,265.478 75.5,266.5C 67.1866,267.665 58.8533,267.832 50.5,267C 49.9152,265.698 49.2485,264.531 48.5,263.5C 48.1667,262.167 47.8333,260.833 47.5,259.5C 47.4701,258.503 47.9701,257.836 49,257.5C 50.9644,258.852 53.1311,259.686 55.5,260C 51.2443,262.723 51.5776,263.89 56.5,263.5C 56.3398,261.801 56.5065,260.134 57,258.5C 60.0731,259.617 63.2397,259.784 66.5,259C 60.2268,257.286 53.5601,256.12 46.5,255.5C 45.5222,255.189 44.8555,254.522 44.5,253.5C 52.1378,252.503 59.8045,252.169 67.5,252.5 Z"/></g>
<g><path style="opacity:1" fill="#eae7e3" d="M 120.5,269.5 C 115.5,276.5 109.5,282.5 102.5,287.5C 83.1693,296.982 65.1693,294.982 48.5,281.5C 45.8046,278.474 43.1379,275.474 40.5,272.5C 40.5,272.167 40.5,271.833 40.5,271.5C 42.6459,266.993 43.3126,262.326 42.5,257.5C 43.9587,257.433 45.2921,257.766 46.5,258.5C 46.5,259.167 46.8333,259.5 47.5,259.5C 47.8333,260.833 48.1667,262.167 48.5,263.5C 48.2865,265.144 48.6198,266.644 49.5,268C 58.8807,268.193 68.214,268.693 77.5,269.5C 77.4839,265.821 78.8172,265.654 81.5,269C 95.73,275.145 106.897,271.645 115,258.5C 115.718,259.451 116.551,259.617 117.5,259C 116.691,253.583 116.191,248.083 116,242.5C 108.958,226.732 97.4579,222.232 81.5,229C 80.0403,229.811 79.707,230.645 80.5,231.5C 81.8498,230.05 83.5165,229.383 85.5,229.5C 85.634,231.292 85.3007,232.958 84.5,234.5C 80.16,236.808 77.4934,240.475 76.5,245.5C 75.6981,246.952 75.1981,248.618 75,250.5C 71.3598,246.627 71.8598,241.627 76.5,235.5C 75.7434,232.962 74.4101,232.295 72.5,233.5C 69.1667,233.5 65.8333,233.5 62.5,233.5C 55.4419,233.797 48.4419,233.464 41.5,232.5C 40.2519,233.04 39.0852,233.707 38,234.5C 37.5439,233.256 38.0439,232.423 39.5,232C 37.8934,230.951 37.2267,229.451 37.5,227.5C 43.5858,213.929 53.9191,205.096 68.5,201C 87.9679,197.649 104.135,203.483 117,218.5C 128.274,234.802 129.441,251.802 120.5,269.5 Z"/></g>
<g><path style="opacity:1" fill="#797967" d="M 98.5,263.5 C 98.8417,264.338 99.5084,264.672 100.5,264.5C 96.9313,266.441 93.2647,266.774 89.5,265.5C 90.1667,265.5 90.5,265.167 90.5,264.5C 93.2788,264.721 95.9455,264.388 98.5,263.5 Z"/></g>
<g><path style="opacity:1" fill="#e4b96d" d="M 70.5,261.5 C 71.8333,262.167 72.8333,263.167 73.5,264.5C 68.8215,264.666 64.1548,264.499 59.5,264C 57,263.167 56.8333,262 59,260.5C 60.3086,262.891 61.3086,262.891 62,260.5C 63.3333,263.167 64.6667,263.167 66,260.5C 67.2697,262.578 68.7697,262.912 70.5,261.5 Z"/></g>
<g><path style="opacity:1" fill="#e9e8e0" d="M 98.5,233.5 C 105.356,235.119 107.356,238.952 104.5,245C 97.7482,245.908 94.5815,243.075 95,236.5C 96.5185,235.837 97.6851,234.837 98.5,233.5 Z"/></g>
<g><path style="opacity:1" fill="#393939" d="M 40.5,272.5 C 43.1379,275.474 45.8046,278.474 48.5,281.5C 44.4351,279.767 41.7684,276.767 40.5,272.5 Z"/></g>
<g><path style="opacity:1" fill="#2a2929" d="M 120.5,269.5 C 120.657,270.873 120.49,272.207 120,273.5C 115.5,278 111,282.5 106.5,287C 105.207,287.49 103.873,287.657 102.5,287.5C 109.5,282.5 115.5,276.5 120.5,269.5 Z"/></g>
<g><path style="opacity:1" fill="#e6e6e6" d="M 250.5,299.5 C 251.833,299.5 253.167,299.5 254.5,299.5C 254.5,301.167 254.5,302.833 254.5,304.5C 260.848,304.848 264.182,308.182 264.5,314.5C 263.022,314.762 261.689,314.429 260.5,313.5C 259.5,311.167 257.833,309.5 255.5,308.5C 254.167,312.5 254.167,316.5 255.5,320.5C 266.728,324.229 268.395,330.396 260.5,339C 258.564,339.813 256.564,340.313 254.5,340.5C 254.5,342.167 254.5,343.833 254.5,345.5C 253.167,345.5 251.833,345.5 250.5,345.5C 250.5,343.833 250.5,342.167 250.5,340.5C 244.295,339.961 240.628,336.628 239.5,330.5C 241.167,330.5 242.833,330.5 244.5,330.5C 244.833,334.167 246.833,336.167 250.5,336.5C 250.5,332.167 250.5,327.833 250.5,323.5C 242.51,322.678 239.344,318.345 241,310.5C 242.811,306.345 245.977,304.345 250.5,304.5C 250.5,302.833 250.5,301.167 250.5,299.5 Z"/></g>
<g><path style="opacity:1" fill="#e6e6e6" d="M 828.5,299.5 C 829.833,299.5 831.167,299.5 832.5,299.5C 832.5,301.167 832.5,302.833 832.5,304.5C 838.848,304.848 842.182,308.182 842.5,314.5C 841.022,314.762 839.689,314.429 838.5,313.5C 837.5,311.167 835.833,309.5 833.5,308.5C 832.167,312.5 832.167,316.5 833.5,320.5C 844.728,324.229 846.395,330.396 838.5,339C 836.564,339.813 834.564,340.313 832.5,340.5C 832.5,342.167 832.5,343.833 832.5,345.5C 831.167,345.5 829.833,345.5 828.5,345.5C 828.5,343.833 828.5,342.167 828.5,340.5C 822.295,339.961 818.628,336.628 817.5,330.5C 819.167,330.5 820.833,330.5 822.5,330.5C 822.833,334.167 824.833,336.167 828.5,336.5C 828.5,332.167 828.5,327.833 828.5,323.5C 820.51,322.678 817.344,318.345 819,310.5C 820.811,306.345 823.977,304.345 828.5,304.5C 828.5,302.833 828.5,301.167 828.5,299.5 Z"/></g>
<g><path style="opacity:1" fill="#e5e5e5" d="M 850.5,301.5 C 854.701,301.426 856.035,303.259 854.5,307C 849.728,307.81 848.395,305.977 850.5,301.5 Z"/></g>
<g><path style="opacity:1" fill="#fafafa" d="M 755.5,302.5 C 755.5,315.5 755.5,328.5 755.5,341.5C 754.167,341.5 752.833,341.5 751.5,341.5C 751.5,328.5 751.5,315.5 751.5,302.5C 752.833,302.5 754.167,302.5 755.5,302.5 Z"/></g>
<g><path style="opacity:1" fill="#848484" d="M 767.5,302.5 C 766.167,302.5 764.833,302.5 763.5,302.5C 763.5,315.5 763.5,328.5 763.5,341.5C 762.504,328.344 762.171,315.01 762.5,301.5C 764.415,301.216 766.081,301.549 767.5,302.5 Z"/></g>
<g><path style="opacity:1" fill="#fafafa" d="M 767.5,302.5 C 767.5,315.5 767.5,328.5 767.5,341.5C 766.167,341.5 764.833,341.5 763.5,341.5C 763.5,328.5 763.5,315.5 763.5,302.5C 764.833,302.5 766.167,302.5 767.5,302.5 Z"/></g>
<g><path style="opacity:1" fill="#e7e7e7" d="M 301.5,303.5 C 303.167,303.5 304.833,303.5 306.5,303.5C 306.334,309.509 306.501,315.509 307,321.5C 312.167,315.667 317.333,309.833 322.5,304C 324.5,303.333 326.5,303.333 328.5,304C 323.82,309.345 319.153,314.678 314.5,320C 319.436,327.273 324.769,334.273 330.5,341C 328.098,341.814 325.765,341.647 323.5,340.5C 319.409,334.653 315.076,328.987 310.5,323.5C 309.108,324.605 307.941,325.939 307,327.5C 306.501,332.155 306.334,336.821 306.5,341.5C 304.833,341.5 303.167,341.5 301.5,341.5C 301.5,328.833 301.5,316.167 301.5,303.5 Z"/></g>
<g><path style="opacity:1" fill="#f7f7f7" d="M 639.5,307.5 C 635.167,307.5 630.833,307.5 626.5,307.5C 626.5,318.833 626.5,330.167 626.5,341.5C 625.167,341.5 623.833,341.5 622.5,341.5C 622.5,330.167 622.5,318.833 622.5,307.5C 618.5,307.5 614.5,307.5 610.5,307.5C 609.566,306.432 609.232,305.099 609.5,303.5C 619.5,303.5 629.5,303.5 639.5,303.5C 639.5,304.833 639.5,306.167 639.5,307.5 Z"/></g>
<g><path style="opacity:1" fill="#f1f1f1" d="M 683.5,303.5 C 689.842,303.334 696.175,303.5 702.5,304C 715.083,311.359 717.916,321.525 711,334.5C 708.713,337.462 705.88,339.629 702.5,341C 696.175,341.5 689.842,341.666 683.5,341.5C 683.5,328.833 683.5,316.167 683.5,303.5 Z"/></g>
<g><path style="opacity:1" fill="#ececec" d="M 1012.5,303.5 C 1014.6,303.201 1016.6,303.534 1018.5,304.5C 1023.13,316.758 1027.47,329.091 1031.5,341.5C 1029.83,341.5 1028.17,341.5 1026.5,341.5C 1025.91,338.06 1024.91,334.727 1023.5,331.5C 1018.53,330.338 1013.53,330.171 1008.5,331C 1006.88,334.027 1005.55,337.194 1004.5,340.5C 1002.83,341.833 1001.17,341.833 999.5,340.5C 1004.13,328.242 1008.47,315.909 1012.5,303.5 Z"/></g>
<g><path style="opacity:1" fill="#e4e4e4" d="M 975.5,302.5 C 985.712,300.928 992.379,304.928 995.5,314.5C 993.712,314.785 992.045,314.452 990.5,313.5C 987.5,307.857 982.833,306.024 976.5,308C 970.849,311.132 968.182,315.965 968.5,322.5C 968.863,333.703 974.53,338.537 985.5,337C 988.167,335.667 990.167,333.667 991.5,331C 992.793,330.51 994.127,330.343 995.5,330.5C 994.919,336.59 991.586,340.423 985.5,342C 974.246,343.958 967.079,339.458 964,328.5C 961.63,316.919 965.463,308.252 975.5,302.5 Z"/></g>
<g><path style="opacity:1" fill="#f4f4f4" d="M 567.5,306.5 C 568.833,306.5 570.167,306.5 571.5,306.5C 571.5,308.833 571.5,311.167 571.5,313.5C 573.833,313.5 576.167,313.5 578.5,313.5C 578.5,314.5 578.5,315.5 578.5,316.5C 576.167,316.5 573.833,316.5 571.5,316.5C 571.177,322.69 571.51,328.69 572.5,334.5C 572.414,335.496 572.748,336.329 573.5,337C 575.134,337.494 576.801,337.66 578.5,337.5C 578.5,338.833 578.5,340.167 578.5,341.5C 576.143,341.663 573.81,341.497 571.5,341C 569.667,340.5 568.5,339.333 568,337.5C 567.5,330.508 567.334,323.508 567.5,316.5C 565.833,316.5 564.167,316.5 562.5,316.5C 562.5,315.5 562.5,314.5 562.5,313.5C 564.167,313.5 565.833,313.5 567.5,313.5C 567.5,311.167 567.5,308.833 567.5,306.5 Z"/></g>
<g><path style="opacity:1" fill="#9e9e9e" d="M 567.5,306.5 C 568.919,305.549 570.585,305.216 572.5,305.5C 572.5,307.833 572.5,310.167 572.5,312.5C 574.735,312.205 576.735,312.539 578.5,313.5C 576.167,313.5 573.833,313.5 571.5,313.5C 571.5,311.167 571.5,308.833 571.5,306.5C 570.167,306.5 568.833,306.5 567.5,306.5 Z"/></g>
<g><path style="opacity:1" fill="#e8e8e8" d="M 186.5,307.5 C 187.656,315.323 187.823,323.323 187,331.5C 183.829,336.414 180.163,336.747 176,332.5C 175.099,327.29 177.266,324.623 182.5,324.5C 182.5,322.167 182.5,319.833 182.5,317.5C 178.131,317.467 173.798,317.8 169.5,318.5C 169.91,324.621 169.41,330.621 168,336.5C 164.381,339.343 161.048,339.01 158,335.5C 157.099,330.29 159.266,327.623 164.5,327.5C 164.178,321.642 164.511,315.975 165.5,310.5C 172.484,309.392 179.484,308.392 186.5,307.5 Z"/></g>
<g><path style="opacity:1" fill="#8d8d8d" d="M 186.5,307.5 C 179.484,308.392 172.484,309.392 165.5,310.5C 169.52,308.705 173.853,307.538 178.5,307C 181.367,306.199 184.034,306.366 186.5,307.5 Z"/></g>
<g><path style="opacity:1" fill="#101010" d="M 250.5,308.5 C 251.069,312.329 250.402,315.663 248.5,318.5C 243.052,314.145 243.719,310.812 250.5,308.5 Z"/></g>
<g><path style="opacity:1" fill="#838383" d="M 250.5,308.5 C 251.482,311.962 251.815,315.629 251.5,319.5C 250.209,319.737 249.209,319.404 248.5,318.5C 250.402,315.663 251.069,312.329 250.5,308.5 Z"/></g>
<g><path style="opacity:1" fill="#4c4c4c" d="M 610.5,307.5 C 614.5,307.5 618.5,307.5 622.5,307.5C 622.5,318.833 622.5,330.167 622.5,341.5C 621.505,330.679 621.172,319.679 621.5,308.5C 617.629,308.815 613.962,308.482 610.5,307.5 Z"/></g>
<g><path style="opacity:1" fill="#5e5e5e" d="M 639.5,307.5 C 635.702,308.483 631.702,308.817 627.5,308.5C 627.828,319.679 627.495,330.679 626.5,341.5C 626.5,330.167 626.5,318.833 626.5,307.5C 630.833,307.5 635.167,307.5 639.5,307.5 Z"/></g>
<g><path style="opacity:1" fill="#7c7c7c" d="M 688.5,307.5 C 688.5,317.167 688.5,326.833 688.5,336.5C 691.833,336.5 695.167,336.5 698.5,336.5C 695.038,337.482 691.371,337.815 687.5,337.5C 687.173,327.319 687.506,317.319 688.5,307.5 Z"/></g>
<g><path style="opacity:1" fill="#050505" d="M 688.5,307.5 C 704.197,305.391 711.03,312.058 709,327.5C 707.769,333.193 704.269,336.193 698.5,336.5C 695.167,336.5 691.833,336.5 688.5,336.5C 688.5,326.833 688.5,317.167 688.5,307.5 Z"/></g>
<g><path style="opacity:1" fill="#111111" d="M 828.5,308.5 C 829.069,312.329 828.402,315.663 826.5,318.5C 821.052,314.145 821.719,310.812 828.5,308.5 Z"/></g>
<g><path style="opacity:1" fill="#838383" d="M 828.5,308.5 C 829.482,311.962 829.815,315.629 829.5,319.5C 828.209,319.737 827.209,319.404 826.5,318.5C 828.402,315.663 829.069,312.329 828.5,308.5 Z"/></g>
<g><path style="opacity:1" fill="#0e0e0e" d="M 1014.5,310.5 C 1015.75,310.577 1016.58,311.244 1017,312.5C 1018.61,317.165 1020.11,321.832 1021.5,326.5C 1017.45,326.824 1013.45,326.491 1009.5,325.5C 1011.77,320.686 1013.44,315.686 1014.5,310.5 Z"/></g>
<g><path style="opacity:1" fill="#e7e7e7" d="M 340.5,312.5 C 347.204,311.27 352.038,313.603 355,319.5C 355.5,326.826 355.666,334.159 355.5,341.5C 353.833,341.5 352.167,341.5 350.5,341.5C 350.657,340.127 350.49,338.793 350,337.5C 344.261,342.773 338.595,342.773 333,337.5C 330.912,330.587 333.412,326.42 340.5,325C 343.817,324.502 347.15,324.335 350.5,324.5C 350.68,318.18 347.68,315.68 341.5,317C 339.884,317.615 338.551,318.615 337.5,320C 336.207,320.49 334.873,320.657 333.5,320.5C 334.428,316.574 336.761,313.907 340.5,312.5 Z"/></g>
<g><path style="opacity:1" fill="#ededed" d="M 372.5,312.5 C 378.204,311.436 382.371,313.436 385,318.5C 385.5,326.159 385.666,333.826 385.5,341.5C 384.167,341.5 382.833,341.5 381.5,341.5C 381.666,334.492 381.5,327.492 381,320.5C 376.667,315.167 372.333,315.167 368,320.5C 367.5,327.492 367.334,334.492 367.5,341.5C 365.833,341.5 364.167,341.5 362.5,341.5C 362.5,332.167 362.5,322.833 362.5,313.5C 364.167,313.5 365.833,313.5 367.5,313.5C 367.351,314.552 367.517,315.552 368,316.5C 369.397,314.93 370.897,313.596 372.5,312.5 Z"/></g>
<g><path style="opacity:1" fill="#e9e9e9" d="M 426.5,312.5 C 437.48,312.147 442.814,317.48 442.5,328.5C 435.833,328.5 429.167,328.5 422.5,328.5C 422.972,336.124 426.972,338.957 434.5,337C 436.41,334.518 438.743,334.018 441.5,335.5C 437.236,341.202 431.569,343.035 424.5,341C 417.984,336.121 415.818,329.621 418,321.5C 419.688,317.315 422.521,314.315 426.5,312.5 Z"/></g>
<g><path style="opacity:1" fill="#e9e9e9" d="M 460.5,303.5 C 462.167,303.5 463.833,303.5 465.5,303.5C 467.36,313.272 469.693,322.939 472.5,332.5C 475.635,322.958 478.302,313.291 480.5,303.5C 482.5,303.5 484.5,303.5 486.5,303.5C 488.758,313.274 491.424,322.941 494.5,332.5C 497.153,323.556 499.653,314.556 502,305.5C 503.493,303.44 505.326,303.107 507.5,304.5C 503.408,316.627 500.074,328.961 497.5,341.5C 495.234,341.859 493.401,341.192 492,339.5C 489.605,330.355 486.772,321.355 483.5,312.5C 480.517,321.426 477.684,330.426 475,339.5C 473.688,341.658 472.022,341.991 470,340.5C 466.132,328.32 462.965,315.987 460.5,303.5 Z"/></g>
<g><path style="opacity:1" fill="#e9e9e9" d="M 517.5,312.5 C 528.48,312.147 533.814,317.48 533.5,328.5C 526.833,328.5 520.167,328.5 513.5,328.5C 513.972,336.124 517.972,338.957 525.5,337C 527.41,334.518 529.743,334.018 532.5,335.5C 528.236,341.202 522.569,343.035 515.5,341C 508.984,336.121 506.818,329.621 509,321.5C 510.688,317.315 513.521,314.315 517.5,312.5 Z"/></g>
<g><path style="opacity:1" fill="#eaeaea" d="M 638.5,314.5 C 640.035,313.212 641.701,313.212 643.5,314.5C 646.099,321.796 648.599,329.129 651,336.5C 653.401,329.129 655.901,321.796 658.5,314.5C 660.167,313.167 661.833,313.167 663.5,314.5C 659.333,325.5 655.167,336.5 651,347.5C 648.592,350.62 645.426,351.953 641.5,351.5C 641.5,350.167 641.5,348.833 641.5,347.5C 645.641,347.696 647.975,345.696 648.5,341.5C 645.532,332.253 642.199,323.253 638.5,314.5 Z"/></g>
<g><path style="opacity:1" fill="#e8e8e8" d="M 781.5,312.5 C 788.204,311.27 793.038,313.603 796,319.5C 796.5,326.826 796.666,334.159 796.5,341.5C 794.833,341.5 793.167,341.5 791.5,341.5C 791.657,340.127 791.49,338.793 791,337.5C 785.261,342.773 779.595,342.773 774,337.5C 771.912,330.587 774.412,326.42 781.5,325C 784.817,324.502 788.15,324.335 791.5,324.5C 791.68,318.18 788.68,315.68 782.5,317C 780.884,317.615 779.551,318.615 778.5,320C 777.207,320.49 775.873,320.657 774.5,320.5C 775.428,316.574 777.761,313.907 781.5,312.5 Z"/></g>
<g><path style="opacity:1" fill="#f5f5f5" d="M 854.5,313.5 C 854.5,322.833 854.5,332.167 854.5,341.5C 853.167,341.5 851.833,341.5 850.5,341.5C 850.5,332.167 850.5,322.833 850.5,313.5C 851.833,313.5 853.167,313.5 854.5,313.5 Z"/></g>
<g><path style="opacity:1" fill="#ededed" d="M 881.5,313.5 C 882.833,313.5 884.167,313.5 885.5,313.5C 885.5,323.167 885.5,332.833 885.5,342.5C 885.451,345.099 884.451,347.266 882.5,349C 876.472,352.265 870.472,352.265 864.5,349C 861.505,346.783 861.338,344.95 864,343.5C 866.897,345.587 870.064,346.921 873.5,347.5C 880.608,346.534 883.108,342.534 881,335.5C 876.454,339.749 871.287,340.582 865.5,338C 860.438,332.242 859.271,325.742 862,318.5C 868.024,310.969 874.358,310.635 881,317.5C 881.49,316.207 881.657,314.873 881.5,313.5 Z"/></g>
<g><path style="opacity:1" fill="#808080" d="M 881.5,313.5 C 882.919,312.549 884.585,312.216 886.5,312.5C 886.827,322.681 886.494,332.681 885.5,342.5C 885.5,332.833 885.5,323.167 885.5,313.5C 884.167,313.5 882.833,313.5 881.5,313.5 Z"/></g>
<g><path style="opacity:1" fill="#ececec" d="M 902.5,312.5 C 908.204,311.436 912.371,313.436 915,318.5C 915.5,326.159 915.666,333.826 915.5,341.5C 914.167,341.5 912.833,341.5 911.5,341.5C 911.666,334.492 911.5,327.492 911,320.5C 906.667,315.167 902.333,315.167 898,320.5C 897.5,327.492 897.334,334.492 897.5,341.5C 895.833,341.5 894.167,341.5 892.5,341.5C 892.5,332.167 892.5,322.833 892.5,313.5C 894.167,313.5 895.833,313.5 897.5,313.5C 897.351,314.552 897.517,315.552 898,316.5C 899.397,314.93 900.897,313.596 902.5,312.5 Z"/></g>
<g><path style="opacity:1" fill="#ebebeb" d="M 389.5,313.5 C 391.288,313.215 392.955,313.548 394.5,314.5C 397.099,321.796 399.599,329.129 402,336.5C 404.401,329.129 406.901,321.796 409.5,314.5C 411.167,313.167 412.833,313.167 414.5,314.5C 410.333,325.5 406.167,336.5 402,347.5C 399.592,350.62 396.426,351.953 392.5,351.5C 392.5,350.167 392.5,348.833 392.5,347.5C 396.641,347.696 398.975,345.696 399.5,341.5C 396.358,332.073 393.025,322.739 389.5,313.5 Z"/></g>
<g><path style="opacity:1" fill="#f1f1f1" d="M 225.5,321.5 C 224.957,321.56 224.624,321.893 224.5,322.5C 226.743,323.474 229.076,323.808 231.5,323.5C 231.5,324.5 231.5,325.5 231.5,326.5C 228.5,326.5 225.5,326.5 222.5,326.5C 222.5,327.833 222.5,329.167 222.5,330.5C 225.5,330.5 228.5,330.5 231.5,330.5C 231.5,331.5 231.5,332.5 231.5,333.5C 228.5,333.5 225.5,333.5 222.5,333.5C 222.5,335.833 222.5,338.167 222.5,340.5C 221.167,340.5 219.833,340.5 218.5,340.5C 218.5,338.167 218.5,335.833 218.5,333.5C 215.5,333.5 212.5,333.5 209.5,333.5C 209.5,332.5 209.5,331.5 209.5,330.5C 212.5,330.5 215.5,330.5 218.5,330.5C 218.5,329.167 218.5,327.833 218.5,326.5C 215.5,326.5 212.5,326.5 209.5,326.5C 209.5,325.5 209.5,324.5 209.5,323.5C 211.924,323.808 214.257,323.474 216.5,322.5C 216.376,321.893 216.043,321.56 215.5,321.5C 212.178,316.195 208.844,310.861 205.5,305.5C 207.353,304.24 209.186,304.24 211,305.5C 213.969,310.634 217.136,315.634 220.5,320.5C 224.03,315.468 227.364,310.301 230.5,305C 232.167,304.333 233.833,304.333 235.5,305C 232.281,310.611 228.948,316.111 225.5,321.5 Z"/></g>
<g><path style="opacity:1" fill="#e9e9e9" d="M 728.5,312.5 C 741.73,312.576 747.23,319.243 745,332.5C 741.471,340.846 735.304,343.679 726.5,341C 719.984,336.121 717.818,329.621 720,321.5C 721.688,317.315 724.521,314.315 728.5,312.5 Z"/></g>
<g><path style="opacity:1" fill="#0e0e0e" d="M 427.5,316.5 C 433.54,315.88 436.874,318.547 437.5,324.5C 432.5,324.5 427.5,324.5 422.5,324.5C 422.667,320.821 424.334,318.154 427.5,316.5 Z"/></g>
<g><path style="opacity:1" fill="#0e0e0e" d="M 518.5,316.5 C 524.54,315.88 527.874,318.547 528.5,324.5C 523.5,324.5 518.5,324.5 513.5,324.5C 513.667,320.821 515.334,318.154 518.5,316.5 Z"/></g>
<g><path style="opacity:1" fill="#a8a8a8" d="M 578.5,316.5 C 576.735,317.461 574.735,317.795 572.5,317.5C 572.5,323.167 572.5,328.833 572.5,334.5C 571.51,328.69 571.177,322.69 571.5,316.5C 573.833,316.5 576.167,316.5 578.5,316.5 Z"/></g>
<g><path style="opacity:1" fill="#080808" d="M 729.5,316.5 C 734.194,315.7 737.694,317.367 740,321.5C 741.409,327.354 740.243,332.521 736.5,337C 731.269,338.724 727.435,337.224 725,332.5C 724.333,328.833 724.333,325.167 725,321.5C 726.025,319.313 727.525,317.646 729.5,316.5 Z"/></g>
<g><path style="opacity:1" fill="#a1a1a1" d="M 854.5,313.5 C 853.167,313.5 851.833,313.5 850.5,313.5C 850.5,322.833 850.5,332.167 850.5,341.5C 849.506,332.014 849.173,322.348 849.5,312.5C 851.415,312.216 853.081,312.549 854.5,313.5 Z"/></g>
<g><path style="opacity:1" fill="#080808" d="M 870.5,316.5 C 878.962,316.797 882.462,321.13 881,329.5C 879.171,335.158 875.337,336.992 869.5,335C 867.667,334.5 866.5,333.333 866,331.5C 865.333,328.167 865.333,324.833 866,321.5C 867.025,319.313 868.525,317.646 870.5,316.5 Z"/></g>
<g><path style="opacity:1" fill="#666666" d="M 215.5,321.5 C 216.043,321.56 216.376,321.893 216.5,322.5C 214.257,323.474 211.924,323.808 209.5,323.5C 211.5,322.833 213.5,322.167 215.5,321.5 Z"/></g>
<g><path style="opacity:1" fill="#656565" d="M 225.5,321.5 C 227.5,322.167 229.5,322.833 231.5,323.5C 229.076,323.808 226.743,323.474 224.5,322.5C 224.624,321.893 224.957,321.56 225.5,321.5 Z"/></g>
<g><path style="opacity:1" fill="#e5e5e5" d="M 544.5,312.5 C 551.233,311.369 556.233,313.702 559.5,319.5C 558.667,319.833 557.833,320.167 557,320.5C 553.864,317.189 550.031,316.022 545.5,317C 542.833,319.333 542.833,321.667 545.5,324C 550.442,324.866 554.942,326.7 559,329.5C 560.569,334.625 559.069,338.459 554.5,341C 550.5,341.667 546.5,341.667 542.5,341C 539.967,339.967 538.301,338.133 537.5,335.5C 538.333,335.167 539.167,334.833 540,334.5C 542.556,336.207 545.389,337.207 548.5,337.5C 553.667,337.879 555.334,335.713 553.5,331C 548.006,330.174 543.172,328.007 539,324.5C 538.333,322.167 538.333,319.833 539,317.5C 540.73,315.598 542.563,313.931 544.5,312.5 Z"/></g>
<g><path style="opacity:1" fill="#e1e1e1" d="M 938.5,322.5 C 943.328,322.385 944.661,324.552 942.5,329C 937.57,329.427 936.237,327.26 938.5,322.5 Z"/></g>
<g><path style="opacity:1" fill="#0b0b0b" d="M 254.5,325.5 C 260.334,326.008 262,329.008 259.5,334.5C 258.15,335.95 256.484,336.617 254.5,336.5C 254.5,332.833 254.5,329.167 254.5,325.5 Z"/></g>
<g><path style="opacity:1" fill="#0b0b0b" d="M 832.5,325.5 C 838.334,326.008 840,329.008 837.5,334.5C 836.15,335.95 834.484,336.617 832.5,336.5C 832.5,332.833 832.5,329.167 832.5,325.5 Z"/></g>
<g><path style="opacity:1" fill="#101010" d="M 340.5,328.5 C 343.833,328.5 347.167,328.5 350.5,328.5C 350.028,336.124 346.028,338.957 338.5,337C 335.614,333.374 336.281,330.541 340.5,328.5 Z"/></g>
<g><path style="opacity:1" fill="#101010" d="M 781.5,328.5 C 784.833,328.5 788.167,328.5 791.5,328.5C 791.028,336.124 787.028,338.957 779.5,337C 776.614,333.374 777.281,330.541 781.5,328.5 Z"/></g>
<g><path style="opacity:1" fill="#838383" d="M 755.5,302.5 C 754.167,302.5 752.833,302.5 751.5,302.5C 751.5,315.5 751.5,328.5 751.5,341.5C 750.504,328.344 750.171,315.01 750.5,301.5C 752.415,301.216 754.081,301.549 755.5,302.5 Z"/></g>
<g><path style="opacity:1" fill="#f4f4f4" d="M 1038.5,335.5 C 1043.16,335.015 1044.49,336.848 1042.5,341C 1037.73,341.81 1036.39,339.977 1038.5,335.5 Z"/></g>
<g><path style="opacity:1" fill="#e2e2e2" d="M 1051.5,335.5 C 1056.12,334.408 1057.96,336.075 1057,340.5C 1051.42,342.752 1049.59,341.085 1051.5,335.5 Z"/></g>
<g><path style="opacity:1" fill="#f4f4f4" d="M 1065.5,335.5 C 1070.16,335.015 1071.49,336.848 1069.5,341C 1064.73,341.81 1063.39,339.977 1065.5,335.5 Z"/></g>
<g><path style="opacity:1" fill="#e0e0e0" d="M 584.5,336.5 C 586.167,336.5 587.833,336.5 589.5,336.5C 588.623,341.554 587.623,346.554 586.5,351.5C 585.167,351.5 583.833,351.5 582.5,351.5C 583.085,346.485 583.752,341.485 584.5,336.5 Z"/></g>
<g><path style="opacity:1" fill="#dadada" d="M 273.5,336.5 C 275.167,336.5 276.833,336.5 278.5,336.5C 277.623,341.554 276.623,346.554 275.5,351.5C 274.167,351.5 272.833,351.5 271.5,351.5C 271.842,346.452 272.508,341.452 273.5,336.5 Z"/></g>
<g><path style="opacity:1" fill="#89952d" d="M -0.5,356.5 C 306.5,356.5 613.5,356.5 920.5,356.5C 921.9,362.678 922.9,369.011 923.5,375.5C 615.5,375.5 307.5,375.5 -0.5,375.5C -0.5,369.167 -0.5,362.833 -0.5,356.5 Z"/></g>
<g><path style="opacity:1" fill="#8a952d" d="M 926.5,356.5 C 1031.5,356.5 1136.5,356.5 1241.5,356.5C 1241.5,362.833 1241.5,369.167 1241.5,375.5C 1137.17,375.5 1032.83,375.5 928.5,375.5C 928.848,369.013 928.182,362.68 926.5,356.5 Z"/></g>
<g><path style="opacity:1" fill="#a39330" d="M 920.5,356.5 C 922.5,356.5 924.5,356.5 926.5,356.5C 928.182,362.68 928.848,369.013 928.5,375.5C 926.833,375.5 925.167,375.5 923.5,375.5C 922.9,369.011 921.9,362.678 920.5,356.5 Z"/></g>
</svg>
