<?xml version="1.0" encoding="UTF-8"?>
<!DOCTYPE svg PUBLIC "-//W3C//DTD SVG 1.1//EN" "http://www.w3.org/Graphics/SVG/1.1/DTD/svg11.dtd">
<svg xmlns="http://www.w3.org/2000/svg" version="1.1" width="1920px" height="1080px" style="shape-rendering:geometricPrecision; text-rendering:geometricPrecision; image-rendering:optimizeQuality; fill-rule:evenodd; clip-rule:evenodd" xmlns:xlink="http://www.w3.org/1999/xlink">
<g><path style="opacity:1" fill="#fe8a00" d="M -0.5,-0.5 C 180.833,-0.5 362.167,-0.5 543.5,-0.5C 543.5,359.5 543.5,719.5 543.5,1079.5C 362.167,1079.5 180.833,1079.5 -0.5,1079.5C -0.5,719.5 -0.5,359.5 -0.5,-0.5 Z"/></g>
<g><path style="opacity:1" fill="#fb8b01" d="M 543.5,-0.5 C 544.5,-0.5 545.5,-0.5 546.5,-0.5C 546.5,359.5 546.5,719.5 546.5,1079.5C 545.5,1079.5 544.5,1079.5 543.5,1079.5C 543.5,719.5 543.5,359.5 543.5,-0.5 Z"/></g>
<g><path style="opacity:1" fill="#fc8903" d="M 546.5,-0.5 C 547.5,-0.5 548.5,-0.5 549.5,-0.5C 549.5,359.5 549.5,719.5 549.5,1079.5C 548.5,1079.5 547.5,1079.5 546.5,1079.5C 546.5,719.5 546.5,359.5 546.5,-0.5 Z"/></g>
<g><path style="opacity:1" fill="#daac32" d="M 549.5,-0.5 C 550.167,-0.5 550.833,-0.5 551.5,-0.5C 551.5,359.5 551.5,719.5 551.5,1079.5C 550.833,1079.5 550.167,1079.5 549.5,1079.5C 549.5,719.5 549.5,359.5 549.5,-0.5 Z"/></g>
<g><path style="opacity:1" fill="#879600" d="M 551.5,-0.5 C 731.5,-0.5 911.5,-0.5 1091.5,-0.5C 1091.5,359.5 1091.5,719.5 1091.5,1079.5C 911.5,1079.5 731.5,1079.5 551.5,1079.5C 551.5,719.5 551.5,359.5 551.5,-0.5 Z"/></g>
<g><path style="opacity:1" fill="#899405" d="M 1091.5,-0.5 C 1092.17,-0.5 1092.83,-0.5 1093.5,-0.5C 1093.5,359.5 1093.5,719.5 1093.5,1079.5C 1092.83,1079.5 1092.17,1079.5 1091.5,1079.5C 1091.5,719.5 1091.5,359.5 1091.5,-0.5 Z"/></g>
<g><path style="opacity:1" fill="#899700" d="M 1093.5,-0.5 C 1094.5,-0.5 1095.5,-0.5 1096.5,-0.5C 1096.5,359.5 1096.5,719.5 1096.5,1079.5C 1095.5,1079.5 1094.5,1079.5 1093.5,1079.5C 1093.5,719.5 1093.5,359.5 1093.5,-0.5 Z"/></g>
<g><path style="opacity:1" fill="#879406" d="M 1096.5,-0.5 C 1097.17,-0.5 1097.83,-0.5 1098.5,-0.5C 1098.5,359.5 1098.5,719.5 1098.5,1079.5C 1097.83,1079.5 1097.17,1079.5 1096.5,1079.5C 1096.5,719.5 1096.5,359.5 1096.5,-0.5 Z"/></g>
<g><path style="opacity:1" fill="#8e9e26" d="M 1098.5,-0.5 C 1099.83,-0.5 1101.17,-0.5 1102.5,-0.5C 1102.5,359.5 1102.5,719.5 1102.5,1079.5C 1101.17,1079.5 1099.83,1079.5 1098.5,1079.5C 1098.5,719.5 1098.5,359.5 1098.5,-0.5 Z"/></g>
<g><path style="opacity:1" fill="#313b12" d="M 1102.5,-0.5 C 1285.83,-0.5 1469.17,-0.5 1652.5,-0.5C 1652.5,359.5 1652.5,719.5 1652.5,1079.5C 1469.17,1079.5 1285.83,1079.5 1102.5,1079.5C 1102.5,719.5 1102.5,359.5 1102.5,-0.5 Z"/></g>
<g><path style="opacity:1" fill="#d4d3c2" d="M 1652.5,-0.5 C 1653.5,-0.5 1654.5,-0.5 1655.5,-0.5C 1655.5,359.5 1655.5,719.5 1655.5,1079.5C 1654.5,1079.5 1653.5,1079.5 1652.5,1079.5C 1652.5,719.5 1652.5,359.5 1652.5,-0.5 Z"/></g>
<g><path style="opacity:1" fill="#ece9e3" d="M 1655.5,-0.5 C 1743.5,-0.5 1831.5,-0.5 1919.5,-0.5C 1919.5,359.5 1919.5,719.5 1919.5,1079.5C 1831.5,1079.5 1743.5,1079.5 1655.5,1079.5C 1655.5,719.5 1655.5,359.5 1655.5,-0.5 Z"/></g>
<g><path style="opacity:1" fill="#d3d8ba" d="M 1374.5,545.5 C 1378.55,545.176 1382.55,545.509 1386.5,546.5C 1384.68,548.817 1382.68,550.984 1380.5,553C 1388.08,554.928 1389.42,558.928 1384.5,565C 1381.21,565.936 1378.21,565.436 1375.5,563.5C 1374.67,562.549 1374.51,561.549 1375,560.5C 1377.21,563.29 1380.04,564.123 1383.5,563C 1386.17,560.667 1386.17,558.333 1383.5,556C 1381.42,555.808 1379.42,555.308 1377.5,554.5C 1379.32,552.183 1381.32,550.016 1383.5,548C 1380.01,548.07 1377.01,547.237 1374.5,545.5 Z"/></g>
<g><path style="opacity:1" fill="#e08519" d="M 308.5,549.5 C 306.731,555.761 308.065,561.094 312.5,565.5C 310.286,565.709 308.619,564.876 307.5,563C 306.596,558.889 306.263,554.722 306.5,550.5C 304.669,549.948 303.003,549.948 301.5,550.5C 300.626,552.747 300.292,555.08 300.5,557.5C 299.373,556.878 298.373,556.045 297.5,555C 299.25,553.246 299.917,551.079 299.5,548.5C 301.606,547.434 303.106,545.767 304,543.5C 304.316,546.496 305.816,548.496 308.5,549.5 Z"/></g>
<g><path style="opacity:1" fill="#1f200b" d="M 887.5,545.5 C 891.594,544.705 894.761,546.038 897,549.5C 897.667,553.5 897.667,557.5 897,561.5C 891.882,567.101 887.215,566.768 883,560.5C 881.377,554.432 882.877,549.432 887.5,545.5 Z"/></g>
<g><path style="opacity:1" fill="#24221f" d="M 1809.5,545.5 C 1810.38,545.369 1811.04,545.702 1811.5,546.5C 1814.53,552.952 1816.86,559.285 1818.5,565.5C 1817.38,564.086 1816.38,562.586 1815.5,561C 1811.85,560.501 1808.18,560.335 1804.5,560.5C 1804.77,563.183 1803.77,564.683 1801.5,565C 1804.31,558.551 1806.98,552.051 1809.5,545.5 Z"/></g>
<g><path style="opacity:1" fill="#1a1b03" d="M 781.5,545.5 C 790.363,544.338 793.029,547.672 789.5,555.5C 793.432,563.752 790.765,566.919 781.5,565C 778.621,563.334 777.788,560.834 779,557.5C 779.87,556.892 780.37,556.059 780.5,555C 777.668,551.496 778.001,548.33 781.5,545.5 Z"/></g>
<g><path style="opacity:1" fill="#d2d8ba" d="M 1433.5,545.5 C 1437.55,545.176 1441.55,545.509 1445.5,546.5C 1443.68,548.817 1441.68,550.984 1439.5,553C 1445.28,554.69 1446.95,558.357 1444.5,564C 1440.21,566.386 1436.37,565.886 1433,562.5C 1432.25,561.365 1432.42,560.365 1433.5,559.5C 1434.84,560.347 1435.84,561.513 1436.5,563C 1442.47,564.689 1444.8,562.689 1443.5,557C 1441.2,556.105 1438.86,555.271 1436.5,554.5C 1438.29,552.424 1439.95,550.257 1441.5,548C 1438.32,548.053 1435.66,547.22 1433.5,545.5 Z"/></g>
<g><path style="opacity:1" fill="#68340d" d="M 258.5,545.5 C 256.365,547.369 253.698,548.036 250.5,547.5C 250.167,547.5 249.833,547.5 249.5,547.5C 248.5,552.738 248.167,558.738 248.5,565.5C 247.509,559.021 247.176,552.354 247.5,545.5C 251.167,545.5 254.833,545.5 258.5,545.5 Z"/></g>
<g><path style="opacity:1" fill="#2d2b28" d="M 1827.5,563.5 C 1830.83,564.167 1834.17,564.833 1837.5,565.5C 1833.5,565.5 1829.5,565.5 1825.5,565.5C 1825.5,558.833 1825.5,552.167 1825.5,545.5C 1829.55,545.176 1833.55,545.509 1837.5,546.5C 1834.23,547.487 1830.9,547.82 1827.5,547.5C 1827.5,549.833 1827.5,552.167 1827.5,554.5C 1839.5,555.167 1839.5,555.833 1827.5,556.5C 1827.5,558.833 1827.5,561.167 1827.5,563.5 Z"/></g>
<g><path style="opacity:1" fill="#849410" d="M 887.5,547.5 C 890.365,547.055 892.865,547.722 895,549.5C 895.667,553.5 895.667,557.5 895,561.5C 888.016,565.62 884.516,563.62 884.5,555.5C 884.4,552.376 885.4,549.71 887.5,547.5 Z"/></g>
<g><path style="opacity:1" fill="#292624" d="M 1719.5,545.5 C 1721.26,546.552 1721.92,548.219 1721.5,550.5C 1723.83,550.5 1726.17,550.5 1728.5,550.5C 1728.21,548.712 1728.55,547.045 1729.5,545.5C 1730.08,547.637 1731.08,549.47 1732.5,551C 1731.55,551.483 1730.55,551.649 1729.5,551.5C 1729.01,553.806 1728.67,556.139 1728.5,558.5C 1729.68,558.281 1730.68,558.614 1731.5,559.5C 1730.31,560.429 1728.98,560.762 1727.5,560.5C 1726.26,567.008 1725.59,567.008 1725.5,560.5C 1723.17,560.5 1720.83,560.5 1718.5,560.5C 1718.77,562.429 1718.27,564.095 1717,565.5C 1716.88,563.273 1716.05,561.44 1714.5,560C 1715.45,559.517 1716.45,559.351 1717.5,559.5C 1717.67,557.139 1718.01,554.806 1718.5,552.5C 1717.02,552.762 1715.69,552.429 1714.5,551.5C 1716.05,550.548 1717.71,550.215 1719.5,550.5C 1719.5,548.833 1719.5,547.167 1719.5,545.5 Z"/></g>
<g><path style="opacity:1" fill="#819012" d="M 783.5,546.5 C 788.709,546.369 790.375,548.703 788.5,553.5C 785.799,554.869 783.299,554.536 781,552.5C 780.034,549.66 780.867,547.66 783.5,546.5 Z"/></g>
<g><path style="opacity:1" fill="#23201d" d="M 1759.5,545.5 C 1764.45,544.959 1769.12,545.792 1773.5,548C 1778.11,555.143 1776.78,560.809 1769.5,565C 1766.18,565.498 1762.85,565.665 1759.5,565.5C 1759.5,558.833 1759.5,552.167 1759.5,545.5 Z"/></g>
<g><path style="opacity:1" fill="#d3d9bb" d="M 1356.5,545.5 C 1364.16,543.996 1367.33,546.996 1366,554.5C 1363.31,557.439 1360.47,560.272 1357.5,563C 1360.88,563.176 1364.22,563.676 1367.5,564.5C 1362.83,565.833 1358.17,565.833 1353.5,564.5C 1356.86,561.06 1360.36,557.727 1364,554.5C 1365.83,548.333 1363.67,546.167 1357.5,548C 1356.3,548.903 1355.47,550.069 1355,551.5C 1354.25,549.16 1354.75,547.16 1356.5,545.5 Z"/></g>
<g><path style="opacity:1" fill="#dbdfca" d="M 1423.5,545.5 C 1424.82,548.428 1425.49,551.761 1425.5,555.5C 1425.17,558.833 1424.83,562.167 1424.5,565.5C 1423.51,560.544 1423.17,555.544 1423.5,550.5C 1416.83,549.833 1416.83,549.167 1423.5,548.5C 1423.5,547.5 1423.5,546.5 1423.5,545.5 Z"/></g>
<g><path style="opacity:1" fill="#441306" d="M 273.5,545.5 C 274.167,545.5 274.833,545.5 275.5,545.5C 279.061,548.44 279.395,551.773 276.5,555.5C 278.229,557.851 278.896,560.518 278.5,563.5C 277.29,563.932 276.29,564.599 275.5,565.5C 266.394,566.58 263.727,563.08 267.5,555C 265.541,552.706 265.207,550.206 266.5,547.5C 267.417,546.873 268.417,546.539 269.5,546.5C 270.568,545.566 271.901,545.232 273.5,545.5 Z"/></g>
<g><path style="opacity:1" fill="#e7861a" d="M 269.5,546.5 C 275.487,545.977 277.487,548.477 275.5,554C 268.254,555.274 266.254,552.774 269.5,546.5 Z"/></g>
<g><path style="opacity:1" fill="#e8e5e0" d="M 1761.5,547.5 C 1771.21,546.046 1775.38,550.046 1774,559.5C 1770.7,563.165 1766.54,564.498 1761.5,563.5C 1761.5,558.167 1761.5,552.833 1761.5,547.5 Z"/></g>
<g><path style="opacity:1" fill="#ee8b12" d="M 221.5,559.5 C 220.167,559.5 218.833,559.5 217.5,559.5C 217.5,558.5 217.5,557.5 217.5,556.5C 218.29,555.391 218.79,554.058 219,552.5C 220.067,551.809 221.234,551.309 222.5,551C 221.5,550.667 220.5,550.333 219.5,550C 220.747,548.506 220.747,547.006 219.5,545.5C 218.548,547.045 218.215,548.712 218.5,550.5C 216.167,550.5 213.833,550.5 211.5,550.5C 211.785,548.712 211.452,547.045 210.5,545.5C 209.935,547.544 208.935,549.21 207.5,550.5C 206.325,550.281 205.325,550.614 204.5,551.5C 205.993,552.141 206.993,553.141 207.5,554.5C 207.5,556.167 207.5,557.833 207.5,559.5C 206.448,559.351 205.448,559.517 204.5,560C 206.046,561.44 206.879,563.273 207,565.5C 207.232,564.263 207.732,563.263 208.5,562.5C 208.662,564.527 208.495,566.527 208,568.5C 205.595,567.726 203.095,567.226 200.5,567C 201.308,566.692 201.975,566.192 202.5,565.5C 202.906,562.265 202.239,559.098 200.5,556C 200.921,553.815 201.421,551.649 202,549.5C 205.323,547.179 208.823,545.179 212.5,543.5C 213.167,544.167 213.833,544.833 214.5,545.5C 217.084,544.607 219.751,544.274 222.5,544.5C 222.579,545.93 222.246,547.264 221.5,548.5C 222.853,549.524 223.52,550.857 223.5,552.5C 222.325,552.281 221.325,552.614 220.5,553.5C 220.316,555.415 220.65,557.415 221.5,559.5 Z"/></g>
<g><path style="opacity:1" fill="#99440e" d="M 207.5,550.5 C 208.686,551.961 208.686,553.295 207.5,554.5C 206.993,553.141 205.993,552.141 204.5,551.5C 205.325,550.614 206.325,550.281 207.5,550.5 Z"/></g>
<g><path style="opacity:1" fill="#a85b10" d="M 249.5,547.5 C 249.833,547.5 250.167,547.5 250.5,547.5C 250.5,549.833 250.5,552.167 250.5,554.5C 253.247,554.187 255.914,554.52 258.5,555.5C 258.376,556.107 258.043,556.44 257.5,556.5C 255.052,555.527 252.385,555.194 249.5,555.5C 249.5,552.833 249.5,550.167 249.5,547.5 Z"/></g>
<g><path style="opacity:1" fill="#431603" d="M 299.5,548.5 C 299.917,551.079 299.25,553.246 297.5,555C 298.373,556.045 299.373,556.878 300.5,557.5C 300.838,560.157 300.171,562.49 298.5,564.5C 294.906,565.426 291.24,565.759 287.5,565.5C 286.51,559.69 286.177,553.69 286.5,547.5C 287.694,546.223 289.36,545.556 291.5,545.5C 294.826,545.073 297.492,546.073 299.5,548.5 Z"/></g>
<g><path style="opacity:1" fill="#f18a1d" d="M 288.5,547.5 C 291.187,547.336 293.854,547.503 296.5,548C 299.167,550 299.167,552 296.5,554C 293.854,554.497 291.187,554.664 288.5,554.5C 288.5,552.167 288.5,549.833 288.5,547.5 Z"/></g>
<g><path style="opacity:1" fill="#321306" d="M 229.5,545.5 C 233.226,545.177 236.893,545.511 240.5,546.5C 237.572,547.484 234.572,547.817 231.5,547.5C 231.5,550.167 231.5,552.833 231.5,555.5C 242.167,555.833 242.167,556.167 231.5,556.5C 231.817,559.572 231.484,562.572 230.5,565.5C 229.503,558.866 229.17,552.2 229.5,545.5 Z"/></g>
<g><path style="opacity:1" fill="#2f170a" d="M 319.5,545.5 C 323.446,551.899 323.446,558.233 319.5,564.5C 317.393,565.468 315.059,565.802 312.5,565.5C 308.065,561.094 306.731,555.761 308.5,549.5C 311.195,545.989 314.862,544.656 319.5,545.5 Z"/></g>
<g><path style="opacity:1" fill="#f18912" d="M 311.5,547.5 C 318.12,546.123 321.453,548.79 321.5,555.5C 321.375,562.641 318.042,564.974 311.5,562.5C 308.916,557.503 308.916,552.503 311.5,547.5 Z"/></g>
<g><path style="opacity:1" fill="#1d1d07" d="M 802.5,546.5 C 811.099,544.44 813.432,547.44 809.5,555.5C 813.771,559.229 813.438,562.395 808.5,565C 806.167,565.667 803.833,565.667 801.5,565C 797.614,561.798 797.614,558.465 801.5,555C 799.556,552.847 799.056,550.347 800,547.5C 800.671,546.748 801.504,546.414 802.5,546.5 Z"/></g>
<g><path style="opacity:1" fill="#7f9013" d="M 802.5,546.5 C 808.487,545.977 810.487,548.477 808.5,554C 801.254,555.274 799.254,552.774 802.5,546.5 Z"/></g>
<g><path style="opacity:1" fill="#e5e1dd" d="M 1809.5,549.5 C 1810.38,549.369 1811.04,549.702 1811.5,550.5C 1812.31,552.915 1813.31,555.249 1814.5,557.5C 1811.83,558.833 1809.17,558.833 1806.5,557.5C 1807.51,554.812 1808.51,552.146 1809.5,549.5 Z"/></g>
<g><path style="opacity:1" fill="#b47a2b" d="M 257.5,556.5 C 255.167,557.167 252.833,557.833 250.5,558.5C 250.802,561.059 250.468,563.393 249.5,565.5C 249.5,562.5 249.5,559.5 249.5,556.5C 252.167,556.5 254.833,556.5 257.5,556.5 Z"/></g>
<g><path style="opacity:1" fill="#ee8c13" d="M 273.5,545.5 C 271.901,545.232 270.568,545.566 269.5,546.5C 268.417,546.539 267.417,546.873 266.5,547.5C 265.207,550.206 265.541,552.706 267.5,555C 263.727,563.08 266.394,566.58 275.5,565.5C 277.745,565.541 278.412,566.375 277.5,568C 269.69,569.77 264.69,566.936 262.5,559.5C 258.548,558.728 254.548,558.395 250.5,558.5C 252.833,557.833 255.167,557.167 257.5,556.5C 258.043,556.44 258.376,556.107 258.5,555.5C 255.914,554.52 253.247,554.187 250.5,554.5C 250.5,552.167 250.5,549.833 250.5,547.5C 253.698,548.036 256.365,547.369 258.5,545.5C 260.044,545.703 261.378,546.37 262.5,547.5C 263.736,546.754 265.07,546.421 266.5,546.5C 266.351,545.448 266.517,544.448 267,543.5C 268.796,544.767 270.629,544.767 272.5,543.5C 273.298,543.957 273.631,544.624 273.5,545.5 Z"/></g>
<g><path style="opacity:1" fill="#181704" d="M 831.5,554.5 C 830.849,557.803 829.182,560.47 826.5,562.5C 826.539,561.417 826.873,560.417 827.5,559.5C 821.177,559.017 818.344,555.684 819,549.5C 823.429,544.192 827.763,544.192 832,549.5C 832.78,551.387 832.613,553.054 831.5,554.5 Z"/></g>
<g><path style="opacity:1" fill="#7e8d0d" d="M 831.5,554.5 C 824.611,559.57 821.111,557.903 821,549.5C 827.248,545.039 830.748,546.706 831.5,554.5 Z"/></g>
<g><path style="opacity:1" fill="#1c1e04" d="M 846.5,545.5 C 847.376,545.369 848.043,545.702 848.5,546.5C 846.973,548.193 845.64,550.027 844.5,552C 853.266,552.41 855.599,556.41 851.5,564C 845.199,567.275 841.199,565.609 839.5,559C 841.222,554.131 843.555,549.631 846.5,545.5 Z"/></g>
<g><path style="opacity:1" fill="#829013" d="M 843.5,554.5 C 850.488,553.648 852.822,556.481 850.5,563C 845.876,565.511 842.542,564.344 840.5,559.5C 841.26,557.64 842.26,555.973 843.5,554.5 Z"/></g>
<g><path style="opacity:1" fill="#ebe8e3" d="M 1720.5,552.5 C 1722.83,552.5 1725.17,552.5 1727.5,552.5C 1727.17,554.5 1726.83,556.5 1726.5,558.5C 1724.17,558.5 1721.83,558.5 1719.5,558.5C 1719.52,556.435 1719.85,554.435 1720.5,552.5 Z"/></g>
<g><path style="opacity:1" fill="#f08e18" d="M 288.5,556.5 C 291.518,556.335 294.518,556.502 297.5,557C 298.833,559 298.833,561 297.5,563C 294.518,563.498 291.518,563.665 288.5,563.5C 288.5,561.167 288.5,558.833 288.5,556.5 Z"/></g>
<g><path style="opacity:1" fill="#829314" d="M 801.5,556.5 C 804.685,556.02 807.519,556.686 810,558.5C 810.667,559.833 810.667,561.167 810,562.5C 807.263,563.61 804.429,563.777 801.5,563C 800.395,560.88 800.395,558.713 801.5,556.5 Z"/></g>
<g><path style="opacity:1" fill="#d0d7b7" d="M 1333.5,545.5 C 1337.55,545.176 1341.55,545.509 1345.5,546.5C 1343.64,548.524 1341.98,550.691 1340.5,553C 1347.16,555.633 1348.16,559.633 1343.5,565C 1340.21,565.936 1337.21,565.436 1334.5,563.5C 1333.67,559.849 1334.34,559.682 1336.5,563C 1344.17,565.011 1346.17,562.678 1342.5,556C 1340.42,555.808 1338.42,555.308 1336.5,554.5C 1338.32,552.183 1340.32,550.016 1342.5,548C 1339.01,548.07 1336.01,547.237 1333.5,545.5 Z"/></g>
<g><path style="opacity:1" fill="#2d0c05" d="M 217.5,556.5 C 217.5,557.5 217.5,558.5 217.5,559.5C 218.833,559.5 220.167,559.5 221.5,559.5C 218.255,560.07 216.422,562.07 216,565.5C 215.506,563.866 215.34,562.199 215.5,560.5C 212.612,559.99 210.279,560.656 208.5,562.5C 207.732,563.263 207.232,564.263 207,565.5C 206.879,563.273 206.046,561.44 204.5,560C 205.448,559.517 206.448,559.351 207.5,559.5C 207.5,557.833 207.5,556.167 207.5,554.5C 208.686,553.295 208.686,551.961 207.5,550.5C 208.935,549.21 209.935,547.544 210.5,545.5C 211.452,547.045 211.785,548.712 211.5,550.5C 213.833,550.5 216.167,550.5 218.5,550.5C 218.215,548.712 218.548,547.045 219.5,545.5C 220.747,547.006 220.747,548.506 219.5,550C 220.5,550.333 221.5,550.667 222.5,551C 221.234,551.309 220.067,551.809 219,552.5C 218.79,554.058 218.29,555.391 217.5,556.5 Z"/></g>
<g><path style="opacity:1" fill="#9d4d0c" d="M 217.5,554.5 C 217.5,555.167 217.5,555.833 217.5,556.5C 216.596,557.209 216.263,558.209 216.5,559.5C 213.833,559.5 211.167,559.5 208.5,559.5C 208.263,558.209 208.596,557.209 209.5,556.5C 210.918,558.308 212.918,558.975 215.5,558.5C 215.229,556.62 215.896,555.287 217.5,554.5 Z"/></g>
<g><path style="opacity:1" fill="#ec840f" d="M 217.5,554.5 C 215.896,555.287 215.229,556.62 215.5,558.5C 212.918,558.975 210.918,558.308 209.5,556.5C 209.286,554.856 209.62,553.356 210.5,552C 212.81,551.503 215.143,551.337 217.5,551.5C 217.5,552.5 217.5,553.5 217.5,554.5 Z"/></g>
<g><path style="opacity:1" fill="#e7841b" d="M 268.5,556.5 C 271.685,556.02 274.519,556.686 277,558.5C 277.976,562.534 276.309,564.534 272,564.5C 266.676,563.526 265.509,560.859 268.5,556.5 Z"/></g>
<g><path style="opacity:1" fill="#141503" d="M 759.5,546.5 C 760.434,547.568 760.768,548.901 760.5,550.5C 762.833,550.5 765.167,550.5 767.5,550.5C 768.614,545.371 769.281,545.371 769.5,550.5C 770.552,550.351 771.552,550.517 772.5,551C 771.234,551.309 770.067,551.809 769,552.5C 768.689,554.556 768.189,556.556 767.5,558.5C 772.721,559.624 772.721,560.458 767.5,561C 765.215,566.88 764.549,566.714 765.5,560.5C 762.833,560.5 760.167,560.5 757.5,560.5C 757.785,562.288 757.452,563.955 756.5,565.5C 755.948,563.997 755.948,562.331 756.5,560.5C 755.325,560.719 754.325,560.386 753.5,559.5C 754.689,558.571 756.022,558.238 757.5,558.5C 757.674,556.139 758.007,553.806 758.5,551.5C 753.5,550.997 753.833,550.664 759.5,550.5C 759.5,549.167 759.5,547.833 759.5,546.5 Z"/></g>
<g><path style="opacity:1" fill="#717c0e" d="M 759.5,551.5 C 762.247,551.187 764.914,551.52 767.5,552.5C 766.626,554.747 766.292,557.08 766.5,559.5C 763.833,559.5 761.167,559.5 758.5,559.5C 759.092,556.873 759.425,554.206 759.5,551.5 Z"/></g>
<g><path style="opacity:1" fill="#d0d6b9" d="M 1314.5,545.5 C 1316.26,546.552 1316.92,548.219 1316.5,550.5C 1318.83,550.5 1321.17,550.5 1323.5,550.5C 1323.21,548.712 1323.55,547.045 1324.5,545.5C 1325.08,547.637 1326.08,549.47 1327.5,551C 1326.55,551.483 1325.55,551.649 1324.5,551.5C 1324.01,553.806 1323.67,556.139 1323.5,558.5C 1324.98,558.238 1326.31,558.571 1327.5,559.5C 1325.95,560.452 1324.29,560.785 1322.5,560.5C 1322.5,562.167 1322.5,563.833 1322.5,565.5C 1321.45,565.649 1320.45,565.483 1319.5,565C 1320.38,563.644 1320.71,562.144 1320.5,560.5C 1318.17,560.5 1315.83,560.5 1313.5,560.5C 1312.26,567.008 1311.59,567.008 1311.5,560.5C 1310.32,560.719 1309.32,560.386 1308.5,559.5C 1312.38,558.745 1314.04,556.412 1313.5,552.5C 1312.02,552.762 1310.69,552.429 1309.5,551.5C 1311.05,550.548 1312.71,550.215 1314.5,550.5C 1314.5,548.833 1314.5,547.167 1314.5,545.5 Z"/></g>
<g><path style="opacity:1" fill="#363d1b" d="M 1315.5,552.5 C 1317.83,552.5 1320.17,552.5 1322.5,552.5C 1322.17,554.5 1321.83,556.5 1321.5,558.5C 1319.17,558.5 1316.83,558.5 1314.5,558.5C 1314.52,556.435 1314.85,554.435 1315.5,552.5 Z"/></g>
<g><path style="opacity:1" fill="#32302d" d="M 1783.5,545.5 C 1787.55,545.176 1791.55,545.509 1795.5,546.5C 1792.23,547.487 1788.9,547.82 1785.5,547.5C 1785.5,549.833 1785.5,552.167 1785.5,554.5C 1797.5,555.167 1797.5,555.833 1785.5,556.5C 1785.5,558.833 1785.5,561.167 1785.5,563.5C 1789.23,563.177 1792.89,563.511 1796.5,564.5C 1792.22,565.492 1787.88,565.826 1783.5,565.5C 1783.5,558.833 1783.5,552.167 1783.5,545.5 Z"/></g>
<g><path style="opacity:1" fill="#22201e" d="M 1850.5,545.5 C 1851.38,545.369 1852.04,545.702 1852.5,546.5C 1850.19,550.777 1848.19,555.11 1846.5,559.5C 1849.17,559.5 1851.83,559.5 1854.5,559.5C 1854.83,550.167 1855.17,550.167 1855.5,559.5C 1859.5,559.833 1859.5,560.167 1855.5,560.5C 1855.34,566.167 1855,566.5 1854.5,561.5C 1850.83,561.5 1847.17,561.5 1843.5,561.5C 1845.81,556.208 1848.14,550.874 1850.5,545.5 Z"/></g>
<g><path style="opacity:1" fill="#220200" d="M 249.5,547.5 C 249.5,550.167 249.5,552.833 249.5,555.5C 252.385,555.194 255.052,555.527 257.5,556.5C 254.833,556.5 252.167,556.5 249.5,556.5C 249.5,559.5 249.5,562.5 249.5,565.5C 249.167,565.5 248.833,565.5 248.5,565.5C 248.167,558.738 248.5,552.738 249.5,547.5 Z"/></g>
<g><path style="opacity:1" fill="#f08d14" d="M 286.5,547.5 C 286.177,553.69 286.51,559.69 287.5,565.5C 287.631,566.376 287.298,567.043 286.5,567.5C 285.311,562.946 282.645,561.613 278.5,563.5C 278.896,560.518 278.229,557.851 276.5,555.5C 279.395,551.773 279.061,548.44 275.5,545.5C 275.811,544.522 276.478,543.855 277.5,543.5C 279.115,544.154 280.782,544.654 282.5,545C 283.38,546.356 283.714,547.856 283.5,549.5C 280.611,550.049 278.944,551.882 278.5,555C 279.487,557.994 280.82,558.161 282.5,555.5C 283.192,556.025 283.692,556.692 284,557.5C 284.026,553.821 284.86,550.488 286.5,547.5 Z"/></g>
<g><path style="opacity:1" fill="#78801e" d="M 788.5,557.5 C 791.326,560.048 790.993,562.215 787.5,564C 782.647,565.13 780.147,563.296 780,558.5C 782.681,555.189 785.515,554.855 788.5,557.5 Z"/></g>
<g><path style="opacity:1" fill="#879903" d="M 788.5,557.5 C 788.5,559.167 788.5,560.833 788.5,562.5C 786.011,562.702 783.677,562.202 781.5,561C 782.833,560.333 782.833,559.667 781.5,559C 783.74,558.023 786.073,557.523 788.5,557.5 Z"/></g>
<g><path style="opacity:1" fill="#2d2a27" d="M 1741.5,563.5 C 1744.83,564.167 1748.17,564.833 1751.5,565.5C 1747.5,565.5 1743.5,565.5 1739.5,565.5C 1739.5,558.833 1739.5,552.167 1739.5,545.5C 1743.55,545.176 1747.55,545.509 1751.5,546.5C 1748.23,547.487 1744.9,547.82 1741.5,547.5C 1741.5,549.833 1741.5,552.167 1741.5,554.5C 1753.5,555.167 1753.5,555.833 1741.5,556.5C 1741.5,558.833 1741.5,561.167 1741.5,563.5 Z"/></g>
<g><path style="opacity:1" fill="#67645f" d="M 1741.5,563.5 C 1745.23,563.177 1748.89,563.511 1752.5,564.5C 1752.38,565.107 1752.04,565.44 1751.5,565.5C 1748.17,564.833 1744.83,564.167 1741.5,563.5 Z"/></g>
<g><path style="opacity:1" fill="#64615c" d="M 1827.5,563.5 C 1831.23,563.177 1834.89,563.511 1838.5,564.5C 1838.38,565.107 1838.04,565.44 1837.5,565.5C 1834.17,564.833 1830.83,564.167 1827.5,563.5 Z"/></g>
<g><path style="opacity:1" fill="#191e01" d="M 826.5,562.5 C 826.489,564.686 825.489,565.519 823.5,565C 824.373,563.955 825.373,563.122 826.5,562.5 Z"/></g>
<g><path style="opacity:1" fill="#1d1d0a" d="M 863.5,545.5 C 873.655,544.83 877.489,549.496 875,559.5C 873.124,565.322 869.291,566.989 863.5,564.5C 859.549,558.074 859.549,551.741 863.5,545.5 Z"/></g>
<g><path style="opacity:1" fill="#85950d" d="M 864.5,547.5 C 866.857,547.337 869.19,547.503 871.5,548C 874.098,552.972 874.098,557.972 871.5,563C 864.502,565.006 861.502,562.34 862.5,555C 862.41,552.256 863.077,549.756 864.5,547.5 Z"/></g>
<g><path style="opacity:1" fill="#d1d8b8" d="M 1399.5,545.5 C 1404.45,544.628 1408.61,545.961 1412,549.5C 1412.13,553.103 1411.3,552.936 1409.5,549C 1399.92,545.264 1395.42,548.431 1396,558.5C 1398.44,563.224 1402.27,564.724 1407.5,563C 1409.5,562.333 1410.83,561 1411.5,559C 1412.33,558.312 1413,558.479 1413.5,559.5C 1409.95,565.075 1404.95,566.908 1398.5,565C 1391.61,558.024 1391.94,551.524 1399.5,545.5 Z"/></g>
<g><path style="opacity:1" fill="#ec8a0f" d="M 330.5,550.5 C 330.052,555.041 330.719,559.374 332.5,563.5C 341.174,567.309 345.507,564.309 345.5,554.5C 345.094,550.678 343.427,547.678 340.5,545.5C 344.455,544.921 347.455,546.254 349.5,549.5C 348.675,550.386 347.675,550.719 346.5,550.5C 346.784,553.777 346.451,556.943 345.5,560C 347.577,560.192 349.577,560.692 351.5,561.5C 343.812,563.798 343.812,565.132 351.5,565.5C 351.719,566.675 351.386,567.675 350.5,568.5C 346.521,567.503 342.521,567.003 338.5,567C 338.167,567.333 337.833,567.667 337.5,568C 340.559,568.058 342.892,569.391 344.5,572C 343.57,572.991 342.404,573.491 341,573.5C 339.175,573.057 337.342,572.723 335.5,572.5C 335.374,569.532 333.874,567.532 331,566.5C 330.255,564.797 329.421,563.13 328.5,561.5C 330.107,559.358 329.773,557.691 327.5,556.5C 326.614,557.325 326.281,558.325 326.5,559.5C 325.5,559.5 324.5,559.5 323.5,559.5C 324.244,562.95 322.91,564.616 319.5,564.5C 323.446,558.233 323.446,551.899 319.5,545.5C 320.822,545.67 321.989,545.337 323,544.5C 323.333,545.167 323.667,545.833 324,546.5C 325.036,543.706 326.536,543.206 328.5,545C 324.818,547.346 324.652,549.846 328,552.5C 328.417,551.244 329.25,550.577 330.5,550.5 Z"/></g>
<g><path style="opacity:1" fill="#41160d" d="M 340.5,545.5 C 343.427,547.678 345.094,550.678 345.5,554.5C 345.507,564.309 341.174,567.309 332.5,563.5C 330.719,559.374 330.052,555.041 330.5,550.5C 332.474,546.207 335.807,544.54 340.5,545.5 Z"/></g>
<g><path style="opacity:1" fill="#d28622" d="M 332.5,551.5 C 332.337,553.857 332.503,556.19 333,558.5C 334.706,559.308 335.539,560.641 335.5,562.5C 336.873,562.657 338.207,562.49 339.5,562C 340.078,560.583 341.078,559.75 342.5,559.5C 342.67,560.822 342.337,561.989 341.5,563C 337.219,564.458 334.053,563.292 332,559.5C 331.199,556.633 331.366,553.966 332.5,551.5 Z"/></g>
<g><path style="opacity:1" fill="#f68b0c" d="M 342.5,559.5 C 341.078,559.75 340.078,560.583 339.5,562C 338.207,562.49 336.873,562.657 335.5,562.5C 335.539,560.641 334.706,559.308 333,558.5C 332.503,556.19 332.337,553.857 332.5,551.5C 332.511,549.983 333.177,548.816 334.5,548C 340.932,546.302 343.932,548.802 343.5,555.5C 343.489,557.045 343.156,558.378 342.5,559.5 Z"/></g>
</svg>
