<?xml version="1.0" encoding="UTF-8"?>
<!DOCTYPE svg PUBLIC "-//W3C//DTD SVG 1.1//EN" "http://www.w3.org/Graphics/SVG/1.1/DTD/svg11.dtd">
<svg xmlns="http://www.w3.org/2000/svg" version="1.1" width="4000px" height="4000px" style="shape-rendering:geometricPrecision; text-rendering:geometricPrecision; image-rendering:optimizeQuality; fill-rule:evenodd; clip-rule:evenodd" xmlns:xlink="http://www.w3.org/1999/xlink">
<g><path style="opacity:0.999" fill="#0eb9c5" d="M 2506.5,611.5 C 2388.51,612.312 2270.51,612.812 2152.5,613C 2148.88,613.284 2146.38,615.117 2145,618.5C 2144.67,1281.17 2144.33,1943.83 2144,2606.5C 2143.06,2652.22 2134.06,2696.22 2117,2738.5C 2063.02,2877.81 1963.19,2964.31 1817.5,2998C 1663.05,3031.28 1530.89,2991.78 1421,2879.5C 1413.67,2871.5 1406.33,2863.5 1399,2855.5C 1396.94,2852.71 1395.44,2849.71 1394.5,2846.5C 1482.62,2887.14 1574.29,2897.97 1669.5,2879C 1777.16,2852.46 1863,2794.3 1927,2704.5C 1970.07,2638.3 1993.73,2565.63 1998,2486.5C 1998.33,1822.5 1998.67,1158.5 1999,494.5C 1999.5,493.333 2000.33,492.5 2001.5,492C 2004.82,491.392 2008.15,490.892 2011.5,490.5C 2172.82,491.328 2334.16,491.828 2495.5,492C 2496.93,492.465 2498.1,493.299 2499,494.5C 2499.31,519.51 2499.98,544.51 2501,569.5C 2501.86,583.651 2503.69,597.651 2506.5,611.5 Z"/></g>
<g><path style="opacity:0.994" fill="#ea1654" d="M 2815.5,1072.5 C 2797.92,1062.99 2780.92,1051.82 2764.5,1039C 2626.46,929.32 2540.46,787.653 2506.5,614C 2506.74,613.098 2507.08,612.265 2507.5,611.5C 2551.49,610.419 2595.49,610.252 2639.5,611C 2643.33,612.475 2645.33,615.309 2645.5,619.5C 2642.87,698.723 2655.7,775.39 2684,849.5C 2713.72,929.339 2756.39,1001.01 2812,1064.5C 2813.99,1066.82 2815.16,1069.48 2815.5,1072.5 Z"/></g>
<g><path style="opacity:1" fill="#fefefe" d="M 2506.5,611.5 C 2506.83,611.5 2507.17,611.5 2507.5,611.5C 2507.08,612.265 2506.74,613.098 2506.5,614C 2540.46,787.653 2626.46,929.32 2764.5,1039C 2780.92,1051.82 2797.92,1062.99 2815.5,1072.5C 2822.06,1077.61 2828.39,1082.94 2834.5,1088.5C 2834.06,1088.43 2833.73,1088.6 2833.5,1089C 2840.76,1098.27 2848.76,1106.93 2857.5,1115C 2941.2,1193.21 3038.54,1248.21 3149.5,1280C 3163.38,1283.8 3177.38,1286.97 3191.5,1289.5C 3192.17,1289.5 3192.5,1289.83 3192.5,1290.5C 3191.67,1418.81 3191.17,1547.15 3191,1675.5C 3190.89,1677.85 3189.72,1679.35 3187.5,1680C 2953.65,1677.95 2738.65,1614.28 2542.5,1489C 2530.82,1481.49 2519.48,1473.49 2508.5,1465C 2505.61,1463.85 2502.61,1463.35 2499.5,1463.5C 2499.48,1783.35 2499.48,2103.18 2499.5,2423C 2506.2,2629.08 2452.7,2817.58 2339,2988.5C 2227.12,3147.39 2080.29,3261.55 1898.5,3331C 1658.81,3415 1423.48,3405.33 1192.5,3302C 1157.91,3285.71 1124.58,3267.38 1092.5,3247C 1090.06,3245.61 1087.73,3245.44 1085.5,3246.5C 1077.24,3240.57 1069.57,3233.91 1062.5,3226.5C 1062.94,3226.57 1063.27,3226.4 1063.5,3226C 897.786,3049.4 812.453,2839.07 807.5,2595C 809.213,2374.16 879.046,2178.66 1017,2008.5C 1178.57,1818.28 1383.74,1708.78 1632.5,1680C 1656.96,1677.7 1681.29,1675.87 1705.5,1674.5C 1706.17,1674.5 1706.5,1674.83 1706.5,1675.5C 1705.85,1805.87 1705.18,1936.2 1704.5,2066.5C 1701.89,2067.65 1699.23,2067.82 1696.5,2067C 1586.53,2036.4 1480.86,2047.4 1379.5,2100C 1264.72,2164.84 1193.55,2262.01 1166,2391.5C 1140.3,2562.81 1195.13,2701.64 1330.5,2808C 1348.3,2820.9 1367.3,2831.73 1387.5,2840.5C 1389.83,2842.5 1392.17,2844.5 1394.5,2846.5C 1395.44,2849.71 1396.94,2852.71 1399,2855.5C 1406.33,2863.5 1413.67,2871.5 1421,2879.5C 1530.89,2991.78 1663.05,3031.28 1817.5,2998C 1963.19,2964.31 2063.02,2877.81 2117,2738.5C 2134.06,2696.22 2143.06,2652.22 2144,2606.5C 2144.33,1943.83 2144.67,1281.17 2145,618.5C 2146.38,615.117 2148.88,613.284 2152.5,613C 2270.51,612.812 2388.51,612.312 2506.5,611.5 Z"/></g>
<g><path style="opacity:0.994" fill="#0eb9c5" d="M 2834.5,1088.5 C 2836.2,1088.34 2837.87,1088.51 2839.5,1089C 2947.75,1151.52 3064.41,1183.52 3189.5,1185C 3191,1186.49 3191.84,1188.32 3192,1190.5C 3192.08,1223.5 3191.91,1256.5 3191.5,1289.5C 3177.38,1286.97 3163.38,1283.8 3149.5,1280C 3038.54,1248.21 2941.2,1193.21 2857.5,1115C 2848.76,1106.93 2840.76,1098.27 2833.5,1089C 2833.73,1088.6 2834.06,1088.43 2834.5,1088.5 Z"/></g>
<g><path style="opacity:0.998" fill="#ea1654" d="M 3192.5,1290.5 C 3218.48,1294.11 3244.48,1297.61 3270.5,1301C 3290.46,1302.82 3310.46,1303.82 3330.5,1304C 3333.49,1304.41 3335.66,1305.91 3337,1308.5C 3337.67,1470.17 3337.67,1631.83 3337,1793.5C 3336.77,1795.78 3335.93,1797.78 3334.5,1799.5C 3109.42,1799.96 2901.09,1741.46 2709.5,1624C 2687.91,1609.96 2666.41,1595.79 2645,1581.5C 2644.34,1780.5 2644.5,1979.5 2645.5,2178.5C 2644.91,2328.5 2644.41,2478.5 2644,2628.5C 2635.18,2824.32 2571.18,2999.32 2452,3153.5C 2322.68,3317.49 2156.51,3426.32 1953.5,3480C 1769.86,3524.45 1588.86,3515.45 1410.5,3453C 1296.47,3410.81 1194.8,3349.14 1105.5,3268C 1098.24,3261.24 1091.57,3254.08 1085.5,3246.5C 1087.73,3245.44 1090.06,3245.61 1092.5,3247C 1124.58,3267.38 1157.91,3285.71 1192.5,3302C 1423.48,3405.33 1658.81,3415 1898.5,3331C 2080.29,3261.55 2227.12,3147.39 2339,2988.5C 2452.7,2817.58 2506.2,2629.08 2499.5,2423C 2499.48,2103.18 2499.48,1783.35 2499.5,1463.5C 2502.61,1463.35 2505.61,1463.85 2508.5,1465C 2519.48,1473.49 2530.82,1481.49 2542.5,1489C 2738.65,1614.28 2953.65,1677.95 3187.5,1680C 3189.72,1679.35 3190.89,1677.85 3191,1675.5C 3191.17,1547.15 3191.67,1418.81 3192.5,1290.5 Z"/></g>
<g><path style="opacity:0.997" fill="#0db9c5" d="M 1705.5,1674.5 C 1681.29,1675.87 1656.96,1677.7 1632.5,1680C 1383.74,1708.78 1178.57,1818.28 1017,2008.5C 879.046,2178.66 809.213,2374.16 807.5,2595C 812.453,2839.07 897.786,3049.4 1063.5,3226C 1063.27,3226.4 1062.94,3226.57 1062.5,3226.5C 1051.06,3221.28 1040.39,3214.78 1030.5,3207C 957.59,3150.76 893.423,3085.92 838,3012.5C 694.101,2809.9 638.434,2584.9 671,2337.5C 708.051,2105.48 815.884,1914.31 994.5,1764C 1165.02,1625.98 1360.69,1556.14 1581.5,1554.5C 1620.66,1554.5 1659.66,1557 1698.5,1562C 1702.53,1562.43 1705.03,1564.59 1706,1568.5C 1705.97,1603.83 1705.81,1639.16 1705.5,1674.5 Z"/></g>
<g><path style="opacity:0.998" fill="#ea1754" d="M 1387.5,2840.5 C 1367.3,2831.73 1348.3,2820.9 1330.5,2808C 1195.13,2701.64 1140.3,2562.81 1166,2391.5C 1193.55,2262.01 1264.72,2164.84 1379.5,2100C 1480.86,2047.4 1586.53,2036.4 1696.5,2067C 1699.23,2067.82 1701.89,2067.65 1704.5,2066.5C 1705.18,1936.2 1705.85,1805.87 1706.5,1675.5C 1753.36,1673.31 1800.02,1675.47 1846.5,1682C 1848.29,1682.78 1849.79,1683.95 1851,1685.5C 1851.17,1849.68 1851.67,2013.84 1852.5,2178C 1852.36,2180.9 1851.86,2183.73 1851,2186.5C 1850.16,2187.62 1848.99,2188.29 1847.5,2188.5C 1679.03,2144.82 1534.19,2184.82 1413,2308.5C 1341.38,2389.14 1305.21,2483.81 1304.5,2592.5C 1304.97,2659.71 1320.8,2723.04 1352,2782.5C 1363.09,2802.36 1374.92,2821.7 1387.5,2840.5 Z"/></g>
</svg>
